<svg width="88" height="66" viewBox="0 0 88 66" fill="none" xmlns="http://www.w3.org/2000/svg">
<path d="M33 0.5H55C72.9493 0.5 87.5 15.0507 87.5 33C87.5 50.9493 72.9493 65.5 55 65.5H33C15.0507 65.5 0.5 50.9493 0.5 33C0.500001 15.0507 15.0507 0.500001 33 0.5Z" fill="white" fill-opacity="0.7" stroke="#738297"/>
<path d="M54.9334 14.3307C54.9485 14.257 55.0538 14.257 55.0689 14.3307C55.8512 18.1581 58.8423 21.1492 62.6697 21.9315C62.7434 21.9465 62.7434 22.0519 62.6697 22.067C58.8423 22.8492 55.8512 25.8403 55.0689 29.6677C55.0538 29.7415 54.9485 29.7415 54.9334 29.6677C54.1511 25.8403 51.16 22.8492 47.3327 22.067C47.2589 22.0519 47.2589 21.9465 47.3327 21.9315C51.16 21.1492 54.1511 18.1581 54.9334 14.3307Z" stroke="#A8CDFF" stroke-width="3"/>
<path d="M63.4413 9.75215C63.5665 9.13991 64.4413 9.13991 64.5664 9.75215C64.8428 11.1043 65.8995 12.1611 67.2517 12.4374C67.8639 12.5626 67.8639 13.4374 67.2517 13.5625C65.8995 13.8389 64.8428 14.8956 64.5664 16.2478C64.4413 16.86 63.5665 16.86 63.4413 16.2478C63.165 14.8956 62.1082 13.8389 60.7561 13.5625C60.1438 13.4374 60.1438 12.5626 60.7561 12.4374C62.1082 12.1611 63.165 11.1043 63.4413 9.75215Z" fill="#A8CDFF"/>
<path d="M42.2305 22C41.4568 22.1298 40.7104 22.3398 40 22.6211C35.8999 24.2449 33 28.2455 33 32.9234C33 39.0409 37.9592 44 44.0766 44C48.7545 44 52.7551 41.1002 54.3789 37C54.6602 36.2896 54.8702 35.5432 55 34.7695M47.8 14.3801C46.5722 14.1308 45.3014 14 44 14C33.5066 14 25 22.5066 25 33C25 43.4934 33.5066 52 44 52C54.4934 52 63 43.4934 63 33C63 31.3598 62.7922 29.7682 62.4014 28.25M47.5 33C47.5 34.933 45.933 36.5 44 36.5C42.067 36.5 40.5 34.933 40.5 33C40.5 31.067 42.067 29.5 44 29.5C45.933 29.5 47.5 31.067 47.5 33Z" stroke="#738297" stroke-width="3" stroke-linecap="round"/>
<path d="M33 0.5H55C72.9493 0.5 87.5 15.0507 87.5 33C87.5 50.9493 72.9493 65.5 55 65.5H33C15.0507 65.5 0.5 50.9493 0.5 33C0.500001 15.0507 15.0507 0.500001 33 0.5Z" fill="white" fill-opacity="0.7" stroke="#738297"/>
<path d="M54.9334 14.3307C54.9485 14.257 55.0538 14.257 55.0689 14.3307C55.8512 18.1581 58.8423 21.1492 62.6697 21.9315C62.7434 21.9465 62.7434 22.0519 62.6697 22.067C58.8423 22.8492 55.8512 25.8403 55.0689 29.6677C55.0538 29.7415 54.9485 29.7415 54.9334 29.6677C54.1511 25.8403 51.16 22.8492 47.3327 22.067C47.2589 22.0519 47.2589 21.9465 47.3327 21.9315C51.16 21.1492 54.1511 18.1581 54.9334 14.3307Z" stroke="#A8CDFF" stroke-width="3"/>
<path d="M63.4413 9.75215C63.5665 9.13991 64.4413 9.13991 64.5664 9.75215C64.8428 11.1043 65.8995 12.1611 67.2517 12.4374C67.8639 12.5626 67.8639 13.4374 67.2517 13.5625C65.8995 13.8389 64.8428 14.8956 64.5664 16.2478C64.4413 16.86 63.5665 16.86 63.4413 16.2478C63.165 14.8956 62.1082 13.8389 60.7561 13.5625C60.1438 13.4374 60.1438 12.5626 60.7561 12.4374C62.1082 12.1611 63.165 11.1043 63.4413 9.75215Z" fill="#A8CDFF"/>
<path d="M42.2305 22C41.4568 22.1298 40.7104 22.3398 40 22.6211C35.8999 24.2449 33 28.2455 33 32.9234C33 39.0409 37.9592 44 44.0766 44C48.7545 44 52.7551 41.1002 54.3789 37C54.6602 36.2896 54.8702 35.5432 55 34.7695M47.8 14.3801C46.5722 14.1308 45.3014 14 44 14C33.5066 14 25 22.5066 25 33C25 43.4934 33.5066 52 44 52C54.4934 52 63 43.4934 63 33C63 31.3598 62.7922 29.7682 62.4014 28.25M47.5 33C47.5 34.933 45.933 36.5 44 36.5C42.067 36.5 40.5 34.933 40.5 33C40.5 31.067 42.067 29.5 44 29.5C45.933 29.5 47.5 31.067 47.5 33Z" stroke="#738297" stroke-width="3" stroke-linecap="round"/>
</svg>
