<svg width="257" height="256" viewBox="0 0 257 256" fill="none" xmlns="http://www.w3.org/2000/svg">
<circle cx="158.555" cy="157.207" r="25.5" transform="rotate(45 158.555 157.207)" fill="#A1BCD1" stroke="#A1BCD1"/>
<path d="M192.477 99.2032C192.477 99.2032 192.918 106.87 190.355 113.345C187.548 120.438 184.719 123.265 184.719 123.265L188.961 127.508L204.871 111.598L192.477 99.2032Z" fill="#A1BCD1" stroke="#A1BCD1"/>
<path d="M159.968 131.749C159.968 131.749 167.989 131.838 174.465 129.275C181.557 126.468 184.384 123.638 184.384 123.638L188.627 127.881L172.717 143.791L159.968 131.749Z" fill="#A1BCD1" stroke="#A1BCD1"/>
<circle cx="26" cy="26" r="25.5" transform="matrix(-0.707107 -0.707107 -0.707107 0.707107 254.723 97.8086)" fill="#A1BCD1" stroke="#A1BCD1"/>
<circle cx="26" cy="26" r="25.5" transform="matrix(-0.707107 -0.707107 -0.707107 0.707107 195.324 157.205)" fill="#A1BCD1" stroke="#A1BCD1"/>
<path d="M216.559 123.285C216.559 123.285 208.892 122.844 202.416 125.406C195.324 128.213 192.497 131.043 192.497 131.043L188.254 126.801L204.164 110.891L216.559 123.285Z" fill="#A1BCD1" stroke="#A1BCD1"/>
<path d="M184.012 155.792C184.012 155.792 183.924 147.771 186.487 141.295C189.293 134.203 192.123 131.376 192.123 131.376L187.881 127.133L171.971 143.043L184.012 155.792Z" fill="#A1BCD1" stroke="#A1BCD1"/>
<circle cx="26" cy="26" r="25.5" transform="matrix(0.707107 -0.707107 -0.707107 -0.707107 158.555 75.1797)" fill="#A1BCD1" stroke="#A1BCD1"/>
<path d="M192.477 96.414C192.477 96.414 192.918 88.7474 190.355 82.2718C187.548 75.1793 184.719 72.3523 184.719 72.3523L188.961 68.1096L204.871 84.0195L192.477 96.414Z" fill="#A1BCD1" stroke="#A1BCD1"/>
<path d="M159.968 63.8677C159.968 63.8677 167.989 63.7792 174.465 66.342C181.557 69.1489 184.384 71.9788 184.384 71.9788L188.627 67.7361L172.717 51.8262L159.968 63.8677Z" fill="#A1BCD1" stroke="#A1BCD1"/>
<circle cx="158.555" cy="38.4102" r="25.5" transform="rotate(135 158.555 38.4102)" fill="#A1BCD1" stroke="#A1BCD1"/>
<path d="M216.559 72.3321C216.559 72.3321 208.892 72.7736 202.416 70.2108C195.324 67.4038 192.497 64.574 192.497 64.574L188.254 68.8167L204.164 84.7266L216.559 72.3321Z" fill="#A1BCD1" stroke="#A1BCD1"/>
<path d="M184.012 39.8256C184.012 39.8256 183.924 47.8464 186.487 54.3219C189.293 61.4145 192.123 64.2415 192.123 64.2415L187.881 68.4842L171.971 52.5743L184.012 39.8256Z" fill="#A1BCD1" stroke="#A1BCD1"/>
<path d="M184.719 123.971C184.719 123.971 193.558 112.303 192.498 97.1006C191.437 81.8979 187.901 76.9481 187.901 76.9481" stroke="#A1BCD1"/>
<path d="M173.401 130.321C174.428 130.22 179.452 127.93 183.308 123.964C185.628 121.578 187.067 118.126 188.25 115.471C190.636 110.117 192.144 103.82 191.789 98.5157C191.63 96.1385 191.962 90.0059 190.375 85.0806C189.777 83.2245 189.389 81.4564 188.607 79.7773C186.835 75.9704 184.199 73.2481 183.657 72.7063C180.542 69.5912 178.124 67.8079 174.111 65.9888" stroke="#A1BCD1"/>
<rect width="5" height="2" transform="matrix(-0.707107 -0.707107 -0.707107 0.707107 186.133 73.0605)" fill="#A1BCD1"/>
<circle cx="26" cy="26" r="25.5" transform="matrix(-0.707107 -0.707107 -0.707107 0.707107 75.8242 98.5176)" fill="#09142F" stroke="#09142F"/>
<path d="M97.0585 64.5956C97.0585 64.5956 89.3919 64.1542 82.9164 66.7169C75.8238 69.5239 72.9968 72.3537 72.9968 72.3537L68.7542 68.1111L84.6641 52.2012L97.0585 64.5956Z" fill="#09142F" stroke="#09142F"/>
<path d="M64.5123 97.1021C64.5123 97.1021 64.4238 89.0813 66.9865 82.6058C69.7935 75.5133 72.6233 72.6862 72.6233 72.6862L68.3806 68.4436L52.4707 84.3535L64.5123 97.1021Z" fill="#09142F" stroke="#09142F"/>
<circle cx="98.4531" cy="39.1192" r="25.5" transform="rotate(45 98.4531 39.1192)" fill="#09142F" stroke="#09142F"/>
<circle cx="39.0547" cy="98.5156" r="25.5" transform="rotate(45 39.0547 98.5156)" fill="#09142F" stroke="#09142F"/>
<path d="M72.9767 40.5118C72.9767 40.5118 73.4181 48.1784 70.8553 54.6539C68.0484 61.7465 65.2186 64.5735 65.2186 64.5735L69.4612 68.8162L85.3711 52.9062L72.9767 40.5118Z" fill="#09142F" stroke="#09142F"/>
<path d="M40.4682 73.058C40.4682 73.058 48.489 73.1466 54.9645 70.5838C62.0571 67.7768 64.8841 64.947 64.8841 64.947L69.1267 69.1897L53.2168 85.0996L40.4682 73.058Z" fill="#09142F" stroke="#09142F"/>
<circle cx="157.852" cy="98.5176" r="25.5" transform="rotate(-45 157.852 98.5176)" fill="#09142F" stroke="#09142F"/>
<path d="M99.8477 64.5956C99.8477 64.5956 107.514 64.1542 113.99 66.7169C121.082 69.5239 123.909 72.3537 123.909 72.3537L128.152 68.1111L112.242 52.2012L99.8477 64.5956Z" fill="#09142F" stroke="#09142F"/>
<path d="M132.394 97.1021C132.394 97.1021 132.482 89.0813 129.92 82.6058C127.113 75.5133 124.283 72.6862 124.283 72.6862L128.526 68.4436L144.436 84.3535L132.394 97.1021Z" fill="#09142F" stroke="#09142F"/>
<circle cx="26" cy="26" r="25.5" transform="matrix(-0.707107 0.707107 0.707107 0.707107 157.852 61.748)" fill="#09142F" stroke="#09142F"/>
<path d="M123.93 40.5138C123.93 40.5138 123.488 48.1804 126.051 54.6559C128.858 61.7484 131.688 64.5755 131.688 64.5755L127.445 68.8181L111.535 52.9082L123.93 40.5138Z" fill="#09142F" stroke="#09142F"/>
<path d="M156.438 73.06C156.438 73.06 148.417 73.1485 141.942 70.5858C134.849 67.7788 132.022 64.949 132.022 64.949L127.78 69.1916L143.689 85.1015L156.438 73.06Z" fill="#09142F" stroke="#09142F"/>
<path d="M72.2891 72.3529C72.2891 72.3529 83.9563 63.514 99.1591 64.5747C114.362 65.6353 119.312 69.1709 119.312 69.1709" stroke="#09142F"/>
<path d="M65.9388 83.6694C66.0396 82.6426 68.3294 77.6185 72.2954 73.7625C74.6819 71.4422 78.1341 70.0037 80.7885 68.8206C86.1426 66.4343 92.4399 64.9267 97.7441 65.2811C100.121 65.44 106.254 65.1078 111.179 66.6954C113.035 67.2936 114.803 67.6814 116.482 68.4631C120.289 70.2355 123.012 72.871 123.553 73.4129C126.669 76.5279 128.452 78.9467 130.271 82.9588" stroke="#09142F"/>
<rect x="123.203" y="70.9395" width="5" height="2" transform="rotate(45 123.203 70.9395)" fill="#09142F"/>
<circle cx="97.7461" cy="99.2226" r="25.5" transform="rotate(-135 97.7461 99.2226)" fill="#A1BCD1" stroke="#A1BCD1"/>
<path d="M63.8241 157.226C63.8241 157.226 63.3827 149.56 65.9455 143.084C68.7524 135.992 71.5822 133.165 71.5822 133.165L67.3396 128.922L51.4297 144.832L63.8241 157.226Z" fill="#A1BCD1" stroke="#A1BCD1"/>
<path d="M96.3326 124.68C96.3326 124.68 88.3118 124.592 81.8363 127.154C74.7437 129.961 71.9167 132.791 71.9167 132.791L67.674 128.549L83.5839 112.639L96.3326 124.68Z" fill="#A1BCD1" stroke="#A1BCD1"/>
<circle cx="26" cy="26" r="25.5" transform="matrix(0.707107 0.707107 0.707107 -0.707107 1.57812 158.621)" fill="#A1BCD1" stroke="#A1BCD1"/>
<circle cx="26" cy="26" r="25.5" transform="matrix(0.707107 0.707107 0.707107 -0.707107 60.9766 99.2246)" fill="#A1BCD1" stroke="#A1BCD1"/>
<path d="M39.7423 133.145C39.7423 133.145 47.4089 133.586 53.8844 131.023C60.9769 128.216 63.804 125.387 63.804 125.387L68.0466 129.629L52.1367 145.539L39.7423 133.145Z" fill="#A1BCD1" stroke="#A1BCD1"/>
<path d="M72.2885 100.638C72.2885 100.638 72.377 108.659 69.8143 115.134C67.0073 122.227 64.1775 125.054 64.1775 125.054L68.4201 129.297L84.33 113.387L72.2885 100.638Z" fill="#A1BCD1" stroke="#A1BCD1"/>
<circle cx="26" cy="26" r="25.5" transform="matrix(-0.707107 0.707107 0.707107 0.707107 97.7461 181.25)" fill="#A1BCD1" stroke="#A1BCD1"/>
<path d="M63.8241 160.016C63.8241 160.016 63.3827 167.682 65.9455 174.158C68.7524 181.25 71.5822 184.077 71.5822 184.077L67.3396 188.32L51.4297 172.41L63.8241 160.016Z" fill="#A1BCD1" stroke="#A1BCD1"/>
<path d="M96.3326 192.562C96.3326 192.562 88.3118 192.65 81.8363 190.088C74.7437 187.281 71.9167 184.451 71.9167 184.451L67.674 188.694L83.5839 204.603L96.3326 192.562Z" fill="#A1BCD1" stroke="#A1BCD1"/>
<circle cx="97.7461" cy="218.02" r="25.5" transform="rotate(-45 97.7461 218.02)" fill="#A1BCD1" stroke="#A1BCD1"/>
<path d="M39.7423 184.098C39.7423 184.098 47.4089 183.656 53.8844 186.219C60.9769 189.026 63.804 191.856 63.804 191.856L68.0466 187.613L52.1367 171.703L39.7423 184.098Z" fill="#A1BCD1" stroke="#A1BCD1"/>
<path d="M72.2885 216.604C72.2885 216.604 72.377 208.583 69.8143 202.108C67.0073 195.015 64.1775 192.188 64.1775 192.188L68.4201 187.946L84.33 203.855L72.2885 216.604Z" fill="#A1BCD1" stroke="#A1BCD1"/>
<path d="M71.5814 132.459C71.5814 132.459 62.7425 144.126 63.8032 159.329C64.8639 174.532 68.3994 179.482 68.3994 179.482" stroke="#A1BCD1"/>
<path d="M82.8999 126.109C81.8731 126.21 76.849 128.499 72.993 132.465C70.6727 134.852 69.2342 138.304 68.0511 140.958C65.6647 146.312 64.1571 152.61 64.5116 157.914C64.6705 160.291 64.3383 166.424 65.9258 171.349C66.5241 173.205 66.9119 174.973 67.6936 176.652C69.466 180.459 72.1015 183.182 72.6433 183.723C75.7584 186.838 78.1771 188.622 82.1893 190.441" stroke="#A1BCD1"/>
<rect width="5" height="2" transform="matrix(0.707107 0.707107 0.707107 -0.707107 70.168 183.369)" fill="#A1BCD1"/>
<circle cx="26" cy="26" r="25.5" transform="matrix(0.707107 0.707107 0.707107 -0.707107 181.188 158.619)" fill="#09142F" stroke="#09142F"/>
<path d="M159.953 192.541C159.953 192.541 167.62 192.983 174.095 190.42C181.188 187.613 184.015 184.783 184.015 184.783L188.258 189.026L172.348 204.936L159.953 192.541Z" fill="#09142F" stroke="#09142F"/>
<path d="M192.499 160.035C192.499 160.035 192.588 168.055 190.025 174.531C187.218 181.623 184.388 184.451 184.388 184.451L188.631 188.693L204.541 172.783L192.499 160.035Z" fill="#09142F" stroke="#09142F"/>
<circle cx="158.559" cy="218.018" r="25.5" transform="rotate(-135 158.559 218.018)" fill="#09142F" stroke="#09142F"/>
<circle cx="217.957" cy="158.621" r="25.5" transform="rotate(-135 217.957 158.621)" fill="#09142F" stroke="#09142F"/>
<path d="M184.035 216.625C184.035 216.625 183.594 208.958 186.156 202.483C188.963 195.39 191.793 192.563 191.793 192.563L187.551 188.321L171.641 204.23L184.035 216.625Z" fill="#09142F" stroke="#09142F"/>
<path d="M216.544 184.079C216.544 184.079 208.523 183.99 202.047 186.553C194.955 189.36 192.128 192.19 192.128 192.19L187.885 187.947L203.795 172.037L216.544 184.079Z" fill="#09142F" stroke="#09142F"/>
<circle cx="99.1601" cy="158.619" r="25.5" transform="rotate(135 99.1601 158.619)" fill="#09142F" stroke="#09142F"/>
<path d="M157.164 192.541C157.164 192.541 149.497 192.983 143.022 190.42C135.929 187.613 133.102 184.783 133.102 184.783L128.86 189.026L144.77 204.936L157.164 192.541Z" fill="#09142F" stroke="#09142F"/>
<path d="M124.618 160.035C124.618 160.035 124.529 168.055 127.092 174.531C129.899 181.623 132.729 184.451 132.729 184.451L128.486 188.693L112.576 172.783L124.618 160.035Z" fill="#09142F" stroke="#09142F"/>
<circle cx="26" cy="26" r="25.5" transform="matrix(0.707107 -0.707107 -0.707107 -0.707107 99.1602 195.389)" fill="#09142F" stroke="#09142F"/>
<path d="M133.082 216.623C133.082 216.623 133.524 208.956 130.961 202.481C128.154 195.388 125.324 192.561 125.324 192.561L129.567 188.319L145.477 204.229L133.082 216.623Z" fill="#09142F" stroke="#09142F"/>
<path d="M100.574 184.077C100.574 184.077 108.594 183.988 115.07 186.551C122.163 189.358 124.99 192.188 124.99 192.188L129.232 187.945L113.322 172.035L100.574 184.077Z" fill="#09142F" stroke="#09142F"/>
<path d="M184.723 184.784C184.723 184.784 173.055 193.623 157.853 192.562C142.65 191.501 137.7 187.966 137.7 187.966" stroke="#09142F"/>
<path d="M191.073 173.467C190.972 174.494 188.682 179.518 184.716 183.374C182.33 185.694 178.878 187.133 176.223 188.316C170.869 190.702 164.572 192.21 159.268 191.856C156.89 191.697 150.758 192.029 145.833 190.441C143.976 189.843 142.208 189.455 140.529 188.674C136.722 186.901 134 184.266 133.458 183.724C130.343 180.609 128.56 178.19 126.741 174.178" stroke="#09142F"/>
<rect x="133.809" y="186.197" width="5" height="2" transform="rotate(-135 133.809 186.197)" fill="#09142F"/>
<path d="M201.336 199.986C211.294 190.028 227.44 190.028 237.398 199.986C247.357 209.945 247.357 226.09 237.398 236.049C227.44 246.007 211.294 246.007 201.336 236.049C191.378 226.09 191.378 209.945 201.336 199.986Z" fill="#A1BCD1" stroke="#A1BCD1"/>
<path d="M19.6094 200.693C29.5678 190.735 45.7135 190.735 55.6718 200.693C65.6302 210.652 65.6302 226.797 55.6718 236.756C45.7135 246.714 29.5678 246.714 19.6094 236.756C9.65103 226.797 9.65103 210.652 19.6094 200.693Z" fill="#09142F" stroke="#09142F"/>
<path d="M21.0235 19.6738C30.9818 9.71546 47.1275 9.71546 57.0859 19.6738C67.0443 29.6322 67.0443 45.7779 57.0859 55.7363C47.1275 65.6946 30.9818 65.6946 21.0235 55.7363C11.0651 45.7779 11.0651 29.6322 21.0235 19.6738Z" fill="#A1BCD1" stroke="#A1BCD1"/>
<path d="M201.336 20.3809C211.294 10.4225 227.44 10.4225 237.398 20.3809C247.357 30.3392 247.357 46.4849 237.398 56.4433C227.44 66.4017 211.294 66.4017 201.336 56.4433C191.378 46.4849 191.378 30.3392 201.336 20.3809Z" fill="#09142F" stroke="#09142F"/>
</svg>
