<svg width="450" height="143" viewBox="0 0 450 143" fill="none" xmlns="http://www.w3.org/2000/svg">
<path d="M0.223367 75.1623V58.4918L79.408 21.9094V42.4581L23.1452 66.5955L23.782 65.4957V68.1584L23.1452 67.0586L79.408 91.196V111.745L0.223367 75.1623ZM106.367 125V6.45454H150.822C159.929 6.45454 167.569 8.03669 173.744 11.201C179.957 14.3653 184.645 18.803 187.809 24.5142C191.012 30.1868 192.614 36.8048 192.614 44.3683C192.614 51.9703 190.993 58.569 187.752 64.1644C184.549 69.7212 179.821 74.0239 173.57 77.0724C167.319 80.0824 159.639 81.5874 150.532 81.5874H118.87V63.7592H147.638C152.964 63.7592 157.324 63.026 160.72 61.5597C164.116 60.0547 166.624 57.8744 168.245 55.0188C169.904 52.1246 170.734 48.5745 170.734 44.3683C170.734 40.162 169.904 36.5733 168.245 33.6019C166.585 30.592 164.058 28.3152 160.662 26.7717C157.266 25.1895 152.886 24.3984 147.522 24.3984H127.842V125H106.367ZM167.608 71.2841L196.955 125H172.991L144.165 71.2841H167.608ZM212.381 125V6.45454H233.856V106.998H286.067V125H212.381ZM352.17 0.897719L313.967 142.828H295.617L333.821 0.897719H352.17ZM449.182 86.2759L369.998 122.858V102.31L426.261 78.1722L425.624 79.272V76.6094L426.261 77.7092L369.998 53.5717V33.0231L449.182 69.6055V86.2759Z" fill="#00B405"/>
</svg>
