<svg width="88" height="66" viewBox="0 0 88 66" fill="none" xmlns="http://www.w3.org/2000/svg">
<path d="M33 0.5H55C72.9493 0.5 87.5 15.0507 87.5 33C87.5 50.9493 72.9493 65.5 55 65.5H33C15.0507 65.5 0.5 50.9493 0.5 33C0.500001 15.0507 15.0507 0.500001 33 0.5Z" fill="white" fill-opacity="0.7" stroke="#738297"/>
<path d="M51.9412 14.2906C51.9544 14.2261 52.0466 14.2261 52.0598 14.2906C52.7443 17.6395 55.3615 20.2567 58.7105 20.9412C58.775 20.9544 58.775 21.0466 58.7105 21.0598C55.3615 21.7443 52.7443 24.3615 52.0598 27.7105C52.0466 27.775 51.9544 27.775 51.9412 27.7105C51.2567 24.3615 48.6395 21.7443 45.2906 21.0598C45.2261 21.0466 45.2261 20.9544 45.2906 20.9412C48.6395 20.2567 51.2567 17.6395 51.9412 14.2906Z" stroke="#A8CDFF" stroke-width="3"/>
<path d="M44.4374 28.7521C44.5626 28.1399 45.4374 28.1399 45.5625 28.7521C45.8389 30.1043 46.8956 31.1611 48.2478 31.4374C48.86 31.5626 48.86 32.4374 48.2478 32.5625C46.8956 32.8389 45.8389 33.8956 45.5625 35.2478C45.4374 35.86 44.5626 35.86 44.4374 35.2478C44.1611 33.8956 43.1043 32.8389 41.7521 32.5625C41.1399 32.4374 41.1399 31.5626 41.7521 31.4374C43.1043 31.1611 44.1611 30.1043 44.4374 28.7521Z" fill="#A8CDFF"/>
<path d="M30.0885 19.0892C33.3759 15.8019 37.6494 14.096 41.9553 13.9717C42.7833 13.9479 43.4741 14.5993 43.498 15.4273C43.5217 16.2552 42.8695 16.9452 42.0417 16.9693C38.4706 17.0724 34.9345 18.4859 32.2098 21.2105C26.5473 26.8731 26.5473 36.054 32.2098 41.7166C37.8724 47.3791 47.0534 47.3791 52.7159 41.7166C55.6543 38.7782 57.0683 34.895 56.9572 31.0424C56.9334 30.2144 57.5849 29.5237 58.4128 29.4997C59.2407 29.4759 59.9313 30.1275 59.9555 30.9553C60.076 35.1311 58.7071 39.3453 55.8517 42.731L61.9083 48.7877C62.494 49.3735 62.494 50.3233 61.9083 50.909C61.3226 51.4947 60.3728 51.4947 59.787 50.909L53.7303 44.8523C46.8547 50.6519 36.5661 50.314 30.0892 43.8373C23.2551 37.0031 23.2544 25.9234 30.0885 19.0892Z" fill="#738297"/>
<path d="M33 0.5H55C72.9493 0.5 87.5 15.0507 87.5 33C87.5 50.9493 72.9493 65.5 55 65.5H33C15.0507 65.5 0.5 50.9493 0.5 33C0.500001 15.0507 15.0507 0.500001 33 0.5Z" fill="white" fill-opacity="0.7" stroke="#738297"/>
<path d="M51.9412 14.2906C51.9544 14.2261 52.0466 14.2261 52.0598 14.2906C52.7443 17.6395 55.3615 20.2567 58.7105 20.9412C58.775 20.9544 58.775 21.0466 58.7105 21.0598C55.3615 21.7443 52.7443 24.3615 52.0598 27.7105C52.0466 27.775 51.9544 27.775 51.9412 27.7105C51.2567 24.3615 48.6395 21.7443 45.2906 21.0598C45.2261 21.0466 45.2261 20.9544 45.2906 20.9412C48.6395 20.2567 51.2567 17.6395 51.9412 14.2906Z" stroke="#A8CDFF" stroke-width="3"/>
<path d="M44.4374 28.7521C44.5626 28.1399 45.4374 28.1399 45.5625 28.7521C45.8389 30.1043 46.8956 31.1611 48.2478 31.4374C48.86 31.5626 48.86 32.4374 48.2478 32.5625C46.8956 32.8389 45.8389 33.8956 45.5625 35.2478C45.4374 35.86 44.5626 35.86 44.4374 35.2478C44.1611 33.8956 43.1043 32.8389 41.7521 32.5625C41.1399 32.4374 41.1399 31.5626 41.7521 31.4374C43.1043 31.1611 44.1611 30.1043 44.4374 28.7521Z" fill="#A8CDFF"/>
<path d="M30.0885 19.0892C33.3759 15.8019 37.6494 14.096 41.9553 13.9717C42.7833 13.9479 43.4741 14.5993 43.498 15.4273C43.5217 16.2552 42.8695 16.9452 42.0417 16.9693C38.4706 17.0724 34.9345 18.4859 32.2098 21.2105C26.5473 26.8731 26.5473 36.054 32.2098 41.7166C37.8724 47.3791 47.0534 47.3791 52.7159 41.7166C55.6543 38.7782 57.0683 34.895 56.9572 31.0424C56.9334 30.2144 57.5849 29.5237 58.4128 29.4997C59.2407 29.4759 59.9313 30.1275 59.9555 30.9553C60.076 35.1311 58.7071 39.3453 55.8517 42.731L61.9083 48.7877C62.494 49.3735 62.494 50.3233 61.9083 50.909C61.3226 51.4947 60.3728 51.4947 59.787 50.909L53.7303 44.8523C46.8547 50.6519 36.5661 50.314 30.0892 43.8373C23.2551 37.0031 23.2544 25.9234 30.0885 19.0892Z" fill="#738297"/>
<g clip-path="url(#clip0_309_1795)">
<path d="M33 0.5H55C72.9493 0.5 87.5 15.0507 87.5 33C87.5 50.9493 72.9493 65.5 55 65.5H33C15.0507 65.5 0.5 50.9493 0.5 33C0.500001 15.0507 15.0507 0.500001 33 0.5Z" fill="white" fill-opacity="0.7" stroke="#738297"/>
<path d="M51.9412 14.2906C51.9544 14.2261 52.0466 14.2261 52.0598 14.2906C52.7443 17.6395 55.3615 20.2567 58.7105 20.9412C58.775 20.9544 58.775 21.0466 58.7105 21.0598C55.3615 21.7443 52.7443 24.3615 52.0598 27.7105C52.0466 27.775 51.9544 27.775 51.9412 27.7105C51.2567 24.3615 48.6395 21.7443 45.2906 21.0598C45.2261 21.0466 45.2261 20.9544 45.2906 20.9412C48.6395 20.2567 51.2567 17.6395 51.9412 14.2906Z" stroke="#A8CDFF" stroke-width="3"/>
<path d="M44.4374 28.7521C44.5626 28.1399 45.4374 28.1399 45.5625 28.7521C45.8389 30.1043 46.8956 31.1611 48.2478 31.4374C48.86 31.5626 48.86 32.4374 48.2478 32.5625C46.8956 32.8389 45.8389 33.8956 45.5625 35.2478C45.4374 35.86 44.5626 35.86 44.4374 35.2478C44.1611 33.8956 43.1043 32.8389 41.7521 32.5625C41.1399 32.4374 41.1399 31.5626 41.7521 31.4374C43.1043 31.1611 44.1611 30.1043 44.4374 28.7521Z" fill="#A8CDFF"/>
<path d="M30.0901 19.0888C33.3775 15.8015 37.651 14.0956 41.9569 13.9713C42.7849 13.9475 43.4757 14.5989 43.4996 15.4269C43.5233 16.2548 42.8711 16.9448 42.0433 16.9689C38.4722 17.072 34.9361 18.4855 32.2114 21.2101C26.5489 26.8727 26.5489 36.0536 32.2114 41.7162C37.874 47.3787 47.055 47.3787 52.7175 41.7162C55.6559 38.7778 57.0699 34.8946 56.9588 31.042C56.935 30.214 57.5865 29.5233 58.4144 29.4993C59.2423 29.4755 59.9329 30.1271 59.9571 30.9549C60.0776 35.1307 58.7087 39.3449 55.8533 42.7306L61.9099 48.7873C62.4956 49.3731 62.4956 50.3229 61.9099 50.9086C61.3242 51.4943 60.3744 51.4943 59.7886 50.9086L53.7319 44.8519C46.8563 50.6515 36.5677 50.3136 30.0908 43.8369C23.2567 37.0027 23.256 25.923 30.0901 19.0888Z" fill="#738297"/>
<path d="M33 0.5H55C72.9493 0.5 87.5 15.0507 87.5 33C87.5 50.9493 72.9493 65.5 55 65.5H33C15.0507 65.5 0.5 50.9493 0.5 33C0.500001 15.0507 15.0507 0.500001 33 0.5Z" fill="white" fill-opacity="0.7" stroke="#738297"/>
<path d="M51.9412 14.2906C51.9544 14.2261 52.0466 14.2261 52.0598 14.2906C52.7443 17.6395 55.3615 20.2567 58.7105 20.9412C58.775 20.9544 58.775 21.0466 58.7105 21.0598C55.3615 21.7443 52.7443 24.3615 52.0598 27.7105C52.0466 27.775 51.9544 27.775 51.9412 27.7105C51.2567 24.3615 48.6395 21.7443 45.2906 21.0598C45.2261 21.0466 45.2261 20.9544 45.2906 20.9412C48.6395 20.2567 51.2567 17.6395 51.9412 14.2906Z" stroke="#A8CDFF" stroke-width="3"/>
<path d="M44.4374 28.7521C44.5626 28.1399 45.4374 28.1399 45.5625 28.7521C45.8389 30.1043 46.8956 31.1611 48.2478 31.4374C48.86 31.5626 48.86 32.4374 48.2478 32.5625C46.8956 32.8389 45.8389 33.8956 45.5625 35.2478C45.4374 35.86 44.5626 35.86 44.4374 35.2478C44.1611 33.8956 43.1043 32.8389 41.7521 32.5625C41.1399 32.4374 41.1399 31.5626 41.7521 31.4374C43.1043 31.1611 44.1611 30.1043 44.4374 28.7521Z" fill="#A8CDFF"/>
<path d="M30.0901 19.0888C33.3775 15.8015 37.651 14.0956 41.9569 13.9713C42.7849 13.9475 43.4757 14.5989 43.4996 15.4269C43.5233 16.2548 42.8711 16.9448 42.0433 16.9689C38.4722 17.072 34.9361 18.4855 32.2114 21.2101C26.5489 26.8727 26.5489 36.0536 32.2114 41.7162C37.874 47.3787 47.055 47.3787 52.7175 41.7162C55.6559 38.7778 57.0699 34.8946 56.9588 31.042C56.935 30.214 57.5865 29.5233 58.4144 29.4993C59.2423 29.4755 59.9329 30.1271 59.9571 30.9549C60.0776 35.1307 58.7087 39.3449 55.8533 42.7306L61.9099 48.7873C62.4956 49.3731 62.4956 50.3229 61.9099 50.9086C61.3242 51.4943 60.3744 51.4943 59.7886 50.9086L53.7319 44.8519C46.8563 50.6515 36.5677 50.3136 30.0908 43.8369C23.2567 37.0027 23.256 25.923 30.0901 19.0888Z" fill="#738297"/>
</g>
<defs>
<clipPath id="clip0_309_1795">
<rect width="88" height="66" fill="white"/>
</clipPath>
</defs>
</svg>
