<svg width="88" height="66" viewBox="0 0 88 66" fill="none" xmlns="http://www.w3.org/2000/svg">
<path d="M33 0.5H55C72.9493 0.5 87.5 15.0507 87.5 33C87.5 50.9493 72.9493 65.5 55 65.5H33C15.0507 65.5 0.5 50.9493 0.5 33C0.500001 15.0507 15.0507 0.500001 33 0.5Z" fill="white" fill-opacity="0.7" stroke="#738297"/>
<path d="M38.8208 12.6815C39.6764 12.4522 40.9684 12.2778 42.0238 12.1622C42.4729 12.1131 42.6975 12.0885 43.1784 12.0746C43.4771 12.0659 44.1618 12.0827 44.4597 12.106C44.9394 12.1435 45.1571 12.1782 45.5925 12.2476C47.5258 12.5558 50.5341 13.1447 51.9971 14M51.0775 27.5146L49.8597 30.9167C49.3271 32.4045 49.0608 33.1485 48.6338 33.7781C48.2552 34.3362 47.7853 34.8264 47.2439 35.2283C46.6329 35.6817 45.9009 35.9793 44.437 36.5744L39.8607 38.435C38.9946 38.7871 38.5616 38.9632 38.2424 38.8816C37.9641 38.8104 37.7299 38.623 37.5993 38.3671C37.4496 38.0737 37.5263 37.6125 37.6797 36.6903L38.4013 32.3522C38.6915 30.6077 38.8366 29.7354 39.1992 28.9735C39.5203 28.2988 39.9647 27.69 40.5094 27.1785C41.1244 26.6009 41.9109 26.1968 43.484 25.3886L56.0695 18.9222C56.8076 18.543 57.1766 18.3534 57.5946 18.3276C57.9316 18.3067 58.359 18.3994 58.657 18.5578C59.0268 18.7545 59.2488 19.0351 59.6929 19.5964C61.3337 21.6707 62.5876 24.1065 63.3157 26.8236C66.1745 37.493 59.8429 48.4597 49.1735 51.3185C38.5042 54.1774 27.5375 47.8457 24.6786 37.1764C23.9407 34.4226 23.8151 31.6489 24.2183 29" stroke="#738297" stroke-width="3" stroke-linecap="round"/>
<path d="M29.9412 12.2906C29.9544 12.2261 30.0466 12.2261 30.0598 12.2906C30.7443 15.6395 33.3615 18.2567 36.7105 18.9412C36.775 18.9544 36.775 19.0466 36.7105 19.0598C33.3615 19.7443 30.7443 22.3615 30.0598 25.7105C30.0466 25.775 29.9544 25.775 29.9412 25.7105C29.2567 22.3615 26.6395 19.7443 23.2906 19.0598C23.2261 19.0466 23.2261 18.9544 23.2906 18.9412C26.6395 18.2567 29.2567 15.6395 29.9412 12.2906Z" stroke="#A8CDFF" stroke-width="3"/>
<path d="M33 0.5H55C72.9493 0.5 87.5 15.0507 87.5 33C87.5 50.9493 72.9493 65.5 55 65.5H33C15.0507 65.5 0.5 50.9493 0.5 33C0.500001 15.0507 15.0507 0.500001 33 0.5Z" fill="white" fill-opacity="0.7" stroke="#738297"/>
<path d="M38.8208 12.6815C39.6764 12.4522 40.9684 12.2778 42.0238 12.1622C42.4729 12.1131 42.6975 12.0885 43.1784 12.0746C43.4771 12.0659 44.1618 12.0827 44.4597 12.106C44.9394 12.1435 45.1571 12.1782 45.5925 12.2476C47.5258 12.5558 50.5341 13.1447 51.9971 14M51.0775 27.5146L49.8597 30.9167C49.3271 32.4045 49.0608 33.1485 48.6338 33.7781C48.2552 34.3362 47.7853 34.8264 47.2439 35.2283C46.6329 35.6817 45.9009 35.9793 44.437 36.5744L39.8607 38.435C38.9946 38.7871 38.5616 38.9632 38.2424 38.8816C37.9641 38.8104 37.7299 38.623 37.5993 38.3671C37.4496 38.0737 37.5263 37.6125 37.6797 36.6903L38.4013 32.3522C38.6915 30.6077 38.8366 29.7354 39.1992 28.9735C39.5203 28.2988 39.9647 27.69 40.5094 27.1785C41.1244 26.6009 41.9109 26.1968 43.484 25.3886L56.0695 18.9222C56.8076 18.543 57.1766 18.3534 57.5946 18.3276C57.9316 18.3067 58.359 18.3994 58.657 18.5578C59.0268 18.7545 59.2488 19.0351 59.6929 19.5964C61.3337 21.6707 62.5876 24.1065 63.3157 26.8236C66.1745 37.493 59.8429 48.4597 49.1735 51.3185C38.5042 54.1774 27.5375 47.8457 24.6786 37.1764C23.9407 34.4226 23.8151 31.6489 24.2183 29" stroke="#738297" stroke-width="3" stroke-linecap="round"/>
<path d="M29.9412 12.2906C29.9544 12.2261 30.0466 12.2261 30.0598 12.2906C30.7443 15.6395 33.3615 18.2567 36.7105 18.9412C36.775 18.9544 36.775 19.0466 36.7105 19.0598C33.3615 19.7443 30.7443 22.3615 30.0598 25.7105C30.0466 25.775 29.9544 25.775 29.9412 25.7105C29.2567 22.3615 26.6395 19.7443 23.2906 19.0598C23.2261 19.0466 23.2261 18.9544 23.2906 18.9412C26.6395 18.2567 29.2567 15.6395 29.9412 12.2906Z" stroke="#A8CDFF" stroke-width="3"/>
</svg>
