<svg width="298" height="284" viewBox="0 0 298 284" fill="none" xmlns="http://www.w3.org/2000/svg">
<path d="M105 33C105 14.7746 119.775 0 138 0H160C178.225 0 193 14.7746 193 33V33C193 51.2254 178.225 66 160 66H138C119.775 66 105 51.2254 105 33V33Z" fill="#A1BCD1" fill-opacity="0.06"/>
<path d="M138 0.5H160C177.949 0.5 192.5 15.0507 192.5 33C192.5 50.9493 177.949 65.5 160 65.5H138C120.051 65.5 105.5 50.9493 105.5 33C105.5 15.0507 120.051 0.500001 138 0.5Z" stroke="#A1BCD1" stroke-opacity="0.4"/>
<path d="M155.123 28.3931C157.653 28.3931 159.704 30.4438 159.704 32.9735V45.6946C159.704 51.8794 154.69 56.8931 148.505 56.8931C142.32 56.8931 137.306 51.8794 137.306 45.6946V32.9735C137.306 30.4438 139.357 28.3931 141.887 28.3931H155.123ZM155.123 31.4467H141.887C141.044 31.4467 140.36 32.1303 140.36 32.9735V45.6946C140.36 50.1929 144.007 53.8396 148.505 53.8396C153.003 53.8396 156.65 50.1929 156.65 45.6946V32.9735C156.65 32.1303 155.966 31.4467 155.123 31.4467ZM128.651 28.3931L137.112 28.3937C136.309 29.2311 135.723 30.2795 135.448 31.4474L128.651 31.4467C127.807 31.4467 127.124 32.1303 127.124 32.9735V43.6585C127.124 47.0327 129.859 49.7681 133.234 49.7681C134.131 49.7681 134.983 49.5746 135.751 49.227C136.023 50.2233 136.411 51.1725 136.899 52.0598C135.777 52.5494 134.537 52.8217 133.234 52.8217C128.173 52.8217 124.07 48.7192 124.07 43.6585V32.9735C124.07 30.4438 126.121 28.3931 128.651 28.3931ZM168.347 28.3931C170.877 28.3931 172.927 30.4438 172.927 32.9735V43.661C172.927 48.7203 168.826 52.8217 163.767 52.8217C162.466 52.8217 161.228 52.5505 160.107 52.0616L160.221 51.8555C160.657 51.0285 161.007 50.1499 161.261 49.231C162.024 49.5761 162.873 49.7681 163.767 49.7681C167.14 49.7681 169.874 47.0339 169.874 43.661V32.9735C169.874 32.1303 169.19 31.4467 168.347 31.4467L161.562 31.4474C161.287 30.2795 160.701 29.2311 159.898 28.3937L168.347 28.3931ZM148.499 12.1074C152.434 12.1074 155.624 15.2974 155.624 19.2324C155.624 23.1674 152.434 26.3574 148.499 26.3574C144.564 26.3574 141.374 23.1674 141.374 19.2324C141.374 15.2974 144.564 12.1074 148.499 12.1074ZM164.791 14.1431C168.164 14.1431 170.898 16.8774 170.898 20.2503C170.898 23.6232 168.164 26.3574 164.791 26.3574C161.418 26.3574 158.684 23.6232 158.684 20.2503C158.684 16.8774 161.418 14.1431 164.791 14.1431ZM132.207 14.1431C135.58 14.1431 138.314 16.8774 138.314 20.2503C138.314 23.6232 135.58 26.3574 132.207 26.3574C128.834 26.3574 126.1 23.6232 126.1 20.2503C126.1 16.8774 128.834 14.1431 132.207 14.1431ZM148.499 15.161C146.25 15.161 144.427 16.9838 144.427 19.2324C144.427 21.481 146.25 23.3038 148.499 23.3038C150.747 23.3038 152.57 21.481 152.57 19.2324C152.57 16.9838 150.747 15.161 148.499 15.161ZM164.791 17.1967C163.104 17.1967 161.737 18.5638 161.737 20.2503C161.737 21.9367 163.104 23.3038 164.791 23.3038C166.477 23.3038 167.844 21.9367 167.844 20.2503C167.844 18.5638 166.477 17.1967 164.791 17.1967ZM132.207 17.1967C130.521 17.1967 129.154 18.5638 129.154 20.2503C129.154 21.9367 130.521 23.3038 132.207 23.3038C133.894 23.3038 135.261 21.9367 135.261 20.2503C135.261 18.5638 133.894 17.1967 132.207 17.1967Z" fill="white"/>
<path d="M157.461 7.03222C157.469 6.98926 157.531 6.98926 157.539 7.03222C157.995 9.26211 159.738 11.0048 161.968 11.4605C162.011 11.4693 162.011 11.5307 161.968 11.5395C159.738 11.9952 157.995 13.7379 157.539 15.9678C157.531 16.0107 157.469 16.0107 157.461 15.9678C157.005 13.7379 155.262 11.9952 153.032 11.5395C152.989 11.5307 152.989 11.4693 153.032 11.4605C155.262 11.0048 157.005 9.26211 157.461 7.03222Z" fill="#A8CDFF" stroke="#A8CDFF" stroke-width="1.5"/>
<path d="M174 251C174 232.775 188.775 218 207 218V218C225.225 218 240 232.775 240 251V251C240 269.225 225.225 284 207 284V284C188.775 284 174 269.225 174 251V251Z" fill="#A1BCD1" fill-opacity="0.06"/>
<path d="M207 218.5C224.949 218.5 239.5 233.051 239.5 251C239.5 268.949 224.949 283.5 207 283.5C189.051 283.5 174.5 268.949 174.5 251C174.5 233.051 189.051 218.5 207 218.5Z" stroke="#A1BCD1" stroke-opacity="0.4"/>
<path d="M209 255L203 249M213.02 234V231M220.899 237.121L223.02 235M220.899 253L223.02 255.121M205.02 237.121L202.899 235M224.02 245H227.02M195.262 268.737L213.737 250.263C214.529 249.471 214.925 249.075 215.073 248.618C215.204 248.216 215.204 247.784 215.073 247.382C214.925 246.925 214.529 246.529 213.737 245.737L212.262 244.263C211.47 243.471 211.074 243.075 210.618 242.926C210.216 242.796 209.783 242.796 209.382 242.926C208.925 243.075 208.529 243.471 207.737 244.263L189.262 262.737C188.47 263.529 188.074 263.925 187.926 264.382C187.795 264.784 187.795 265.216 187.926 265.618C188.074 266.075 188.47 266.471 189.262 267.263L190.737 268.737C191.529 269.529 191.925 269.925 192.382 270.074C192.783 270.204 193.216 270.204 193.618 270.074C194.074 269.925 194.47 269.529 195.262 268.737Z" stroke="white" stroke-width="4" stroke-linecap="round" stroke-linejoin="round"/>
<path d="M58 251C58 232.775 72.7746 218 91 218V218C109.225 218 124 232.775 124 251V251C124 269.225 109.225 284 91 284V284C72.7746 284 58 269.225 58 251V251Z" fill="#A1BCD1" fill-opacity="0.06"/>
<path d="M91 218.5C108.949 218.5 123.5 233.051 123.5 251C123.5 268.949 108.949 283.5 91 283.5C73.0507 283.5 58.5 268.949 58.5 251C58.5 233.051 73.0507 218.5 91 218.5Z" stroke="#A1BCD1" stroke-opacity="0.4"/>
<path d="M101 261L111 251L101 241M81 241L71 251L81 261M95 233L87 269" stroke="white" stroke-width="4" stroke-linecap="round" stroke-linejoin="round"/>
<path d="M232 151C232 132.775 246.775 118 265 118V118C283.225 118 298 132.775 298 151V151C298 169.225 283.225 184 265 184V184C246.775 184 232 169.225 232 151V151Z" fill="#A1BCD1" fill-opacity="0.06"/>
<path d="M265 118.5C282.949 118.5 297.5 133.051 297.5 151C297.5 168.949 282.949 183.5 265 183.5C247.051 183.5 232.5 168.949 232.5 151C232.5 133.051 247.051 118.5 265 118.5Z" stroke="#A1BCD1" stroke-opacity="0.4"/>
<path d="M270 138L273 141M264 144L267 147M258 150L261 153M252 156L255 159M246.131 162.131L253.868 169.868C254.264 170.264 254.463 170.463 254.691 170.537C254.892 170.602 255.108 170.602 255.309 170.537C255.537 170.463 255.735 170.264 256.131 169.868L283.868 142.131C284.264 141.735 284.463 141.537 284.537 141.309C284.602 141.108 284.602 140.892 284.537 140.691C284.463 140.463 284.264 140.264 283.868 139.868L276.131 132.131C275.735 131.735 275.537 131.537 275.309 131.463C275.108 131.398 274.892 131.398 274.691 131.463C274.463 131.537 274.264 131.735 273.868 132.131L246.131 159.868C245.735 160.264 245.537 160.463 245.463 160.691C245.398 160.892 245.398 161.108 245.463 161.309C245.537 161.537 245.735 161.735 246.131 162.131Z" stroke="white" stroke-width="4" stroke-linecap="round" stroke-linejoin="round"/>
<path d="M116 151C116 132.775 130.775 118 149 118V118C167.225 118 182 132.775 182 151V151C182 169.225 167.225 184 149 184V184C130.775 184 116 169.225 116 151V151Z" fill="#A1BCD1" fill-opacity="0.06"/>
<path d="M149 118.5C166.949 118.5 181.5 133.051 181.5 151C181.5 168.949 166.949 183.5 149 183.5C131.051 183.5 116.5 168.949 116.5 151C116.5 133.051 131.051 118.5 149 118.5Z" stroke="#A1BCD1" stroke-opacity="0.4"/>
<path d="M137 139L146 148M137 139H131L129 133L131 131L137 133V139ZM163.518 132.482L158.263 137.737C157.471 138.529 157.075 138.925 156.926 139.382C156.796 139.784 156.796 140.216 156.926 140.618C157.075 141.075 157.471 141.471 158.263 142.263L158.737 142.737C159.529 143.529 159.925 143.925 160.382 144.074C160.784 144.204 161.216 144.204 161.618 144.074C162.075 143.925 162.471 143.529 163.263 142.737L168.179 137.821C168.708 139.11 169 140.521 169 142C169 148.075 164.075 153 158 153C157.268 153 156.552 152.928 155.86 152.792C154.887 152.6 154.401 152.504 154.106 152.534C153.793 152.565 153.639 152.612 153.361 152.76C153.1 152.9 152.838 153.162 152.314 153.686L138 168C136.343 169.657 133.657 169.657 132 168C130.343 166.343 130.343 163.657 132 162L146.314 147.686C146.838 147.162 147.1 146.9 147.24 146.639C147.388 146.361 147.435 146.207 147.466 145.894C147.496 145.599 147.4 145.113 147.208 144.14C147.072 143.448 147 142.732 147 142C147 135.925 151.925 131 158 131C160.011 131 161.896 131.54 163.518 132.482ZM149 157L160 168C161.657 169.657 164.343 169.657 166 168C167.657 166.343 167.657 163.657 166 162L156.951 152.951C156.31 152.89 155.685 152.774 155.082 152.609C154.303 152.395 153.45 152.55 152.879 153.121L149 157Z" stroke="white" stroke-width="4" stroke-linecap="round" stroke-linejoin="round"/>
<path d="M0 151C0 132.775 14.7746 118 33 118V118C51.2254 118 66 132.775 66 151V151C66 169.225 51.2254 184 33 184V184C14.7746 184 0 169.225 0 151V151Z" fill="#A1BCD1" fill-opacity="0.06"/>
<path d="M33 118.5C50.9493 118.5 65.5 133.051 65.5 151C65.5 168.949 50.9493 183.5 33 183.5C15.0507 183.5 0.5 168.949 0.5 151C0.500001 133.051 15.0507 118.5 33 118.5Z" stroke="#A1BCD1" stroke-opacity="0.4"/>
<path d="M38.2973 135.605V145.44C38.2967 145.59 38.332 145.738 38.4004 145.871L49.2942 166.496C49.5202 166.924 49.6318 167.404 49.6181 167.888C49.6044 168.372 49.4659 168.845 49.216 169.26C48.9661 169.675 48.6133 170.018 48.1917 170.256C47.7702 170.495 47.2941 170.621 46.8098 170.621H19.191C18.694 170.62 18.2061 170.488 17.7769 170.237C17.3477 169.987 16.9926 169.627 16.7478 169.194C16.5029 168.762 16.3771 168.272 16.383 167.775C16.389 167.278 16.5265 166.791 16.7817 166.365L29.0348 145.89C29.1206 145.745 29.166 145.58 29.166 145.412V135.605" stroke="white" stroke-width="3" stroke-linecap="round"/>
<path d="M29.1656 135.605H27.2344C26.6749 135.605 26.1384 135.383 25.7428 134.988C25.3472 134.592 25.125 134.056 25.125 133.496C25.125 132.937 25.3472 132.4 25.7428 132.005C26.1384 131.609 26.6749 131.387 27.2344 131.387H40.05C40.6094 131.387 41.146 131.609 41.5416 132.005C41.9371 132.4 42.1594 132.937 42.1594 133.496C42.1594 134.056 41.9371 134.592 41.5416 134.988C41.146 135.383 40.6094 135.605 40.05 135.605H38.2969" stroke="white" stroke-width="3" stroke-linecap="round"/>
<path d="M25.6328 151.571C27.4146 151.089 29.2286 150.735 31.0609 150.512C32.4859 150.512 35.1672 152.321 36.6859 152.509C37.8953 152.668 41.4672 151.571 41.4672 151.571" stroke="white" stroke-width="3" stroke-linecap="round"/>
<path d="M38.8992 166.937C40.8305 166.937 42.3961 165.372 42.3961 163.44C42.3961 161.509 40.8305 159.943 38.8992 159.943C36.9679 159.943 35.4023 161.509 35.4023 163.44C35.4023 165.372 36.9679 166.937 38.8992 166.937Z" stroke="white" stroke-width="3" stroke-linecap="round"/>
<path d="M30.3281 160.242C31.8038 160.242 33 159.046 33 157.57C33 156.095 31.8038 154.898 30.3281 154.898C28.8525 154.898 27.6562 156.095 27.6562 157.57C27.6562 159.046 28.8525 160.242 30.3281 160.242Z" stroke="white" stroke-width="3" stroke-linecap="round"/>
<path d="M148.5 66V118" stroke="#A1BCD1" stroke-opacity="0.4"/>
<path d="M148.5 66.5V87C148.5 92.5228 144.023 97 138.5 97H43.0001C37.4772 97 33 101.477 33.0001 107L33.0002 118" stroke="#A1BCD1" stroke-opacity="0.4"/>
<path d="M148.5 66V87C148.5 92.5228 152.977 97 158.5 97H252C257.523 97 262 101.477 262 107V118" stroke="#A1BCD1" stroke-opacity="0.4"/>
<path d="M148.5 66V87C148.5 92.5228 144.023 97 138.5 97H103C97.4772 97 93 101.477 93 107V218" stroke="#A1BCD1" stroke-opacity="0.4"/>
<path d="M148.5 66V87C148.5 92.5228 152.977 97 158.5 97H197C202.523 97 207 101.477 207 107V218" stroke="#A1BCD1" stroke-opacity="0.4"/>
</svg>
