<svg width="88" height="66" viewBox="0 0 88 66" fill="none" xmlns="http://www.w3.org/2000/svg">
<path d="M33 0.5H55C72.9493 0.5 87.5 15.0507 87.5 33C87.5 50.9493 72.9493 65.5 55 65.5H33C15.0507 65.5 0.5 50.9493 0.5 33C0.500001 15.0507 15.0507 0.500001 33 0.5Z" fill="white" fill-opacity="0.7" stroke="#738297"/>
<path d="M57.9412 12.2906C57.9544 12.2261 58.0466 12.2261 58.0598 12.2906C58.7443 15.6395 61.3615 18.2567 64.7105 18.9412C64.775 18.9544 64.775 19.0466 64.7105 19.0598C61.3615 19.7443 58.7443 22.3615 58.0598 25.7105C58.0466 25.775 57.9544 25.775 57.9412 25.7105C57.2567 22.3615 54.6395 19.7443 51.2906 19.0598C51.2261 19.0466 51.2261 18.9544 51.2906 18.9412C54.6395 18.2567 57.2567 15.6395 57.9412 12.2906Z" stroke="#A8CDFF" stroke-width="3"/>
<path d="M44 20.5C44.8284 20.5 45.5 19.8284 45.5 19C45.5 18.1716 44.8284 17.5 44 17.5V19V20.5ZM59.5 33C59.5 32.1716 58.8284 31.5 58 31.5C57.1716 31.5 56.5 32.1716 56.5 33H58H59.5ZM30 24H28.5V42H30H31.5V24H30ZM35 47V48.5H53V47V45.5H35V47ZM35 19V20.5H44V19V17.5H35V19ZM58 42H59.5V33H58H56.5V42H58ZM30 24V22.5C28.067 22.5 26.5 20.933 26.5 19H25H23.5C23.5 22.5899 26.4101 25.5 30 25.5V24ZM35 19H33.5C33.5 20.933 31.933 22.5 30 22.5V24V25.5C33.5899 25.5 36.5 22.5899 36.5 19H35ZM30 14V15.5C31.933 15.5 33.5 17.067 33.5 19H35H36.5C36.5 15.4101 33.5899 12.5 30 12.5V14ZM30 14V12.5C26.4101 12.5 23.5 15.4101 23.5 19H25H26.5C26.5 17.067 28.067 15.5 30 15.5V14ZM30 52V50.5C28.067 50.5 26.5 48.933 26.5 47H25H23.5C23.5 50.5899 26.4101 53.5 30 53.5V52ZM35 47H33.5C33.5 48.933 31.933 50.5 30 50.5V52V53.5C33.5899 53.5 36.5 50.5899 36.5 47H35ZM30 42V43.5C31.933 43.5 33.5 45.067 33.5 47H35H36.5C36.5 43.4101 33.5899 40.5 30 40.5V42ZM30 42V40.5C26.4101 40.5 23.5 43.4101 23.5 47H25H26.5C26.5 45.067 28.067 43.5 30 43.5V42ZM58 52V50.5C56.067 50.5 54.5 48.933 54.5 47H53H51.5C51.5 50.5899 54.4101 53.5 58 53.5V52ZM63 47H61.5C61.5 48.933 59.933 50.5 58 50.5V52V53.5C61.5899 53.5 64.5 50.5899 64.5 47H63ZM58 42V43.5C59.933 43.5 61.5 45.067 61.5 47H63H64.5C64.5 43.4101 61.5899 40.5 58 40.5V42ZM58 42V40.5C54.4101 40.5 51.5 43.4101 51.5 47H53H54.5C54.5 45.067 56.067 43.5 58 43.5V42Z" fill="#738297"/>
<path d="M33 0.5H55C72.9493 0.5 87.5 15.0507 87.5 33C87.5 50.9493 72.9493 65.5 55 65.5H33C15.0507 65.5 0.5 50.9493 0.5 33C0.500001 15.0507 15.0507 0.500001 33 0.5Z" fill="white" fill-opacity="0.7" stroke="#738297"/>
<path d="M57.9412 12.2906C57.9544 12.2261 58.0466 12.2261 58.0598 12.2906C58.7443 15.6395 61.3615 18.2567 64.7105 18.9412C64.775 18.9544 64.775 19.0466 64.7105 19.0598C61.3615 19.7443 58.7443 22.3615 58.0598 25.7105C58.0466 25.775 57.9544 25.775 57.9412 25.7105C57.2567 22.3615 54.6395 19.7443 51.2906 19.0598C51.2261 19.0466 51.2261 18.9544 51.2906 18.9412C54.6395 18.2567 57.2567 15.6395 57.9412 12.2906Z" stroke="#A8CDFF" stroke-width="3"/>
<path d="M44 20.5C44.8284 20.5 45.5 19.8284 45.5 19C45.5 18.1716 44.8284 17.5 44 17.5V19V20.5ZM59.5 33C59.5 32.1716 58.8284 31.5 58 31.5C57.1716 31.5 56.5 32.1716 56.5 33H58H59.5ZM30 24H28.5V42H30H31.5V24H30ZM35 47V48.5H53V47V45.5H35V47ZM35 19V20.5H44V19V17.5H35V19ZM58 42H59.5V33H58H56.5V42H58ZM30 24V22.5C28.067 22.5 26.5 20.933 26.5 19H25H23.5C23.5 22.5899 26.4101 25.5 30 25.5V24ZM35 19H33.5C33.5 20.933 31.933 22.5 30 22.5V24V25.5C33.5899 25.5 36.5 22.5899 36.5 19H35ZM30 14V15.5C31.933 15.5 33.5 17.067 33.5 19H35H36.5C36.5 15.4101 33.5899 12.5 30 12.5V14ZM30 14V12.5C26.4101 12.5 23.5 15.4101 23.5 19H25H26.5C26.5 17.067 28.067 15.5 30 15.5V14ZM30 52V50.5C28.067 50.5 26.5 48.933 26.5 47H25H23.5C23.5 50.5899 26.4101 53.5 30 53.5V52ZM35 47H33.5C33.5 48.933 31.933 50.5 30 50.5V52V53.5C33.5899 53.5 36.5 50.5899 36.5 47H35ZM30 42V43.5C31.933 43.5 33.5 45.067 33.5 47H35H36.5C36.5 43.4101 33.5899 40.5 30 40.5V42ZM30 42V40.5C26.4101 40.5 23.5 43.4101 23.5 47H25H26.5C26.5 45.067 28.067 43.5 30 43.5V42ZM58 52V50.5C56.067 50.5 54.5 48.933 54.5 47H53H51.5C51.5 50.5899 54.4101 53.5 58 53.5V52ZM63 47H61.5C61.5 48.933 59.933 50.5 58 50.5V52V53.5C61.5899 53.5 64.5 50.5899 64.5 47H63ZM58 42V43.5C59.933 43.5 61.5 45.067 61.5 47H63H64.5C64.5 43.4101 61.5899 40.5 58 40.5V42ZM58 42V40.5C54.4101 40.5 51.5 43.4101 51.5 47H53H54.5C54.5 45.067 56.067 43.5 58 43.5V42Z" fill="#738297"/>
</svg>
