<svg width="281" height="293" viewBox="0 0 281 293" fill="none" xmlns="http://www.w3.org/2000/svg">
<path d="M226 227.5H248C265.949 227.5 280.5 242.051 280.5 260C280.5 277.949 265.949 292.5 248 292.5H226C208.051 292.5 193.5 277.949 193.5 260C193.5 242.051 208.051 227.5 226 227.5Z" fill="white" fill-opacity="0.7" stroke="#738297"/>
<path d="M250.941 239.291C250.954 239.226 251.047 239.226 251.06 239.291C251.744 242.64 254.362 245.257 257.71 245.941C257.775 245.954 257.775 246.047 257.71 246.06C254.362 246.744 251.744 249.362 251.06 252.71C251.047 252.775 250.954 252.775 250.941 252.71C250.257 249.362 247.64 246.744 244.291 246.06C244.226 246.047 244.226 245.954 244.291 245.941C247.64 245.257 250.257 242.64 250.941 239.291Z" stroke="#A8CDFF" stroke-width="3"/>
<path d="M237 247.5C237.828 247.5 238.5 246.828 238.5 246C238.5 245.172 237.828 244.5 237 244.5V246V247.5ZM252.5 260C252.5 259.172 251.828 258.5 251 258.5C250.172 258.5 249.5 259.172 249.5 260H251H252.5ZM223 251H221.5V269H223H224.5V251H223ZM228 274V275.5H246V274V272.5H228V274ZM228 246V247.5H237V246V244.5H228V246ZM251 269H252.5V260H251H249.5V269H251ZM223 251V249.5C221.067 249.5 219.5 247.933 219.5 246H218H216.5C216.5 249.59 219.41 252.5 223 252.5V251ZM228 246H226.5C226.5 247.933 224.933 249.5 223 249.5V251V252.5C226.59 252.5 229.5 249.59 229.5 246H228ZM223 241V242.5C224.933 242.5 226.5 244.067 226.5 246H228H229.5C229.5 242.41 226.59 239.5 223 239.5V241ZM223 241V239.5C219.41 239.5 216.5 242.41 216.5 246H218H219.5C219.5 244.067 221.067 242.5 223 242.5V241ZM223 279V277.5C221.067 277.5 219.5 275.933 219.5 274H218H216.5C216.5 277.59 219.41 280.5 223 280.5V279ZM228 274H226.5C226.5 275.933 224.933 277.5 223 277.5V279V280.5C226.59 280.5 229.5 277.59 229.5 274H228ZM223 269V270.5C224.933 270.5 226.5 272.067 226.5 274H228H229.5C229.5 270.41 226.59 267.5 223 267.5V269ZM223 269V267.5C219.41 267.5 216.5 270.41 216.5 274H218H219.5C219.5 272.067 221.067 270.5 223 270.5V269ZM251 279V277.5C249.067 277.5 247.5 275.933 247.5 274H246H244.5C244.5 277.59 247.41 280.5 251 280.5V279ZM256 274H254.5C254.5 275.933 252.933 277.5 251 277.5V279V280.5C254.59 280.5 257.5 277.59 257.5 274H256ZM251 269V270.5C252.933 270.5 254.5 272.067 254.5 274H256H257.5C257.5 270.41 254.59 267.5 251 267.5V269ZM251 269V267.5C247.41 267.5 244.5 270.41 244.5 274H246H247.5C247.5 272.067 249.067 270.5 251 270.5V269Z" fill="#738297"/>
<path d="M226 227.5H248C265.949 227.5 280.5 242.051 280.5 260C280.5 277.949 265.949 292.5 248 292.5H226C208.051 292.5 193.5 277.949 193.5 260C193.5 242.051 208.051 227.5 226 227.5Z" fill="white" fill-opacity="0.7" stroke="#738297"/>
<path d="M250.941 239.291C250.954 239.226 251.047 239.226 251.06 239.291C251.744 242.64 254.362 245.257 257.71 245.941C257.775 245.954 257.775 246.047 257.71 246.06C254.362 246.744 251.744 249.362 251.06 252.71C251.047 252.775 250.954 252.775 250.941 252.71C250.257 249.362 247.64 246.744 244.291 246.06C244.226 246.047 244.226 245.954 244.291 245.941C247.64 245.257 250.257 242.64 250.941 239.291Z" stroke="#A8CDFF" stroke-width="3"/>
<path d="M237 247.5C237.828 247.5 238.5 246.828 238.5 246C238.5 245.172 237.828 244.5 237 244.5V246V247.5ZM252.5 260C252.5 259.172 251.828 258.5 251 258.5C250.172 258.5 249.5 259.172 249.5 260H251H252.5ZM223 251H221.5V269H223H224.5V251H223ZM228 274V275.5H246V274V272.5H228V274ZM228 246V247.5H237V246V244.5H228V246ZM251 269H252.5V260H251H249.5V269H251ZM223 251V249.5C221.067 249.5 219.5 247.933 219.5 246H218H216.5C216.5 249.59 219.41 252.5 223 252.5V251ZM228 246H226.5C226.5 247.933 224.933 249.5 223 249.5V251V252.5C226.59 252.5 229.5 249.59 229.5 246H228ZM223 241V242.5C224.933 242.5 226.5 244.067 226.5 246H228H229.5C229.5 242.41 226.59 239.5 223 239.5V241ZM223 241V239.5C219.41 239.5 216.5 242.41 216.5 246H218H219.5C219.5 244.067 221.067 242.5 223 242.5V241ZM223 279V277.5C221.067 277.5 219.5 275.933 219.5 274H218H216.5C216.5 277.59 219.41 280.5 223 280.5V279ZM228 274H226.5C226.5 275.933 224.933 277.5 223 277.5V279V280.5C226.59 280.5 229.5 277.59 229.5 274H228ZM223 269V270.5C224.933 270.5 226.5 272.067 226.5 274H228H229.5C229.5 270.41 226.59 267.5 223 267.5V269ZM223 269V267.5C219.41 267.5 216.5 270.41 216.5 274H218H219.5C219.5 272.067 221.067 270.5 223 270.5V269ZM251 279V277.5C249.067 277.5 247.5 275.933 247.5 274H246H244.5C244.5 277.59 247.41 280.5 251 280.5V279ZM256 274H254.5C254.5 275.933 252.933 277.5 251 277.5V279V280.5C254.59 280.5 257.5 277.59 257.5 274H256ZM251 269V270.5C252.933 270.5 254.5 272.067 254.5 274H256H257.5C257.5 270.41 254.59 267.5 251 267.5V269ZM251 269V267.5C247.41 267.5 244.5 270.41 244.5 274H246H247.5C247.5 272.067 249.067 270.5 251 270.5V269Z" fill="#738297"/>
<path d="M33 227.5H55C72.9493 227.5 87.5 242.051 87.5 260C87.5 277.949 72.9493 292.5 55 292.5H33C15.0507 292.5 0.5 277.949 0.5 260C0.500001 242.051 15.0507 227.5 33 227.5Z" fill="white" fill-opacity="0.7" stroke="#738297"/>
<path d="M54.9334 241.331C54.9485 241.257 55.0538 241.257 55.0689 241.331C55.8512 245.158 58.8423 248.149 62.6697 248.931C62.7434 248.947 62.7434 249.052 62.6697 249.067C58.8423 249.849 55.8512 252.84 55.0689 256.668C55.0538 256.741 54.9485 256.741 54.9334 256.668C54.1511 252.84 51.16 249.849 47.3327 249.067C47.2589 249.052 47.2589 248.947 47.3327 248.931C51.16 248.149 54.1511 245.158 54.9334 241.331Z" stroke="#A8CDFF" stroke-width="3"/>
<path d="M63.4413 236.752C63.5665 236.14 64.4413 236.14 64.5664 236.752C64.8428 238.104 65.8995 239.161 67.2517 239.437C67.8639 239.563 67.8639 240.437 67.2517 240.562C65.8995 240.839 64.8428 241.896 64.5664 243.248C64.4413 243.86 63.5665 243.86 63.4413 243.248C63.165 241.896 62.1082 240.839 60.7561 240.562C60.1438 240.437 60.1438 239.563 60.7561 239.437C62.1082 239.161 63.165 238.104 63.4413 236.752Z" fill="#A8CDFF"/>
<path d="M42.2305 249C41.4568 249.13 40.7104 249.34 40 249.621C35.8999 251.245 33 255.246 33 259.923C33 266.041 37.9592 271 44.0766 271C48.7545 271 52.7551 268.1 54.3789 264C54.6602 263.29 54.8702 262.543 55 261.77M47.8 241.38C46.5722 241.131 45.3014 241 44 241C33.5066 241 25 249.507 25 260C25 270.493 33.5066 279 44 279C54.4934 279 63 270.493 63 260C63 258.36 62.7922 256.768 62.4014 255.25M47.5 260C47.5 261.933 45.933 263.5 44 263.5C42.067 263.5 40.5 261.933 40.5 260C40.5 258.067 42.067 256.5 44 256.5C45.933 256.5 47.5 258.067 47.5 260Z" stroke="#738297" stroke-width="3" stroke-linecap="round"/>
<path d="M33 227.5H55C72.9493 227.5 87.5 242.051 87.5 260C87.5 277.949 72.9493 292.5 55 292.5H33C15.0507 292.5 0.5 277.949 0.5 260C0.500001 242.051 15.0507 227.5 33 227.5Z" fill="white" fill-opacity="0.7" stroke="#738297"/>
<path d="M54.9334 241.331C54.9485 241.257 55.0538 241.257 55.0689 241.331C55.8512 245.158 58.8423 248.149 62.6697 248.931C62.7434 248.947 62.7434 249.052 62.6697 249.067C58.8423 249.849 55.8512 252.84 55.0689 256.668C55.0538 256.741 54.9485 256.741 54.9334 256.668C54.1511 252.84 51.16 249.849 47.3327 249.067C47.2589 249.052 47.2589 248.947 47.3327 248.931C51.16 248.149 54.1511 245.158 54.9334 241.331Z" stroke="#A8CDFF" stroke-width="3"/>
<path d="M63.4413 236.752C63.5665 236.14 64.4413 236.14 64.5664 236.752C64.8428 238.104 65.8995 239.161 67.2517 239.437C67.8639 239.563 67.8639 240.437 67.2517 240.562C65.8995 240.839 64.8428 241.896 64.5664 243.248C64.4413 243.86 63.5665 243.86 63.4413 243.248C63.165 241.896 62.1082 240.839 60.7561 240.562C60.1438 240.437 60.1438 239.563 60.7561 239.437C62.1082 239.161 63.165 238.104 63.4413 236.752Z" fill="#A8CDFF"/>
<path d="M42.2305 249C41.4568 249.13 40.7104 249.34 40 249.621C35.8999 251.245 33 255.246 33 259.923C33 266.041 37.9592 271 44.0766 271C48.7545 271 52.7551 268.1 54.3789 264C54.6602 263.29 54.8702 262.543 55 261.77M47.8 241.38C46.5722 241.131 45.3014 241 44 241C33.5066 241 25 249.507 25 260C25 270.493 33.5066 279 44 279C54.4934 279 63 270.493 63 260C63 258.36 62.7922 256.768 62.4014 255.25M47.5 260C47.5 261.933 45.933 263.5 44 263.5C42.067 263.5 40.5 261.933 40.5 260C40.5 258.067 42.067 256.5 44 256.5C45.933 256.5 47.5 258.067 47.5 260Z" stroke="#738297" stroke-width="3" stroke-linecap="round"/>
<path d="M226 0.5H248C265.949 0.5 280.5 15.0507 280.5 33C280.5 50.9493 265.949 65.5 248 65.5H226C208.051 65.5 193.5 50.9493 193.5 33C193.5 15.0507 208.051 0.500001 226 0.5Z" fill="white" fill-opacity="0.7" stroke="#738297"/>
<path d="M231.821 12.6815C232.676 12.4522 233.968 12.2778 235.024 12.1622C235.473 12.1131 235.697 12.0885 236.178 12.0746C236.477 12.0659 237.162 12.0827 237.46 12.106C237.939 12.1435 238.157 12.1782 238.592 12.2476C240.526 12.5558 243.534 13.1447 244.997 14M244.078 27.5146L242.86 30.9167C242.327 32.4045 242.061 33.1485 241.634 33.7781C241.255 34.3362 240.785 34.8264 240.244 35.2283C239.633 35.6817 238.901 35.9793 237.437 36.5744L232.861 38.435C231.995 38.7871 231.562 38.9632 231.242 38.8816C230.964 38.8104 230.73 38.623 230.599 38.3671C230.45 38.0737 230.526 37.6125 230.68 36.6903L231.401 32.3522C231.692 30.6077 231.837 29.7354 232.199 28.9735C232.52 28.2988 232.965 27.69 233.509 27.1785C234.124 26.6009 234.911 26.1968 236.484 25.3886L249.07 18.9222C249.808 18.543 250.177 18.3534 250.595 18.3276C250.932 18.3067 251.359 18.3994 251.657 18.5578C252.027 18.7545 252.249 19.0351 252.693 19.5964C254.334 21.6707 255.588 24.1065 256.316 26.8236C259.175 37.493 252.843 48.4597 242.174 51.3185C231.504 54.1774 220.537 47.8457 217.679 37.1764C216.941 34.4226 216.815 31.6489 217.218 29" stroke="#738297" stroke-width="3" stroke-linecap="round"/>
<path d="M222.941 12.2906C222.954 12.2261 223.047 12.2261 223.06 12.2906C223.744 15.6395 226.362 18.2567 229.71 18.9412C229.775 18.9544 229.775 19.0466 229.71 19.0598C226.362 19.7443 223.744 22.3615 223.06 25.7105C223.047 25.775 222.954 25.775 222.941 25.7105C222.257 22.3615 219.64 19.7443 216.291 19.0598C216.226 19.0466 216.226 18.9544 216.291 18.9412C219.64 18.2567 222.257 15.6395 222.941 12.2906Z" stroke="#A8CDFF" stroke-width="3"/>
<path d="M226 0.5H248C265.949 0.5 280.5 15.0507 280.5 33C280.5 50.9493 265.949 65.5 248 65.5H226C208.051 65.5 193.5 50.9493 193.5 33C193.5 15.0507 208.051 0.500001 226 0.5Z" fill="white" fill-opacity="0.7" stroke="#738297"/>
<path d="M231.821 12.6815C232.676 12.4522 233.968 12.2778 235.024 12.1622C235.473 12.1131 235.697 12.0885 236.178 12.0746C236.477 12.0659 237.162 12.0827 237.46 12.106C237.939 12.1435 238.157 12.1782 238.592 12.2476C240.526 12.5558 243.534 13.1447 244.997 14M244.078 27.5146L242.86 30.9167C242.327 32.4045 242.061 33.1485 241.634 33.7781C241.255 34.3362 240.785 34.8264 240.244 35.2283C239.633 35.6817 238.901 35.9793 237.437 36.5744L232.861 38.435C231.995 38.7871 231.562 38.9632 231.242 38.8816C230.964 38.8104 230.73 38.623 230.599 38.3671C230.45 38.0737 230.526 37.6125 230.68 36.6903L231.401 32.3522C231.692 30.6077 231.837 29.7354 232.199 28.9735C232.52 28.2988 232.965 27.69 233.509 27.1785C234.124 26.6009 234.911 26.1968 236.484 25.3886L249.07 18.9222C249.808 18.543 250.177 18.3534 250.595 18.3276C250.932 18.3067 251.359 18.3994 251.657 18.5578C252.027 18.7545 252.249 19.0351 252.693 19.5964C254.334 21.6707 255.588 24.1065 256.316 26.8236C259.175 37.493 252.843 48.4597 242.174 51.3185C231.504 54.1774 220.537 47.8457 217.679 37.1764C216.941 34.4226 216.815 31.6489 217.218 29" stroke="#738297" stroke-width="3" stroke-linecap="round"/>
<path d="M222.941 12.2906C222.954 12.2261 223.047 12.2261 223.06 12.2906C223.744 15.6395 226.362 18.2567 229.71 18.9412C229.775 18.9544 229.775 19.0466 229.71 19.0598C226.362 19.7443 223.744 22.3615 223.06 25.7105C223.047 25.775 222.954 25.775 222.941 25.7105C222.257 22.3615 219.64 19.7443 216.291 19.0598C216.226 19.0466 216.226 18.9544 216.291 18.9412C219.64 18.2567 222.257 15.6395 222.941 12.2906Z" stroke="#A8CDFF" stroke-width="3"/>
<path d="M33 0.5H55C72.9493 0.5 87.5 15.0507 87.5 33C87.5 50.9493 72.9493 65.5 55 65.5H33C15.0507 65.5 0.5 50.9493 0.5 33C0.500001 15.0507 15.0507 0.500001 33 0.5Z" fill="white" fill-opacity="0.7" stroke="#738297"/>
<path d="M51.9412 14.2906C51.9544 14.2261 52.0466 14.2261 52.0598 14.2906C52.7443 17.6395 55.3615 20.2567 58.7105 20.9412C58.775 20.9544 58.775 21.0466 58.7105 21.0598C55.3615 21.7443 52.7443 24.3615 52.0598 27.7105C52.0466 27.775 51.9544 27.775 51.9412 27.7105C51.2567 24.3615 48.6395 21.7443 45.2906 21.0598C45.2261 21.0466 45.2261 20.9544 45.2906 20.9412C48.6395 20.2567 51.2567 17.6395 51.9412 14.2906Z" stroke="#A8CDFF" stroke-width="3"/>
<path d="M44.4374 28.7521C44.5626 28.1399 45.4374 28.1399 45.5625 28.7521C45.8389 30.1043 46.8956 31.1611 48.2478 31.4374C48.86 31.5626 48.86 32.4374 48.2478 32.5625C46.8956 32.8389 45.8389 33.8956 45.5625 35.2478C45.4374 35.86 44.5626 35.86 44.4374 35.2478C44.1611 33.8956 43.1043 32.8389 41.7521 32.5625C41.1399 32.4374 41.1399 31.5626 41.7521 31.4374C43.1043 31.1611 44.1611 30.1043 44.4374 28.7521Z" fill="#A8CDFF"/>
<path d="M30.0885 19.0892C33.3759 15.8019 37.6494 14.096 41.9553 13.9717C42.7833 13.9479 43.4741 14.5993 43.498 15.4273C43.5217 16.2552 42.8695 16.9452 42.0417 16.9693C38.4706 17.0724 34.9345 18.4859 32.2098 21.2105C26.5473 26.8731 26.5473 36.054 32.2098 41.7166C37.8724 47.3791 47.0534 47.3791 52.7159 41.7166C55.6543 38.7782 57.0683 34.895 56.9572 31.0424C56.9334 30.2144 57.5849 29.5237 58.4128 29.4997C59.2407 29.4759 59.9313 30.1275 59.9555 30.9553C60.076 35.1311 58.7071 39.3453 55.8517 42.731L61.9083 48.7877C62.494 49.3735 62.494 50.3233 61.9083 50.909C61.3226 51.4947 60.3728 51.4947 59.787 50.909L53.7303 44.8523C46.8547 50.6519 36.5661 50.314 30.0892 43.8373C23.2551 37.0031 23.2544 25.9234 30.0885 19.0892Z" fill="#738297"/>
<path d="M33 0.5H55C72.9493 0.5 87.5 15.0507 87.5 33C87.5 50.9493 72.9493 65.5 55 65.5H33C15.0507 65.5 0.5 50.9493 0.5 33C0.500001 15.0507 15.0507 0.500001 33 0.5Z" fill="white" fill-opacity="0.7" stroke="#738297"/>
<path d="M51.9412 14.2906C51.9544 14.2261 52.0466 14.2261 52.0598 14.2906C52.7443 17.6395 55.3615 20.2567 58.7105 20.9412C58.775 20.9544 58.775 21.0466 58.7105 21.0598C55.3615 21.7443 52.7443 24.3615 52.0598 27.7105C52.0466 27.775 51.9544 27.775 51.9412 27.7105C51.2567 24.3615 48.6395 21.7443 45.2906 21.0598C45.2261 21.0466 45.2261 20.9544 45.2906 20.9412C48.6395 20.2567 51.2567 17.6395 51.9412 14.2906Z" stroke="#A8CDFF" stroke-width="3"/>
<path d="M44.4374 28.7521C44.5626 28.1399 45.4374 28.1399 45.5625 28.7521C45.8389 30.1043 46.8956 31.1611 48.2478 31.4374C48.86 31.5626 48.86 32.4374 48.2478 32.5625C46.8956 32.8389 45.8389 33.8956 45.5625 35.2478C45.4374 35.86 44.5626 35.86 44.4374 35.2478C44.1611 33.8956 43.1043 32.8389 41.7521 32.5625C41.1399 32.4374 41.1399 31.5626 41.7521 31.4374C43.1043 31.1611 44.1611 30.1043 44.4374 28.7521Z" fill="#A8CDFF"/>
<path d="M30.0885 19.0892C33.3759 15.8019 37.6494 14.096 41.9553 13.9717C42.7833 13.9479 43.4741 14.5993 43.498 15.4273C43.5217 16.2552 42.8695 16.9452 42.0417 16.9693C38.4706 17.0724 34.9345 18.4859 32.2098 21.2105C26.5473 26.8731 26.5473 36.054 32.2098 41.7166C37.8724 47.3791 47.0534 47.3791 52.7159 41.7166C55.6543 38.7782 57.0683 34.895 56.9572 31.0424C56.9334 30.2144 57.5849 29.5237 58.4128 29.4997C59.2407 29.4759 59.9313 30.1275 59.9555 30.9553C60.076 35.1311 58.7071 39.3453 55.8517 42.731L61.9083 48.7877C62.494 49.3735 62.494 50.3233 61.9083 50.909C61.3226 51.4947 60.3728 51.4947 59.787 50.909L53.7303 44.8523C46.8547 50.6519 36.5661 50.314 30.0892 43.8373C23.2551 37.0031 23.2544 25.9234 30.0885 19.0892Z" fill="#738297"/>
<g clip-path="url(#clip0_0_1)">
<path d="M33 0.5H55C72.9493 0.5 87.5 15.0507 87.5 33C87.5 50.9493 72.9493 65.5 55 65.5H33C15.0507 65.5 0.5 50.9493 0.5 33C0.500001 15.0507 15.0507 0.500001 33 0.5Z" fill="white" fill-opacity="0.7" stroke="#738297"/>
<path d="M51.9412 14.2906C51.9544 14.2261 52.0466 14.2261 52.0598 14.2906C52.7443 17.6395 55.3615 20.2567 58.7105 20.9412C58.775 20.9544 58.775 21.0466 58.7105 21.0598C55.3615 21.7443 52.7443 24.3615 52.0598 27.7105C52.0466 27.775 51.9544 27.775 51.9412 27.7105C51.2567 24.3615 48.6395 21.7443 45.2906 21.0598C45.2261 21.0466 45.2261 20.9544 45.2906 20.9412C48.6395 20.2567 51.2567 17.6395 51.9412 14.2906Z" stroke="#A8CDFF" stroke-width="3"/>
<path d="M44.4374 28.7521C44.5626 28.1399 45.4374 28.1399 45.5625 28.7521C45.8389 30.1043 46.8956 31.1611 48.2478 31.4374C48.86 31.5626 48.86 32.4374 48.2478 32.5625C46.8956 32.8389 45.8389 33.8956 45.5625 35.2478C45.4374 35.86 44.5626 35.86 44.4374 35.2478C44.1611 33.8956 43.1043 32.8389 41.7521 32.5625C41.1399 32.4374 41.1399 31.5626 41.7521 31.4374C43.1043 31.1611 44.1611 30.1043 44.4374 28.7521Z" fill="#A8CDFF"/>
<path d="M30.0901 19.0888C33.3775 15.8015 37.651 14.0956 41.9569 13.9713C42.7849 13.9475 43.4757 14.5989 43.4996 15.4269C43.5233 16.2548 42.8711 16.9448 42.0433 16.9689C38.4722 17.072 34.9361 18.4855 32.2114 21.2101C26.5489 26.8727 26.5489 36.0536 32.2114 41.7162C37.874 47.3787 47.055 47.3787 52.7175 41.7162C55.6559 38.7778 57.0699 34.8946 56.9588 31.042C56.935 30.214 57.5865 29.5233 58.4144 29.4993C59.2423 29.4755 59.9329 30.1271 59.9571 30.9549C60.0776 35.1307 58.7087 39.3449 55.8533 42.7306L61.9099 48.7873C62.4956 49.3731 62.4956 50.3229 61.9099 50.9086C61.3242 51.4943 60.3744 51.4943 59.7886 50.9086L53.7319 44.8519C46.8563 50.6515 36.5677 50.3136 30.0908 43.8369C23.2567 37.0027 23.256 25.923 30.0901 19.0888Z" fill="#738297"/>
<path d="M33 0.5H55C72.9493 0.5 87.5 15.0507 87.5 33C87.5 50.9493 72.9493 65.5 55 65.5H33C15.0507 65.5 0.5 50.9493 0.5 33C0.500001 15.0507 15.0507 0.500001 33 0.5Z" fill="white" fill-opacity="0.7" stroke="#738297"/>
<path d="M51.9412 14.2906C51.9544 14.2261 52.0466 14.2261 52.0598 14.2906C52.7443 17.6395 55.3615 20.2567 58.7105 20.9412C58.775 20.9544 58.775 21.0466 58.7105 21.0598C55.3615 21.7443 52.7443 24.3615 52.0598 27.7105C52.0466 27.775 51.9544 27.775 51.9412 27.7105C51.2567 24.3615 48.6395 21.7443 45.2906 21.0598C45.2261 21.0466 45.2261 20.9544 45.2906 20.9412C48.6395 20.2567 51.2567 17.6395 51.9412 14.2906Z" stroke="#A8CDFF" stroke-width="3"/>
<path d="M44.4374 28.7521C44.5626 28.1399 45.4374 28.1399 45.5625 28.7521C45.8389 30.1043 46.8956 31.1611 48.2478 31.4374C48.86 31.5626 48.86 32.4374 48.2478 32.5625C46.8956 32.8389 45.8389 33.8956 45.5625 35.2478C45.4374 35.86 44.5626 35.86 44.4374 35.2478C44.1611 33.8956 43.1043 32.8389 41.7521 32.5625C41.1399 32.4374 41.1399 31.5626 41.7521 31.4374C43.1043 31.1611 44.1611 30.1043 44.4374 28.7521Z" fill="#A8CDFF"/>
<path d="M30.0901 19.0888C33.3775 15.8015 37.651 14.0956 41.9569 13.9713C42.7849 13.9475 43.4757 14.5989 43.4996 15.4269C43.5233 16.2548 42.8711 16.9448 42.0433 16.9689C38.4722 17.072 34.9361 18.4855 32.2114 21.2101C26.5489 26.8727 26.5489 36.0536 32.2114 41.7162C37.874 47.3787 47.055 47.3787 52.7175 41.7162C55.6559 38.7778 57.0699 34.8946 56.9588 31.042C56.935 30.214 57.5865 29.5233 58.4144 29.4993C59.2423 29.4755 59.9329 30.1271 59.9571 30.9549C60.0776 35.1307 58.7087 39.3449 55.8533 42.7306L61.9099 48.7873C62.4956 49.3731 62.4956 50.3229 61.9099 50.9086C61.3242 51.4943 60.3744 51.4943 59.7886 50.9086L53.7319 44.8519C46.8563 50.6515 36.5677 50.3136 30.0908 43.8369C23.2567 37.0027 23.256 25.923 30.0901 19.0888Z" fill="#738297"/>
</g>
<line x1="88.5" y1="259.5" x2="192.5" y2="259.5" stroke="#738297" stroke-linecap="round" stroke-dasharray="4 4"/>
<line x1="238" y1="66" x2="238" y2="185" stroke="#A8CDFF" stroke-width="2"/>
<line x1="44.5" y1="66.5" x2="44.5" y2="226.5" stroke="#738297" stroke-linecap="round" stroke-dasharray="4 4"/>
<line x1="88.5" y1="32.5" x2="192.5" y2="32.5" stroke="#738297" stroke-linecap="round" stroke-dasharray="4 4"/>
<circle cx="238" cy="188" r="4" fill="#A8CDFF"/>
<defs>
<clipPath id="clip0_0_1">
<rect width="88" height="66" fill="white"/>
</clipPath>
</defs>
</svg>
