<svg width="625" height="66" viewBox="0 0 625 66" fill="none" xmlns="http://www.w3.org/2000/svg">
<path d="M33 0.5C50.9493 0.5 65.5 15.0507 65.5 33C65.5 50.9493 50.9493 65.5 33 65.5C15.0507 65.5 0.5 50.9493 0.5 33C0.500001 15.0507 15.0507 0.5 33 0.5Z" fill="white" fill-opacity="0.7" stroke="#738297"/>
<path d="M172 0.5C189.949 0.5 204.5 15.0507 204.5 33C204.5 50.9493 189.949 65.5 172 65.5C154.051 65.5 139.5 50.9493 139.5 33C139.5 15.0507 154.051 0.5 172 0.5Z" fill="white" fill-opacity="0.7" stroke="#738297"/>
<path d="M312 0.5C329.949 0.5 344.5 15.0507 344.5 33C344.5 50.9493 329.949 65.5 312 65.5C294.051 65.5 279.5 50.9493 279.5 33C279.5 15.0507 294.051 0.5 312 0.5Z" fill="white" fill-opacity="0.7" stroke="#738297"/>
<path d="M592 0.5C609.949 0.5 624.5 15.0507 624.5 33C624.5 50.9493 609.949 65.5 592 65.5C574.051 65.5 559.5 50.9493 559.5 33C559.5 15.0507 574.051 0.5 592 0.5Z" fill="white" fill-opacity="0.7" stroke="#738297"/>
<path d="M452 0.5C469.949 0.5 484.5 15.0507 484.5 33C484.5 50.9493 469.949 65.5 452 65.5C434.051 65.5 419.5 50.9493 419.5 33C419.5 15.0507 434.051 0.5 452 0.5Z" fill="white" fill-opacity="0.7" stroke="#738297"/>
<line x1="66.5" y1="32.5" x2="139.5" y2="32.5" stroke="#738297" stroke-linecap="round" stroke-dasharray="4 4"/>
<line x1="205.5" y1="33.5" x2="278.5" y2="33.5" stroke="#738297" stroke-linecap="round" stroke-dasharray="4 4"/>
<line x1="205.5" y1="33.5" x2="278.5" y2="33.5" stroke="#738297" stroke-linecap="round" stroke-dasharray="4 4"/>
<line x1="345" y1="33" x2="391" y2="33" stroke="#A8CDFF" stroke-width="2"/>
<circle cx="394" cy="33" r="4" transform="rotate(-90 394 33)" fill="#A8CDFF"/>
<path d="M48 28V22.6C48 19.2397 48 17.5595 47.346 16.2761C46.7708 15.1471 45.8529 14.2292 44.7239 13.654C43.4405 13 41.7603 13 38.4 13H25.6C22.2397 13 20.5595 13 19.2761 13.654C18.1471 14.2292 17.2292 15.1471 16.654 16.2761C16 17.5595 16 19.2397 16 22.6V43.4C16 46.7603 16 48.4405 16.654 49.7239C17.2292 50.8529 18.1471 51.7708 19.2761 52.346C20.5595 53 22.2397 53 25.6 53H36M36 31H24M28 39H24M40 23H24M41 39.0045C41.3524 38.0027 42.0479 37.158 42.9635 36.62C43.879 36.0819 44.9554 35.8852 46.002 36.0647C47.0487 36.2443 47.998 36.7884 48.6819 37.6008C49.3658 38.4132 49.7401 39.4414 49.7385 40.5034C49.7385 43.5011 45.2418 45 45.2418 45M45.2998 51H45.3198" stroke="#738297" stroke-width="3" stroke-linecap="round" stroke-linejoin="round"/>
<path d="M460 17C461.86 17 462.79 17 463.553 17.2044C465.623 17.7592 467.241 19.3765 467.796 21.4471C468 22.2101 468 23.1401 468 25V43.4C468 46.7603 468 48.4405 467.346 49.7239C466.771 50.8529 465.853 51.7708 464.724 52.346C463.44 53 461.76 53 458.4 53H445.6C442.24 53 440.56 53 439.276 52.346C438.147 51.7708 437.229 50.8529 436.654 49.7239C436 48.4405 436 46.7603 436 43.4V25C436 23.1401 436 22.2101 436.204 21.4471C436.759 19.3765 438.377 17.7592 440.447 17.2044C441.21 17 442.14 17 444 17M446 39L450 43L459 34M447.2 21H456.8C457.92 21 458.48 21 458.908 20.782C459.284 20.5903 459.59 20.2843 459.782 19.908C460 19.4802 460 18.9201 460 17.8V16.2C460 15.0799 460 14.5198 459.782 14.092C459.59 13.7157 459.284 13.4097 458.908 13.218C458.48 13 457.92 13 456.8 13H447.2C446.08 13 445.52 13 445.092 13.218C444.716 13.4097 444.41 13.7157 444.218 14.092C444 14.5198 444 15.0799 444 16.2V17.8C444 18.9201 444 19.4802 444.218 19.908C444.41 20.2843 444.716 20.5903 445.092 20.782C445.52 21 446.08 21 447.2 21Z" stroke="#738297" stroke-width="3" stroke-linecap="round" stroke-linejoin="round"/>
<path d="M324 39L330 45M330 45L324 51M330 45H325.138C323.259 45 322.32 45 321.468 44.7411C320.713 44.5119 320.011 44.1361 319.401 43.6353C318.713 43.0695 318.192 42.2881 317.15 40.7251L316.667 40M324 15L330 21M330 21L324 27M330 21H325.138C323.259 21 322.32 21 321.468 21.2589C320.713 21.4881 320.011 21.8639 319.401 22.3647C318.713 22.9305 318.192 23.7119 317.15 25.2749L306.85 40.7251C305.808 42.2881 305.287 43.0695 304.599 43.6353C303.989 44.1361 303.287 44.5119 302.532 44.7411C301.68 45 300.741 45 298.862 45H294M294 21H298.862C300.741 21 301.68 21 302.532 21.2589C303.287 21.4881 303.989 21.8639 304.599 22.3647C305.287 22.9305 305.808 23.7119 306.85 25.2749L307.333 26" stroke="#738297" stroke-width="3" stroke-linecap="round" stroke-linejoin="round"/>
<path d="M188 49V35M172 49V29M156 49L156 41M174.813 19.055L185.15 22.9313M169.598 19.8018L158.4 28.1997M190.121 21.8787C191.293 23.0503 191.293 24.9497 190.121 26.1213C188.95 27.2929 187.05 27.2929 185.879 26.1213C184.707 24.9497 184.707 23.0503 185.879 21.8787C187.05 20.7071 188.95 20.7071 190.121 21.8787ZM158.121 27.8787C159.293 29.0503 159.293 30.9497 158.121 32.1213C156.95 33.2929 155.05 33.2929 153.879 32.1213C152.707 30.9497 152.707 29.0503 153.879 27.8787C155.05 26.7071 156.95 26.7071 158.121 27.8787ZM174.121 15.8787C175.293 17.0503 175.293 18.9497 174.121 20.1213C172.95 21.2929 171.05 21.2929 169.879 20.1213C168.707 18.9497 168.707 17.0503 169.879 15.8787C171.05 14.7071 172.95 14.7071 174.121 15.8787Z" stroke="#738297" stroke-width="3" stroke-linecap="round" stroke-linejoin="round"/>
<path d="M604.355 25C614.547 25 614.547 41 604.355 41C594.165 41 590.089 25 578.878 25C569.707 25 569.707 41 578.878 41C590.089 41 594.166 25 604.358 25H604.355Z" stroke="#738297" stroke-width="3" stroke-linecap="round" stroke-linejoin="round"/>
</svg>
