<svg width="626" height="66" viewBox="0 0 626 66" fill="none" xmlns="http://www.w3.org/2000/svg">
<path d="M0 33C0 14.7746 14.7746 0 33 0V0C51.2254 0 66 14.7746 66 33V33C66 51.2254 51.2254 66 33 66V66C14.7746 66 0 51.2254 0 33V33Z" fill="#A1BCD1" fill-opacity="0.06"/>
<path d="M33 0.5C50.9493 0.5 65.5 15.0507 65.5 33C65.5 50.9493 50.9493 65.5 33 65.5C15.0507 65.5 0.5 50.9493 0.5 33C0.500001 15.0507 15.0507 0.5 33 0.5Z" stroke="#A1BCD1" stroke-opacity="0.4"/>
<path d="M140 33C140 14.7746 154.775 0 173 0V0C191.225 0 206 14.7746 206 33V33C206 51.2254 191.225 66 173 66V66C154.775 66 140 51.2254 140 33V33Z" fill="#A1BCD1" fill-opacity="0.06"/>
<path d="M173 0.5C190.949 0.5 205.5 15.0507 205.5 33C205.5 50.9493 190.949 65.5 173 65.5C155.051 65.5 140.5 50.9493 140.5 33C140.5 15.0507 155.051 0.5 173 0.5Z" stroke="#A1BCD1" stroke-opacity="0.4"/>
<path d="M560 33C560 14.7746 574.775 0 593 0V0C611.225 0 626 14.7746 626 33V33C626 51.2254 611.225 66 593 66V66C574.775 66 560 51.2254 560 33V33Z" fill="#A1BCD1" fill-opacity="0.06"/>
<path d="M593 0.5C610.949 0.5 625.5 15.0507 625.5 33C625.5 50.9493 610.949 65.5 593 65.5C575.051 65.5 560.5 50.9493 560.5 33C560.5 15.0507 575.051 0.5 593 0.5Z" stroke="#A1BCD1" stroke-opacity="0.4"/>
<path d="M280 33C280 14.7746 294.775 0 313 0V0C331.225 0 346 14.7746 346 33V33C346 51.2254 331.225 66 313 66V66C294.775 66 280 51.2254 280 33V33Z" fill="#A1BCD1" fill-opacity="0.06"/>
<path d="M313 0.5C330.949 0.5 345.5 15.0507 345.5 33C345.5 50.9493 330.949 65.5 313 65.5C295.051 65.5 280.5 50.9493 280.5 33C280.5 15.0507 295.051 0.5 313 0.5Z" stroke="#A1BCD1" stroke-opacity="0.4"/>
<path d="M420 33C420 14.7746 434.775 0 453 0V0C471.225 0 486 14.7746 486 33V33C486 51.2254 471.225 66 453 66V66C434.775 66 420 51.2254 420 33V33Z" fill="#A1BCD1" fill-opacity="0.06"/>
<path d="M453 0.5C470.949 0.5 485.5 15.0507 485.5 33C485.5 50.9493 470.949 65.5 453 65.5C435.051 65.5 420.5 50.9493 420.5 33C420.5 15.0507 435.051 0.5 453 0.5Z" stroke="#A1BCD1" stroke-opacity="0.4"/>
<line x1="66.5" y1="32.5" x2="139.5" y2="32.5" stroke="#A1BCD1" stroke-opacity="0.4" stroke-linecap="round" stroke-dasharray="4 4"/>
<line x1="205.5" y1="33.5" x2="278.5" y2="33.5" stroke="#A1BCD1" stroke-opacity="0.4" stroke-linecap="round" stroke-dasharray="4 4"/>
<line x1="345" y1="33" x2="391" y2="33" stroke="#A8CDFF" stroke-width="2"/>
<circle cx="394" cy="33" r="4" transform="rotate(-90 394 33)" fill="#A8CDFF"/>
<path d="M49 28V22.6C49 19.2397 49 17.5595 48.346 16.2761C47.7708 15.1471 46.8529 14.2292 45.7239 13.654C44.4405 13 42.7603 13 39.4 13H26.6C23.2397 13 21.5595 13 20.2761 13.654C19.1471 14.2292 18.2292 15.1471 17.654 16.2761C17 17.5595 17 19.2397 17 22.6V43.4C17 46.7603 17 48.4405 17.654 49.7239C18.2292 50.8529 19.1471 51.7708 20.2761 52.346C21.5595 53 23.2397 53 26.6 53H37M37 31H25M29 39H25M41 23H25M42 39.0045C42.3524 38.0027 43.0479 37.158 43.9635 36.62C44.879 36.0819 45.9554 35.8852 47.002 36.0647C48.0487 36.2443 48.998 36.7884 49.6819 37.6008C50.3658 38.4132 50.7401 39.4414 50.7385 40.5034C50.7385 43.5011 46.2418 45 46.2418 45M46.2998 51H46.3198" stroke="white" stroke-width="3" stroke-linecap="round" stroke-linejoin="round"/>
<path d="M461 17C462.86 17 463.79 17 464.553 17.2044C466.623 17.7592 468.241 19.3765 468.796 21.4471C469 22.2101 469 23.1401 469 25V43.4C469 46.7603 469 48.4405 468.346 49.7239C467.771 50.8529 466.853 51.7708 465.724 52.346C464.44 53 462.76 53 459.4 53H446.6C443.24 53 441.56 53 440.276 52.346C439.147 51.7708 438.229 50.8529 437.654 49.7239C437 48.4405 437 46.7603 437 43.4V25C437 23.1401 437 22.2101 437.204 21.4471C437.759 19.3765 439.377 17.7592 441.447 17.2044C442.21 17 443.14 17 445 17M447 39L451 43L460 34M448.2 21H457.8C458.92 21 459.48 21 459.908 20.782C460.284 20.5903 460.59 20.2843 460.782 19.908C461 19.4802 461 18.9201 461 17.8V16.2C461 15.0799 461 14.5198 460.782 14.092C460.59 13.7157 460.284 13.4097 459.908 13.218C459.48 13 458.92 13 457.8 13H448.2C447.08 13 446.52 13 446.092 13.218C445.716 13.4097 445.41 13.7157 445.218 14.092C445 14.5198 445 15.0799 445 16.2V17.8C445 18.9201 445 19.4802 445.218 19.908C445.41 20.2843 445.716 20.5903 446.092 20.782C446.52 21 447.08 21 448.2 21Z" stroke="white" stroke-width="3" stroke-linecap="round" stroke-linejoin="round"/>
<path d="M325 39L331 45M331 45L325 51M331 45H326.138C324.259 45 323.32 45 322.468 44.7411C321.713 44.5119 321.011 44.1361 320.401 43.6353C319.713 43.0695 319.192 42.2881 318.15 40.7251L317.667 40M325 15L331 21M331 21L325 27M331 21H326.138C324.259 21 323.32 21 322.468 21.2589C321.713 21.4881 321.011 21.8639 320.401 22.3647C319.713 22.9305 319.192 23.7119 318.15 25.2749L307.85 40.7251C306.808 42.2881 306.287 43.0695 305.599 43.6353C304.989 44.1361 304.287 44.5119 303.532 44.7411C302.68 45 301.741 45 299.862 45H295M295 21H299.862C301.741 21 302.68 21 303.532 21.2589C304.287 21.4881 304.989 21.8639 305.599 22.3647C306.287 22.9305 306.808 23.7119 307.85 25.2749L308.333 26" stroke="white" stroke-width="3" stroke-linecap="round" stroke-linejoin="round"/>
<path d="M189 49V35M173 49V29M157 49L157 41M175.813 19.055L186.15 22.9313M170.598 19.8018L159.4 28.1997M191.121 21.8787C192.293 23.0503 192.293 24.9497 191.121 26.1213C189.95 27.2929 188.05 27.2929 186.879 26.1213C185.707 24.9497 185.707 23.0503 186.879 21.8787C188.05 20.7071 189.95 20.7071 191.121 21.8787ZM159.121 27.8787C160.293 29.0503 160.293 30.9497 159.121 32.1213C157.95 33.2929 156.05 33.2929 154.879 32.1213C153.707 30.9497 153.707 29.0503 154.879 27.8787C156.05 26.7071 157.95 26.7071 159.121 27.8787ZM175.121 15.8787C176.293 17.0503 176.293 18.9497 175.121 20.1213C173.95 21.2929 172.05 21.2929 170.879 20.1213C169.707 18.9497 169.707 17.0503 170.879 15.8787C172.05 14.7071 173.95 14.7071 175.121 15.8787Z" stroke="white" stroke-width="3" stroke-linecap="round" stroke-linejoin="round"/>
<path d="M605.355 25C615.547 25 615.547 41 605.355 41C595.165 41 591.089 25 579.878 25C570.707 25 570.707 41 579.878 41C591.089 41 595.166 25 605.358 25H605.355Z" stroke="white" stroke-width="3" stroke-linecap="round" stroke-linejoin="round"/>
</svg>
