<svg width="347" height="411" viewBox="0 0 347 411" fill="none" xmlns="http://www.w3.org/2000/svg">
<path d="M81 0.5H261C273.426 0.5 283.5 10.5736 283.5 23C283.5 35.4264 273.426 45.5 261 45.5H81C68.5736 45.5 58.5 35.4264 58.5 23C58.5 10.5736 68.5736 0.5 81 0.5Z" fill="#A1BCD1" fill-opacity="0.1" stroke="#738297"/>
<path d="M93.9513 30V15.8H98.3513C100.538 15.8 102.218 16.42 103.391 17.66C104.578 18.8867 105.171 20.64 105.171 22.92C105.171 25.1867 104.591 26.9333 103.431 28.16C102.271 29.3867 100.618 30 98.4713 30H93.9513ZM95.6713 28.32H98.3513C100.018 28.32 101.271 27.8733 102.111 26.98C102.951 26.0733 103.371 24.72 103.371 22.92C103.371 21.0933 102.951 19.7333 102.111 18.84C101.271 17.9333 100.018 17.48 98.3513 17.48H95.6713V28.32ZM107.403 30V19.4H109.083V30H107.403ZM107.363 17.74V15.78H109.123V17.74H107.363ZM116.11 33.24C115.35 33.24 114.664 33.1133 114.05 32.86C113.437 32.6067 112.924 32.2467 112.51 31.78C112.097 31.3133 111.817 30.7733 111.67 30.16L113.43 30.04C113.59 30.5333 113.87 30.92 114.27 31.2C114.684 31.4933 115.297 31.64 116.11 31.64C117.07 31.64 117.804 31.4467 118.31 31.06C118.83 30.6733 119.09 30.0933 119.09 29.32V27.6C118.837 28.16 118.43 28.6067 117.87 28.94C117.31 29.2733 116.684 29.44 115.99 29.44C115.097 29.44 114.297 29.22 113.59 28.78C112.897 28.34 112.35 27.7333 111.95 26.96C111.564 26.1867 111.37 25.3 111.37 24.3C111.37 23.2867 111.564 22.4 111.95 21.64C112.337 20.8667 112.87 20.26 113.55 19.82C114.244 19.38 115.03 19.16 115.91 19.16C116.657 19.16 117.324 19.3333 117.91 19.68C118.51 20.0267 118.93 20.4933 119.17 21.08V19.4H120.77V29.28C120.77 30.1067 120.584 30.8133 120.21 31.4C119.837 32 119.304 32.4533 118.61 32.76C117.917 33.08 117.084 33.24 116.11 33.24ZM116.07 27.84C116.977 27.84 117.704 27.5267 118.25 26.9C118.797 26.26 119.077 25.3933 119.09 24.3C119.104 23.5667 118.984 22.94 118.73 22.42C118.49 21.8867 118.137 21.48 117.67 21.2C117.217 20.9067 116.684 20.76 116.07 20.76C115.137 20.76 114.41 21.08 113.89 21.72C113.384 22.3467 113.13 23.2067 113.13 24.3C113.13 25.3933 113.39 26.26 113.91 26.9C114.444 27.5267 115.164 27.84 116.07 27.84ZM123.672 30V19.4H125.352V30H123.672ZM123.632 17.74V15.78H125.392V17.74H123.632ZM131.634 30C130.674 30 129.961 29.78 129.494 29.34C129.041 28.9 128.814 28.2133 128.814 27.28V16.92H130.494V27.24C130.494 27.72 130.601 28.0533 130.814 28.24C131.028 28.4267 131.354 28.52 131.794 28.52H133.314V30H131.634ZM127.254 20.88V19.4H133.314V20.88H127.254ZM138.251 30.24C137.158 30.24 136.284 29.9867 135.631 29.48C134.991 28.9733 134.671 28.2667 134.671 27.36C134.671 26.4533 134.938 25.74 135.471 25.22C136.004 24.7 136.851 24.3333 138.011 24.12L141.771 23.42C141.771 22.5267 141.558 21.86 141.131 21.42C140.718 20.98 140.091 20.76 139.251 20.76C138.518 20.76 137.938 20.9267 137.511 21.26C137.084 21.58 136.791 22.0467 136.631 22.66L134.851 22.52C135.051 21.52 135.531 20.7133 136.291 20.1C137.064 19.4733 138.051 19.16 139.251 19.16C140.611 19.16 141.651 19.5467 142.371 20.32C143.091 21.08 143.451 22.1333 143.451 23.48V27.86C143.451 28.1 143.491 28.2733 143.571 28.38C143.664 28.4733 143.811 28.52 144.011 28.52H144.431V30C144.378 30.0133 144.291 30.02 144.171 30.02C144.051 30.0333 143.924 30.04 143.791 30.04C143.311 30.04 142.918 29.9667 142.611 29.82C142.318 29.66 142.104 29.42 141.971 29.1C141.838 28.7667 141.771 28.3333 141.771 27.8L141.971 27.84C141.878 28.2933 141.651 28.7067 141.291 29.08C140.931 29.44 140.484 29.7267 139.951 29.94C139.418 30.14 138.851 30.24 138.251 30.24ZM138.411 28.76C139.118 28.76 139.718 28.6267 140.211 28.36C140.718 28.08 141.104 27.7067 141.371 27.24C141.638 26.76 141.771 26.2267 141.771 25.64V24.88L138.331 25.52C137.611 25.6533 137.111 25.86 136.831 26.14C136.564 26.4067 136.431 26.76 136.431 27.2C136.431 27.6933 136.604 28.08 136.951 28.36C137.311 28.6267 137.798 28.76 138.411 28.76ZM148.291 30C147.678 30 147.178 29.84 146.791 29.52C146.405 29.2 146.211 28.6933 146.211 28V15.8H147.891V27.86C147.891 28.0733 147.945 28.24 148.051 28.36C148.171 28.4667 148.338 28.52 148.551 28.52H149.471V30H148.291ZM159.443 30L155.703 15.8H157.583L160.503 27.64L163.403 15.8H165.363L168.283 27.64L171.183 15.8H173.083L169.343 30H167.183L164.383 19L161.583 30H159.443ZM178.789 30.24C177.815 30.24 176.962 30.0133 176.229 29.56C175.495 29.1067 174.929 28.4667 174.529 27.64C174.129 26.8 173.929 25.82 173.929 24.7C173.929 23.5667 174.129 22.5867 174.529 21.76C174.929 20.9333 175.495 20.2933 176.229 19.84C176.962 19.3867 177.815 19.16 178.789 19.16C179.762 19.16 180.609 19.3867 181.329 19.84C182.062 20.2933 182.629 20.9333 183.029 21.76C183.429 22.5867 183.629 23.5667 183.629 24.7C183.629 25.82 183.429 26.8 183.029 27.64C182.629 28.4667 182.062 29.1067 181.329 29.56C180.609 30.0133 179.762 30.24 178.789 30.24ZM178.789 28.64C179.762 28.64 180.515 28.2933 181.049 27.6C181.595 26.8933 181.869 25.9267 181.869 24.7C181.869 23.4733 181.595 22.5133 181.049 21.82C180.515 21.1133 179.762 20.76 178.789 20.76C177.815 20.76 177.055 21.1133 176.509 21.82C175.962 22.5133 175.689 23.4733 175.689 24.7C175.689 25.9267 175.962 26.8933 176.509 27.6C177.055 28.2933 177.815 28.64 178.789 28.64ZM185.918 30V19.4H187.398L187.478 22.08L187.318 22.02C187.452 21.1133 187.738 20.4533 188.178 20.04C188.632 19.6133 189.232 19.4 189.978 19.4H191.018V21H189.998C189.465 21 189.018 21.1 188.658 21.3C188.312 21.4867 188.045 21.7733 187.858 22.16C187.685 22.5333 187.598 23.0133 187.598 23.6V30H185.918ZM192.891 30V15.8H194.571V25.1L199.731 19.4H201.971L197.791 23.9L202.151 30H200.111L196.651 25.04L194.571 27.24V30H192.891ZM204.536 30V18.44C204.536 17.6533 204.763 17.02 205.216 16.54C205.67 16.0467 206.376 15.8 207.336 15.8H209.016V17.28H207.456C207.043 17.28 206.73 17.3933 206.516 17.62C206.316 17.8467 206.216 18.16 206.216 18.56V30H204.536ZM203.096 20.88V19.4H208.876V20.88H203.096ZM214.648 30.24C213.675 30.24 212.822 30.0133 212.088 29.56C211.355 29.1067 210.788 28.4667 210.388 27.64C209.988 26.8 209.788 25.82 209.788 24.7C209.788 23.5667 209.988 22.5867 210.388 21.76C210.788 20.9333 211.355 20.2933 212.088 19.84C212.822 19.3867 213.675 19.16 214.648 19.16C215.622 19.16 216.468 19.3867 217.188 19.84C217.922 20.2933 218.488 20.9333 218.888 21.76C219.288 22.5867 219.488 23.5667 219.488 24.7C219.488 25.82 219.288 26.8 218.888 27.64C218.488 28.4667 217.922 29.1067 217.188 29.56C216.468 30.0133 215.622 30.24 214.648 30.24ZM214.648 28.64C215.622 28.64 216.375 28.2933 216.908 27.6C217.455 26.8933 217.728 25.9267 217.728 24.7C217.728 23.4733 217.455 22.5133 216.908 21.82C216.375 21.1133 215.622 20.76 214.648 20.76C213.675 20.76 212.915 21.1133 212.368 21.82C211.822 22.5133 211.548 23.4733 211.548 24.7C211.548 25.9267 211.822 26.8933 212.368 27.6C212.915 28.2933 213.675 28.64 214.648 28.64ZM221.778 30V19.4H223.258L223.338 22.08L223.178 22.02C223.311 21.1133 223.598 20.4533 224.038 20.04C224.491 19.6133 225.091 19.4 225.838 19.4H226.878V21H225.858C225.324 21 224.878 21.1 224.518 21.3C224.171 21.4867 223.904 21.7733 223.718 22.16C223.544 22.5333 223.458 23.0133 223.458 23.6V30H221.778ZM232.695 30.24C231.708 30.24 230.848 30.0133 230.115 29.56C229.395 29.1067 228.835 28.4667 228.435 27.64C228.035 26.8 227.835 25.82 227.835 24.7C227.835 23.58 228.035 22.6067 228.435 21.78C228.835 20.9533 229.395 20.3133 230.115 19.86C230.848 19.3933 231.708 19.16 232.695 19.16C233.508 19.16 234.228 19.3067 234.855 19.6C235.495 19.88 236.015 20.2933 236.415 20.84C236.815 21.3867 237.075 22.0533 237.195 22.84L235.435 22.96C235.315 22.2533 235.008 21.7133 234.515 21.34C234.022 20.9533 233.415 20.76 232.695 20.76C231.722 20.76 230.962 21.1133 230.415 21.82C229.868 22.5133 229.595 23.4733 229.595 24.7C229.595 25.9267 229.868 26.8933 230.415 27.6C230.962 28.2933 231.722 28.64 232.695 28.64C233.415 28.64 234.022 28.44 234.515 28.04C235.008 27.64 235.315 27.04 235.435 26.24L237.195 26.36C237.075 27.1467 236.815 27.8333 236.415 28.42C236.015 28.9933 235.495 29.44 234.855 29.76C234.228 30.08 233.508 30.24 232.695 30.24ZM243.418 30.24C242.418 30.24 241.551 30.0133 240.818 29.56C240.098 29.1067 239.538 28.4667 239.138 27.64C238.751 26.8 238.558 25.82 238.558 24.7C238.558 23.58 238.751 22.6067 239.138 21.78C239.538 20.9533 240.091 20.3133 240.798 19.86C241.518 19.3933 242.364 19.16 243.338 19.16C244.258 19.16 245.071 19.38 245.778 19.82C246.484 20.2467 247.031 20.8733 247.418 21.7C247.818 22.5267 248.018 23.5333 248.018 24.72V25.22H240.318C240.384 26.3533 240.684 27.2067 241.218 27.78C241.764 28.3533 242.498 28.64 243.418 28.64C244.111 28.64 244.678 28.48 245.118 28.16C245.571 27.8267 245.884 27.3933 246.058 26.86L247.858 27C247.578 27.9467 247.044 28.7267 246.258 29.34C245.484 29.94 244.538 30.24 243.418 30.24ZM240.318 23.74H246.178C246.098 22.7133 245.798 21.96 245.278 21.48C244.771 21 244.124 20.76 243.338 20.76C242.524 20.76 241.851 21.0133 241.318 21.52C240.798 22.0133 240.464 22.7533 240.318 23.74Z" fill="#738297"/>
<path d="M33 342.5H313C318.247 342.5 322.5 346.753 322.5 352V376C322.5 381.247 318.247 385.5 313 385.5H33C27.7533 385.5 23.5 381.247 23.5 376V352C23.5 346.753 27.7533 342.5 33 342.5Z" fill="#A1BCD1" fill-opacity="0.1" stroke="#738297"/>
<path d="M33 288.5H313C318.247 288.5 322.5 292.753 322.5 298V322C322.5 327.247 318.247 331.5 313 331.5H33C27.7533 331.5 23.5 327.247 23.5 322V298C23.5 292.753 27.7533 288.5 33 288.5Z" fill="#A1BCD1" fill-opacity="0.1" stroke="#738297"/>
<path d="M33 234.5H313C318.247 234.5 322.5 238.753 322.5 244V268C322.5 273.247 318.247 277.5 313 277.5H33C27.7533 277.5 23.5 273.247 23.5 268V244C23.5 238.753 27.7533 234.5 33 234.5Z" fill="#A1BCD1" fill-opacity="0.1" stroke="#738297"/>
<path d="M33 180.5H313C318.247 180.5 322.5 184.753 322.5 190V214C322.5 219.247 318.247 223.5 313 223.5H33C27.7533 223.5 23.5 219.247 23.5 214V190C23.5 184.753 27.7533 180.5 33 180.5Z" fill="#A1BCD1" fill-opacity="0.1" stroke="#738297"/>
<path d="M33 126.5H313C318.247 126.5 322.5 130.753 322.5 136V160C322.5 165.247 318.247 169.5 313 169.5H33C27.7533 169.5 23.5 165.247 23.5 160V136C23.5 130.753 27.7533 126.5 33 126.5Z" fill="#A1BCD1" fill-opacity="0.1" stroke="#738297"/>
<path d="M33 72.5H313C318.247 72.5 322.5 76.7533 322.5 82V106C322.5 111.247 318.247 115.5 313 115.5H33C27.7533 115.5 23.5 111.247 23.5 106V82C23.5 76.7533 27.7533 72.5 33 72.5Z" fill="#A1BCD1" fill-opacity="0.1" stroke="#738297"/>
<path d="M75.84 370V355.8H80.24C82.4267 355.8 84.1067 356.42 85.28 357.66C86.4667 358.887 87.06 360.64 87.06 362.92C87.06 365.187 86.48 366.933 85.32 368.16C84.16 369.387 82.5067 370 80.36 370H75.84ZM77.56 368.32H80.24C81.9067 368.32 83.16 367.873 84 366.98C84.84 366.073 85.26 364.72 85.26 362.92C85.26 361.093 84.84 359.733 84 358.84C83.16 357.933 81.9067 357.48 80.24 357.48H77.56V368.32ZM92.6202 370.24C91.5268 370.24 90.6535 369.987 90.0002 369.48C89.3602 368.973 89.0402 368.267 89.0402 367.36C89.0402 366.453 89.3068 365.74 89.8402 365.22C90.3735 364.7 91.2202 364.333 92.3802 364.12L96.1402 363.42C96.1402 362.527 95.9268 361.86 95.5002 361.42C95.0868 360.98 94.4602 360.76 93.6202 360.76C92.8868 360.76 92.3068 360.927 91.8802 361.26C91.4535 361.58 91.1602 362.047 91.0002 362.66L89.2202 362.52C89.4202 361.52 89.9002 360.713 90.6602 360.1C91.4335 359.473 92.4202 359.16 93.6202 359.16C94.9802 359.16 96.0202 359.547 96.7402 360.32C97.4602 361.08 97.8202 362.133 97.8202 363.48V367.86C97.8202 368.1 97.8602 368.273 97.9402 368.38C98.0335 368.473 98.1802 368.52 98.3802 368.52H98.8002V370C98.7468 370.013 98.6602 370.02 98.5402 370.02C98.4202 370.033 98.2935 370.04 98.1602 370.04C97.6802 370.04 97.2868 369.967 96.9802 369.82C96.6868 369.66 96.4735 369.42 96.3402 369.1C96.2068 368.767 96.1402 368.333 96.1402 367.8L96.3402 367.84C96.2468 368.293 96.0202 368.707 95.6602 369.08C95.3002 369.44 94.8535 369.727 94.3202 369.94C93.7868 370.14 93.2202 370.24 92.6202 370.24ZM92.7802 368.76C93.4868 368.76 94.0868 368.627 94.5802 368.36C95.0868 368.08 95.4735 367.707 95.7402 367.24C96.0068 366.76 96.1402 366.227 96.1402 365.64V364.88L92.7002 365.52C91.9802 365.653 91.4802 365.86 91.2002 366.14C90.9335 366.407 90.8002 366.76 90.8002 367.2C90.8002 367.693 90.9735 368.08 91.3202 368.36C91.6802 368.627 92.1668 368.76 92.7802 368.76ZM104.05 370C103.09 370 102.377 369.78 101.91 369.34C101.457 368.9 101.23 368.213 101.23 367.28V356.92H102.91V367.24C102.91 367.72 103.017 368.053 103.23 368.24C103.444 368.427 103.77 368.52 104.21 368.52H105.73V370H104.05ZM99.6703 360.88V359.4H105.73V360.88H99.6703ZM110.667 370.24C109.574 370.24 108.7 369.987 108.047 369.48C107.407 368.973 107.087 368.267 107.087 367.36C107.087 366.453 107.354 365.74 107.887 365.22C108.42 364.7 109.267 364.333 110.427 364.12L114.187 363.42C114.187 362.527 113.974 361.86 113.547 361.42C113.134 360.98 112.507 360.76 111.667 360.76C110.934 360.76 110.354 360.927 109.927 361.26C109.5 361.58 109.207 362.047 109.047 362.66L107.267 362.52C107.467 361.52 107.947 360.713 108.707 360.1C109.48 359.473 110.467 359.16 111.667 359.16C113.027 359.16 114.067 359.547 114.787 360.32C115.507 361.08 115.867 362.133 115.867 363.48V367.86C115.867 368.1 115.907 368.273 115.987 368.38C116.08 368.473 116.227 368.52 116.427 368.52H116.847V370C116.794 370.013 116.707 370.02 116.587 370.02C116.467 370.033 116.34 370.04 116.207 370.04C115.727 370.04 115.334 369.967 115.027 369.82C114.734 369.66 114.52 369.42 114.387 369.1C114.254 368.767 114.187 368.333 114.187 367.8L114.387 367.84C114.294 368.293 114.067 368.707 113.707 369.08C113.347 369.44 112.9 369.727 112.367 369.94C111.834 370.14 111.267 370.24 110.667 370.24ZM110.827 368.76C111.534 368.76 112.134 368.627 112.627 368.36C113.134 368.08 113.52 367.707 113.787 367.24C114.054 366.76 114.187 366.227 114.187 365.64V364.88L110.747 365.52C110.027 365.653 109.527 365.86 109.247 366.14C108.98 366.407 108.847 366.76 108.847 367.2C108.847 367.693 109.02 368.08 109.367 368.36C109.727 368.627 110.214 368.76 110.827 368.76ZM127.423 370.32C126.063 370.32 124.989 369.993 124.203 369.34C123.416 368.673 123.023 367.733 123.023 366.52C123.023 365.907 123.109 365.367 123.283 364.9C123.456 364.42 123.743 363.96 124.143 363.52C124.556 363.08 125.116 362.613 125.823 362.12C125.516 361.72 125.256 361.347 125.043 361C124.829 360.64 124.663 360.28 124.543 359.92C124.436 359.56 124.383 359.173 124.383 358.76C124.383 357.733 124.689 356.933 125.303 356.36C125.929 355.773 126.783 355.48 127.863 355.48C128.569 355.48 129.169 355.607 129.663 355.86C130.156 356.1 130.529 356.447 130.783 356.9C131.049 357.353 131.183 357.893 131.183 358.52C131.183 359.28 130.956 359.967 130.503 360.58C130.049 361.18 129.289 361.833 128.223 362.54L131.463 366.68C131.943 366.013 132.183 365 132.183 363.64L133.863 363.8C133.849 364.6 133.716 365.373 133.463 366.12C133.223 366.867 132.909 367.473 132.523 367.94L134.223 370H132.203L131.463 369.1C131.076 369.473 130.543 369.773 129.863 370C129.196 370.213 128.383 370.32 127.423 370.32ZM127.623 368.72C128.303 368.72 128.869 368.64 129.323 368.48C129.776 368.32 130.116 368.12 130.343 367.88L126.823 363.44C126.103 363.933 125.589 364.413 125.283 364.88C124.976 365.347 124.823 365.893 124.823 366.52C124.823 367.187 125.043 367.72 125.483 368.12C125.936 368.52 126.649 368.72 127.623 368.72ZM127.303 361.32C127.809 361 128.216 360.707 128.523 360.44C128.829 360.16 129.049 359.873 129.183 359.58C129.316 359.287 129.383 358.973 129.383 358.64C129.383 358.16 129.249 357.793 128.983 357.54C128.716 357.287 128.343 357.16 127.863 357.16C127.329 357.16 126.916 357.3 126.623 357.58C126.329 357.86 126.183 358.253 126.183 358.76C126.183 359.027 126.216 359.293 126.283 359.56C126.349 359.813 126.463 360.08 126.623 360.36C126.796 360.64 127.023 360.96 127.303 361.32ZM141.465 370V355.8H143.185V370H141.465ZM146.811 370V359.4H148.351L148.411 362.1L148.211 361.92C148.344 361.293 148.578 360.78 148.911 360.38C149.244 359.967 149.644 359.66 150.111 359.46C150.591 359.26 151.104 359.16 151.651 359.16C152.464 359.16 153.131 359.34 153.651 359.7C154.184 360.06 154.578 360.547 154.831 361.16C155.098 361.76 155.231 362.433 155.231 363.18V370H153.551V363.66C153.551 363.007 153.471 362.46 153.311 362.02C153.164 361.567 152.924 361.227 152.591 361C152.258 360.76 151.824 360.64 151.291 360.64C150.478 360.64 149.804 360.9 149.271 361.42C148.751 361.927 148.491 362.673 148.491 363.66V370H146.811ZM161.511 370C160.551 370 159.838 369.78 159.371 369.34C158.918 368.9 158.691 368.213 158.691 367.28V356.92H160.371V367.24C160.371 367.72 160.478 368.053 160.691 368.24C160.905 368.427 161.231 368.52 161.671 368.52H163.191V370H161.511ZM157.131 360.88V359.4H163.191V360.88H157.131ZM169.291 370.24C168.291 370.24 167.424 370.013 166.691 369.56C165.971 369.107 165.411 368.467 165.011 367.64C164.624 366.8 164.431 365.82 164.431 364.7C164.431 363.58 164.624 362.607 165.011 361.78C165.411 360.953 165.964 360.313 166.671 359.86C167.391 359.393 168.237 359.16 169.211 359.16C170.131 359.16 170.944 359.38 171.651 359.82C172.357 360.247 172.904 360.873 173.291 361.7C173.691 362.527 173.891 363.533 173.891 364.72V365.22H166.191C166.257 366.353 166.557 367.207 167.091 367.78C167.637 368.353 168.371 368.64 169.291 368.64C169.984 368.64 170.551 368.48 170.991 368.16C171.444 367.827 171.757 367.393 171.931 366.86L173.731 367C173.451 367.947 172.917 368.727 172.131 369.34C171.357 369.94 170.411 370.24 169.291 370.24ZM166.191 363.74H172.051C171.971 362.713 171.671 361.96 171.151 361.48C170.644 361 169.997 360.76 169.211 360.76C168.397 360.76 167.724 361.013 167.191 361.52C166.671 362.013 166.337 362.753 166.191 363.74ZM180.186 373.24C179.426 373.24 178.74 373.113 178.126 372.86C177.513 372.607 177 372.247 176.586 371.78C176.173 371.313 175.893 370.773 175.746 370.16L177.506 370.04C177.666 370.533 177.946 370.92 178.346 371.2C178.76 371.493 179.373 371.64 180.186 371.64C181.146 371.64 181.88 371.447 182.386 371.06C182.906 370.673 183.166 370.093 183.166 369.32V367.6C182.913 368.16 182.506 368.607 181.946 368.94C181.386 369.273 180.76 369.44 180.066 369.44C179.173 369.44 178.373 369.22 177.666 368.78C176.973 368.34 176.426 367.733 176.026 366.96C175.64 366.187 175.446 365.3 175.446 364.3C175.446 363.287 175.64 362.4 176.026 361.64C176.413 360.867 176.946 360.26 177.626 359.82C178.32 359.38 179.106 359.16 179.986 359.16C180.733 359.16 181.4 359.333 181.986 359.68C182.586 360.027 183.006 360.493 183.246 361.08V359.4H184.846V369.28C184.846 370.107 184.66 370.813 184.286 371.4C183.913 372 183.38 372.453 182.686 372.76C181.993 373.08 181.16 373.24 180.186 373.24ZM180.146 367.84C181.053 367.84 181.78 367.527 182.326 366.9C182.873 366.26 183.153 365.393 183.166 364.3C183.18 363.567 183.06 362.94 182.806 362.42C182.566 361.887 182.213 361.48 181.746 361.2C181.293 360.907 180.76 360.76 180.146 360.76C179.213 360.76 178.486 361.08 177.966 361.72C177.46 362.347 177.206 363.207 177.206 364.3C177.206 365.393 177.466 366.26 177.986 366.9C178.52 367.527 179.24 367.84 180.146 367.84ZM188.041 370V359.4H189.521L189.601 362.08L189.441 362.02C189.575 361.113 189.861 360.453 190.301 360.04C190.755 359.613 191.355 359.4 192.101 359.4H193.141V361H192.121C191.588 361 191.141 361.1 190.781 361.3C190.435 361.487 190.168 361.773 189.981 362.16C189.808 362.533 189.721 363.013 189.721 363.6V370H188.041ZM197.679 370.24C196.585 370.24 195.712 369.987 195.059 369.48C194.419 368.973 194.099 368.267 194.099 367.36C194.099 366.453 194.365 365.74 194.899 365.22C195.432 364.7 196.279 364.333 197.439 364.12L201.199 363.42C201.199 362.527 200.985 361.86 200.559 361.42C200.145 360.98 199.519 360.76 198.679 360.76C197.945 360.76 197.365 360.927 196.939 361.26C196.512 361.58 196.219 362.047 196.059 362.66L194.279 362.52C194.479 361.52 194.959 360.713 195.719 360.1C196.492 359.473 197.479 359.16 198.679 359.16C200.039 359.16 201.079 359.547 201.799 360.32C202.519 361.08 202.879 362.133 202.879 363.48V367.86C202.879 368.1 202.919 368.273 202.999 368.38C203.092 368.473 203.239 368.52 203.439 368.52H203.859V370C203.805 370.013 203.719 370.02 203.599 370.02C203.479 370.033 203.352 370.04 203.219 370.04C202.739 370.04 202.345 369.967 202.039 369.82C201.745 369.66 201.532 369.42 201.399 369.1C201.265 368.767 201.199 368.333 201.199 367.8L201.399 367.84C201.305 368.293 201.079 368.707 200.719 369.08C200.359 369.44 199.912 369.727 199.379 369.94C198.845 370.14 198.279 370.24 197.679 370.24ZM197.839 368.76C198.545 368.76 199.145 368.627 199.639 368.36C200.145 368.08 200.532 367.707 200.799 367.24C201.065 366.76 201.199 366.227 201.199 365.64V364.88L197.759 365.52C197.039 365.653 196.539 365.86 196.259 366.14C195.992 366.407 195.859 366.76 195.859 367.2C195.859 367.693 196.032 368.08 196.379 368.36C196.739 368.627 197.225 368.76 197.839 368.76ZM209.109 370C208.149 370 207.436 369.78 206.969 369.34C206.516 368.9 206.289 368.213 206.289 367.28V356.92H207.969V367.24C207.969 367.72 208.076 368.053 208.289 368.24C208.502 368.427 208.829 368.52 209.269 368.52H210.789V370H209.109ZM204.729 360.88V359.4H210.789V360.88H204.729ZM212.944 370V359.4H214.624V370H212.944ZM212.904 357.74V355.78H214.664V357.74H212.904ZM221.771 370.24C220.798 370.24 219.945 370.013 219.211 369.56C218.478 369.107 217.911 368.467 217.511 367.64C217.111 366.8 216.911 365.82 216.911 364.7C216.911 363.567 217.111 362.587 217.511 361.76C217.911 360.933 218.478 360.293 219.211 359.84C219.945 359.387 220.798 359.16 221.771 359.16C222.745 359.16 223.591 359.387 224.311 359.84C225.045 360.293 225.611 360.933 226.011 361.76C226.411 362.587 226.611 363.567 226.611 364.7C226.611 365.82 226.411 366.8 226.011 367.64C225.611 368.467 225.045 369.107 224.311 369.56C223.591 370.013 222.745 370.24 221.771 370.24ZM221.771 368.64C222.745 368.64 223.498 368.293 224.031 367.6C224.578 366.893 224.851 365.927 224.851 364.7C224.851 363.473 224.578 362.513 224.031 361.82C223.498 361.113 222.745 360.76 221.771 360.76C220.798 360.76 220.038 361.113 219.491 361.82C218.945 362.513 218.671 363.473 218.671 364.7C218.671 365.927 218.945 366.893 219.491 367.6C220.038 368.293 220.798 368.64 221.771 368.64ZM228.901 370V359.4H230.441L230.501 362.1L230.301 361.92C230.434 361.293 230.667 360.78 231.001 360.38C231.334 359.967 231.734 359.66 232.201 359.46C232.681 359.26 233.194 359.16 233.741 359.16C234.554 359.16 235.221 359.34 235.741 359.7C236.274 360.06 236.667 360.547 236.921 361.16C237.187 361.76 237.321 362.433 237.321 363.18V370H235.641V363.66C235.641 363.007 235.561 362.46 235.401 362.02C235.254 361.567 235.014 361.227 234.681 361C234.347 360.76 233.914 360.64 233.381 360.64C232.567 360.64 231.894 360.9 231.361 361.42C230.841 361.927 230.581 362.673 230.581 363.66V370H228.901Z" fill="#738297"/>
<path d="M80.72 317.32C79.6267 317.32 78.6733 317.113 77.86 316.7C77.0467 316.287 76.4 315.72 75.92 315C75.4533 314.267 75.18 313.42 75.1 312.46L76.9 312.34C76.9933 313.047 77.2 313.647 77.52 314.14C77.84 314.633 78.2667 315.007 78.8 315.26C79.3467 315.513 80 315.64 80.76 315.64C81.4267 315.64 81.9933 315.553 82.46 315.38C82.9267 315.207 83.28 314.953 83.52 314.62C83.7733 314.287 83.9 313.88 83.9 313.4C83.9 312.96 83.7933 312.573 83.58 312.24C83.38 311.893 82.9867 311.58 82.4 311.3C81.8267 311.007 80.9733 310.72 79.84 310.44C78.7467 310.16 77.8733 309.853 77.22 309.52C76.58 309.187 76.1133 308.78 75.82 308.3C75.54 307.82 75.4 307.227 75.4 306.52C75.4 305.72 75.5867 305.02 75.96 304.42C76.3467 303.807 76.8933 303.333 77.6 303C78.3067 302.653 79.1467 302.48 80.12 302.48C81.16 302.48 82.0533 302.68 82.8 303.08C83.5467 303.467 84.14 304 84.58 304.68C85.02 305.36 85.2933 306.133 85.4 307L83.6 307.12C83.52 306.547 83.3333 306.04 83.04 305.6C82.76 305.147 82.3733 304.793 81.88 304.54C81.3867 304.287 80.7867 304.16 80.08 304.16C79.2 304.16 78.5 304.373 77.98 304.8C77.46 305.213 77.2 305.76 77.2 306.44C77.2 306.88 77.3 307.247 77.5 307.54C77.7133 307.82 78.0867 308.073 78.62 308.3C79.1533 308.513 79.92 308.747 80.92 309C82.1067 309.293 83.0467 309.647 83.74 310.06C84.4467 310.46 84.9467 310.927 85.24 311.46C85.5467 311.993 85.7 312.6 85.7 313.28C85.7 314.107 85.4867 314.827 85.06 315.44C84.6333 316.04 84.0467 316.507 83.3 316.84C82.5533 317.16 81.6933 317.32 80.72 317.32ZM88.393 320V306.4H89.953L89.993 308.68L89.753 308.56C90.0196 307.773 90.4596 307.18 91.073 306.78C91.6996 306.367 92.4196 306.16 93.233 306.16C94.2863 306.16 95.1463 306.42 95.813 306.94C96.493 307.46 96.993 308.14 97.313 308.98C97.6463 309.82 97.813 310.727 97.813 311.7C97.813 312.673 97.6463 313.58 97.313 314.42C96.993 315.26 96.493 315.94 95.813 316.46C95.1463 316.98 94.2863 317.24 93.233 317.24C92.6863 317.24 92.173 317.147 91.693 316.96C91.2263 316.773 90.8263 316.513 90.493 316.18C90.173 315.847 89.953 315.453 89.833 315L90.073 314.72V320H88.393ZM93.073 315.64C93.993 315.64 94.7196 315.293 95.253 314.6C95.7863 313.907 96.053 312.94 96.053 311.7C96.053 310.46 95.7863 309.493 95.253 308.8C94.7196 308.107 93.993 307.76 93.073 307.76C92.4596 307.76 91.9263 307.907 91.473 308.2C91.033 308.493 90.6863 308.933 90.433 309.52C90.193 310.107 90.073 310.833 90.073 311.7C90.073 312.567 90.193 313.293 90.433 313.88C90.673 314.467 91.0196 314.907 91.473 315.2C91.9263 315.493 92.4596 315.64 93.073 315.64ZM104.232 317.24C103.232 317.24 102.366 317.013 101.632 316.56C100.912 316.107 100.352 315.467 99.9522 314.64C99.5655 313.8 99.3722 312.82 99.3722 311.7C99.3722 310.58 99.5655 309.607 99.9522 308.78C100.352 307.953 100.906 307.313 101.612 306.86C102.332 306.393 103.179 306.16 104.152 306.16C105.072 306.16 105.886 306.38 106.592 306.82C107.299 307.247 107.846 307.873 108.232 308.7C108.632 309.527 108.832 310.533 108.832 311.72V312.22H101.132C101.199 313.353 101.499 314.207 102.032 314.78C102.579 315.353 103.312 315.64 104.232 315.64C104.926 315.64 105.492 315.48 105.932 315.16C106.386 314.827 106.699 314.393 106.872 313.86L108.672 314C108.392 314.947 107.859 315.727 107.072 316.34C106.299 316.94 105.352 317.24 104.232 317.24ZM101.132 310.74H106.992C106.912 309.713 106.612 308.96 106.092 308.48C105.586 308 104.939 307.76 104.152 307.76C103.339 307.76 102.666 308.013 102.132 308.52C101.612 309.013 101.279 309.753 101.132 310.74ZM115.248 317.24C114.261 317.24 113.401 317.013 112.668 316.56C111.948 316.107 111.388 315.467 110.988 314.64C110.588 313.8 110.388 312.82 110.388 311.7C110.388 310.58 110.588 309.607 110.988 308.78C111.388 307.953 111.948 307.313 112.668 306.86C113.401 306.393 114.261 306.16 115.248 306.16C116.061 306.16 116.781 306.307 117.408 306.6C118.048 306.88 118.568 307.293 118.968 307.84C119.368 308.387 119.628 309.053 119.748 309.84L117.988 309.96C117.868 309.253 117.561 308.713 117.068 308.34C116.574 307.953 115.968 307.76 115.248 307.76C114.274 307.76 113.514 308.113 112.968 308.82C112.421 309.513 112.148 310.473 112.148 311.7C112.148 312.927 112.421 313.893 112.968 314.6C113.514 315.293 114.274 315.64 115.248 315.64C115.968 315.64 116.574 315.44 117.068 315.04C117.561 314.64 117.868 314.04 117.988 313.24L119.748 313.36C119.628 314.147 119.368 314.833 118.968 315.42C118.568 315.993 118.048 316.44 117.408 316.76C116.781 317.08 116.061 317.24 115.248 317.24ZM121.83 317V306.4H123.51V317H121.83ZM121.79 304.74V302.78H123.55V304.74H121.79ZM129.378 317.24C128.285 317.24 127.411 316.987 126.758 316.48C126.118 315.973 125.798 315.267 125.798 314.36C125.798 313.453 126.065 312.74 126.598 312.22C127.131 311.7 127.978 311.333 129.138 311.12L132.898 310.42C132.898 309.527 132.685 308.86 132.258 308.42C131.845 307.98 131.218 307.76 130.378 307.76C129.645 307.76 129.065 307.927 128.638 308.26C128.211 308.58 127.918 309.047 127.758 309.66L125.978 309.52C126.178 308.52 126.658 307.713 127.418 307.1C128.191 306.473 129.178 306.16 130.378 306.16C131.738 306.16 132.778 306.547 133.498 307.32C134.218 308.08 134.578 309.133 134.578 310.48V314.86C134.578 315.1 134.618 315.273 134.698 315.38C134.791 315.473 134.938 315.52 135.138 315.52H135.558V317C135.505 317.013 135.418 317.02 135.298 317.02C135.178 317.033 135.051 317.04 134.918 317.04C134.438 317.04 134.045 316.967 133.738 316.82C133.445 316.66 133.231 316.42 133.098 316.1C132.965 315.767 132.898 315.333 132.898 314.8L133.098 314.84C133.005 315.293 132.778 315.707 132.418 316.08C132.058 316.44 131.611 316.727 131.078 316.94C130.545 317.14 129.978 317.24 129.378 317.24ZM129.538 315.76C130.245 315.76 130.845 315.627 131.338 315.36C131.845 315.08 132.231 314.707 132.498 314.24C132.765 313.76 132.898 313.227 132.898 312.64V311.88L129.458 312.52C128.738 312.653 128.238 312.86 127.958 313.14C127.691 313.407 127.558 313.76 127.558 314.2C127.558 314.693 127.731 315.08 128.078 315.36C128.438 315.627 128.925 315.76 129.538 315.76ZM139.418 317C138.805 317 138.305 316.84 137.918 316.52C137.532 316.2 137.338 315.693 137.338 315V302.8H139.018V314.86C139.018 315.073 139.072 315.24 139.178 315.36C139.298 315.467 139.465 315.52 139.678 315.52H140.598V317H139.418ZM142.514 317V306.4H144.194V317H142.514ZM142.474 304.74V302.78H144.234V304.74H142.474ZM146.937 317V315.32L153.637 307.88H147.137V306.4H155.477V308.08L148.777 315.52H155.637V317H146.937ZM161.908 317.24C160.908 317.24 160.041 317.013 159.308 316.56C158.588 316.107 158.028 315.467 157.628 314.64C157.241 313.8 157.048 312.82 157.048 311.7C157.048 310.58 157.241 309.607 157.628 308.78C158.028 307.953 158.581 307.313 159.288 306.86C160.008 306.393 160.855 306.16 161.828 306.16C162.748 306.16 163.561 306.38 164.268 306.82C164.975 307.247 165.521 307.873 165.908 308.7C166.308 309.527 166.508 310.533 166.508 311.72V312.22H158.808C158.875 313.353 159.175 314.207 159.708 314.78C160.255 315.353 160.988 315.64 161.908 315.64C162.601 315.64 163.168 315.48 163.608 315.16C164.061 314.827 164.375 314.393 164.548 313.86L166.348 314C166.068 314.947 165.535 315.727 164.748 316.34C163.975 316.94 163.028 317.24 161.908 317.24ZM158.808 310.74H164.668C164.588 309.713 164.288 308.96 163.768 308.48C163.261 308 162.615 307.76 161.828 307.76C161.015 307.76 160.341 308.013 159.808 308.52C159.288 309.013 158.955 309.753 158.808 310.74ZM172.544 317.24C171.624 317.24 170.824 317.013 170.144 316.56C169.477 316.107 168.964 315.467 168.604 314.64C168.244 313.813 168.064 312.833 168.064 311.7C168.064 310.567 168.244 309.587 168.604 308.76C168.964 307.933 169.477 307.293 170.144 306.84C170.824 306.387 171.624 306.16 172.544 306.16C173.25 306.16 173.897 306.313 174.484 306.62C175.07 306.913 175.51 307.333 175.804 307.88V302.8H177.484V317H175.964L175.904 315.4C175.61 315.973 175.164 316.427 174.564 316.76C173.964 317.08 173.29 317.24 172.544 317.24ZM172.884 315.64C173.51 315.64 174.037 315.48 174.464 315.16C174.904 314.84 175.237 314.387 175.464 313.8C175.69 313.2 175.804 312.5 175.804 311.7C175.804 310.873 175.69 310.167 175.464 309.58C175.237 308.993 174.904 308.547 174.464 308.24C174.037 307.92 173.51 307.76 172.884 307.76C171.95 307.76 171.204 308.113 170.644 308.82C170.097 309.513 169.824 310.473 169.824 311.7C169.824 312.913 170.097 313.873 170.644 314.58C171.204 315.287 171.95 315.64 172.884 315.64ZM184.478 317L189.598 302.8H191.918L197.038 317H195.158L193.738 312.96H187.778L186.358 317H184.478ZM188.358 311.28H193.158L190.758 304.3L188.358 311.28ZM202.706 320.24C201.946 320.24 201.259 320.113 200.646 319.86C200.033 319.607 199.519 319.247 199.106 318.78C198.693 318.313 198.413 317.773 198.266 317.16L200.026 317.04C200.186 317.533 200.466 317.92 200.866 318.2C201.279 318.493 201.893 318.64 202.706 318.64C203.666 318.64 204.399 318.447 204.906 318.06C205.426 317.673 205.686 317.093 205.686 316.32V314.6C205.433 315.16 205.026 315.607 204.466 315.94C203.906 316.273 203.279 316.44 202.586 316.44C201.693 316.44 200.893 316.22 200.186 315.78C199.493 315.34 198.946 314.733 198.546 313.96C198.159 313.187 197.966 312.3 197.966 311.3C197.966 310.287 198.159 309.4 198.546 308.64C198.933 307.867 199.466 307.26 200.146 306.82C200.839 306.38 201.626 306.16 202.506 306.16C203.253 306.16 203.919 306.333 204.506 306.68C205.106 307.027 205.526 307.493 205.766 308.08V306.4H207.366V316.28C207.366 317.107 207.179 317.813 206.806 318.4C206.433 319 205.899 319.453 205.206 319.76C204.513 320.08 203.679 320.24 202.706 320.24ZM202.666 314.84C203.573 314.84 204.299 314.527 204.846 313.9C205.393 313.26 205.673 312.393 205.686 311.3C205.699 310.567 205.579 309.94 205.326 309.42C205.086 308.887 204.733 308.48 204.266 308.2C203.813 307.907 203.279 307.76 202.666 307.76C201.733 307.76 201.006 308.08 200.486 308.72C199.979 309.347 199.726 310.207 199.726 311.3C199.726 312.393 199.986 313.26 200.506 313.9C201.039 314.527 201.759 314.84 202.666 314.84ZM214.506 317.24C213.506 317.24 212.639 317.013 211.906 316.56C211.186 316.107 210.626 315.467 210.226 314.64C209.839 313.8 209.646 312.82 209.646 311.7C209.646 310.58 209.839 309.607 210.226 308.78C210.626 307.953 211.179 307.313 211.886 306.86C212.606 306.393 213.452 306.16 214.426 306.16C215.346 306.16 216.159 306.38 216.866 306.82C217.572 307.247 218.119 307.873 218.506 308.7C218.906 309.527 219.106 310.533 219.106 311.72V312.22H211.406C211.472 313.353 211.772 314.207 212.306 314.78C212.852 315.353 213.586 315.64 214.506 315.64C215.199 315.64 215.766 315.48 216.206 315.16C216.659 314.827 216.972 314.393 217.146 313.86L218.946 314C218.666 314.947 218.132 315.727 217.346 316.34C216.572 316.94 215.626 317.24 214.506 317.24ZM211.406 310.74H217.266C217.186 309.713 216.886 308.96 216.366 308.48C215.859 308 215.212 307.76 214.426 307.76C213.612 307.76 212.939 308.013 212.406 308.52C211.886 309.013 211.552 309.753 211.406 310.74ZM221.381 317V306.4H222.921L222.981 309.1L222.781 308.92C222.915 308.293 223.148 307.78 223.481 307.38C223.815 306.967 224.215 306.66 224.681 306.46C225.161 306.26 225.675 306.16 226.221 306.16C227.035 306.16 227.701 306.34 228.221 306.7C228.755 307.06 229.148 307.547 229.401 308.16C229.668 308.76 229.801 309.433 229.801 310.18V317H228.121V310.66C228.121 310.007 228.041 309.46 227.881 309.02C227.735 308.567 227.495 308.227 227.161 308C226.828 307.76 226.395 307.64 225.861 307.64C225.048 307.64 224.375 307.9 223.841 308.42C223.321 308.927 223.061 309.673 223.061 310.66V317H221.381ZM236.082 317C235.122 317 234.408 316.78 233.942 316.34C233.488 315.9 233.262 315.213 233.262 314.28V303.92H234.942V314.24C234.942 314.72 235.048 315.053 235.262 315.24C235.475 315.427 235.802 315.52 236.242 315.52H237.762V317H236.082ZM231.702 307.88V306.4H237.762V307.88H231.702ZM243.581 317.24C242.634 317.24 241.828 317.087 241.161 316.78C240.508 316.473 239.994 316.053 239.621 315.52C239.261 314.973 239.054 314.353 239.001 313.66L240.761 313.54C240.868 314.18 241.141 314.693 241.581 315.08C242.021 315.453 242.688 315.64 243.581 315.64C244.301 315.64 244.874 315.527 245.301 315.3C245.741 315.06 245.961 314.68 245.961 314.16C245.961 313.88 245.894 313.647 245.761 313.46C245.628 313.273 245.368 313.113 244.981 312.98C244.594 312.833 244.021 312.693 243.261 312.56C242.248 312.373 241.448 312.147 240.861 311.88C240.288 311.6 239.874 311.26 239.621 310.86C239.381 310.447 239.261 309.96 239.261 309.4C239.261 308.453 239.608 307.68 240.301 307.08C240.994 306.467 241.981 306.16 243.261 306.16C244.128 306.16 244.854 306.32 245.441 306.64C246.041 306.947 246.508 307.36 246.841 307.88C247.188 308.387 247.414 308.947 247.521 309.56L245.761 309.68C245.681 309.307 245.534 308.98 245.321 308.7C245.108 308.407 244.828 308.18 244.481 308.02C244.134 307.847 243.721 307.76 243.241 307.76C242.481 307.76 241.921 307.907 241.561 308.2C241.201 308.493 241.021 308.867 241.021 309.32C241.021 309.667 241.101 309.953 241.261 310.18C241.434 310.393 241.708 310.573 242.081 310.72C242.454 310.853 242.954 310.973 243.581 311.08C244.661 311.267 245.501 311.493 246.101 311.76C246.701 312.027 247.121 312.353 247.361 312.74C247.601 313.127 247.721 313.6 247.721 314.16C247.721 314.813 247.534 315.373 247.161 315.84C246.801 316.293 246.308 316.64 245.681 316.88C245.068 317.12 244.368 317.24 243.581 317.24Z" fill="#738297"/>
<path d="M81.28 263.32C80.0133 263.32 78.9 263.027 77.94 262.44C76.98 261.84 76.2333 260.987 75.7 259.88C75.1667 258.773 74.9 257.453 74.9 255.92C74.9 254.387 75.1667 253.067 75.7 251.96C76.2333 250.84 76.98 249.98 77.94 249.38C78.9 248.78 80.0133 248.48 81.28 248.48C83 248.48 84.3333 248.913 85.28 249.78C86.2267 250.647 86.8467 251.827 87.14 253.32L85.32 253.44C85.12 252.427 84.6933 251.627 84.04 251.04C83.3867 250.453 82.4667 250.16 81.28 250.16C80.3733 250.16 79.5733 250.393 78.88 250.86C78.2 251.313 77.6667 251.973 77.28 252.84C76.8933 253.693 76.7 254.72 76.7 255.92C76.7 257.12 76.8933 258.147 77.28 259C77.6667 259.853 78.2 260.507 78.88 260.96C79.5733 261.413 80.3733 261.64 81.28 261.64C82.52 261.64 83.48 261.32 84.16 260.68C84.84 260.027 85.2667 259.147 85.44 258.04L87.26 258.16C87.0867 259.187 86.7467 260.087 86.24 260.86C85.7333 261.633 85.06 262.24 84.22 262.68C83.3933 263.107 82.4133 263.32 81.28 263.32ZM93.6463 263.24C92.6729 263.24 91.8196 263.013 91.0863 262.56C90.3529 262.107 89.7863 261.467 89.3863 260.64C88.9863 259.8 88.7863 258.82 88.7863 257.7C88.7863 256.567 88.9863 255.587 89.3863 254.76C89.7863 253.933 90.3529 253.293 91.0863 252.84C91.8196 252.387 92.6729 252.16 93.6463 252.16C94.6196 252.16 95.4663 252.387 96.1863 252.84C96.9196 253.293 97.4863 253.933 97.8863 254.76C98.2863 255.587 98.4863 256.567 98.4863 257.7C98.4863 258.82 98.2863 259.8 97.8863 260.64C97.4863 261.467 96.9196 262.107 96.1863 262.56C95.4663 263.013 94.6196 263.24 93.6463 263.24ZM93.6463 261.64C94.6196 261.64 95.3729 261.293 95.9063 260.6C96.4529 259.893 96.7263 258.927 96.7263 257.7C96.7263 256.473 96.4529 255.513 95.9063 254.82C95.3729 254.113 94.6196 253.76 93.6463 253.76C92.6729 253.76 91.9129 254.113 91.3663 254.82C90.8196 255.513 90.5462 256.473 90.5462 257.7C90.5462 258.927 90.8196 259.893 91.3663 260.6C91.9129 261.293 92.6729 261.64 93.6463 261.64ZM102.953 263C102.34 263 101.84 262.84 101.453 262.52C101.067 262.2 100.873 261.693 100.873 261V248.8H102.553V260.86C102.553 261.073 102.607 261.24 102.713 261.36C102.833 261.467 103 261.52 103.213 261.52H104.133V263H102.953ZM108.09 263C107.477 263 106.977 262.84 106.59 262.52C106.203 262.2 106.01 261.693 106.01 261V248.8H107.69V260.86C107.69 261.073 107.743 261.24 107.85 261.36C107.97 261.467 108.137 261.52 108.35 261.52H109.27V263H108.09ZM114.202 263.24C113.109 263.24 112.236 262.987 111.582 262.48C110.942 261.973 110.622 261.267 110.622 260.36C110.622 259.453 110.889 258.74 111.422 258.22C111.956 257.7 112.802 257.333 113.962 257.12L117.722 256.42C117.722 255.527 117.509 254.86 117.082 254.42C116.669 253.98 116.042 253.76 115.202 253.76C114.469 253.76 113.889 253.927 113.462 254.26C113.036 254.58 112.742 255.047 112.582 255.66L110.802 255.52C111.002 254.52 111.482 253.713 112.242 253.1C113.016 252.473 114.002 252.16 115.202 252.16C116.562 252.16 117.602 252.547 118.322 253.32C119.042 254.08 119.402 255.133 119.402 256.48V260.86C119.402 261.1 119.442 261.273 119.522 261.38C119.616 261.473 119.762 261.52 119.962 261.52H120.382V263C120.329 263.013 120.242 263.02 120.122 263.02C120.002 263.033 119.876 263.04 119.742 263.04C119.262 263.04 118.869 262.967 118.562 262.82C118.269 262.66 118.056 262.42 117.922 262.1C117.789 261.767 117.722 261.333 117.722 260.8L117.922 260.84C117.829 261.293 117.602 261.707 117.242 262.08C116.882 262.44 116.436 262.727 115.902 262.94C115.369 263.14 114.802 263.24 114.202 263.24ZM114.362 261.76C115.069 261.76 115.669 261.627 116.162 261.36C116.669 261.08 117.056 260.707 117.322 260.24C117.589 259.76 117.722 259.227 117.722 258.64V257.88L114.282 258.52C113.562 258.653 113.062 258.86 112.782 259.14C112.516 259.407 112.382 259.76 112.382 260.2C112.382 260.693 112.556 261.08 112.902 261.36C113.262 261.627 113.749 261.76 114.362 261.76ZM127.062 263.24C126.328 263.24 125.675 263.08 125.102 262.76C124.528 262.427 124.088 261.973 123.782 261.4L123.722 263H122.202V248.8H123.882V253.88C124.148 253.44 124.562 253.047 125.122 252.7C125.682 252.34 126.328 252.16 127.062 252.16C127.995 252.16 128.802 252.387 129.482 252.84C130.162 253.293 130.688 253.933 131.062 254.76C131.435 255.587 131.622 256.567 131.622 257.7C131.622 258.833 131.435 259.813 131.062 260.64C130.688 261.467 130.162 262.107 129.482 262.56C128.802 263.013 127.995 263.24 127.062 263.24ZM126.962 261.64C127.855 261.64 128.562 261.287 129.082 260.58C129.602 259.873 129.862 258.913 129.862 257.7C129.862 256.473 129.602 255.513 129.082 254.82C128.562 254.113 127.868 253.76 127.002 253.76C126.348 253.76 125.788 253.92 125.322 254.24C124.855 254.547 124.495 254.993 124.242 255.58C124.002 256.167 123.882 256.873 123.882 257.7C123.882 258.5 124.002 259.2 124.242 259.8C124.495 260.387 124.848 260.84 125.302 261.16C125.768 261.48 126.322 261.64 126.962 261.64ZM138.041 263.24C137.067 263.24 136.214 263.013 135.481 262.56C134.747 262.107 134.181 261.467 133.781 260.64C133.381 259.8 133.181 258.82 133.181 257.7C133.181 256.567 133.381 255.587 133.781 254.76C134.181 253.933 134.747 253.293 135.481 252.84C136.214 252.387 137.067 252.16 138.041 252.16C139.014 252.16 139.861 252.387 140.581 252.84C141.314 253.293 141.881 253.933 142.281 254.76C142.681 255.587 142.881 256.567 142.881 257.7C142.881 258.82 142.681 259.8 142.281 260.64C141.881 261.467 141.314 262.107 140.581 262.56C139.861 263.013 139.014 263.24 138.041 263.24ZM138.041 261.64C139.014 261.64 139.767 261.293 140.301 260.6C140.847 259.893 141.121 258.927 141.121 257.7C141.121 256.473 140.847 255.513 140.301 254.82C139.767 254.113 139.014 253.76 138.041 253.76C137.067 253.76 136.307 254.113 135.761 254.82C135.214 255.513 134.941 256.473 134.941 257.7C134.941 258.927 135.214 259.893 135.761 260.6C136.307 261.293 137.067 261.64 138.041 261.64ZM145.17 263V252.4H146.65L146.73 255.08L146.57 255.02C146.704 254.113 146.99 253.453 147.43 253.04C147.884 252.613 148.484 252.4 149.23 252.4H150.27V254H149.25C148.717 254 148.27 254.1 147.91 254.3C147.564 254.487 147.297 254.773 147.11 255.16C146.937 255.533 146.85 256.013 146.85 256.6V263H145.17ZM154.808 263.24C153.714 263.24 152.841 262.987 152.188 262.48C151.548 261.973 151.228 261.267 151.228 260.36C151.228 259.453 151.494 258.74 152.028 258.22C152.561 257.7 153.408 257.333 154.568 257.12L158.328 256.42C158.328 255.527 158.114 254.86 157.688 254.42C157.274 253.98 156.648 253.76 155.808 253.76C155.074 253.76 154.494 253.927 154.068 254.26C153.641 254.58 153.348 255.047 153.188 255.66L151.408 255.52C151.608 254.52 152.088 253.713 152.848 253.1C153.621 252.473 154.608 252.16 155.808 252.16C157.168 252.16 158.208 252.547 158.928 253.32C159.648 254.08 160.008 255.133 160.008 256.48V260.86C160.008 261.1 160.048 261.273 160.128 261.38C160.221 261.473 160.368 261.52 160.568 261.52H160.988V263C160.934 263.013 160.848 263.02 160.728 263.02C160.608 263.033 160.481 263.04 160.348 263.04C159.868 263.04 159.474 262.967 159.168 262.82C158.874 262.66 158.661 262.42 158.528 262.1C158.394 261.767 158.328 261.333 158.328 260.8L158.528 260.84C158.434 261.293 158.208 261.707 157.848 262.08C157.488 262.44 157.041 262.727 156.508 262.94C155.974 263.14 155.408 263.24 154.808 263.24ZM154.968 261.76C155.674 261.76 156.274 261.627 156.768 261.36C157.274 261.08 157.661 260.707 157.928 260.24C158.194 259.76 158.328 259.227 158.328 258.64V257.88L154.888 258.52C154.168 258.653 153.668 258.86 153.388 259.14C153.121 259.407 152.988 259.76 152.988 260.2C152.988 260.693 153.161 261.08 153.508 261.36C153.868 261.627 154.354 261.76 154.968 261.76ZM166.238 263C165.278 263 164.564 262.78 164.098 262.34C163.644 261.9 163.418 261.213 163.418 260.28V249.92H165.098V260.24C165.098 260.72 165.204 261.053 165.418 261.24C165.631 261.427 165.958 261.52 166.398 261.52H167.918V263H166.238ZM161.858 253.88V252.4H167.918V253.88H161.858ZM170.073 263V252.4H171.753V263H170.073ZM170.033 250.74V248.78H171.793V250.74H170.033ZM177.46 263L173.6 252.4H175.44L178.52 261.28L181.6 252.4H183.44L179.58 263H177.46ZM189.095 263.24C188.095 263.24 187.229 263.013 186.495 262.56C185.775 262.107 185.215 261.467 184.815 260.64C184.429 259.8 184.235 258.82 184.235 257.7C184.235 256.58 184.429 255.607 184.815 254.78C185.215 253.953 185.769 253.313 186.475 252.86C187.195 252.393 188.042 252.16 189.015 252.16C189.935 252.16 190.749 252.38 191.455 252.82C192.162 253.247 192.709 253.873 193.095 254.7C193.495 255.527 193.695 256.533 193.695 257.72V258.22H185.995C186.062 259.353 186.362 260.207 186.895 260.78C187.442 261.353 188.175 261.64 189.095 261.64C189.789 261.64 190.355 261.48 190.795 261.16C191.249 260.827 191.562 260.393 191.735 259.86L193.535 260C193.255 260.947 192.722 261.727 191.935 262.34C191.162 262.94 190.215 263.24 189.095 263.24ZM185.995 256.74H191.855C191.775 255.713 191.475 254.96 190.955 254.48C190.449 254 189.802 253.76 189.015 253.76C188.202 253.76 187.529 254.013 186.995 254.52C186.475 255.013 186.142 255.753 185.995 256.74ZM201.406 263V248.8H203.126V263H201.406ZM206.752 263V252.4H208.292L208.352 255.1L208.152 254.92C208.286 254.293 208.519 253.78 208.852 253.38C209.186 252.967 209.586 252.66 210.052 252.46C210.532 252.26 211.046 252.16 211.592 252.16C212.406 252.16 213.072 252.34 213.592 252.7C214.126 253.06 214.519 253.547 214.772 254.16C215.039 254.76 215.172 255.433 215.172 256.18V263H213.492V256.66C213.492 256.007 213.412 255.46 213.252 255.02C213.106 254.567 212.866 254.227 212.532 254C212.199 253.76 211.766 253.64 211.232 253.64C210.419 253.64 209.746 253.9 209.212 254.42C208.692 254.927 208.432 255.673 208.432 256.66V263H206.752ZM221.453 263C220.493 263 219.779 262.78 219.313 262.34C218.859 261.9 218.633 261.213 218.633 260.28V249.92H220.313V260.24C220.313 260.72 220.419 261.053 220.633 261.24C220.846 261.427 221.173 261.52 221.613 261.52H223.133V263H221.453ZM217.073 253.88V252.4H223.133V253.88H217.073ZM229.232 263.24C228.232 263.24 227.366 263.013 226.632 262.56C225.912 262.107 225.352 261.467 224.952 260.64C224.566 259.8 224.372 258.82 224.372 257.7C224.372 256.58 224.566 255.607 224.952 254.78C225.352 253.953 225.906 253.313 226.612 252.86C227.332 252.393 228.179 252.16 229.152 252.16C230.072 252.16 230.886 252.38 231.592 252.82C232.299 253.247 232.846 253.873 233.232 254.7C233.632 255.527 233.832 256.533 233.832 257.72V258.22H226.132C226.199 259.353 226.499 260.207 227.032 260.78C227.579 261.353 228.312 261.64 229.232 261.64C229.926 261.64 230.492 261.48 230.932 261.16C231.386 260.827 231.699 260.393 231.872 259.86L233.672 260C233.392 260.947 232.859 261.727 232.072 262.34C231.299 262.94 230.352 263.24 229.232 263.24ZM226.132 256.74H231.992C231.912 255.713 231.612 254.96 231.092 254.48C230.586 254 229.939 253.76 229.152 253.76C228.339 253.76 227.666 254.013 227.132 254.52C226.612 255.013 226.279 255.753 226.132 256.74ZM238.285 263C237.672 263 237.172 262.84 236.785 262.52C236.399 262.2 236.205 261.693 236.205 261V248.8H237.885V260.86C237.885 261.073 237.939 261.24 238.045 261.36C238.165 261.467 238.332 261.52 238.545 261.52H239.465V263H238.285ZM243.422 263C242.809 263 242.309 262.84 241.922 262.52C241.536 262.2 241.342 261.693 241.342 261V248.8H243.022V260.86C243.022 261.073 243.076 261.24 243.182 261.36C243.302 261.467 243.469 261.52 243.682 261.52H244.602V263H243.422ZM246.518 263V252.4H248.198V263H246.518ZM246.478 250.74V248.78H248.238V250.74H246.478ZM255.225 266.24C254.465 266.24 253.779 266.113 253.165 265.86C252.552 265.607 252.039 265.247 251.625 264.78C251.212 264.313 250.932 263.773 250.785 263.16L252.545 263.04C252.705 263.533 252.985 263.92 253.385 264.2C253.799 264.493 254.412 264.64 255.225 264.64C256.185 264.64 256.919 264.447 257.425 264.06C257.945 263.673 258.205 263.093 258.205 262.32V260.6C257.952 261.16 257.545 261.607 256.985 261.94C256.425 262.273 255.799 262.44 255.105 262.44C254.212 262.44 253.412 262.22 252.705 261.78C252.012 261.34 251.465 260.733 251.065 259.96C250.679 259.187 250.485 258.3 250.485 257.3C250.485 256.287 250.679 255.4 251.065 254.64C251.452 253.867 251.985 253.26 252.665 252.82C253.359 252.38 254.145 252.16 255.025 252.16C255.772 252.16 256.439 252.333 257.025 252.68C257.625 253.027 258.045 253.493 258.285 254.08V252.4H259.885V262.28C259.885 263.107 259.699 263.813 259.325 264.4C258.952 265 258.419 265.453 257.725 265.76C257.032 266.08 256.199 266.24 255.225 266.24ZM255.185 260.84C256.092 260.84 256.819 260.527 257.365 259.9C257.912 259.26 258.192 258.393 258.205 257.3C258.219 256.567 258.099 255.94 257.845 255.42C257.605 254.887 257.252 254.48 256.785 254.2C256.332 253.907 255.799 253.76 255.185 253.76C254.252 253.76 253.525 254.08 253.005 254.72C252.499 255.347 252.245 256.207 252.245 257.3C252.245 258.393 252.505 259.26 253.025 259.9C253.559 260.527 254.279 260.84 255.185 260.84ZM267.025 263.24C266.025 263.24 265.158 263.013 264.425 262.56C263.705 262.107 263.145 261.467 262.745 260.64C262.358 259.8 262.165 258.82 262.165 257.7C262.165 256.58 262.358 255.607 262.745 254.78C263.145 253.953 263.698 253.313 264.405 252.86C265.125 252.393 265.972 252.16 266.945 252.16C267.865 252.16 268.678 252.38 269.385 252.82C270.092 253.247 270.638 253.873 271.025 254.7C271.425 255.527 271.625 256.533 271.625 257.72V258.22H263.925C263.992 259.353 264.292 260.207 264.825 260.78C265.372 261.353 266.105 261.64 267.025 261.64C267.718 261.64 268.285 261.48 268.725 261.16C269.178 260.827 269.492 260.393 269.665 259.86L271.465 260C271.185 260.947 270.652 261.727 269.865 262.34C269.092 262.94 268.145 263.24 267.025 263.24ZM263.925 256.74H269.785C269.705 255.713 269.405 254.96 268.885 254.48C268.378 254 267.732 253.76 266.945 253.76C266.132 253.76 265.458 254.013 264.925 254.52C264.405 255.013 264.072 255.753 263.925 256.74ZM273.901 263V252.4H275.441L275.501 255.1L275.301 254.92C275.434 254.293 275.667 253.78 276.001 253.38C276.334 252.967 276.734 252.66 277.201 252.46C277.681 252.26 278.194 252.16 278.741 252.16C279.554 252.16 280.221 252.34 280.741 252.7C281.274 253.06 281.667 253.547 281.921 254.16C282.187 254.76 282.321 255.433 282.321 256.18V263H280.641V256.66C280.641 256.007 280.561 255.46 280.401 255.02C280.254 254.567 280.014 254.227 279.681 254C279.347 253.76 278.914 253.64 278.381 253.64C277.567 253.64 276.894 253.9 276.361 254.42C275.841 254.927 275.581 255.673 275.581 256.66V263H273.901ZM289.428 263.24C288.441 263.24 287.581 263.013 286.848 262.56C286.128 262.107 285.568 261.467 285.168 260.64C284.768 259.8 284.568 258.82 284.568 257.7C284.568 256.58 284.768 255.607 285.168 254.78C285.568 253.953 286.128 253.313 286.848 252.86C287.581 252.393 288.441 252.16 289.428 252.16C290.241 252.16 290.961 252.307 291.588 252.6C292.228 252.88 292.748 253.293 293.148 253.84C293.548 254.387 293.808 255.053 293.928 255.84L292.168 255.96C292.048 255.253 291.741 254.713 291.248 254.34C290.754 253.953 290.148 253.76 289.428 253.76C288.454 253.76 287.694 254.113 287.148 254.82C286.601 255.513 286.327 256.473 286.327 257.7C286.327 258.927 286.601 259.893 287.148 260.6C287.694 261.293 288.454 261.64 289.428 261.64C290.148 261.64 290.754 261.44 291.248 261.04C291.741 260.64 292.048 260.04 292.168 259.24L293.928 259.36C293.808 260.147 293.548 260.833 293.148 261.42C292.748 261.993 292.228 262.44 291.588 262.76C290.961 263.08 290.241 263.24 289.428 263.24ZM300.15 263.24C299.15 263.24 298.283 263.013 297.55 262.56C296.83 262.107 296.27 261.467 295.87 260.64C295.483 259.8 295.29 258.82 295.29 257.7C295.29 256.58 295.483 255.607 295.87 254.78C296.27 253.953 296.823 253.313 297.53 252.86C298.25 252.393 299.097 252.16 300.07 252.16C300.99 252.16 301.803 252.38 302.51 252.82C303.217 253.247 303.763 253.873 304.15 254.7C304.55 255.527 304.75 256.533 304.75 257.72V258.22H297.05C297.117 259.353 297.417 260.207 297.95 260.78C298.497 261.353 299.23 261.64 300.15 261.64C300.843 261.64 301.41 261.48 301.85 261.16C302.303 260.827 302.617 260.393 302.79 259.86L304.59 260C304.31 260.947 303.777 261.727 302.99 262.34C302.217 262.94 301.27 263.24 300.15 263.24ZM297.05 256.74H302.91C302.83 255.713 302.53 254.96 302.01 254.48C301.503 254 300.857 253.76 300.07 253.76C299.257 253.76 298.583 254.013 298.05 254.52C297.53 255.013 297.197 255.753 297.05 256.74Z" fill="#738297"/>
<path d="M74.4 209L79.52 194.8H81.84L86.96 209H85.08L83.66 204.96H77.7L76.28 209H74.4ZM78.28 203.28H83.08L80.68 196.3L78.28 203.28ZM92.0488 209.24C90.9954 209.24 90.1488 208.887 89.5088 208.18C88.8821 207.46 88.5688 206.473 88.5688 205.22V198.4H90.2488V204.76C90.2488 205.787 90.4288 206.547 90.7888 207.04C91.1621 207.52 91.7288 207.76 92.4888 207.76C93.3288 207.76 93.9888 207.493 94.4688 206.96C94.9488 206.413 95.1888 205.667 95.1888 204.72V198.4H96.8688V209H95.2688V206.38L95.5288 206.52C95.3154 207.387 94.9088 208.06 94.3088 208.54C93.7088 209.007 92.9554 209.24 92.0488 209.24ZM103.386 209C102.426 209 101.713 208.78 101.246 208.34C100.793 207.9 100.566 207.213 100.566 206.28V195.92H102.246V206.24C102.246 206.72 102.353 207.053 102.566 207.24C102.78 207.427 103.106 207.52 103.546 207.52H105.066V209H103.386ZM99.0063 199.88V198.4H105.066V199.88H99.0063ZM111.166 209.24C110.192 209.24 109.339 209.013 108.606 208.56C107.872 208.107 107.306 207.467 106.906 206.64C106.506 205.8 106.306 204.82 106.306 203.7C106.306 202.567 106.506 201.587 106.906 200.76C107.306 199.933 107.872 199.293 108.606 198.84C109.339 198.387 110.192 198.16 111.166 198.16C112.139 198.16 112.986 198.387 113.706 198.84C114.439 199.293 115.006 199.933 115.406 200.76C115.806 201.587 116.006 202.567 116.006 203.7C116.006 204.82 115.806 205.8 115.406 206.64C115.006 207.467 114.439 208.107 113.706 208.56C112.986 209.013 112.139 209.24 111.166 209.24ZM111.166 207.64C112.139 207.64 112.892 207.293 113.426 206.6C113.972 205.893 114.246 204.927 114.246 203.7C114.246 202.473 113.972 201.513 113.426 200.82C112.892 200.113 112.139 199.76 111.166 199.76C110.192 199.76 109.432 200.113 108.886 200.82C108.339 201.513 108.066 202.473 108.066 203.7C108.066 204.927 108.339 205.893 108.886 206.6C109.432 207.293 110.192 207.64 111.166 207.64ZM118.295 209V198.4H119.835L119.895 201.08L119.655 201C119.775 200.413 119.982 199.913 120.275 199.5C120.582 199.073 120.955 198.747 121.395 198.52C121.835 198.28 122.322 198.16 122.855 198.16C123.775 198.16 124.522 198.413 125.095 198.92C125.682 199.427 126.049 200.133 126.195 201.04L125.875 201.02C125.982 200.407 126.175 199.893 126.455 199.48C126.749 199.053 127.122 198.727 127.575 198.5C128.029 198.273 128.549 198.16 129.135 198.16C129.895 198.16 130.535 198.32 131.055 198.64C131.575 198.947 131.969 199.4 132.235 200C132.502 200.6 132.635 201.327 132.635 202.18V209H130.955V202.54C130.955 201.58 130.769 200.86 130.395 200.38C130.022 199.887 129.469 199.64 128.735 199.64C128.242 199.64 127.809 199.76 127.435 200C127.075 200.24 126.795 200.587 126.595 201.04C126.395 201.48 126.295 202.02 126.295 202.66V209H124.615V202.66C124.615 201.713 124.449 200.973 124.115 200.44C123.782 199.907 123.222 199.64 122.435 199.64C121.942 199.64 121.509 199.76 121.135 200C120.775 200.24 120.489 200.587 120.275 201.04C120.075 201.493 119.975 202.033 119.975 202.66V209H118.295ZM138.499 209.24C137.406 209.24 136.532 208.987 135.879 208.48C135.239 207.973 134.919 207.267 134.919 206.36C134.919 205.453 135.186 204.74 135.719 204.22C136.252 203.7 137.099 203.333 138.259 203.12L142.019 202.42C142.019 201.527 141.806 200.86 141.379 200.42C140.966 199.98 140.339 199.76 139.499 199.76C138.766 199.76 138.186 199.927 137.759 200.26C137.332 200.58 137.039 201.047 136.879 201.66L135.099 201.52C135.299 200.52 135.779 199.713 136.539 199.1C137.312 198.473 138.299 198.16 139.499 198.16C140.859 198.16 141.899 198.547 142.619 199.32C143.339 200.08 143.699 201.133 143.699 202.48V206.86C143.699 207.1 143.739 207.273 143.819 207.38C143.912 207.473 144.059 207.52 144.259 207.52H144.679V209C144.626 209.013 144.539 209.02 144.419 209.02C144.299 209.033 144.172 209.04 144.039 209.04C143.559 209.04 143.166 208.967 142.859 208.82C142.566 208.66 142.352 208.42 142.219 208.1C142.086 207.767 142.019 207.333 142.019 206.8L142.219 206.84C142.126 207.293 141.899 207.707 141.539 208.08C141.179 208.44 140.732 208.727 140.199 208.94C139.666 209.14 139.099 209.24 138.499 209.24ZM138.659 207.76C139.366 207.76 139.966 207.627 140.459 207.36C140.966 207.08 141.352 206.707 141.619 206.24C141.886 205.76 142.019 205.227 142.019 204.64V203.88L138.579 204.52C137.859 204.653 137.359 204.86 137.079 205.14C136.812 205.407 136.679 205.76 136.679 206.2C136.679 206.693 136.852 207.08 137.199 207.36C137.559 207.627 138.046 207.76 138.659 207.76ZM149.929 209C148.969 209 148.256 208.78 147.789 208.34C147.336 207.9 147.109 207.213 147.109 206.28V195.92H148.789V206.24C148.789 206.72 148.896 207.053 149.109 207.24C149.323 207.427 149.649 207.52 150.089 207.52H151.609V209H149.929ZM145.549 199.88V198.4H151.609V199.88H145.549ZM157.709 209.24C156.709 209.24 155.842 209.013 155.109 208.56C154.389 208.107 153.829 207.467 153.429 206.64C153.042 205.8 152.849 204.82 152.849 203.7C152.849 202.58 153.042 201.607 153.429 200.78C153.829 199.953 154.382 199.313 155.089 198.86C155.809 198.393 156.655 198.16 157.629 198.16C158.549 198.16 159.362 198.38 160.069 198.82C160.775 199.247 161.322 199.873 161.709 200.7C162.109 201.527 162.309 202.533 162.309 203.72V204.22H154.609C154.675 205.353 154.975 206.207 155.509 206.78C156.055 207.353 156.789 207.64 157.709 207.64C158.402 207.64 158.969 207.48 159.409 207.16C159.862 206.827 160.175 206.393 160.349 205.86L162.149 206C161.869 206.947 161.335 207.727 160.549 208.34C159.775 208.94 158.829 209.24 157.709 209.24ZM154.609 202.74H160.469C160.389 201.713 160.089 200.96 159.569 200.48C159.062 200 158.415 199.76 157.629 199.76C156.815 199.76 156.142 200.013 155.609 200.52C155.089 201.013 154.755 201.753 154.609 202.74ZM168.344 209.24C167.424 209.24 166.624 209.013 165.944 208.56C165.278 208.107 164.764 207.467 164.404 206.64C164.044 205.813 163.864 204.833 163.864 203.7C163.864 202.567 164.044 201.587 164.404 200.76C164.764 199.933 165.278 199.293 165.944 198.84C166.624 198.387 167.424 198.16 168.344 198.16C169.051 198.16 169.698 198.313 170.284 198.62C170.871 198.913 171.311 199.333 171.604 199.88V194.8H173.284V209H171.764L171.704 207.4C171.411 207.973 170.964 208.427 170.364 208.76C169.764 209.08 169.091 209.24 168.344 209.24ZM168.684 207.64C169.311 207.64 169.838 207.48 170.264 207.16C170.704 206.84 171.038 206.387 171.264 205.8C171.491 205.2 171.604 204.5 171.604 203.7C171.604 202.873 171.491 202.167 171.264 201.58C171.038 200.993 170.704 200.547 170.264 200.24C169.838 199.92 169.311 199.76 168.684 199.76C167.751 199.76 167.004 200.113 166.444 200.82C165.898 201.513 165.624 202.473 165.624 203.7C165.624 204.913 165.898 205.873 166.444 206.58C167.004 207.287 167.751 207.64 168.684 207.64ZM181.719 209V194.8H186.819C188.406 194.8 189.639 195.18 190.519 195.94C191.399 196.7 191.839 197.753 191.839 199.1C191.839 200.007 191.639 200.793 191.239 201.46C190.839 202.113 190.266 202.613 189.519 202.96C188.772 203.307 187.872 203.48 186.819 203.48H183.439V209H181.719ZM183.439 201.8H186.819C187.886 201.8 188.686 201.573 189.219 201.12C189.766 200.667 190.039 199.993 190.039 199.1C190.039 198.233 189.766 197.58 189.219 197.14C188.686 196.7 187.886 196.48 186.819 196.48H183.439V201.8ZM194.291 209V198.4H195.771L195.851 201.08L195.691 201.02C195.825 200.113 196.111 199.453 196.551 199.04C197.005 198.613 197.605 198.4 198.351 198.4H199.391V200H198.371C197.838 200 197.391 200.1 197.031 200.3C196.685 200.487 196.418 200.773 196.231 201.16C196.058 201.533 195.971 202.013 195.971 202.6V209H194.291ZM205.209 209.24C204.235 209.24 203.382 209.013 202.649 208.56C201.915 208.107 201.349 207.467 200.949 206.64C200.549 205.8 200.349 204.82 200.349 203.7C200.349 202.567 200.549 201.587 200.949 200.76C201.349 199.933 201.915 199.293 202.649 198.84C203.382 198.387 204.235 198.16 205.209 198.16C206.182 198.16 207.029 198.387 207.749 198.84C208.482 199.293 209.049 199.933 209.449 200.76C209.849 201.587 210.049 202.567 210.049 203.7C210.049 204.82 209.849 205.8 209.449 206.64C209.049 207.467 208.482 208.107 207.749 208.56C207.029 209.013 206.182 209.24 205.209 209.24ZM205.209 207.64C206.182 207.64 206.935 207.293 207.469 206.6C208.015 205.893 208.289 204.927 208.289 203.7C208.289 202.473 208.015 201.513 207.469 200.82C206.935 200.113 206.182 199.76 205.209 199.76C204.235 199.76 203.475 200.113 202.929 200.82C202.382 201.513 202.109 202.473 202.109 203.7C202.109 204.927 202.382 205.893 202.929 206.6C203.475 207.293 204.235 207.64 205.209 207.64ZM216.478 209.24C215.492 209.24 214.632 209.013 213.898 208.56C213.178 208.107 212.618 207.467 212.218 206.64C211.818 205.8 211.618 204.82 211.618 203.7C211.618 202.58 211.818 201.607 212.218 200.78C212.618 199.953 213.178 199.313 213.898 198.86C214.632 198.393 215.492 198.16 216.478 198.16C217.292 198.16 218.012 198.307 218.638 198.6C219.278 198.88 219.798 199.293 220.198 199.84C220.598 200.387 220.858 201.053 220.978 201.84L219.218 201.96C219.098 201.253 218.792 200.713 218.298 200.34C217.805 199.953 217.198 199.76 216.478 199.76C215.505 199.76 214.745 200.113 214.198 200.82C213.652 201.513 213.378 202.473 213.378 203.7C213.378 204.927 213.652 205.893 214.198 206.6C214.745 207.293 215.505 207.64 216.478 207.64C217.198 207.64 217.805 207.44 218.298 207.04C218.792 206.64 219.098 206.04 219.218 205.24L220.978 205.36C220.858 206.147 220.598 206.833 220.198 207.42C219.798 207.993 219.278 208.44 218.638 208.76C218.012 209.08 217.292 209.24 216.478 209.24ZM227.201 209.24C226.201 209.24 225.334 209.013 224.601 208.56C223.881 208.107 223.321 207.467 222.921 206.64C222.534 205.8 222.341 204.82 222.341 203.7C222.341 202.58 222.534 201.607 222.921 200.78C223.321 199.953 223.874 199.313 224.581 198.86C225.301 198.393 226.148 198.16 227.121 198.16C228.041 198.16 228.854 198.38 229.561 198.82C230.268 199.247 230.814 199.873 231.201 200.7C231.601 201.527 231.801 202.533 231.801 203.72V204.22H224.101C224.168 205.353 224.468 206.207 225.001 206.78C225.548 207.353 226.281 207.64 227.201 207.64C227.894 207.64 228.461 207.48 228.901 207.16C229.354 206.827 229.668 206.393 229.841 205.86L231.641 206C231.361 206.947 230.828 207.727 230.041 208.34C229.268 208.94 228.321 209.24 227.201 209.24ZM224.101 202.74H229.961C229.881 201.713 229.581 200.96 229.061 200.48C228.554 200 227.908 199.76 227.121 199.76C226.308 199.76 225.634 200.013 225.101 200.52C224.581 201.013 224.248 201.753 224.101 202.74ZM237.937 209.24C236.99 209.24 236.183 209.087 235.517 208.78C234.863 208.473 234.35 208.053 233.977 207.52C233.617 206.973 233.41 206.353 233.357 205.66L235.117 205.54C235.223 206.18 235.497 206.693 235.937 207.08C236.377 207.453 237.043 207.64 237.937 207.64C238.657 207.64 239.23 207.527 239.657 207.3C240.097 207.06 240.317 206.68 240.317 206.16C240.317 205.88 240.25 205.647 240.117 205.46C239.983 205.273 239.723 205.113 239.337 204.98C238.95 204.833 238.377 204.693 237.617 204.56C236.603 204.373 235.803 204.147 235.217 203.88C234.643 203.6 234.23 203.26 233.977 202.86C233.737 202.447 233.617 201.96 233.617 201.4C233.617 200.453 233.963 199.68 234.657 199.08C235.35 198.467 236.337 198.16 237.617 198.16C238.483 198.16 239.21 198.32 239.797 198.64C240.397 198.947 240.863 199.36 241.197 199.88C241.543 200.387 241.77 200.947 241.877 201.56L240.117 201.68C240.037 201.307 239.89 200.98 239.677 200.7C239.463 200.407 239.183 200.18 238.837 200.02C238.49 199.847 238.077 199.76 237.597 199.76C236.837 199.76 236.277 199.907 235.917 200.2C235.557 200.493 235.377 200.867 235.377 201.32C235.377 201.667 235.457 201.953 235.617 202.18C235.79 202.393 236.063 202.573 236.437 202.72C236.81 202.853 237.31 202.973 237.937 203.08C239.017 203.267 239.857 203.493 240.457 203.76C241.057 204.027 241.477 204.353 241.717 204.74C241.957 205.127 242.077 205.6 242.077 206.16C242.077 206.813 241.89 207.373 241.517 207.84C241.157 208.293 240.663 208.64 240.037 208.88C239.423 209.12 238.723 209.24 237.937 209.24ZM248.23 209.24C247.283 209.24 246.476 209.087 245.81 208.78C245.156 208.473 244.643 208.053 244.27 207.52C243.91 206.973 243.703 206.353 243.65 205.66L245.41 205.54C245.516 206.18 245.79 206.693 246.23 207.08C246.67 207.453 247.336 207.64 248.23 207.64C248.95 207.64 249.523 207.527 249.95 207.3C250.39 207.06 250.61 206.68 250.61 206.16C250.61 205.88 250.543 205.647 250.41 205.46C250.276 205.273 250.016 205.113 249.63 204.98C249.243 204.833 248.67 204.693 247.91 204.56C246.896 204.373 246.096 204.147 245.51 203.88C244.936 203.6 244.523 203.26 244.27 202.86C244.03 202.447 243.91 201.96 243.91 201.4C243.91 200.453 244.256 199.68 244.95 199.08C245.643 198.467 246.63 198.16 247.91 198.16C248.776 198.16 249.503 198.32 250.09 198.64C250.69 198.947 251.156 199.36 251.49 199.88C251.836 200.387 252.063 200.947 252.17 201.56L250.41 201.68C250.33 201.307 250.183 200.98 249.97 200.7C249.756 200.407 249.476 200.18 249.13 200.02C248.783 199.847 248.37 199.76 247.89 199.76C247.13 199.76 246.57 199.907 246.21 200.2C245.85 200.493 245.67 200.867 245.67 201.32C245.67 201.667 245.75 201.953 245.91 202.18C246.083 202.393 246.356 202.573 246.73 202.72C247.103 202.853 247.603 202.973 248.23 203.08C249.31 203.267 250.15 203.493 250.75 203.76C251.35 204.027 251.77 204.353 252.01 204.74C252.25 205.127 252.37 205.6 252.37 206.16C252.37 206.813 252.183 207.373 251.81 207.84C251.45 208.293 250.956 208.64 250.33 208.88C249.716 209.12 249.016 209.24 248.23 209.24ZM258.803 209.24C257.803 209.24 256.936 209.013 256.203 208.56C255.483 208.107 254.923 207.467 254.523 206.64C254.136 205.8 253.943 204.82 253.943 203.7C253.943 202.58 254.136 201.607 254.523 200.78C254.923 199.953 255.476 199.313 256.183 198.86C256.903 198.393 257.749 198.16 258.723 198.16C259.643 198.16 260.456 198.38 261.163 198.82C261.869 199.247 262.416 199.873 262.803 200.7C263.203 201.527 263.403 202.533 263.403 203.72V204.22H255.702C255.769 205.353 256.069 206.207 256.603 206.78C257.149 207.353 257.883 207.64 258.803 207.64C259.496 207.64 260.063 207.48 260.503 207.16C260.956 206.827 261.269 206.393 261.443 205.86L263.243 206C262.963 206.947 262.429 207.727 261.643 208.34C260.869 208.94 259.923 209.24 258.803 209.24ZM255.702 202.74H261.563C261.483 201.713 261.183 200.96 260.663 200.48C260.156 200 259.509 199.76 258.723 199.76C257.909 199.76 257.236 200.013 256.703 200.52C256.183 201.013 255.849 201.753 255.702 202.74ZM269.538 209.24C268.591 209.24 267.785 209.087 267.118 208.78C266.465 208.473 265.951 208.053 265.578 207.52C265.218 206.973 265.011 206.353 264.958 205.66L266.718 205.54C266.825 206.18 267.098 206.693 267.538 207.08C267.978 207.453 268.645 207.64 269.538 207.64C270.258 207.64 270.831 207.527 271.258 207.3C271.698 207.06 271.918 206.68 271.918 206.16C271.918 205.88 271.851 205.647 271.718 205.46C271.585 205.273 271.325 205.113 270.938 204.98C270.551 204.833 269.978 204.693 269.218 204.56C268.205 204.373 267.405 204.147 266.818 203.88C266.245 203.6 265.831 203.26 265.578 202.86C265.338 202.447 265.218 201.96 265.218 201.4C265.218 200.453 265.565 199.68 266.258 199.08C266.951 198.467 267.938 198.16 269.218 198.16C270.085 198.16 270.811 198.32 271.398 198.64C271.998 198.947 272.465 199.36 272.798 199.88C273.145 200.387 273.371 200.947 273.478 201.56L271.718 201.68C271.638 201.307 271.491 200.98 271.278 200.7C271.065 200.407 270.785 200.18 270.438 200.02C270.091 199.847 269.678 199.76 269.198 199.76C268.438 199.76 267.878 199.907 267.518 200.2C267.158 200.493 266.978 200.867 266.978 201.32C266.978 201.667 267.058 201.953 267.218 202.18C267.391 202.393 267.665 202.573 268.038 202.72C268.411 202.853 268.911 202.973 269.538 203.08C270.618 203.267 271.458 203.493 272.058 203.76C272.658 204.027 273.078 204.353 273.318 204.74C273.558 205.127 273.678 205.6 273.678 206.16C273.678 206.813 273.491 207.373 273.118 207.84C272.758 208.293 272.265 208.64 271.638 208.88C271.025 209.12 270.325 209.24 269.538 209.24Z" fill="#738297"/>
<path d="M81.28 155.32C80.0133 155.32 78.9 155.027 77.94 154.44C76.98 153.84 76.2333 152.987 75.7 151.88C75.1667 150.773 74.9 149.453 74.9 147.92C74.9 146.387 75.1667 145.067 75.7 143.96C76.2333 142.84 76.98 141.98 77.94 141.38C78.9 140.78 80.0133 140.48 81.28 140.48C83 140.48 84.3333 140.913 85.28 141.78C86.2267 142.647 86.8467 143.827 87.14 145.32L85.32 145.44C85.12 144.427 84.6933 143.627 84.04 143.04C83.3867 142.453 82.4667 142.16 81.28 142.16C80.3733 142.16 79.5733 142.393 78.88 142.86C78.2 143.313 77.6667 143.973 77.28 144.84C76.8933 145.693 76.7 146.72 76.7 147.92C76.7 149.12 76.8933 150.147 77.28 151C77.6667 151.853 78.2 152.507 78.88 152.96C79.5733 153.413 80.3733 153.64 81.28 153.64C82.52 153.64 83.48 153.32 84.16 152.68C84.84 152.027 85.2667 151.147 85.44 150.04L87.26 150.16C87.0867 151.187 86.7467 152.087 86.24 152.86C85.7333 153.633 85.06 154.24 84.22 154.68C83.3933 155.107 82.4133 155.32 81.28 155.32ZM93.6463 155.24C92.6729 155.24 91.8196 155.013 91.0863 154.56C90.3529 154.107 89.7863 153.467 89.3863 152.64C88.9863 151.8 88.7863 150.82 88.7863 149.7C88.7863 148.567 88.9863 147.587 89.3863 146.76C89.7863 145.933 90.3529 145.293 91.0863 144.84C91.8196 144.387 92.6729 144.16 93.6463 144.16C94.6196 144.16 95.4663 144.387 96.1863 144.84C96.9196 145.293 97.4863 145.933 97.8863 146.76C98.2863 147.587 98.4863 148.567 98.4863 149.7C98.4863 150.82 98.2863 151.8 97.8863 152.64C97.4863 153.467 96.9196 154.107 96.1863 154.56C95.4663 155.013 94.6196 155.24 93.6463 155.24ZM93.6463 153.64C94.6196 153.64 95.3729 153.293 95.9063 152.6C96.4529 151.893 96.7263 150.927 96.7263 149.7C96.7263 148.473 96.4529 147.513 95.9063 146.82C95.3729 146.113 94.6196 145.76 93.6463 145.76C92.6729 145.76 91.9129 146.113 91.3663 146.82C90.8196 147.513 90.5462 148.473 90.5462 149.7C90.5462 150.927 90.8196 151.893 91.3663 152.6C91.9129 153.293 92.6729 153.64 93.6463 153.64ZM100.776 155V144.4H102.316L102.376 147.1L102.176 146.92C102.309 146.293 102.542 145.78 102.876 145.38C103.209 144.967 103.609 144.66 104.076 144.46C104.556 144.26 105.069 144.16 105.616 144.16C106.429 144.16 107.096 144.34 107.616 144.7C108.149 145.06 108.542 145.547 108.796 146.16C109.062 146.76 109.196 147.433 109.196 148.18V155H107.516V148.66C107.516 148.007 107.436 147.46 107.276 147.02C107.129 146.567 106.889 146.227 106.556 146C106.222 145.76 105.789 145.64 105.256 145.64C104.442 145.64 103.769 145.9 103.236 146.42C102.716 146.927 102.456 147.673 102.456 148.66V155H100.776ZM115.476 155C114.516 155 113.803 154.78 113.336 154.34C112.883 153.9 112.656 153.213 112.656 152.28V141.92H114.336V152.24C114.336 152.72 114.443 153.053 114.656 153.24C114.869 153.427 115.196 153.52 115.636 153.52H117.156V155H115.476ZM111.096 145.88V144.4H117.156V145.88H111.096ZM119.311 155V144.4H120.991V155H119.311ZM119.271 142.74V140.78H121.031V142.74H119.271ZM124.389 155V144.4H125.929L125.989 147.1L125.789 146.92C125.922 146.293 126.156 145.78 126.489 145.38C126.822 144.967 127.222 144.66 127.689 144.46C128.169 144.26 128.682 144.16 129.229 144.16C130.042 144.16 130.709 144.34 131.229 144.7C131.762 145.06 132.156 145.547 132.409 146.16C132.676 146.76 132.809 147.433 132.809 148.18V155H131.129V148.66C131.129 148.007 131.049 147.46 130.889 147.02C130.742 146.567 130.502 146.227 130.169 146C129.836 145.76 129.402 145.64 128.869 145.64C128.056 145.64 127.382 145.9 126.849 146.42C126.329 146.927 126.069 147.673 126.069 148.66V155H124.389ZM139.197 155.24C138.144 155.24 137.297 154.887 136.657 154.18C136.031 153.46 135.717 152.473 135.717 151.22V144.4H137.397V150.76C137.397 151.787 137.577 152.547 137.937 153.04C138.311 153.52 138.877 153.76 139.637 153.76C140.477 153.76 141.137 153.493 141.617 152.96C142.097 152.413 142.337 151.667 142.337 150.72V144.4H144.017V155H142.417V152.38L142.677 152.52C142.464 153.387 142.057 154.06 141.457 154.54C140.857 155.007 140.104 155.24 139.197 155.24ZM151.166 155.24C150.192 155.24 149.339 155.013 148.606 154.56C147.872 154.107 147.306 153.467 146.906 152.64C146.506 151.8 146.306 150.82 146.306 149.7C146.306 148.567 146.506 147.587 146.906 146.76C147.306 145.933 147.872 145.293 148.606 144.84C149.339 144.387 150.192 144.16 151.166 144.16C152.139 144.16 152.986 144.387 153.706 144.84C154.439 145.293 155.006 145.933 155.406 146.76C155.806 147.587 156.006 148.567 156.006 149.7C156.006 150.82 155.806 151.8 155.406 152.64C155.006 153.467 154.439 154.107 153.706 154.56C152.986 155.013 152.139 155.24 151.166 155.24ZM151.166 153.64C152.139 153.64 152.892 153.293 153.426 152.6C153.972 151.893 154.246 150.927 154.246 149.7C154.246 148.473 153.972 147.513 153.426 146.82C152.892 146.113 152.139 145.76 151.166 145.76C150.192 145.76 149.432 146.113 148.886 146.82C148.339 147.513 148.066 148.473 148.066 149.7C148.066 150.927 148.339 151.893 148.886 152.6C149.432 153.293 150.192 153.64 151.166 153.64ZM161.775 155.24C160.722 155.24 159.875 154.887 159.235 154.18C158.609 153.46 158.295 152.473 158.295 151.22V144.4H159.975V150.76C159.975 151.787 160.155 152.547 160.515 153.04C160.889 153.52 161.455 153.76 162.215 153.76C163.055 153.76 163.715 153.493 164.195 152.96C164.675 152.413 164.915 151.667 164.915 150.72V144.4H166.595V155H164.995V152.38L165.255 152.52C165.042 153.387 164.635 154.06 164.035 154.54C163.435 155.007 162.682 155.24 161.775 155.24ZM173.464 155.24C172.517 155.24 171.711 155.087 171.044 154.78C170.391 154.473 169.877 154.053 169.504 153.52C169.144 152.973 168.937 152.353 168.884 151.66L170.644 151.54C170.751 152.18 171.024 152.693 171.464 153.08C171.904 153.453 172.571 153.64 173.464 153.64C174.184 153.64 174.757 153.527 175.184 153.3C175.624 153.06 175.844 152.68 175.844 152.16C175.844 151.88 175.777 151.647 175.644 151.46C175.511 151.273 175.251 151.113 174.864 150.98C174.477 150.833 173.904 150.693 173.144 150.56C172.131 150.373 171.331 150.147 170.744 149.88C170.171 149.6 169.757 149.26 169.504 148.86C169.264 148.447 169.144 147.96 169.144 147.4C169.144 146.453 169.491 145.68 170.184 145.08C170.877 144.467 171.864 144.16 173.144 144.16C174.011 144.16 174.737 144.32 175.324 144.64C175.924 144.947 176.391 145.36 176.724 145.88C177.071 146.387 177.297 146.947 177.404 147.56L175.644 147.68C175.564 147.307 175.417 146.98 175.204 146.7C174.991 146.407 174.711 146.18 174.364 146.02C174.017 145.847 173.604 145.76 173.124 145.76C172.364 145.76 171.804 145.907 171.444 146.2C171.084 146.493 170.904 146.867 170.904 147.32C170.904 147.667 170.984 147.953 171.144 148.18C171.317 148.393 171.591 148.573 171.964 148.72C172.337 148.853 172.837 148.973 173.464 149.08C174.544 149.267 175.384 149.493 175.984 149.76C176.584 150.027 177.004 150.353 177.244 150.74C177.484 151.127 177.604 151.6 177.604 152.16C177.604 152.813 177.417 153.373 177.044 153.84C176.684 154.293 176.191 154.64 175.564 154.88C174.951 155.12 174.251 155.24 173.464 155.24ZM185.332 155V140.8H187.052V154.2L186.192 153.32H194.152V155H185.332ZM200.053 155.24C199.053 155.24 198.186 155.013 197.453 154.56C196.733 154.107 196.173 153.467 195.773 152.64C195.386 151.8 195.193 150.82 195.193 149.7C195.193 148.58 195.386 147.607 195.773 146.78C196.173 145.953 196.726 145.313 197.433 144.86C198.153 144.393 198.999 144.16 199.973 144.16C200.893 144.16 201.706 144.38 202.413 144.82C203.119 145.247 203.666 145.873 204.053 146.7C204.453 147.527 204.653 148.533 204.653 149.72V150.22H196.952C197.019 151.353 197.319 152.207 197.853 152.78C198.399 153.353 199.133 153.64 200.053 153.64C200.746 153.64 201.313 153.48 201.753 153.16C202.206 152.827 202.519 152.393 202.693 151.86L204.493 152C204.213 152.947 203.679 153.727 202.893 154.34C202.119 154.94 201.173 155.24 200.053 155.24ZM196.952 148.74H202.813C202.733 147.713 202.433 146.96 201.913 146.48C201.406 146 200.759 145.76 199.973 145.76C199.159 145.76 198.486 146.013 197.953 146.52C197.433 147.013 197.099 147.753 196.952 148.74ZM210.062 155.24C208.968 155.24 208.095 154.987 207.442 154.48C206.802 153.973 206.482 153.267 206.482 152.36C206.482 151.453 206.748 150.74 207.282 150.22C207.815 149.7 208.662 149.333 209.822 149.12L213.582 148.42C213.582 147.527 213.368 146.86 212.942 146.42C212.528 145.98 211.902 145.76 211.062 145.76C210.328 145.76 209.748 145.927 209.322 146.26C208.895 146.58 208.602 147.047 208.442 147.66L206.662 147.52C206.862 146.52 207.342 145.713 208.102 145.1C208.875 144.473 209.862 144.16 211.062 144.16C212.422 144.16 213.462 144.547 214.182 145.32C214.902 146.08 215.262 147.133 215.262 148.48V152.86C215.262 153.1 215.302 153.273 215.382 153.38C215.475 153.473 215.622 153.52 215.822 153.52H216.242V155C216.188 155.013 216.102 155.02 215.982 155.02C215.862 155.033 215.735 155.04 215.602 155.04C215.122 155.04 214.728 154.967 214.422 154.82C214.128 154.66 213.915 154.42 213.782 154.1C213.648 153.767 213.582 153.333 213.582 152.8L213.782 152.84C213.688 153.293 213.462 153.707 213.102 154.08C212.742 154.44 212.295 154.727 211.762 154.94C211.228 155.14 210.662 155.24 210.062 155.24ZM210.222 153.76C210.928 153.76 211.528 153.627 212.022 153.36C212.528 153.08 212.915 152.707 213.182 152.24C213.448 151.76 213.582 151.227 213.582 150.64V149.88L210.142 150.52C209.422 150.653 208.922 150.86 208.642 151.14C208.375 151.407 208.242 151.76 208.242 152.2C208.242 152.693 208.415 153.08 208.762 153.36C209.122 153.627 209.608 153.76 210.222 153.76ZM218.139 155V144.4H219.619L219.699 147.08L219.539 147.02C219.672 146.113 219.959 145.453 220.399 145.04C220.852 144.613 221.452 144.4 222.199 144.4H223.239V146H222.219C221.686 146 221.239 146.1 220.879 146.3C220.532 146.487 220.266 146.773 220.079 147.16C219.906 147.533 219.819 148.013 219.819 148.6V155H218.139ZM224.916 155V144.4H226.456L226.516 147.1L226.316 146.92C226.45 146.293 226.683 145.78 227.016 145.38C227.35 144.967 227.75 144.66 228.216 144.46C228.696 144.26 229.21 144.16 229.756 144.16C230.57 144.16 231.236 144.34 231.756 144.7C232.29 145.06 232.683 145.547 232.936 146.16C233.203 146.76 233.336 147.433 233.336 148.18V155H231.656V148.66C231.656 148.007 231.576 147.46 231.416 147.02C231.27 146.567 231.03 146.227 230.696 146C230.363 145.76 229.93 145.64 229.396 145.64C228.583 145.64 227.91 145.9 227.376 146.42C226.856 146.927 226.596 147.673 226.596 148.66V155H224.916ZM236.342 155V144.4H238.022V155H236.342ZM236.302 142.74V140.78H238.062V142.74H236.302ZM241.42 155V144.4H242.96L243.02 147.1L242.82 146.92C242.954 146.293 243.187 145.78 243.52 145.38C243.854 144.967 244.254 144.66 244.72 144.46C245.2 144.26 245.714 144.16 246.26 144.16C247.074 144.16 247.74 144.34 248.26 144.7C248.794 145.06 249.187 145.547 249.44 146.16C249.707 146.76 249.84 147.433 249.84 148.18V155H248.16V148.66C248.16 148.007 248.08 147.46 247.92 147.02C247.774 146.567 247.534 146.227 247.2 146C246.867 145.76 246.434 145.64 245.9 145.64C245.087 145.64 244.414 145.9 243.88 146.42C243.36 146.927 243.1 147.673 243.1 148.66V155H241.42ZM256.827 158.24C256.067 158.24 255.38 158.113 254.767 157.86C254.154 157.607 253.64 157.247 253.227 156.78C252.814 156.313 252.534 155.773 252.387 155.16L254.147 155.04C254.307 155.533 254.587 155.92 254.987 156.2C255.4 156.493 256.014 156.64 256.827 156.64C257.787 156.64 258.52 156.447 259.027 156.06C259.547 155.673 259.807 155.093 259.807 154.32V152.6C259.554 153.16 259.147 153.607 258.587 153.94C258.027 154.273 257.4 154.44 256.707 154.44C255.814 154.44 255.014 154.22 254.307 153.78C253.614 153.34 253.067 152.733 252.667 151.96C252.28 151.187 252.087 150.3 252.087 149.3C252.087 148.287 252.28 147.4 252.667 146.64C253.054 145.867 253.587 145.26 254.267 144.82C254.96 144.38 255.747 144.16 256.627 144.16C257.374 144.16 258.04 144.333 258.627 144.68C259.227 145.027 259.647 145.493 259.887 146.08V144.4H261.487V154.28C261.487 155.107 261.3 155.813 260.927 156.4C260.554 157 260.02 157.453 259.327 157.76C258.634 158.08 257.8 158.24 256.827 158.24ZM256.787 152.84C257.694 152.84 258.42 152.527 258.967 151.9C259.514 151.26 259.794 150.393 259.807 149.3C259.82 148.567 259.7 147.94 259.447 147.42C259.207 146.887 258.854 146.48 258.387 146.2C257.934 145.907 257.4 145.76 256.787 145.76C255.854 145.76 255.127 146.08 254.607 146.72C254.1 147.347 253.847 148.207 253.847 149.3C253.847 150.393 254.107 151.26 254.627 151.9C255.16 152.527 255.88 152.84 256.787 152.84Z" fill="#738297"/>
<path d="M75.84 101V86.8H84.76V88.48H77.56V93.06H84.52V94.7H77.56V99.32H84.92V101H75.84ZM89.7308 101C89.1174 101 88.6174 100.84 88.2308 100.52C87.8441 100.2 87.6508 99.6933 87.6508 99V86.8H89.3308V98.86C89.3308 99.0733 89.3841 99.24 89.4908 99.36C89.6108 99.4667 89.7774 99.52 89.9908 99.52H90.9108V101H89.7308ZM95.8428 101.24C94.7495 101.24 93.8761 100.987 93.2228 100.48C92.5828 99.9733 92.2628 99.2667 92.2628 98.36C92.2628 97.4533 92.5295 96.74 93.0628 96.22C93.5961 95.7 94.4428 95.3333 95.6028 95.12L99.3628 94.42C99.3628 93.5267 99.1495 92.86 98.7228 92.42C98.3095 91.98 97.6828 91.76 96.8428 91.76C96.1095 91.76 95.5295 91.9267 95.1028 92.26C94.6761 92.58 94.3828 93.0467 94.2228 93.66L92.4428 93.52C92.6428 92.52 93.1228 91.7133 93.8828 91.1C94.6561 90.4733 95.6428 90.16 96.8428 90.16C98.2028 90.16 99.2428 90.5467 99.9628 91.32C100.683 92.08 101.043 93.1333 101.043 94.48V98.86C101.043 99.1 101.083 99.2733 101.163 99.38C101.256 99.4733 101.403 99.52 101.603 99.52H102.023V101C101.969 101.013 101.883 101.02 101.763 101.02C101.643 101.033 101.516 101.04 101.383 101.04C100.903 101.04 100.509 100.967 100.203 100.82C99.9095 100.66 99.6961 100.42 99.5628 100.1C99.4295 99.7667 99.3628 99.3333 99.3628 98.8L99.5628 98.84C99.4695 99.2933 99.2428 99.7067 98.8828 100.08C98.5228 100.44 98.0761 100.727 97.5428 100.94C97.0095 101.14 96.4428 101.24 95.8428 101.24ZM96.0028 99.76C96.7095 99.76 97.3095 99.6267 97.8028 99.36C98.3095 99.08 98.6961 98.7067 98.9628 98.24C99.2295 97.76 99.3628 97.2267 99.3628 96.64V95.88L95.9228 96.52C95.2028 96.6533 94.7028 96.86 94.4228 97.14C94.1561 97.4067 94.0228 97.76 94.0228 98.2C94.0228 98.6933 94.1961 99.08 94.5428 99.36C94.9028 99.6267 95.3895 99.76 96.0028 99.76ZM107.741 101.24C106.795 101.24 105.988 101.087 105.321 100.78C104.668 100.473 104.155 100.053 103.781 99.52C103.421 98.9733 103.215 98.3533 103.161 97.66L104.921 97.54C105.028 98.18 105.301 98.6933 105.741 99.08C106.181 99.4533 106.848 99.64 107.741 99.64C108.461 99.64 109.035 99.5267 109.461 99.3C109.901 99.06 110.121 98.68 110.121 98.16C110.121 97.88 110.055 97.6467 109.921 97.46C109.788 97.2733 109.528 97.1133 109.141 96.98C108.755 96.8333 108.181 96.6933 107.421 96.56C106.408 96.3733 105.608 96.1467 105.021 95.88C104.448 95.6 104.035 95.26 103.781 94.86C103.541 94.4467 103.421 93.96 103.421 93.4C103.421 92.4533 103.768 91.68 104.461 91.08C105.155 90.4667 106.141 90.16 107.421 90.16C108.288 90.16 109.015 90.32 109.601 90.64C110.201 90.9467 110.668 91.36 111.001 91.88C111.348 92.3867 111.575 92.9467 111.681 93.56L109.921 93.68C109.841 93.3067 109.695 92.98 109.481 92.7C109.268 92.4067 108.988 92.18 108.641 92.02C108.295 91.8467 107.881 91.76 107.401 91.76C106.641 91.76 106.081 91.9067 105.721 92.2C105.361 92.4933 105.181 92.8667 105.181 93.32C105.181 93.6667 105.261 93.9533 105.421 94.18C105.595 94.3933 105.868 94.5733 106.241 94.72C106.615 94.8533 107.115 94.9733 107.741 95.08C108.821 95.2667 109.661 95.4933 110.261 95.76C110.861 96.0267 111.281 96.3533 111.521 96.74C111.761 97.1267 111.881 97.6 111.881 98.16C111.881 98.8133 111.695 99.3733 111.321 99.84C110.961 100.293 110.468 100.64 109.841 100.88C109.228 101.12 108.528 101.24 107.741 101.24ZM117.644 101C116.684 101 115.971 100.78 115.504 100.34C115.051 99.9 114.824 99.2133 114.824 98.28V87.92H116.504V98.24C116.504 98.72 116.611 99.0533 116.824 99.24C117.037 99.4267 117.364 99.52 117.804 99.52H119.324V101H117.644ZM113.264 91.88V90.4H119.324V91.88H113.264ZM121.479 101V90.4H123.159V101H121.479ZM121.439 88.74V86.78H123.199V88.74H121.439ZM130.306 101.24C129.32 101.24 128.46 101.013 127.726 100.56C127.006 100.107 126.446 99.4667 126.046 98.64C125.646 97.8 125.446 96.82 125.446 95.7C125.446 94.58 125.646 93.6067 126.046 92.78C126.446 91.9533 127.006 91.3133 127.726 90.86C128.46 90.3933 129.32 90.16 130.306 90.16C131.12 90.16 131.84 90.3067 132.466 90.6C133.106 90.88 133.626 91.2933 134.026 91.84C134.426 92.3867 134.686 93.0533 134.806 93.84L133.046 93.96C132.926 93.2533 132.62 92.7133 132.126 92.34C131.633 91.9533 131.026 91.76 130.306 91.76C129.333 91.76 128.573 92.1133 128.026 92.82C127.48 93.5133 127.206 94.4733 127.206 95.7C127.206 96.9267 127.48 97.8933 128.026 98.6C128.573 99.2933 129.333 99.64 130.306 99.64C131.026 99.64 131.633 99.44 132.126 99.04C132.62 98.64 132.926 98.04 133.046 97.24L134.806 97.36C134.686 98.1467 134.426 98.8333 134.026 99.42C133.626 99.9933 133.106 100.44 132.466 100.76C131.84 101.08 131.12 101.24 130.306 101.24ZM142.324 101V86.8H144.044V101H142.324ZM147.67 101V90.4H149.21L149.27 93.1L149.07 92.92C149.204 92.2933 149.437 91.78 149.77 91.38C150.104 90.9667 150.504 90.66 150.97 90.46C151.45 90.26 151.964 90.16 152.51 90.16C153.324 90.16 153.99 90.34 154.51 90.7C155.044 91.06 155.437 91.5467 155.69 92.16C155.957 92.76 156.09 93.4333 156.09 94.18V101H154.41V94.66C154.41 94.0067 154.33 93.46 154.17 93.02C154.024 92.5667 153.784 92.2267 153.45 92C153.117 91.76 152.684 91.64 152.15 91.64C151.337 91.64 150.664 91.9 150.13 92.42C149.61 92.9267 149.35 93.6733 149.35 94.66V101H147.67ZM159.648 101V89.44C159.648 88.6533 159.874 88.02 160.328 87.54C160.781 87.0467 161.488 86.8 162.448 86.8H164.128V88.28H162.568C162.154 88.28 161.841 88.3933 161.628 88.62C161.428 88.8467 161.328 89.16 161.328 89.56V101H159.648ZM158.208 91.88V90.4H163.988V91.88H158.208ZM165.893 101V90.4H167.373L167.453 93.08L167.293 93.02C167.426 92.1133 167.713 91.4533 168.153 91.04C168.606 90.6133 169.206 90.4 169.953 90.4H170.993V92H169.973C169.44 92 168.993 92.1 168.633 92.3C168.286 92.4867 168.02 92.7733 167.833 93.16C167.66 93.5333 167.573 94.0133 167.573 94.6V101H165.893ZM175.53 101.24C174.437 101.24 173.564 100.987 172.91 100.48C172.27 99.9733 171.95 99.2667 171.95 98.36C171.95 97.4533 172.217 96.74 172.75 96.22C173.284 95.7 174.13 95.3333 175.29 95.12L179.05 94.42C179.05 93.5267 178.837 92.86 178.41 92.42C177.997 91.98 177.37 91.76 176.53 91.76C175.797 91.76 175.217 91.9267 174.79 92.26C174.364 92.58 174.07 93.0467 173.91 93.66L172.13 93.52C172.33 92.52 172.81 91.7133 173.57 91.1C174.344 90.4733 175.33 90.16 176.53 90.16C177.89 90.16 178.93 90.5467 179.65 91.32C180.37 92.08 180.73 93.1333 180.73 94.48V98.86C180.73 99.1 180.77 99.2733 180.85 99.38C180.944 99.4733 181.09 99.52 181.29 99.52H181.71V101C181.657 101.013 181.57 101.02 181.45 101.02C181.33 101.033 181.204 101.04 181.07 101.04C180.59 101.04 180.197 100.967 179.89 100.82C179.597 100.66 179.384 100.42 179.25 100.1C179.117 99.7667 179.05 99.3333 179.05 98.8L179.25 98.84C179.157 99.2933 178.93 99.7067 178.57 100.08C178.21 100.44 177.764 100.727 177.23 100.94C176.697 101.14 176.13 101.24 175.53 101.24ZM175.69 99.76C176.397 99.76 176.997 99.6267 177.49 99.36C177.997 99.08 178.384 98.7067 178.65 98.24C178.917 97.76 179.05 97.2267 179.05 96.64V95.88L175.61 96.52C174.89 96.6533 174.39 96.86 174.11 97.14C173.844 97.4067 173.71 97.76 173.71 98.2C173.71 98.6933 173.884 99.08 174.23 99.36C174.59 99.6267 175.077 99.76 175.69 99.76ZM187.429 101.24C186.482 101.24 185.675 101.087 185.009 100.78C184.355 100.473 183.842 100.053 183.469 99.52C183.109 98.9733 182.902 98.3533 182.849 97.66L184.609 97.54C184.715 98.18 184.989 98.6933 185.429 99.08C185.869 99.4533 186.535 99.64 187.429 99.64C188.149 99.64 188.722 99.5267 189.149 99.3C189.589 99.06 189.809 98.68 189.809 98.16C189.809 97.88 189.742 97.6467 189.609 97.46C189.475 97.2733 189.215 97.1133 188.829 96.98C188.442 96.8333 187.869 96.6933 187.109 96.56C186.095 96.3733 185.295 96.1467 184.709 95.88C184.135 95.6 183.722 95.26 183.469 94.86C183.229 94.4467 183.109 93.96 183.109 93.4C183.109 92.4533 183.455 91.68 184.149 91.08C184.842 90.4667 185.829 90.16 187.109 90.16C187.975 90.16 188.702 90.32 189.289 90.64C189.889 90.9467 190.355 91.36 190.689 91.88C191.035 92.3867 191.262 92.9467 191.369 93.56L189.609 93.68C189.529 93.3067 189.382 92.98 189.169 92.7C188.955 92.4067 188.675 92.18 188.329 92.02C187.982 91.8467 187.569 91.76 187.089 91.76C186.329 91.76 185.769 91.9067 185.409 92.2C185.049 92.4933 184.869 92.8667 184.869 93.32C184.869 93.6667 184.949 93.9533 185.109 94.18C185.282 94.3933 185.555 94.5733 185.929 94.72C186.302 94.8533 186.802 94.9733 187.429 95.08C188.509 95.2667 189.349 95.4933 189.949 95.76C190.549 96.0267 190.969 96.3533 191.209 96.74C191.449 97.1267 191.569 97.6 191.569 98.16C191.569 98.8133 191.382 99.3733 191.009 99.84C190.649 100.293 190.155 100.64 189.529 100.88C188.915 101.12 188.215 101.24 187.429 101.24ZM197.332 101C196.372 101 195.658 100.78 195.192 100.34C194.738 99.9 194.512 99.2133 194.512 98.28V87.92H196.192V98.24C196.192 98.72 196.298 99.0533 196.512 99.24C196.725 99.4267 197.052 99.52 197.492 99.52H199.012V101H197.332ZM192.952 91.88V90.4H199.012V91.88H192.952ZM201.381 101V90.4H202.861L202.941 93.08L202.781 93.02C202.915 92.1133 203.201 91.4533 203.641 91.04C204.095 90.6133 204.695 90.4 205.441 90.4H206.481V92H205.461C204.928 92 204.481 92.1 204.121 92.3C203.775 92.4867 203.508 92.7733 203.321 93.16C203.148 93.5333 203.061 94.0133 203.061 94.6V101H201.381ZM212.049 101.24C210.995 101.24 210.149 100.887 209.509 100.18C208.882 99.46 208.569 98.4733 208.569 97.22V90.4H210.249V96.76C210.249 97.7867 210.429 98.5467 210.789 99.04C211.162 99.52 211.729 99.76 212.489 99.76C213.329 99.76 213.989 99.4933 214.469 98.96C214.949 98.4133 215.189 97.6667 215.189 96.72V90.4H216.869V101H215.269V98.38L215.529 98.52C215.315 99.3867 214.909 100.06 214.309 100.54C213.709 101.007 212.955 101.24 212.049 101.24ZM224.017 101.24C223.031 101.24 222.171 101.013 221.437 100.56C220.717 100.107 220.157 99.4667 219.757 98.64C219.357 97.8 219.157 96.82 219.157 95.7C219.157 94.58 219.357 93.6067 219.757 92.78C220.157 91.9533 220.717 91.3133 221.437 90.86C222.171 90.3933 223.031 90.16 224.017 90.16C224.831 90.16 225.551 90.3067 226.177 90.6C226.817 90.88 227.337 91.2933 227.737 91.84C228.137 92.3867 228.397 93.0533 228.517 93.84L226.757 93.96C226.637 93.2533 226.331 92.7133 225.837 92.34C225.344 91.9533 224.737 91.76 224.017 91.76C223.044 91.76 222.284 92.1133 221.737 92.82C221.191 93.5133 220.917 94.4733 220.917 95.7C220.917 96.9267 221.191 97.8933 221.737 98.6C222.284 99.2933 223.044 99.64 224.017 99.64C224.737 99.64 225.344 99.44 225.837 99.04C226.331 98.64 226.637 98.04 226.757 97.24L228.517 97.36C228.397 98.1467 228.137 98.8333 227.737 99.42C227.337 99.9933 226.817 100.44 226.177 100.76C225.551 101.08 224.831 101.24 224.017 101.24ZM234.07 101C233.11 101 232.397 100.78 231.93 100.34C231.477 99.9 231.25 99.2133 231.25 98.28V87.92H232.93V98.24C232.93 98.72 233.037 99.0533 233.25 99.24C233.463 99.4267 233.79 99.52 234.23 99.52H235.75V101H234.07ZM229.69 91.88V90.4H235.75V91.88H229.69ZM241.385 101.24C240.331 101.24 239.485 100.887 238.845 100.18C238.218 99.46 237.905 98.4733 237.905 97.22V90.4H239.585V96.76C239.585 97.7867 239.765 98.5467 240.125 99.04C240.498 99.52 241.065 99.76 241.825 99.76C242.665 99.76 243.325 99.4933 243.805 98.96C244.285 98.4133 244.525 97.6667 244.525 96.72V90.4H246.205V101H244.605V98.38L244.865 98.52C244.651 99.3867 244.245 100.06 243.645 100.54C243.045 101.007 242.291 101.24 241.385 101.24ZM249.409 101V90.4H250.889L250.969 93.08L250.809 93.02C250.942 92.1133 251.229 91.4533 251.669 91.04C252.122 90.6133 252.722 90.4 253.469 90.4H254.509V92H253.489C252.955 92 252.509 92.1 252.149 92.3C251.802 92.4867 251.535 92.7733 251.349 93.16C251.175 93.5333 251.089 94.0133 251.089 94.6V101H249.409ZM260.326 101.24C259.326 101.24 258.459 101.013 257.726 100.56C257.006 100.107 256.446 99.4667 256.046 98.64C255.659 97.8 255.466 96.82 255.466 95.7C255.466 94.58 255.659 93.6067 256.046 92.78C256.446 91.9533 256.999 91.3133 257.706 90.86C258.426 90.3933 259.273 90.16 260.246 90.16C261.166 90.16 261.979 90.38 262.686 90.82C263.393 91.2467 263.939 91.8733 264.326 92.7C264.726 93.5267 264.926 94.5333 264.926 95.72V96.22H257.226C257.293 97.3533 257.593 98.2067 258.126 98.78C258.673 99.3533 259.406 99.64 260.326 99.64C261.019 99.64 261.586 99.48 262.026 99.16C262.479 98.8267 262.793 98.3933 262.966 97.86L264.766 98C264.486 98.9467 263.953 99.7267 263.166 100.34C262.393 100.94 261.446 101.24 260.326 101.24ZM257.226 94.74H263.086C263.006 93.7133 262.706 92.96 262.186 92.48C261.679 92 261.033 91.76 260.246 91.76C259.433 91.76 258.759 92.0133 258.226 92.52C257.706 93.0133 257.373 93.7533 257.226 94.74Z" fill="#738297"/>
<g clip-path="url(#clip0_0_1)">
<path d="M61 140V146M61 146H55M61 146L56.36 141.64C55.2853 140.564 53.9556 139.779 52.4952 139.356C51.0348 138.934 49.4911 138.888 48.0083 139.224C46.5255 139.559 45.1518 140.265 44.0155 141.275C42.8791 142.285 42.0172 143.566 41.51 145M39 156V150M39 150H45M39 150L43.64 154.36C44.7147 155.435 46.0444 156.22 47.5048 156.643C48.9652 157.065 50.5089 157.111 51.9917 156.775C53.4745 156.44 54.8482 155.734 55.9845 154.724C57.1209 153.714 57.9828 152.433 58.49 151" stroke="#738297" stroke-width="3" stroke-linecap="round" stroke-linejoin="round"/>
</g>
<path d="M51.25 208.25L57.5 202L51.25 195.75M42.5 208.25L48.75 202L42.5 195.75" stroke="#738297" stroke-width="3" stroke-linecap="round" stroke-linejoin="round"/>
<path d="M61.6693 362.999H38.3359M61.6693 362.999V369.999C61.6693 370.618 61.4234 371.212 60.9859 371.649C60.5483 372.087 59.9548 372.333 59.3359 372.333H40.6693C40.0504 372.333 39.4569 372.087 39.0194 371.649C38.5818 371.212 38.3359 370.618 38.3359 369.999V362.999M61.6693 362.999L57.6443 354.961C57.4511 354.572 57.1533 354.245 56.7844 354.016C56.4155 353.788 55.99 353.666 55.5559 353.666H44.4493C44.0152 353.666 43.5897 353.788 43.2208 354.016C42.8519 354.245 42.5541 354.572 42.3609 354.961L38.3359 362.999M43.0026 367.666H43.0143M47.6693 367.666H47.6809" stroke="#738297" stroke-width="3" stroke-linecap="round" stroke-linejoin="round"/>
<path d="M59.3307 320.5V318.167C59.3307 316.929 58.8391 315.742 57.9639 314.867C57.0887 313.992 55.9017 313.5 54.6641 313.5H45.3307C44.0931 313.5 42.9061 313.992 42.0309 314.867C41.1557 315.742 40.6641 316.929 40.6641 318.167V320.5M54.6641 304.167C54.6641 306.744 52.5747 308.833 49.9974 308.833C47.4201 308.833 45.3307 306.744 45.3307 304.167C45.3307 301.589 47.4201 299.5 49.9974 299.5C52.5747 299.5 54.6641 301.589 54.6641 304.167Z" stroke="#738297" stroke-width="3" stroke-linecap="round" stroke-linejoin="round"/>
<path d="M47.6667 245.5H39.5V253.667H47.6667V245.5Z" stroke="#738297" stroke-width="3" stroke-linecap="round" stroke-linejoin="round"/>
<path d="M60.5 245.5H52.3333V253.667H60.5V245.5Z" stroke="#738297" stroke-width="3" stroke-linecap="round" stroke-linejoin="round"/>
<path d="M60.5 258.333H52.3333V266.5H60.5V258.333Z" stroke="#738297" stroke-width="3" stroke-linecap="round" stroke-linejoin="round"/>
<path d="M47.6667 258.333H39.5V266.5H47.6667V258.333Z" stroke="#738297" stroke-width="3" stroke-linecap="round" stroke-linejoin="round"/>
<path d="M57 100.333V88.666M50 100.333V81.666M43 100.333V93.3327" stroke="#738297" stroke-width="3" stroke-linecap="round" stroke-linejoin="round"/>
<path d="M58 24H11C5.47715 24 1 28.4772 1 34V400.5C1 406.023 5.47715 410.5 11 410.5H336C341.523 410.5 346 406.023 346 400.5V34C346 28.4772 341.523 24 336 24H284" stroke="#738297" stroke-linecap="round" stroke-dasharray="6 4"/>
<defs>
<clipPath id="clip0_0_1">
<rect width="24" height="24" fill="white" transform="translate(38 136)"/>
</clipPath>
</defs>
</svg>
