<svg width="1151" height="342" viewBox="0 0 1151 342" fill="none" xmlns="http://www.w3.org/2000/svg">
<path d="M457 199.5H697C702.247 199.5 706.5 203.753 706.5 209V233C706.5 238.247 702.247 242.5 697 242.5H457C451.753 242.5 447.5 238.247 447.5 233V209L447.513 208.511C447.759 203.653 451.653 199.759 456.511 199.513L457 199.5Z" fill="#A1BCD1" fill-opacity="0.06" stroke="#05CD99"/>
<path d="M447 10C447 4.47715 451.477 0 457 0H697C702.523 0 707 4.47715 707 10V34C707 39.5228 702.523 44 697 44H457C451.477 44 447 39.5228 447 34V10Z" fill="#A1BCD1" fill-opacity="0.06"/>
<path d="M457 0.5H697C702.247 0.500003 706.5 4.7533 706.5 10V34C706.5 39.2467 702.247 43.5 697 43.5H457C451.753 43.5 447.5 39.2467 447.5 34V10L447.513 9.51074C447.759 4.65347 451.653 0.759117 456.511 0.512695L457 0.5Z" stroke="#A1BCD1" stroke-opacity="0.4"/>
<path d="M66 110C130.555 110 152.231 110 155 110" stroke="#A1BCD1" stroke-opacity="0.4"/>
<path d="M996 110C1060.55 110 1082.23 110 1085 110" stroke="#05CD99"/>
<path d="M841 110C905.555 110 927.231 110 930 110" stroke="#A1BCD1" stroke-opacity="0.4"/>
<path d="M686 110C750.555 110 772.231 110 775 110" stroke="#A1BCD1" stroke-opacity="0.4"/>
<path d="M531 110C595.555 110 617.231 110 620 110" stroke="#A1BCD1" stroke-opacity="0.4"/>
<path d="M376 110C440.555 110 462.231 110 465 110" stroke="#A1BCD1" stroke-opacity="0.4"/>
<path d="M221 110C285.555 110 307.231 110 310 110" stroke="#A1BCD1" stroke-opacity="0.4"/>
<path d="M465 110C465 91.7746 479.775 77 498 77V77C516.225 77 531 91.7746 531 110V110C531 128.225 516.225 143 498 143V143C479.775 143 465 128.225 465 110V110Z" fill="#A1BCD1" fill-opacity="0.06"/>
<path d="M498 77.5C515.949 77.5 530.5 92.0507 530.5 110C530.5 127.949 515.949 142.5 498 142.5C480.051 142.5 465.5 127.949 465.5 110C465.5 92.0507 480.051 77.5 498 77.5Z" stroke="#A1BCD1" stroke-opacity="0.4"/>
<path d="M497.997 127.333C508.123 127.333 516.331 119.125 516.331 108.999C516.331 98.8741 508.123 90.666 497.997 90.666C487.872 90.666 479.664 98.8741 479.664 108.999C479.664 119.125 487.872 127.333 497.997 127.333Z" stroke="white" stroke-width="3" stroke-linecap="round" stroke-linejoin="round"/>
<path d="M505.771 101.226L501.884 112.886L490.224 116.773L494.111 105.113L505.771 101.226Z" stroke="white" stroke-width="3" stroke-linecap="round" stroke-linejoin="round"/>
<path d="M0 110C0 91.7746 14.7746 77 33 77V77C51.2254 77 66 91.7746 66 110V110C66 128.225 51.2254 143 33 143V143C14.7746 143 0 128.225 0 110V110Z" fill="#A1BCD1" fill-opacity="0.06"/>
<path d="M33 77.5C50.9493 77.5 65.5 92.0507 65.5 110C65.5 127.949 50.9493 142.5 33 142.5C15.0507 142.5 0.5 127.949 0.5 110C0.500001 92.0507 15.0507 77.5 33 77.5Z" stroke="#A1BCD1" stroke-opacity="0.4"/>
<path d="M49.5 115.5V122.833C49.5 123.806 49.1137 124.738 48.4261 125.426C47.7384 126.114 46.8058 126.5 45.8333 126.5H20.1667C19.1942 126.5 18.2616 126.114 17.5739 125.426C16.8863 124.738 16.5 123.806 16.5 122.833V115.5M42.1667 102.667L33 93.5M33 93.5L23.8333 102.667M33 93.5V115.5" stroke="white" stroke-width="3" stroke-linecap="round" stroke-linejoin="round"/>
<path d="M653 77.5C670.949 77.5 685.5 92.0507 685.5 110C685.5 127.949 670.949 142.5 653 142.5C635.051 142.5 620.5 127.949 620.5 110C620.5 92.0507 635.051 77.5 653 77.5Z" fill="#A1BCD1" fill-opacity="0.06" stroke="#F19935"/>
<path d="M670.17 102.834V91.834M670.17 91.834H659.17M670.17 91.834L657.337 104.667M668.337 121.021V126.521C668.339 127.031 668.234 127.537 668.029 128.004C667.825 128.472 667.525 128.892 667.149 129.237C666.772 129.583 666.328 129.845 665.845 130.009C665.361 130.173 664.848 130.233 664.34 130.187C658.698 129.574 653.279 127.647 648.518 124.559C644.089 121.744 640.333 117.989 637.518 113.559C634.42 108.776 632.492 103.331 631.89 97.664C631.844 97.157 631.904 96.646 632.067 96.1636C632.229 95.6812 632.49 95.2379 632.834 94.862C633.177 94.486 633.595 94.1856 634.06 93.9799C634.526 93.7743 635.029 93.6678 635.538 93.6673H641.038C641.928 93.6586 642.791 93.9736 643.465 94.5538C644.14 95.134 644.58 95.9396 644.705 96.8207C644.937 98.5808 645.368 100.309 645.988 101.972C646.235 102.629 646.288 103.342 646.142 104.027C645.996 104.713 645.656 105.342 645.163 105.841L642.835 108.169C645.445 112.759 649.245 116.559 653.835 119.169L656.163 116.841C656.662 116.348 657.291 116.008 657.977 115.862C658.662 115.716 659.375 115.769 660.032 116.016C661.695 116.636 663.423 117.067 665.183 117.299C666.074 117.425 666.887 117.873 667.469 118.559C668.05 119.246 668.359 120.122 668.337 121.021Z" stroke="#F19935" stroke-width="3" stroke-linecap="round" stroke-linejoin="round"/>
<path d="M775 110C775 91.7746 789.775 77 808 77V77C826.225 77 841 91.7746 841 110V110C841 128.225 826.225 143 808 143V143C789.775 143 775 128.225 775 110V110Z" fill="#A1BCD1" fill-opacity="0.06"/>
<path d="M808 77.5C825.949 77.5 840.5 92.0507 840.5 110C840.5 127.949 825.949 142.5 808 142.5C790.051 142.5 775.5 127.949 775.5 110C775.5 92.0507 790.051 77.5 808 77.5Z" stroke="#A1BCD1" stroke-opacity="0.4"/>
<path d="M826.331 99.0007C826.331 96.984 824.681 95.334 822.664 95.334H793.331C791.314 95.334 789.664 96.984 789.664 99.0007M826.331 99.0007V121.001C826.331 123.017 824.681 124.667 822.664 124.667H793.331C791.314 124.667 789.664 123.017 789.664 121.001V99.0007M826.331 99.0007L807.997 111.834L789.664 99.0007" stroke="white" stroke-width="3" stroke-linecap="round" stroke-linejoin="round"/>
<path d="M1118 77.5C1135.95 77.5 1150.5 92.0507 1150.5 110C1150.5 127.949 1135.95 142.5 1118 142.5C1100.05 142.5 1085.5 127.949 1085.5 110C1085.5 92.0507 1100.05 77.5 1118 77.5Z" fill="#A1BCD1" fill-opacity="0.06" stroke="#05CD99"/>
<path d="M1125.33 90.666V97.9993M1110.67 90.666V97.9993M1101.5 105.333H1134.5M1105.17 94.3327H1130.83C1132.86 94.3327 1134.5 95.9743 1134.5 97.9993V123.666C1134.5 125.691 1132.86 127.333 1130.83 127.333H1105.17C1103.14 127.333 1101.5 125.691 1101.5 123.666V97.9993C1101.5 95.9743 1103.14 94.3327 1105.17 94.3327Z" stroke="#05CD99" stroke-width="3" stroke-linecap="round" stroke-linejoin="round"/>
<path d="M529 309C593.555 309 615.231 309 618 309" stroke="#05CD99"/>
<path d="M465 309C465 290.775 479.775 276 498 276V276C516.225 276 531 290.775 531 309V309C531 327.225 516.225 342 498 342V342C479.775 342 465 327.225 465 309V309Z" fill="#A1BCD1" fill-opacity="0.06"/>
<path d="M498 276.5C515.949 276.5 530.5 291.051 530.5 309C530.5 326.949 515.949 341.5 498 341.5C480.051 341.5 465.5 326.949 465.5 309C465.5 291.051 480.051 276.5 498 276.5Z" stroke="#A1BCD1" stroke-opacity="0.4"/>
<path d="M514.5 314.5V321.833C514.5 322.806 514.114 323.738 513.426 324.426C512.738 325.114 511.806 325.5 510.833 325.5H485.167C484.194 325.5 483.262 325.114 482.574 324.426C481.886 323.738 481.5 322.806 481.5 321.833V314.5M507.167 301.667L498 292.5M498 292.5L488.833 301.667M498 292.5V314.5" stroke="white" stroke-width="3" stroke-linecap="round" stroke-linejoin="round"/>
<path d="M651 276.5C668.949 276.5 683.5 291.051 683.5 309C683.5 326.949 668.949 341.5 651 341.5C633.051 341.5 618.5 326.949 618.5 309C618.5 291.051 633.051 276.5 651 276.5Z" fill="#A1BCD1" fill-opacity="0.06" stroke="#05CD99"/>
<path d="M658.333 289.666V296.999M643.667 289.666V296.999M634.5 304.333H667.5M638.167 293.333H663.833C665.858 293.333 667.5 294.974 667.5 296.999V322.666C667.5 324.691 665.858 326.333 663.833 326.333H638.167C636.142 326.333 634.5 324.691 634.5 322.666V296.999C634.5 294.974 636.142 293.333 638.167 293.333Z" stroke="#05CD99" stroke-width="3" stroke-linecap="round" stroke-linejoin="round"/>
<path d="M963 77.5C980.949 77.5 995.5 92.0507 995.5 110C995.5 127.949 980.949 142.5 963 142.5C945.051 142.5 930.5 127.949 930.5 110C930.5 92.0507 945.051 77.5 963 77.5Z" fill="#A1BCD1" fill-opacity="0.06" stroke="#F7D600"/>
<path d="M968.337 93.6673V104.667M968.337 104.667H979.337M968.337 104.667L981.17 91.834M979.337 121.021V126.521C979.339 127.031 979.234 127.537 979.029 128.004C978.825 128.472 978.525 128.892 978.149 129.237C977.772 129.583 977.328 129.845 976.845 130.009C976.361 130.173 975.848 130.233 975.34 130.187C969.698 129.574 964.279 127.647 959.518 124.559C955.089 121.744 951.333 117.989 948.518 113.559C945.42 108.776 943.492 103.331 942.89 97.664C942.844 97.157 942.904 96.646 943.067 96.1636C943.229 95.6812 943.49 95.2379 943.834 94.862C944.177 94.486 944.595 94.1856 945.06 93.9799C945.526 93.7743 946.029 93.6678 946.538 93.6673H952.038C952.928 93.6586 953.791 93.9736 954.465 94.5538C955.14 95.134 955.58 95.9396 955.705 96.8207C955.937 98.5808 956.368 100.309 956.988 101.972C957.235 102.629 957.288 103.342 957.142 104.027C956.996 104.713 956.656 105.342 956.163 105.841L953.835 108.169C956.445 112.759 960.245 116.559 964.835 119.169L967.163 116.841C967.662 116.348 968.291 116.008 968.977 115.862C969.662 115.716 970.375 115.769 971.032 116.016C972.695 116.636 974.423 117.067 976.183 117.299C977.074 117.425 977.887 117.873 978.469 118.559C979.05 119.246 979.359 120.122 979.337 121.021Z" stroke="#F7D600" stroke-width="3" stroke-linecap="round" stroke-linejoin="round"/>
<path d="M155 110C155 91.7746 169.775 77 188 77V77C206.225 77 221 91.7746 221 110V110C221 128.225 206.225 143 188 143V143C169.775 143 155 128.225 155 110V110Z" fill="#A1BCD1" fill-opacity="0.06"/>
<path d="M188 77.5C205.949 77.5 220.5 92.0507 220.5 110C220.5 127.949 205.949 142.5 188 142.5C170.051 142.5 155.5 127.949 155.5 110C155.5 92.0507 170.051 77.5 188 77.5Z" stroke="#A1BCD1" stroke-opacity="0.4"/>
<path d="M181 120.5L168.75 127.5V99.5L181 92.5M181 120.5L195 127.5M181 120.5V92.5M195 127.5L207.25 120.5V92.5L195 99.5M195 127.5V99.5M195 99.5L181 92.5" stroke="white" stroke-width="3" stroke-linecap="round" stroke-linejoin="round"/>
<path d="M310 110C310 91.7746 324.775 77 343 77V77C361.225 77 376 91.7746 376 110V110C376 128.225 361.225 143 343 143V143C324.775 143 310 128.225 310 110V110Z" fill="#A1BCD1" fill-opacity="0.06"/>
<path d="M343 77.5C360.949 77.5 375.5 92.0507 375.5 110C375.5 127.949 360.949 142.5 343 142.5C325.051 142.5 310.5 127.949 310.5 110C310.5 92.0507 325.051 77.5 343 77.5Z" stroke="#A1BCD1" stroke-opacity="0.4"/>
<path d="M359.5 126.5L351.525 118.525M341.167 102.667V113.667M335.667 108.167H346.667M355.833 108.167C355.833 116.267 349.267 122.833 341.167 122.833C333.066 122.833 326.5 116.267 326.5 108.167C326.5 100.066 333.066 93.5 341.167 93.5C349.267 93.5 355.833 100.066 355.833 108.167Z" stroke="white" stroke-width="3" stroke-linecap="round" stroke-linejoin="round"/>
<path d="M475.194 28V22.87L470.712 15.22H472.944L476.166 20.926L479.406 15.22H481.638L477.138 22.87V28H475.194ZM485.534 28.216C484.622 28.216 483.824 28.012 483.14 27.604C482.456 27.196 481.928 26.614 481.556 25.858C481.184 25.102 480.998 24.22 480.998 23.212C480.998 22.192 481.184 21.31 481.556 20.566C481.928 19.822 482.456 19.246 483.14 18.838C483.824 18.418 484.622 18.208 485.534 18.208C486.446 18.208 487.244 18.418 487.928 18.838C488.612 19.246 489.14 19.822 489.512 20.566C489.884 21.31 490.07 22.192 490.07 23.212C490.07 24.22 489.884 25.102 489.512 25.858C489.14 26.614 488.612 27.196 487.928 27.604C487.244 28.012 486.446 28.216 485.534 28.216ZM485.534 26.56C486.35 26.56 486.98 26.266 487.424 25.678C487.868 25.078 488.09 24.256 488.09 23.212C488.09 22.168 487.868 21.352 487.424 20.764C486.98 20.164 486.35 19.864 485.534 19.864C484.73 19.864 484.1 20.164 483.644 20.764C483.2 21.352 482.978 22.168 482.978 23.212C482.978 24.256 483.2 25.078 483.644 25.678C484.1 26.266 484.73 26.56 485.534 26.56ZM495.148 28.216C494.188 28.216 493.42 27.898 492.844 27.262C492.28 26.614 491.998 25.72 491.998 24.58V18.424H493.906V24.094C493.906 24.958 494.056 25.594 494.356 26.002C494.656 26.41 495.112 26.614 495.724 26.614C496.42 26.614 496.96 26.392 497.344 25.948C497.74 25.492 497.938 24.856 497.938 24.04V18.424H499.846V28H498.064L498.028 25.498L498.298 25.606C498.13 26.446 497.776 27.094 497.236 27.55C496.696 27.994 496 28.216 495.148 28.216ZM502.545 28V18.424H504.291L504.363 20.962L504.201 20.908C504.333 20.044 504.597 19.414 504.993 19.018C505.401 18.622 505.947 18.424 506.631 18.424H507.549V20.134H506.631C506.151 20.134 505.749 20.212 505.425 20.368C505.101 20.524 504.855 20.764 504.687 21.088C504.531 21.412 504.453 21.832 504.453 22.348V28H502.545ZM514.204 28V15.22H516.148V21.376L515.212 20.692H522.988L522.052 21.376V15.22H523.996V28H522.052V21.772L522.988 22.456H515.212L516.148 21.772V28H514.204ZM529.707 28.216C528.747 28.216 527.979 27.898 527.403 27.262C526.839 26.614 526.557 25.72 526.557 24.58V18.424H528.465V24.094C528.465 24.958 528.615 25.594 528.915 26.002C529.215 26.41 529.671 26.614 530.283 26.614C530.979 26.614 531.519 26.392 531.903 25.948C532.299 25.492 532.497 24.856 532.497 24.04V18.424H534.405V28H532.623L532.587 25.498L532.857 25.606C532.689 26.446 532.335 27.094 531.795 27.55C531.255 27.994 530.559 28.216 529.707 28.216ZM537.104 28V18.424H538.85L538.904 20.8L538.688 20.728C538.796 20.2 538.982 19.75 539.246 19.378C539.522 19.006 539.858 18.718 540.254 18.514C540.65 18.31 541.082 18.208 541.55 18.208C542.366 18.208 543.032 18.442 543.548 18.91C544.064 19.366 544.388 19.996 544.52 20.8H544.214C544.322 20.236 544.502 19.768 544.754 19.396C545.018 19.012 545.354 18.718 545.762 18.514C546.17 18.31 546.632 18.208 547.148 18.208C547.82 18.208 548.39 18.352 548.858 18.64C549.338 18.916 549.698 19.324 549.938 19.864C550.19 20.404 550.316 21.064 550.316 21.844V28H548.408V22.312C548.408 21.484 548.258 20.86 547.958 20.44C547.658 20.02 547.202 19.81 546.59 19.81C546.194 19.81 545.846 19.912 545.546 20.116C545.246 20.32 545.012 20.614 544.844 20.998C544.688 21.382 544.61 21.844 544.61 22.384V28H542.792V22.384C542.792 21.568 542.654 20.938 542.378 20.494C542.114 20.038 541.658 19.81 541.01 19.81C540.602 19.81 540.248 19.912 539.948 20.116C539.66 20.32 539.432 20.62 539.264 21.016C539.096 21.4 539.012 21.856 539.012 22.384V28H537.104ZM555.518 28.216C554.522 28.216 553.724 27.988 553.124 27.532C552.536 27.076 552.242 26.434 552.242 25.606C552.242 24.778 552.488 24.136 552.98 23.68C553.484 23.212 554.258 22.876 555.302 22.672L558.596 22.042C558.596 21.298 558.422 20.746 558.074 20.386C557.726 20.014 557.21 19.828 556.526 19.828C555.914 19.828 555.434 19.966 555.086 20.242C554.738 20.506 554.498 20.902 554.366 21.43L552.404 21.304C552.584 20.344 553.028 19.588 553.736 19.036C554.456 18.484 555.386 18.208 556.526 18.208C557.822 18.208 558.806 18.556 559.478 19.252C560.162 19.936 560.504 20.902 560.504 22.15V25.876C560.504 26.104 560.54 26.266 560.612 26.362C560.696 26.446 560.828 26.488 561.008 26.488H561.35V28C561.29 28.012 561.194 28.024 561.062 28.036C560.93 28.048 560.792 28.054 560.648 28.054C560.24 28.054 559.886 27.988 559.586 27.856C559.298 27.724 559.082 27.508 558.938 27.208C558.794 26.896 558.722 26.482 558.722 25.966L558.92 26.056C558.824 26.476 558.614 26.848 558.29 27.172C557.978 27.496 557.576 27.754 557.084 27.946C556.604 28.126 556.082 28.216 555.518 28.216ZM555.824 26.704C556.4 26.704 556.892 26.596 557.3 26.38C557.708 26.152 558.026 25.84 558.254 25.444C558.482 25.048 558.596 24.598 558.596 24.094V23.482L555.788 24.022C555.212 24.13 554.804 24.304 554.564 24.544C554.336 24.772 554.222 25.066 554.222 25.426C554.222 25.834 554.36 26.152 554.636 26.38C554.924 26.596 555.32 26.704 555.824 26.704ZM562.961 28V18.424H564.707L564.779 20.98L564.545 20.854C564.653 20.23 564.857 19.726 565.157 19.342C565.457 18.958 565.823 18.676 566.255 18.496C566.687 18.304 567.155 18.208 567.659 18.208C568.379 18.208 568.973 18.37 569.441 18.694C569.921 19.006 570.281 19.438 570.521 19.99C570.773 20.53 570.899 21.148 570.899 21.844V28H568.991V22.42C568.991 21.856 568.931 21.382 568.811 20.998C568.691 20.614 568.493 20.32 568.217 20.116C567.941 19.912 567.581 19.81 567.137 19.81C566.465 19.81 565.919 20.032 565.499 20.476C565.079 20.92 564.869 21.568 564.869 22.42V28H562.961ZM580.763 28V17.002H576.839V15.22H586.631V17.002H582.707V28H580.763ZM590.704 28.216C589.768 28.216 588.958 28.012 588.274 27.604C587.602 27.196 587.08 26.614 586.708 25.858C586.348 25.102 586.168 24.22 586.168 23.212C586.168 22.204 586.348 21.328 586.708 20.584C587.08 19.828 587.602 19.246 588.274 18.838C588.946 18.418 589.738 18.208 590.65 18.208C591.514 18.208 592.276 18.412 592.936 18.82C593.596 19.216 594.106 19.792 594.466 20.548C594.838 21.304 595.024 22.216 595.024 23.284V23.77H588.148C588.196 24.706 588.442 25.408 588.886 25.876C589.342 26.344 589.954 26.578 590.722 26.578C591.286 26.578 591.754 26.446 592.126 26.182C592.498 25.918 592.756 25.564 592.9 25.12L594.88 25.246C594.628 26.134 594.13 26.854 593.386 27.406C592.654 27.946 591.76 28.216 590.704 28.216ZM588.148 22.33H593.008C592.948 21.478 592.702 20.848 592.27 20.44C591.85 20.032 591.31 19.828 590.65 19.828C589.966 19.828 589.402 20.044 588.958 20.476C588.526 20.896 588.256 21.514 588.148 22.33ZM599.833 28.216C598.837 28.216 598.039 27.988 597.439 27.532C596.851 27.076 596.557 26.434 596.557 25.606C596.557 24.778 596.803 24.136 597.295 23.68C597.799 23.212 598.573 22.876 599.617 22.672L602.911 22.042C602.911 21.298 602.737 20.746 602.389 20.386C602.041 20.014 601.525 19.828 600.841 19.828C600.229 19.828 599.749 19.966 599.401 20.242C599.053 20.506 598.813 20.902 598.681 21.43L596.719 21.304C596.899 20.344 597.343 19.588 598.051 19.036C598.771 18.484 599.701 18.208 600.841 18.208C602.137 18.208 603.121 18.556 603.793 19.252C604.477 19.936 604.819 20.902 604.819 22.15V25.876C604.819 26.104 604.855 26.266 604.927 26.362C605.011 26.446 605.143 26.488 605.323 26.488H605.665V28C605.605 28.012 605.509 28.024 605.377 28.036C605.245 28.048 605.107 28.054 604.963 28.054C604.555 28.054 604.201 27.988 603.901 27.856C603.613 27.724 603.397 27.508 603.253 27.208C603.109 26.896 603.037 26.482 603.037 25.966L603.235 26.056C603.139 26.476 602.929 26.848 602.605 27.172C602.293 27.496 601.891 27.754 601.399 27.946C600.919 28.126 600.397 28.216 599.833 28.216ZM600.139 26.704C600.715 26.704 601.207 26.596 601.615 26.38C602.023 26.152 602.341 25.84 602.569 25.444C602.797 25.048 602.911 24.598 602.911 24.094V23.482L600.103 24.022C599.527 24.13 599.119 24.304 598.879 24.544C598.651 24.772 598.537 25.066 598.537 25.426C598.537 25.834 598.675 26.152 598.951 26.38C599.239 26.596 599.635 26.704 600.139 26.704ZM607.276 28V18.424H609.022L609.076 20.8L608.86 20.728C608.968 20.2 609.154 19.75 609.418 19.378C609.694 19.006 610.03 18.718 610.426 18.514C610.822 18.31 611.254 18.208 611.722 18.208C612.538 18.208 613.204 18.442 613.72 18.91C614.236 19.366 614.56 19.996 614.692 20.8H614.386C614.494 20.236 614.674 19.768 614.926 19.396C615.19 19.012 615.526 18.718 615.934 18.514C616.342 18.31 616.804 18.208 617.32 18.208C617.992 18.208 618.562 18.352 619.03 18.64C619.51 18.916 619.87 19.324 620.11 19.864C620.362 20.404 620.488 21.064 620.488 21.844V28H618.58V22.312C618.58 21.484 618.43 20.86 618.13 20.44C617.83 20.02 617.374 19.81 616.762 19.81C616.366 19.81 616.018 19.912 615.718 20.116C615.418 20.32 615.184 20.614 615.016 20.998C614.86 21.382 614.782 21.844 614.782 22.384V28H612.964V22.384C612.964 21.568 612.826 20.938 612.55 20.494C612.286 20.038 611.83 19.81 611.182 19.81C610.774 19.81 610.42 19.912 610.12 20.116C609.832 20.32 609.604 20.62 609.436 21.016C609.268 21.4 609.184 21.856 609.184 22.384V28H607.276ZM627.777 28V15.22H632.367C633.903 15.22 635.061 15.496 635.841 16.048C636.621 16.6 637.011 17.476 637.011 18.676C637.011 19.216 636.897 19.69 636.669 20.098C636.441 20.506 636.105 20.83 635.661 21.07C635.229 21.298 634.713 21.418 634.113 21.43L634.095 21.358C635.187 21.382 636.033 21.682 636.633 22.258C637.245 22.822 637.551 23.566 637.551 24.49C637.551 25.654 637.161 26.53 636.381 27.118C635.601 27.706 634.491 28 633.051 28H627.777ZM629.721 26.254H632.997C633.801 26.254 634.425 26.092 634.869 25.768C635.325 25.432 635.553 24.946 635.553 24.31C635.553 23.686 635.325 23.2 634.869 22.852C634.425 22.504 633.801 22.33 632.997 22.33H629.721V26.254ZM629.721 20.674H632.331C633.183 20.674 633.843 20.512 634.311 20.188C634.779 19.864 635.013 19.408 635.013 18.82C635.013 18.196 634.785 17.734 634.329 17.434C633.885 17.122 633.219 16.966 632.331 16.966H629.721V20.674ZM643.843 28.216C642.907 28.216 642.097 28.012 641.413 27.604C640.741 27.196 640.219 26.614 639.847 25.858C639.487 25.102 639.307 24.22 639.307 23.212C639.307 22.204 639.487 21.328 639.847 20.584C640.219 19.828 640.741 19.246 641.413 18.838C642.085 18.418 642.877 18.208 643.789 18.208C644.653 18.208 645.415 18.412 646.075 18.82C646.735 19.216 647.245 19.792 647.605 20.548C647.977 21.304 648.163 22.216 648.163 23.284V23.77H641.287C641.335 24.706 641.581 25.408 642.025 25.876C642.481 26.344 643.093 26.578 643.861 26.578C644.425 26.578 644.893 26.446 645.265 26.182C645.637 25.918 645.895 25.564 646.039 25.12L648.019 25.246C647.767 26.134 647.269 26.854 646.525 27.406C645.793 27.946 644.899 28.216 643.843 28.216ZM641.287 22.33H646.147C646.087 21.478 645.841 20.848 645.409 20.44C644.989 20.032 644.449 19.828 643.789 19.828C643.105 19.828 642.541 20.044 642.097 20.476C641.665 20.896 641.395 21.514 641.287 22.33ZM650.699 28V17.812C650.699 17.02 650.921 16.39 651.365 15.922C651.809 15.454 652.505 15.22 653.453 15.22H655.145V16.786H653.705C653.333 16.786 653.057 16.888 652.877 17.092C652.697 17.284 652.607 17.56 652.607 17.92V28H650.699ZM649.367 20.098V18.55H655.001V20.098H649.367ZM660.331 28.216C659.419 28.216 658.621 28.012 657.937 27.604C657.253 27.196 656.725 26.614 656.353 25.858C655.981 25.102 655.795 24.22 655.795 23.212C655.795 22.192 655.981 21.31 656.353 20.566C656.725 19.822 657.253 19.246 657.937 18.838C658.621 18.418 659.419 18.208 660.331 18.208C661.243 18.208 662.041 18.418 662.725 18.838C663.409 19.246 663.937 19.822 664.309 20.566C664.681 21.31 664.867 22.192 664.867 23.212C664.867 24.22 664.681 25.102 664.309 25.858C663.937 26.614 663.409 27.196 662.725 27.604C662.041 28.012 661.243 28.216 660.331 28.216ZM660.331 26.56C661.147 26.56 661.777 26.266 662.221 25.678C662.665 25.078 662.887 24.256 662.887 23.212C662.887 22.168 662.665 21.352 662.221 20.764C661.777 20.164 661.147 19.864 660.331 19.864C659.527 19.864 658.897 20.164 658.441 20.764C657.997 21.352 657.775 22.168 657.775 23.212C657.775 24.256 657.997 25.078 658.441 25.678C658.897 26.266 659.527 26.56 660.331 26.56ZM666.795 28V18.424H668.541L668.613 20.962L668.451 20.908C668.583 20.044 668.847 19.414 669.243 19.018C669.651 18.622 670.197 18.424 670.881 18.424H671.799V20.134H670.881C670.401 20.134 669.999 20.212 669.675 20.368C669.351 20.524 669.105 20.764 668.937 21.088C668.781 21.412 668.703 21.832 668.703 22.348V28H666.795ZM677.101 28.216C676.165 28.216 675.355 28.012 674.671 27.604C673.999 27.196 673.477 26.614 673.105 25.858C672.745 25.102 672.565 24.22 672.565 23.212C672.565 22.204 672.745 21.328 673.105 20.584C673.477 19.828 673.999 19.246 674.671 18.838C675.343 18.418 676.135 18.208 677.047 18.208C677.911 18.208 678.673 18.412 679.333 18.82C679.993 19.216 680.503 19.792 680.863 20.548C681.235 21.304 681.421 22.216 681.421 23.284V23.77H674.545C674.593 24.706 674.839 25.408 675.283 25.876C675.739 26.344 676.351 26.578 677.119 26.578C677.683 26.578 678.151 26.446 678.523 26.182C678.895 25.918 679.153 25.564 679.297 25.12L681.277 25.246C681.025 26.134 680.527 26.854 679.783 27.406C679.051 27.946 678.157 28.216 677.101 28.216ZM674.545 22.33H679.405C679.345 21.478 679.099 20.848 678.667 20.44C678.247 20.032 677.707 19.828 677.047 19.828C676.363 19.828 675.799 20.044 675.355 20.476C674.923 20.896 674.653 21.514 674.545 22.33Z" fill="white"/>
<path d="M481.76 227V221.87L477.278 214.22H479.51L482.732 219.926L485.972 214.22H488.204L483.704 221.87V227H481.76ZM492.1 227.216C491.188 227.216 490.39 227.012 489.706 226.604C489.022 226.196 488.494 225.614 488.122 224.858C487.75 224.102 487.564 223.22 487.564 222.212C487.564 221.192 487.75 220.31 488.122 219.566C488.494 218.822 489.022 218.246 489.706 217.838C490.39 217.418 491.188 217.208 492.1 217.208C493.012 217.208 493.81 217.418 494.494 217.838C495.178 218.246 495.706 218.822 496.078 219.566C496.45 220.31 496.636 221.192 496.636 222.212C496.636 223.22 496.45 224.102 496.078 224.858C495.706 225.614 495.178 226.196 494.494 226.604C493.81 227.012 493.012 227.216 492.1 227.216ZM492.1 225.56C492.916 225.56 493.546 225.266 493.99 224.678C494.434 224.078 494.656 223.256 494.656 222.212C494.656 221.168 494.434 220.352 493.99 219.764C493.546 219.164 492.916 218.864 492.1 218.864C491.296 218.864 490.666 219.164 490.21 219.764C489.766 220.352 489.544 221.168 489.544 222.212C489.544 223.256 489.766 224.078 490.21 224.678C490.666 225.266 491.296 225.56 492.1 225.56ZM501.714 227.216C500.754 227.216 499.986 226.898 499.41 226.262C498.846 225.614 498.564 224.72 498.564 223.58V217.424H500.472V223.094C500.472 223.958 500.622 224.594 500.922 225.002C501.222 225.41 501.678 225.614 502.29 225.614C502.986 225.614 503.526 225.392 503.91 224.948C504.306 224.492 504.504 223.856 504.504 223.04V217.424H506.412V227H504.63L504.594 224.498L504.864 224.606C504.696 225.446 504.342 226.094 503.802 226.55C503.262 226.994 502.566 227.216 501.714 227.216ZM509.111 227V217.424H510.857L510.929 219.962L510.767 219.908C510.899 219.044 511.163 218.414 511.559 218.018C511.967 217.622 512.513 217.424 513.197 217.424H514.115V219.134H513.197C512.717 219.134 512.315 219.212 511.991 219.368C511.667 219.524 511.421 219.764 511.253 220.088C511.097 220.412 511.019 220.832 511.019 221.348V227H509.111ZM520.77 227V214.22H522.714V220.376L521.778 219.692H529.554L528.618 220.376V214.22H530.562V227H528.618V220.772L529.554 221.456H521.778L522.714 220.772V227H520.77ZM536.272 227.216C535.312 227.216 534.544 226.898 533.968 226.262C533.404 225.614 533.122 224.72 533.122 223.58V217.424H535.03V223.094C535.03 223.958 535.18 224.594 535.48 225.002C535.78 225.41 536.236 225.614 536.848 225.614C537.544 225.614 538.084 225.392 538.468 224.948C538.864 224.492 539.062 223.856 539.062 223.04V217.424H540.97V227H539.188L539.152 224.498L539.422 224.606C539.254 225.446 538.9 226.094 538.36 226.55C537.82 226.994 537.124 227.216 536.272 227.216ZM543.669 227V217.424H545.415L545.469 219.8L545.253 219.728C545.361 219.2 545.547 218.75 545.811 218.378C546.087 218.006 546.423 217.718 546.819 217.514C547.215 217.31 547.647 217.208 548.115 217.208C548.931 217.208 549.597 217.442 550.113 217.91C550.629 218.366 550.953 218.996 551.085 219.8H550.779C550.887 219.236 551.067 218.768 551.319 218.396C551.583 218.012 551.919 217.718 552.327 217.514C552.735 217.31 553.197 217.208 553.713 217.208C554.385 217.208 554.955 217.352 555.423 217.64C555.903 217.916 556.263 218.324 556.503 218.864C556.755 219.404 556.881 220.064 556.881 220.844V227H554.973V221.312C554.973 220.484 554.823 219.86 554.523 219.44C554.223 219.02 553.767 218.81 553.155 218.81C552.759 218.81 552.411 218.912 552.111 219.116C551.811 219.32 551.577 219.614 551.409 219.998C551.253 220.382 551.175 220.844 551.175 221.384V227H549.357V221.384C549.357 220.568 549.219 219.938 548.943 219.494C548.679 219.038 548.223 218.81 547.575 218.81C547.167 218.81 546.813 218.912 546.513 219.116C546.225 219.32 545.997 219.62 545.829 220.016C545.661 220.4 545.577 220.856 545.577 221.384V227H543.669ZM562.084 227.216C561.088 227.216 560.29 226.988 559.69 226.532C559.102 226.076 558.808 225.434 558.808 224.606C558.808 223.778 559.054 223.136 559.546 222.68C560.05 222.212 560.824 221.876 561.868 221.672L565.162 221.042C565.162 220.298 564.988 219.746 564.64 219.386C564.292 219.014 563.776 218.828 563.092 218.828C562.48 218.828 562 218.966 561.652 219.242C561.304 219.506 561.064 219.902 560.932 220.43L558.97 220.304C559.15 219.344 559.594 218.588 560.302 218.036C561.022 217.484 561.952 217.208 563.092 217.208C564.388 217.208 565.372 217.556 566.044 218.252C566.728 218.936 567.07 219.902 567.07 221.15V224.876C567.07 225.104 567.106 225.266 567.178 225.362C567.262 225.446 567.394 225.488 567.574 225.488H567.916V227C567.856 227.012 567.76 227.024 567.628 227.036C567.496 227.048 567.358 227.054 567.214 227.054C566.806 227.054 566.452 226.988 566.152 226.856C565.864 226.724 565.648 226.508 565.504 226.208C565.36 225.896 565.288 225.482 565.288 224.966L565.486 225.056C565.39 225.476 565.18 225.848 564.856 226.172C564.544 226.496 564.142 226.754 563.65 226.946C563.17 227.126 562.648 227.216 562.084 227.216ZM562.39 225.704C562.966 225.704 563.458 225.596 563.866 225.38C564.274 225.152 564.592 224.84 564.82 224.444C565.048 224.048 565.162 223.598 565.162 223.094V222.482L562.354 223.022C561.778 223.13 561.37 223.304 561.13 223.544C560.902 223.772 560.788 224.066 560.788 224.426C560.788 224.834 560.926 225.152 561.202 225.38C561.49 225.596 561.886 225.704 562.39 225.704ZM569.527 227V217.424H571.273L571.345 219.98L571.111 219.854C571.219 219.23 571.423 218.726 571.723 218.342C572.023 217.958 572.389 217.676 572.821 217.496C573.253 217.304 573.721 217.208 574.225 217.208C574.945 217.208 575.539 217.37 576.007 217.694C576.487 218.006 576.847 218.438 577.087 218.99C577.339 219.53 577.465 220.148 577.465 220.844V227H575.557V221.42C575.557 220.856 575.497 220.382 575.377 219.998C575.257 219.614 575.059 219.32 574.783 219.116C574.507 218.912 574.147 218.81 573.703 218.81C573.031 218.81 572.485 219.032 572.065 219.476C571.645 219.92 571.435 220.568 571.435 221.42V227H569.527ZM587.328 227V216.002H583.404V214.22H593.196V216.002H589.272V227H587.328ZM597.27 227.216C596.334 227.216 595.524 227.012 594.84 226.604C594.168 226.196 593.646 225.614 593.274 224.858C592.914 224.102 592.734 223.22 592.734 222.212C592.734 221.204 592.914 220.328 593.274 219.584C593.646 218.828 594.168 218.246 594.84 217.838C595.512 217.418 596.304 217.208 597.216 217.208C598.08 217.208 598.842 217.412 599.502 217.82C600.162 218.216 600.672 218.792 601.032 219.548C601.404 220.304 601.59 221.216 601.59 222.284V222.77H594.714C594.762 223.706 595.008 224.408 595.452 224.876C595.908 225.344 596.52 225.578 597.288 225.578C597.852 225.578 598.32 225.446 598.692 225.182C599.064 224.918 599.322 224.564 599.466 224.12L601.446 224.246C601.194 225.134 600.696 225.854 599.952 226.406C599.22 226.946 598.326 227.216 597.27 227.216ZM594.714 221.33H599.574C599.514 220.478 599.268 219.848 598.836 219.44C598.416 219.032 597.876 218.828 597.216 218.828C596.532 218.828 595.968 219.044 595.524 219.476C595.092 219.896 594.822 220.514 594.714 221.33ZM606.398 227.216C605.402 227.216 604.604 226.988 604.004 226.532C603.416 226.076 603.122 225.434 603.122 224.606C603.122 223.778 603.368 223.136 603.86 222.68C604.364 222.212 605.138 221.876 606.182 221.672L609.476 221.042C609.476 220.298 609.302 219.746 608.954 219.386C608.606 219.014 608.09 218.828 607.406 218.828C606.794 218.828 606.314 218.966 605.966 219.242C605.618 219.506 605.378 219.902 605.246 220.43L603.284 220.304C603.464 219.344 603.908 218.588 604.616 218.036C605.336 217.484 606.266 217.208 607.406 217.208C608.702 217.208 609.686 217.556 610.358 218.252C611.042 218.936 611.384 219.902 611.384 221.15V224.876C611.384 225.104 611.42 225.266 611.492 225.362C611.576 225.446 611.708 225.488 611.888 225.488H612.23V227C612.17 227.012 612.074 227.024 611.942 227.036C611.81 227.048 611.672 227.054 611.528 227.054C611.12 227.054 610.766 226.988 610.466 226.856C610.178 226.724 609.962 226.508 609.818 226.208C609.674 225.896 609.602 225.482 609.602 224.966L609.8 225.056C609.704 225.476 609.494 225.848 609.17 226.172C608.858 226.496 608.456 226.754 607.964 226.946C607.484 227.126 606.962 227.216 606.398 227.216ZM606.704 225.704C607.28 225.704 607.772 225.596 608.18 225.38C608.588 225.152 608.906 224.84 609.134 224.444C609.362 224.048 609.476 223.598 609.476 223.094V222.482L606.668 223.022C606.092 223.13 605.684 223.304 605.444 223.544C605.216 223.772 605.102 224.066 605.102 224.426C605.102 224.834 605.24 225.152 605.516 225.38C605.804 225.596 606.2 225.704 606.704 225.704ZM613.841 227V217.424H615.587L615.641 219.8L615.425 219.728C615.533 219.2 615.719 218.75 615.983 218.378C616.259 218.006 616.595 217.718 616.991 217.514C617.387 217.31 617.819 217.208 618.287 217.208C619.103 217.208 619.769 217.442 620.285 217.91C620.801 218.366 621.125 218.996 621.257 219.8H620.951C621.059 219.236 621.239 218.768 621.491 218.396C621.755 218.012 622.091 217.718 622.499 217.514C622.907 217.31 623.369 217.208 623.885 217.208C624.557 217.208 625.127 217.352 625.595 217.64C626.075 217.916 626.435 218.324 626.675 218.864C626.927 219.404 627.053 220.064 627.053 220.844V227H625.145V221.312C625.145 220.484 624.995 219.86 624.695 219.44C624.395 219.02 623.939 218.81 623.327 218.81C622.931 218.81 622.583 218.912 622.283 219.116C621.983 219.32 621.749 219.614 621.581 219.998C621.425 220.382 621.347 220.844 621.347 221.384V227H619.529V221.384C619.529 220.568 619.391 219.938 619.115 219.494C618.851 219.038 618.395 218.81 617.747 218.81C617.339 218.81 616.985 218.912 616.685 219.116C616.397 219.32 616.169 219.62 616.001 220.016C615.833 220.4 615.749 220.856 615.749 221.384V227H613.841ZM633.154 227L637.762 214.22H640.228L644.836 227H642.766L641.596 223.67H636.376L635.224 227H633.154ZM636.988 221.906H641.002L638.986 216.074L636.988 221.906ZM646.77 227V216.812C646.77 216.02 646.992 215.39 647.436 214.922C647.88 214.454 648.576 214.22 649.524 214.22H651.216V215.786H649.776C649.404 215.786 649.128 215.888 648.948 216.092C648.768 216.284 648.678 216.56 648.678 216.92V227H646.77ZM645.438 219.098V217.55H651.072V219.098H645.438ZM656.238 227C655.326 227 654.654 226.79 654.222 226.37C653.79 225.95 653.574 225.296 653.574 224.408V215.174H655.482V224.264C655.482 224.708 655.578 225.014 655.77 225.182C655.962 225.35 656.256 225.434 656.652 225.434H658.02V227H656.238ZM652.116 218.99V217.424H658.02V218.99H652.116ZM663.627 227.216C662.691 227.216 661.881 227.012 661.197 226.604C660.525 226.196 660.003 225.614 659.631 224.858C659.271 224.102 659.091 223.22 659.091 222.212C659.091 221.204 659.271 220.328 659.631 219.584C660.003 218.828 660.525 218.246 661.197 217.838C661.869 217.418 662.661 217.208 663.573 217.208C664.437 217.208 665.199 217.412 665.859 217.82C666.519 218.216 667.029 218.792 667.389 219.548C667.761 220.304 667.947 221.216 667.947 222.284V222.77H661.071C661.119 223.706 661.365 224.408 661.809 224.876C662.265 225.344 662.877 225.578 663.645 225.578C664.209 225.578 664.677 225.446 665.049 225.182C665.421 224.918 665.679 224.564 665.823 224.12L667.803 224.246C667.551 225.134 667.053 225.854 666.309 226.406C665.577 226.946 664.683 227.216 663.627 227.216ZM661.071 221.33H665.931C665.871 220.478 665.625 219.848 665.193 219.44C664.773 219.032 664.233 218.828 663.573 218.828C662.889 218.828 662.325 219.044 661.881 219.476C661.449 219.896 661.179 220.514 661.071 221.33ZM669.88 227V217.424H671.626L671.698 219.962L671.536 219.908C671.668 219.044 671.932 218.414 672.328 218.018C672.736 217.622 673.282 217.424 673.966 217.424H674.884V219.134H673.966C673.486 219.134 673.084 219.212 672.76 219.368C672.436 219.524 672.19 219.764 672.022 220.088C671.866 220.412 671.788 220.832 671.788 221.348V227H669.88Z" fill="white"/>
</svg>
