<svg width="1151" height="342" viewBox="0 0 1151 342" fill="none" xmlns="http://www.w3.org/2000/svg">
<path d="M66 110C130.555 110 152.231 110 155 110" stroke="#738297"/>
<path d="M996 110C1060.55 110 1082.23 110 1085 110" stroke="#05CD99"/>
<path d="M841 110C905.555 110 927.231 110 930 110" stroke="#738297"/>
<path d="M686 110C750.555 110 772.231 110 775 110" stroke="#738297"/>
<path d="M531 110C595.555 110 617.231 110 620 110" stroke="#738297"/>
<path d="M376 110C440.555 110 462.231 110 465 110" stroke="#738297"/>
<path d="M221 110C285.555 110 307.231 110 310 110" stroke="#738297"/>
<path d="M498 77.5C515.949 77.5 530.5 92.0507 530.5 110C530.5 127.949 515.949 142.5 498 142.5C480.051 142.5 465.5 127.949 465.5 110C465.5 92.0507 480.051 77.5 498 77.5Z" fill="white" fill-opacity="0.7" stroke="#738297"/>
<path d="M497.997 127.333C508.123 127.333 516.331 119.125 516.331 108.999C516.331 98.8741 508.123 90.666 497.997 90.666C487.872 90.666 479.664 98.8741 479.664 108.999C479.664 119.125 487.872 127.333 497.997 127.333Z" stroke="#738297" stroke-width="3" stroke-linecap="round" stroke-linejoin="round"/>
<path d="M505.771 101.226L501.884 112.886L490.224 116.773L494.111 105.113L505.771 101.226Z" stroke="#738297" stroke-width="3" stroke-linecap="round" stroke-linejoin="round"/>
<path d="M33 77.5C50.9493 77.5 65.5 92.0507 65.5 110C65.5 127.949 50.9493 142.5 33 142.5C15.0507 142.5 0.5 127.949 0.5 110C0.5 92.0507 15.0507 77.5 33 77.5Z" fill="white" fill-opacity="0.7" stroke="#738297"/>
<path d="M49.5 115.5V122.833C49.5 123.806 49.1137 124.738 48.4261 125.426C47.7384 126.114 46.8058 126.5 45.8333 126.5H20.1667C19.1942 126.5 18.2616 126.114 17.5739 125.426C16.8863 124.738 16.5 123.806 16.5 122.833V115.5M42.1667 102.667L33 93.5M33 93.5L23.8333 102.667M33 93.5V115.5" stroke="#738297" stroke-width="3" stroke-linecap="round" stroke-linejoin="round"/>
<path d="M653 77.5C670.949 77.5 685.5 92.0507 685.5 110C685.5 127.949 670.949 142.5 653 142.5C635.051 142.5 620.5 127.949 620.5 110C620.5 92.0507 635.051 77.5 653 77.5Z" fill="white" fill-opacity="0.7" stroke="#F19935"/>
<path d="M670.17 102.834V91.834M670.17 91.834H659.17M670.17 91.834L657.337 104.667M668.337 121.021V126.521C668.339 127.031 668.234 127.537 668.029 128.004C667.825 128.472 667.525 128.892 667.149 129.237C666.772 129.583 666.328 129.845 665.845 130.009C665.361 130.173 664.848 130.233 664.34 130.187C658.698 129.574 653.279 127.647 648.518 124.559C644.089 121.744 640.333 117.989 637.518 113.559C634.42 108.776 632.492 103.331 631.89 97.664C631.844 97.157 631.904 96.646 632.067 96.1636C632.229 95.6812 632.49 95.2379 632.834 94.862C633.177 94.486 633.595 94.1856 634.06 93.9799C634.526 93.7743 635.029 93.6678 635.538 93.6673H641.038C641.928 93.6586 642.791 93.9736 643.465 94.5538C644.14 95.134 644.58 95.9396 644.705 96.8207C644.937 98.5808 645.368 100.309 645.988 101.972C646.235 102.629 646.288 103.342 646.142 104.027C645.996 104.713 645.656 105.342 645.163 105.841L642.835 108.169C645.445 112.759 649.245 116.559 653.835 119.169L656.163 116.841C656.662 116.348 657.291 116.008 657.977 115.862C658.662 115.716 659.375 115.769 660.032 116.016C661.695 116.636 663.423 117.067 665.183 117.299C666.074 117.425 666.887 117.873 667.469 118.559C668.05 119.246 668.359 120.122 668.337 121.021Z" stroke="#F19935" stroke-width="3" stroke-linecap="round" stroke-linejoin="round"/>
<path d="M808 77.5C825.949 77.5 840.5 92.0507 840.5 110C840.5 127.949 825.949 142.5 808 142.5C790.051 142.5 775.5 127.949 775.5 110C775.5 92.0507 790.051 77.5 808 77.5Z" fill="white" fill-opacity="0.7" stroke="#738297"/>
<path d="M826.331 99.0007C826.331 96.984 824.681 95.334 822.664 95.334H793.331C791.314 95.334 789.664 96.984 789.664 99.0007M826.331 99.0007V121.001C826.331 123.017 824.681 124.667 822.664 124.667H793.331C791.314 124.667 789.664 123.017 789.664 121.001V99.0007M826.331 99.0007L807.997 111.834L789.664 99.0007" stroke="#738297" stroke-width="3" stroke-linecap="round" stroke-linejoin="round"/>
<path d="M1118 77.5C1135.95 77.5 1150.5 92.0507 1150.5 110C1150.5 127.949 1135.95 142.5 1118 142.5C1100.05 142.5 1085.5 127.949 1085.5 110C1085.5 92.0507 1100.05 77.5 1118 77.5Z" fill="white" fill-opacity="0.7" stroke="#05CD99"/>
<path d="M1125.33 90.666V97.9993M1110.67 90.666V97.9993M1101.5 105.333H1134.5M1105.17 94.3327H1130.83C1132.86 94.3327 1134.5 95.9743 1134.5 97.9993V123.666C1134.5 125.691 1132.86 127.333 1130.83 127.333H1105.17C1103.14 127.333 1101.5 125.691 1101.5 123.666V97.9993C1101.5 95.9743 1103.14 94.3327 1105.17 94.3327Z" stroke="#738297" stroke-width="3" stroke-linecap="round" stroke-linejoin="round"/>
<path d="M531 309C595.555 309 617.231 309 620 309" stroke="#05CD99"/>
<path d="M500 276.5C517.949 276.5 532.5 291.051 532.5 309C532.5 326.949 517.949 341.5 500 341.5C482.051 341.5 467.5 326.949 467.5 309C467.5 291.051 482.051 276.5 500 276.5Z" fill="white" fill-opacity="0.7" stroke="#738297"/>
<path d="M516.5 314.5V321.833C516.5 322.806 516.114 323.738 515.426 324.426C514.738 325.114 513.806 325.5 512.833 325.5H487.167C486.194 325.5 485.262 325.114 484.574 324.426C483.886 323.738 483.5 322.806 483.5 321.833V314.5M509.167 301.667L500 292.5M500 292.5L490.833 301.667M500 292.5V314.5" stroke="#738297" stroke-width="3" stroke-linecap="round" stroke-linejoin="round"/>
<path d="M653 276.5C670.949 276.5 685.5 291.051 685.5 309C685.5 326.949 670.949 341.5 653 341.5C635.051 341.5 620.5 326.949 620.5 309C620.5 291.051 635.051 276.5 653 276.5Z" fill="white" fill-opacity="0.7" stroke="#05CD99"/>
<path d="M660.333 289.666V296.999M645.667 289.666V296.999M636.5 304.333H669.5M640.167 293.333H665.833C667.858 293.333 669.5 294.974 669.5 296.999V322.666C669.5 324.691 667.858 326.333 665.833 326.333H640.167C638.142 326.333 636.5 324.691 636.5 322.666V296.999C636.5 294.974 638.142 293.333 640.167 293.333Z" stroke="#738297" stroke-width="3" stroke-linecap="round" stroke-linejoin="round"/>
<path d="M963 77.5C980.949 77.5 995.5 92.0507 995.5 110C995.5 127.949 980.949 142.5 963 142.5C945.051 142.5 930.5 127.949 930.5 110C930.5 92.0507 945.051 77.5 963 77.5Z" fill="white" fill-opacity="0.7" stroke="#F7D600"/>
<path d="M968.337 93.6673V104.667M968.337 104.667H979.337M968.337 104.667L981.17 91.834M979.337 121.021V126.521C979.339 127.031 979.234 127.537 979.029 128.004C978.825 128.472 978.525 128.892 978.149 129.237C977.772 129.583 977.328 129.845 976.845 130.009C976.361 130.173 975.848 130.233 975.34 130.187C969.698 129.574 964.279 127.647 959.518 124.559C955.089 121.744 951.333 117.989 948.518 113.559C945.42 108.776 943.492 103.331 942.89 97.664C942.844 97.157 942.904 96.646 943.067 96.1636C943.229 95.6812 943.49 95.2379 943.834 94.862C944.177 94.486 944.595 94.1856 945.06 93.9799C945.526 93.7743 946.029 93.6678 946.538 93.6673H952.038C952.928 93.6586 953.791 93.9736 954.465 94.5538C955.14 95.134 955.58 95.9396 955.705 96.8207C955.937 98.5808 956.368 100.309 956.988 101.972C957.235 102.629 957.288 103.342 957.142 104.027C956.996 104.713 956.656 105.342 956.163 105.841L953.835 108.169C956.445 112.759 960.245 116.559 964.835 119.169L967.163 116.841C967.662 116.348 968.291 116.008 968.977 115.862C969.662 115.716 970.375 115.769 971.032 116.016C972.695 116.636 974.423 117.067 976.183 117.299C977.074 117.425 977.887 117.873 978.469 118.559C979.05 119.246 979.359 120.122 979.337 121.021Z" stroke="#F7D600" stroke-width="3" stroke-linecap="round" stroke-linejoin="round"/>
<path d="M188 77.5C205.949 77.5 220.5 92.0507 220.5 110C220.5 127.949 205.949 142.5 188 142.5C170.051 142.5 155.5 127.949 155.5 110C155.5 92.0507 170.051 77.5 188 77.5Z" fill="white" fill-opacity="0.7" stroke="#738297"/>
<path d="M181 120.5L168.75 127.5V99.5L181 92.5M181 120.5L195 127.5M181 120.5V92.5M195 127.5L207.25 120.5V92.5L195 99.5M195 127.5V99.5M195 99.5L181 92.5" stroke="#738297" stroke-width="3" stroke-linecap="round" stroke-linejoin="round"/>
<path d="M343 77.5C360.949 77.5 375.5 92.0507 375.5 110C375.5 127.949 360.949 142.5 343 142.5C325.051 142.5 310.5 127.949 310.5 110C310.5 92.0507 325.051 77.5 343 77.5Z" fill="white" fill-opacity="0.7" stroke="#738297"/>
<path d="M359.5 126.5L351.525 118.525M341.167 102.667V113.667M335.667 108.167H346.667M355.833 108.167C355.833 116.267 349.267 122.833 341.167 122.833C333.066 122.833 326.5 116.267 326.5 108.167C326.5 100.066 333.066 93.5 341.167 93.5C349.267 93.5 355.833 100.066 355.833 108.167Z" stroke="#738297" stroke-width="3" stroke-linecap="round" stroke-linejoin="round"/>
<path d="M456 199.5H696C701.247 199.5 705.5 203.753 705.5 209V233C705.5 238.247 701.247 242.5 696 242.5H456C450.753 242.5 446.5 238.247 446.5 233V209L446.513 208.511C446.759 203.653 450.653 199.759 455.511 199.513L456 199.5Z" fill="white" fill-opacity="0.7" stroke="#05CD99"/>
<path d="M456 0.5H696C701.247 0.500003 705.5 4.7533 705.5 10V34C705.5 39.2467 701.247 43.5 696 43.5H456C450.753 43.5 446.5 39.2467 446.5 34V10L446.513 9.51074C446.759 4.65347 450.653 0.759117 455.511 0.512695L456 0.5Z" fill="white" fill-opacity="0.7" stroke="#738297"/>
<path d="M473.194 28V22.87L468.712 15.22H470.944L474.166 20.926L477.406 15.22H479.638L475.138 22.87V28H473.194ZM483.534 28.216C482.622 28.216 481.824 28.012 481.14 27.604C480.456 27.196 479.928 26.614 479.556 25.858C479.184 25.102 478.998 24.22 478.998 23.212C478.998 22.192 479.184 21.31 479.556 20.566C479.928 19.822 480.456 19.246 481.14 18.838C481.824 18.418 482.622 18.208 483.534 18.208C484.446 18.208 485.244 18.418 485.928 18.838C486.612 19.246 487.14 19.822 487.512 20.566C487.884 21.31 488.07 22.192 488.07 23.212C488.07 24.22 487.884 25.102 487.512 25.858C487.14 26.614 486.612 27.196 485.928 27.604C485.244 28.012 484.446 28.216 483.534 28.216ZM483.534 26.56C484.35 26.56 484.98 26.266 485.424 25.678C485.868 25.078 486.09 24.256 486.09 23.212C486.09 22.168 485.868 21.352 485.424 20.764C484.98 20.164 484.35 19.864 483.534 19.864C482.73 19.864 482.1 20.164 481.644 20.764C481.2 21.352 480.978 22.168 480.978 23.212C480.978 24.256 481.2 25.078 481.644 25.678C482.1 26.266 482.73 26.56 483.534 26.56ZM493.148 28.216C492.188 28.216 491.42 27.898 490.844 27.262C490.28 26.614 489.998 25.72 489.998 24.58V18.424H491.906V24.094C491.906 24.958 492.056 25.594 492.356 26.002C492.656 26.41 493.112 26.614 493.724 26.614C494.42 26.614 494.96 26.392 495.344 25.948C495.74 25.492 495.938 24.856 495.938 24.04V18.424H497.846V28H496.064L496.028 25.498L496.298 25.606C496.13 26.446 495.776 27.094 495.236 27.55C494.696 27.994 494 28.216 493.148 28.216ZM500.545 28V18.424H502.291L502.363 20.962L502.201 20.908C502.333 20.044 502.597 19.414 502.993 19.018C503.401 18.622 503.947 18.424 504.631 18.424H505.549V20.134H504.631C504.151 20.134 503.749 20.212 503.425 20.368C503.101 20.524 502.855 20.764 502.687 21.088C502.531 21.412 502.453 21.832 502.453 22.348V28H500.545ZM512.204 28V15.22H514.148V21.376L513.212 20.692H520.988L520.052 21.376V15.22H521.996V28H520.052V21.772L520.988 22.456H513.212L514.148 21.772V28H512.204ZM527.707 28.216C526.747 28.216 525.979 27.898 525.403 27.262C524.839 26.614 524.557 25.72 524.557 24.58V18.424H526.465V24.094C526.465 24.958 526.615 25.594 526.915 26.002C527.215 26.41 527.671 26.614 528.283 26.614C528.979 26.614 529.519 26.392 529.903 25.948C530.299 25.492 530.497 24.856 530.497 24.04V18.424H532.405V28H530.623L530.587 25.498L530.857 25.606C530.689 26.446 530.335 27.094 529.795 27.55C529.255 27.994 528.559 28.216 527.707 28.216ZM535.104 28V18.424H536.85L536.904 20.8L536.688 20.728C536.796 20.2 536.982 19.75 537.246 19.378C537.522 19.006 537.858 18.718 538.254 18.514C538.65 18.31 539.082 18.208 539.55 18.208C540.366 18.208 541.032 18.442 541.548 18.91C542.064 19.366 542.388 19.996 542.52 20.8H542.214C542.322 20.236 542.502 19.768 542.754 19.396C543.018 19.012 543.354 18.718 543.762 18.514C544.17 18.31 544.632 18.208 545.148 18.208C545.82 18.208 546.39 18.352 546.858 18.64C547.338 18.916 547.698 19.324 547.938 19.864C548.19 20.404 548.316 21.064 548.316 21.844V28H546.408V22.312C546.408 21.484 546.258 20.86 545.958 20.44C545.658 20.02 545.202 19.81 544.59 19.81C544.194 19.81 543.846 19.912 543.546 20.116C543.246 20.32 543.012 20.614 542.844 20.998C542.688 21.382 542.61 21.844 542.61 22.384V28H540.792V22.384C540.792 21.568 540.654 20.938 540.378 20.494C540.114 20.038 539.658 19.81 539.01 19.81C538.602 19.81 538.248 19.912 537.948 20.116C537.66 20.32 537.432 20.62 537.264 21.016C537.096 21.4 537.012 21.856 537.012 22.384V28H535.104ZM553.518 28.216C552.522 28.216 551.724 27.988 551.124 27.532C550.536 27.076 550.242 26.434 550.242 25.606C550.242 24.778 550.488 24.136 550.98 23.68C551.484 23.212 552.258 22.876 553.302 22.672L556.596 22.042C556.596 21.298 556.422 20.746 556.074 20.386C555.726 20.014 555.21 19.828 554.526 19.828C553.914 19.828 553.434 19.966 553.086 20.242C552.738 20.506 552.498 20.902 552.366 21.43L550.404 21.304C550.584 20.344 551.028 19.588 551.736 19.036C552.456 18.484 553.386 18.208 554.526 18.208C555.822 18.208 556.806 18.556 557.478 19.252C558.162 19.936 558.504 20.902 558.504 22.15V25.876C558.504 26.104 558.54 26.266 558.612 26.362C558.696 26.446 558.828 26.488 559.008 26.488H559.35V28C559.29 28.012 559.194 28.024 559.062 28.036C558.93 28.048 558.792 28.054 558.648 28.054C558.24 28.054 557.886 27.988 557.586 27.856C557.298 27.724 557.082 27.508 556.938 27.208C556.794 26.896 556.722 26.482 556.722 25.966L556.92 26.056C556.824 26.476 556.614 26.848 556.29 27.172C555.978 27.496 555.576 27.754 555.084 27.946C554.604 28.126 554.082 28.216 553.518 28.216ZM553.824 26.704C554.4 26.704 554.892 26.596 555.3 26.38C555.708 26.152 556.026 25.84 556.254 25.444C556.482 25.048 556.596 24.598 556.596 24.094V23.482L553.788 24.022C553.212 24.13 552.804 24.304 552.564 24.544C552.336 24.772 552.222 25.066 552.222 25.426C552.222 25.834 552.36 26.152 552.636 26.38C552.924 26.596 553.32 26.704 553.824 26.704ZM560.961 28V18.424H562.707L562.779 20.98L562.545 20.854C562.653 20.23 562.857 19.726 563.157 19.342C563.457 18.958 563.823 18.676 564.255 18.496C564.687 18.304 565.155 18.208 565.659 18.208C566.379 18.208 566.973 18.37 567.441 18.694C567.921 19.006 568.281 19.438 568.521 19.99C568.773 20.53 568.899 21.148 568.899 21.844V28H566.991V22.42C566.991 21.856 566.931 21.382 566.811 20.998C566.691 20.614 566.493 20.32 566.217 20.116C565.941 19.912 565.581 19.81 565.137 19.81C564.465 19.81 563.919 20.032 563.499 20.476C563.079 20.92 562.869 21.568 562.869 22.42V28H560.961ZM578.763 28V17.002H574.839V15.22H584.631V17.002H580.707V28H578.763ZM588.704 28.216C587.768 28.216 586.958 28.012 586.274 27.604C585.602 27.196 585.08 26.614 584.708 25.858C584.348 25.102 584.168 24.22 584.168 23.212C584.168 22.204 584.348 21.328 584.708 20.584C585.08 19.828 585.602 19.246 586.274 18.838C586.946 18.418 587.738 18.208 588.65 18.208C589.514 18.208 590.276 18.412 590.936 18.82C591.596 19.216 592.106 19.792 592.466 20.548C592.838 21.304 593.024 22.216 593.024 23.284V23.77H586.148C586.196 24.706 586.442 25.408 586.886 25.876C587.342 26.344 587.954 26.578 588.722 26.578C589.286 26.578 589.754 26.446 590.126 26.182C590.498 25.918 590.756 25.564 590.9 25.12L592.88 25.246C592.628 26.134 592.13 26.854 591.386 27.406C590.654 27.946 589.76 28.216 588.704 28.216ZM586.148 22.33H591.008C590.948 21.478 590.702 20.848 590.27 20.44C589.85 20.032 589.31 19.828 588.65 19.828C587.966 19.828 587.402 20.044 586.958 20.476C586.526 20.896 586.256 21.514 586.148 22.33ZM597.833 28.216C596.837 28.216 596.039 27.988 595.439 27.532C594.851 27.076 594.557 26.434 594.557 25.606C594.557 24.778 594.803 24.136 595.295 23.68C595.799 23.212 596.573 22.876 597.617 22.672L600.911 22.042C600.911 21.298 600.737 20.746 600.389 20.386C600.041 20.014 599.525 19.828 598.841 19.828C598.229 19.828 597.749 19.966 597.401 20.242C597.053 20.506 596.813 20.902 596.681 21.43L594.719 21.304C594.899 20.344 595.343 19.588 596.051 19.036C596.771 18.484 597.701 18.208 598.841 18.208C600.137 18.208 601.121 18.556 601.793 19.252C602.477 19.936 602.819 20.902 602.819 22.15V25.876C602.819 26.104 602.855 26.266 602.927 26.362C603.011 26.446 603.143 26.488 603.323 26.488H603.665V28C603.605 28.012 603.509 28.024 603.377 28.036C603.245 28.048 603.107 28.054 602.963 28.054C602.555 28.054 602.201 27.988 601.901 27.856C601.613 27.724 601.397 27.508 601.253 27.208C601.109 26.896 601.037 26.482 601.037 25.966L601.235 26.056C601.139 26.476 600.929 26.848 600.605 27.172C600.293 27.496 599.891 27.754 599.399 27.946C598.919 28.126 598.397 28.216 597.833 28.216ZM598.139 26.704C598.715 26.704 599.207 26.596 599.615 26.38C600.023 26.152 600.341 25.84 600.569 25.444C600.797 25.048 600.911 24.598 600.911 24.094V23.482L598.103 24.022C597.527 24.13 597.119 24.304 596.879 24.544C596.651 24.772 596.537 25.066 596.537 25.426C596.537 25.834 596.675 26.152 596.951 26.38C597.239 26.596 597.635 26.704 598.139 26.704ZM605.276 28V18.424H607.022L607.076 20.8L606.86 20.728C606.968 20.2 607.154 19.75 607.418 19.378C607.694 19.006 608.03 18.718 608.426 18.514C608.822 18.31 609.254 18.208 609.722 18.208C610.538 18.208 611.204 18.442 611.72 18.91C612.236 19.366 612.56 19.996 612.692 20.8H612.386C612.494 20.236 612.674 19.768 612.926 19.396C613.19 19.012 613.526 18.718 613.934 18.514C614.342 18.31 614.804 18.208 615.32 18.208C615.992 18.208 616.562 18.352 617.03 18.64C617.51 18.916 617.87 19.324 618.11 19.864C618.362 20.404 618.488 21.064 618.488 21.844V28H616.58V22.312C616.58 21.484 616.43 20.86 616.13 20.44C615.83 20.02 615.374 19.81 614.762 19.81C614.366 19.81 614.018 19.912 613.718 20.116C613.418 20.32 613.184 20.614 613.016 20.998C612.86 21.382 612.782 21.844 612.782 22.384V28H610.964V22.384C610.964 21.568 610.826 20.938 610.55 20.494C610.286 20.038 609.83 19.81 609.182 19.81C608.774 19.81 608.42 19.912 608.12 20.116C607.832 20.32 607.604 20.62 607.436 21.016C607.268 21.4 607.184 21.856 607.184 22.384V28H605.276ZM625.777 28V15.22H630.367C631.903 15.22 633.061 15.496 633.841 16.048C634.621 16.6 635.011 17.476 635.011 18.676C635.011 19.216 634.897 19.69 634.669 20.098C634.441 20.506 634.105 20.83 633.661 21.07C633.229 21.298 632.713 21.418 632.113 21.43L632.095 21.358C633.187 21.382 634.033 21.682 634.633 22.258C635.245 22.822 635.551 23.566 635.551 24.49C635.551 25.654 635.161 26.53 634.381 27.118C633.601 27.706 632.491 28 631.051 28H625.777ZM627.721 26.254H630.997C631.801 26.254 632.425 26.092 632.869 25.768C633.325 25.432 633.553 24.946 633.553 24.31C633.553 23.686 633.325 23.2 632.869 22.852C632.425 22.504 631.801 22.33 630.997 22.33H627.721V26.254ZM627.721 20.674H630.331C631.183 20.674 631.843 20.512 632.311 20.188C632.779 19.864 633.013 19.408 633.013 18.82C633.013 18.196 632.785 17.734 632.329 17.434C631.885 17.122 631.219 16.966 630.331 16.966H627.721V20.674ZM641.843 28.216C640.907 28.216 640.097 28.012 639.413 27.604C638.741 27.196 638.219 26.614 637.847 25.858C637.487 25.102 637.307 24.22 637.307 23.212C637.307 22.204 637.487 21.328 637.847 20.584C638.219 19.828 638.741 19.246 639.413 18.838C640.085 18.418 640.877 18.208 641.789 18.208C642.653 18.208 643.415 18.412 644.075 18.82C644.735 19.216 645.245 19.792 645.605 20.548C645.977 21.304 646.163 22.216 646.163 23.284V23.77H639.287C639.335 24.706 639.581 25.408 640.025 25.876C640.481 26.344 641.093 26.578 641.861 26.578C642.425 26.578 642.893 26.446 643.265 26.182C643.637 25.918 643.895 25.564 644.039 25.12L646.019 25.246C645.767 26.134 645.269 26.854 644.525 27.406C643.793 27.946 642.899 28.216 641.843 28.216ZM639.287 22.33H644.147C644.087 21.478 643.841 20.848 643.409 20.44C642.989 20.032 642.449 19.828 641.789 19.828C641.105 19.828 640.541 20.044 640.097 20.476C639.665 20.896 639.395 21.514 639.287 22.33ZM648.699 28V17.812C648.699 17.02 648.921 16.39 649.365 15.922C649.809 15.454 650.505 15.22 651.453 15.22H653.145V16.786H651.705C651.333 16.786 651.057 16.888 650.877 17.092C650.697 17.284 650.607 17.56 650.607 17.92V28H648.699ZM647.367 20.098V18.55H653.001V20.098H647.367ZM658.331 28.216C657.419 28.216 656.621 28.012 655.937 27.604C655.253 27.196 654.725 26.614 654.353 25.858C653.981 25.102 653.795 24.22 653.795 23.212C653.795 22.192 653.981 21.31 654.353 20.566C654.725 19.822 655.253 19.246 655.937 18.838C656.621 18.418 657.419 18.208 658.331 18.208C659.243 18.208 660.041 18.418 660.725 18.838C661.409 19.246 661.937 19.822 662.309 20.566C662.681 21.31 662.867 22.192 662.867 23.212C662.867 24.22 662.681 25.102 662.309 25.858C661.937 26.614 661.409 27.196 660.725 27.604C660.041 28.012 659.243 28.216 658.331 28.216ZM658.331 26.56C659.147 26.56 659.777 26.266 660.221 25.678C660.665 25.078 660.887 24.256 660.887 23.212C660.887 22.168 660.665 21.352 660.221 20.764C659.777 20.164 659.147 19.864 658.331 19.864C657.527 19.864 656.897 20.164 656.441 20.764C655.997 21.352 655.775 22.168 655.775 23.212C655.775 24.256 655.997 25.078 656.441 25.678C656.897 26.266 657.527 26.56 658.331 26.56ZM664.795 28V18.424H666.541L666.613 20.962L666.451 20.908C666.583 20.044 666.847 19.414 667.243 19.018C667.651 18.622 668.197 18.424 668.881 18.424H669.799V20.134H668.881C668.401 20.134 667.999 20.212 667.675 20.368C667.351 20.524 667.105 20.764 666.937 21.088C666.781 21.412 666.703 21.832 666.703 22.348V28H664.795ZM675.101 28.216C674.165 28.216 673.355 28.012 672.671 27.604C671.999 27.196 671.477 26.614 671.105 25.858C670.745 25.102 670.565 24.22 670.565 23.212C670.565 22.204 670.745 21.328 671.105 20.584C671.477 19.828 671.999 19.246 672.671 18.838C673.343 18.418 674.135 18.208 675.047 18.208C675.911 18.208 676.673 18.412 677.333 18.82C677.993 19.216 678.503 19.792 678.863 20.548C679.235 21.304 679.421 22.216 679.421 23.284V23.77H672.545C672.593 24.706 672.839 25.408 673.283 25.876C673.739 26.344 674.351 26.578 675.119 26.578C675.683 26.578 676.151 26.446 676.523 26.182C676.895 25.918 677.153 25.564 677.297 25.12L679.277 25.246C679.025 26.134 678.527 26.854 677.783 27.406C677.051 27.946 676.157 28.216 675.101 28.216ZM672.545 22.33H677.405C677.345 21.478 677.099 20.848 676.667 20.44C676.247 20.032 675.707 19.828 675.047 19.828C674.363 19.828 673.799 20.044 673.355 20.476C672.923 20.896 672.653 21.514 672.545 22.33Z" fill="#738297"/>
<path d="M479.76 227V221.87L475.278 214.22H477.51L480.732 219.926L483.972 214.22H486.204L481.704 221.87V227H479.76ZM490.1 227.216C489.188 227.216 488.39 227.012 487.706 226.604C487.022 226.196 486.494 225.614 486.122 224.858C485.75 224.102 485.564 223.22 485.564 222.212C485.564 221.192 485.75 220.31 486.122 219.566C486.494 218.822 487.022 218.246 487.706 217.838C488.39 217.418 489.188 217.208 490.1 217.208C491.012 217.208 491.81 217.418 492.494 217.838C493.178 218.246 493.706 218.822 494.078 219.566C494.45 220.31 494.636 221.192 494.636 222.212C494.636 223.22 494.45 224.102 494.078 224.858C493.706 225.614 493.178 226.196 492.494 226.604C491.81 227.012 491.012 227.216 490.1 227.216ZM490.1 225.56C490.916 225.56 491.546 225.266 491.99 224.678C492.434 224.078 492.656 223.256 492.656 222.212C492.656 221.168 492.434 220.352 491.99 219.764C491.546 219.164 490.916 218.864 490.1 218.864C489.296 218.864 488.666 219.164 488.21 219.764C487.766 220.352 487.544 221.168 487.544 222.212C487.544 223.256 487.766 224.078 488.21 224.678C488.666 225.266 489.296 225.56 490.1 225.56ZM499.714 227.216C498.754 227.216 497.986 226.898 497.41 226.262C496.846 225.614 496.564 224.72 496.564 223.58V217.424H498.472V223.094C498.472 223.958 498.622 224.594 498.922 225.002C499.222 225.41 499.678 225.614 500.29 225.614C500.986 225.614 501.526 225.392 501.91 224.948C502.306 224.492 502.504 223.856 502.504 223.04V217.424H504.412V227H502.63L502.594 224.498L502.864 224.606C502.696 225.446 502.342 226.094 501.802 226.55C501.262 226.994 500.566 227.216 499.714 227.216ZM507.111 227V217.424H508.857L508.929 219.962L508.767 219.908C508.899 219.044 509.163 218.414 509.559 218.018C509.967 217.622 510.513 217.424 511.197 217.424H512.115V219.134H511.197C510.717 219.134 510.315 219.212 509.991 219.368C509.667 219.524 509.421 219.764 509.253 220.088C509.097 220.412 509.019 220.832 509.019 221.348V227H507.111ZM518.77 227V214.22H520.714V220.376L519.778 219.692H527.554L526.618 220.376V214.22H528.562V227H526.618V220.772L527.554 221.456H519.778L520.714 220.772V227H518.77ZM534.272 227.216C533.312 227.216 532.544 226.898 531.968 226.262C531.404 225.614 531.122 224.72 531.122 223.58V217.424H533.03V223.094C533.03 223.958 533.18 224.594 533.48 225.002C533.78 225.41 534.236 225.614 534.848 225.614C535.544 225.614 536.084 225.392 536.468 224.948C536.864 224.492 537.062 223.856 537.062 223.04V217.424H538.97V227H537.188L537.152 224.498L537.422 224.606C537.254 225.446 536.9 226.094 536.36 226.55C535.82 226.994 535.124 227.216 534.272 227.216ZM541.669 227V217.424H543.415L543.469 219.8L543.253 219.728C543.361 219.2 543.547 218.75 543.811 218.378C544.087 218.006 544.423 217.718 544.819 217.514C545.215 217.31 545.647 217.208 546.115 217.208C546.931 217.208 547.597 217.442 548.113 217.91C548.629 218.366 548.953 218.996 549.085 219.8H548.779C548.887 219.236 549.067 218.768 549.319 218.396C549.583 218.012 549.919 217.718 550.327 217.514C550.735 217.31 551.197 217.208 551.713 217.208C552.385 217.208 552.955 217.352 553.423 217.64C553.903 217.916 554.263 218.324 554.503 218.864C554.755 219.404 554.881 220.064 554.881 220.844V227H552.973V221.312C552.973 220.484 552.823 219.86 552.523 219.44C552.223 219.02 551.767 218.81 551.155 218.81C550.759 218.81 550.411 218.912 550.111 219.116C549.811 219.32 549.577 219.614 549.409 219.998C549.253 220.382 549.175 220.844 549.175 221.384V227H547.357V221.384C547.357 220.568 547.219 219.938 546.943 219.494C546.679 219.038 546.223 218.81 545.575 218.81C545.167 218.81 544.813 218.912 544.513 219.116C544.225 219.32 543.997 219.62 543.829 220.016C543.661 220.4 543.577 220.856 543.577 221.384V227H541.669ZM560.084 227.216C559.088 227.216 558.29 226.988 557.69 226.532C557.102 226.076 556.808 225.434 556.808 224.606C556.808 223.778 557.054 223.136 557.546 222.68C558.05 222.212 558.824 221.876 559.868 221.672L563.162 221.042C563.162 220.298 562.988 219.746 562.64 219.386C562.292 219.014 561.776 218.828 561.092 218.828C560.48 218.828 560 218.966 559.652 219.242C559.304 219.506 559.064 219.902 558.932 220.43L556.97 220.304C557.15 219.344 557.594 218.588 558.302 218.036C559.022 217.484 559.952 217.208 561.092 217.208C562.388 217.208 563.372 217.556 564.044 218.252C564.728 218.936 565.07 219.902 565.07 221.15V224.876C565.07 225.104 565.106 225.266 565.178 225.362C565.262 225.446 565.394 225.488 565.574 225.488H565.916V227C565.856 227.012 565.76 227.024 565.628 227.036C565.496 227.048 565.358 227.054 565.214 227.054C564.806 227.054 564.452 226.988 564.152 226.856C563.864 226.724 563.648 226.508 563.504 226.208C563.36 225.896 563.288 225.482 563.288 224.966L563.486 225.056C563.39 225.476 563.18 225.848 562.856 226.172C562.544 226.496 562.142 226.754 561.65 226.946C561.17 227.126 560.648 227.216 560.084 227.216ZM560.39 225.704C560.966 225.704 561.458 225.596 561.866 225.38C562.274 225.152 562.592 224.84 562.82 224.444C563.048 224.048 563.162 223.598 563.162 223.094V222.482L560.354 223.022C559.778 223.13 559.37 223.304 559.13 223.544C558.902 223.772 558.788 224.066 558.788 224.426C558.788 224.834 558.926 225.152 559.202 225.38C559.49 225.596 559.886 225.704 560.39 225.704ZM567.527 227V217.424H569.273L569.345 219.98L569.111 219.854C569.219 219.23 569.423 218.726 569.723 218.342C570.023 217.958 570.389 217.676 570.821 217.496C571.253 217.304 571.721 217.208 572.225 217.208C572.945 217.208 573.539 217.37 574.007 217.694C574.487 218.006 574.847 218.438 575.087 218.99C575.339 219.53 575.465 220.148 575.465 220.844V227H573.557V221.42C573.557 220.856 573.497 220.382 573.377 219.998C573.257 219.614 573.059 219.32 572.783 219.116C572.507 218.912 572.147 218.81 571.703 218.81C571.031 218.81 570.485 219.032 570.065 219.476C569.645 219.92 569.435 220.568 569.435 221.42V227H567.527ZM585.328 227V216.002H581.404V214.22H591.196V216.002H587.272V227H585.328ZM595.27 227.216C594.334 227.216 593.524 227.012 592.84 226.604C592.168 226.196 591.646 225.614 591.274 224.858C590.914 224.102 590.734 223.22 590.734 222.212C590.734 221.204 590.914 220.328 591.274 219.584C591.646 218.828 592.168 218.246 592.84 217.838C593.512 217.418 594.304 217.208 595.216 217.208C596.08 217.208 596.842 217.412 597.502 217.82C598.162 218.216 598.672 218.792 599.032 219.548C599.404 220.304 599.59 221.216 599.59 222.284V222.77H592.714C592.762 223.706 593.008 224.408 593.452 224.876C593.908 225.344 594.52 225.578 595.288 225.578C595.852 225.578 596.32 225.446 596.692 225.182C597.064 224.918 597.322 224.564 597.466 224.12L599.446 224.246C599.194 225.134 598.696 225.854 597.952 226.406C597.22 226.946 596.326 227.216 595.27 227.216ZM592.714 221.33H597.574C597.514 220.478 597.268 219.848 596.836 219.44C596.416 219.032 595.876 218.828 595.216 218.828C594.532 218.828 593.968 219.044 593.524 219.476C593.092 219.896 592.822 220.514 592.714 221.33ZM604.398 227.216C603.402 227.216 602.604 226.988 602.004 226.532C601.416 226.076 601.122 225.434 601.122 224.606C601.122 223.778 601.368 223.136 601.86 222.68C602.364 222.212 603.138 221.876 604.182 221.672L607.476 221.042C607.476 220.298 607.302 219.746 606.954 219.386C606.606 219.014 606.09 218.828 605.406 218.828C604.794 218.828 604.314 218.966 603.966 219.242C603.618 219.506 603.378 219.902 603.246 220.43L601.284 220.304C601.464 219.344 601.908 218.588 602.616 218.036C603.336 217.484 604.266 217.208 605.406 217.208C606.702 217.208 607.686 217.556 608.358 218.252C609.042 218.936 609.384 219.902 609.384 221.15V224.876C609.384 225.104 609.42 225.266 609.492 225.362C609.576 225.446 609.708 225.488 609.888 225.488H610.23V227C610.17 227.012 610.074 227.024 609.942 227.036C609.81 227.048 609.672 227.054 609.528 227.054C609.12 227.054 608.766 226.988 608.466 226.856C608.178 226.724 607.962 226.508 607.818 226.208C607.674 225.896 607.602 225.482 607.602 224.966L607.8 225.056C607.704 225.476 607.494 225.848 607.17 226.172C606.858 226.496 606.456 226.754 605.964 226.946C605.484 227.126 604.962 227.216 604.398 227.216ZM604.704 225.704C605.28 225.704 605.772 225.596 606.18 225.38C606.588 225.152 606.906 224.84 607.134 224.444C607.362 224.048 607.476 223.598 607.476 223.094V222.482L604.668 223.022C604.092 223.13 603.684 223.304 603.444 223.544C603.216 223.772 603.102 224.066 603.102 224.426C603.102 224.834 603.24 225.152 603.516 225.38C603.804 225.596 604.2 225.704 604.704 225.704ZM611.841 227V217.424H613.587L613.641 219.8L613.425 219.728C613.533 219.2 613.719 218.75 613.983 218.378C614.259 218.006 614.595 217.718 614.991 217.514C615.387 217.31 615.819 217.208 616.287 217.208C617.103 217.208 617.769 217.442 618.285 217.91C618.801 218.366 619.125 218.996 619.257 219.8H618.951C619.059 219.236 619.239 218.768 619.491 218.396C619.755 218.012 620.091 217.718 620.499 217.514C620.907 217.31 621.369 217.208 621.885 217.208C622.557 217.208 623.127 217.352 623.595 217.64C624.075 217.916 624.435 218.324 624.675 218.864C624.927 219.404 625.053 220.064 625.053 220.844V227H623.145V221.312C623.145 220.484 622.995 219.86 622.695 219.44C622.395 219.02 621.939 218.81 621.327 218.81C620.931 218.81 620.583 218.912 620.283 219.116C619.983 219.32 619.749 219.614 619.581 219.998C619.425 220.382 619.347 220.844 619.347 221.384V227H617.529V221.384C617.529 220.568 617.391 219.938 617.115 219.494C616.851 219.038 616.395 218.81 615.747 218.81C615.339 218.81 614.985 218.912 614.685 219.116C614.397 219.32 614.169 219.62 614.001 220.016C613.833 220.4 613.749 220.856 613.749 221.384V227H611.841ZM631.154 227L635.762 214.22H638.228L642.836 227H640.766L639.596 223.67H634.376L633.224 227H631.154ZM634.988 221.906H639.002L636.986 216.074L634.988 221.906ZM644.77 227V216.812C644.77 216.02 644.992 215.39 645.436 214.922C645.88 214.454 646.576 214.22 647.524 214.22H649.216V215.786H647.776C647.404 215.786 647.128 215.888 646.948 216.092C646.768 216.284 646.678 216.56 646.678 216.92V227H644.77ZM643.438 219.098V217.55H649.072V219.098H643.438ZM654.238 227C653.326 227 652.654 226.79 652.222 226.37C651.79 225.95 651.574 225.296 651.574 224.408V215.174H653.482V224.264C653.482 224.708 653.578 225.014 653.77 225.182C653.962 225.35 654.256 225.434 654.652 225.434H656.02V227H654.238ZM650.116 218.99V217.424H656.02V218.99H650.116ZM661.627 227.216C660.691 227.216 659.881 227.012 659.197 226.604C658.525 226.196 658.003 225.614 657.631 224.858C657.271 224.102 657.091 223.22 657.091 222.212C657.091 221.204 657.271 220.328 657.631 219.584C658.003 218.828 658.525 218.246 659.197 217.838C659.869 217.418 660.661 217.208 661.573 217.208C662.437 217.208 663.199 217.412 663.859 217.82C664.519 218.216 665.029 218.792 665.389 219.548C665.761 220.304 665.947 221.216 665.947 222.284V222.77H659.071C659.119 223.706 659.365 224.408 659.809 224.876C660.265 225.344 660.877 225.578 661.645 225.578C662.209 225.578 662.677 225.446 663.049 225.182C663.421 224.918 663.679 224.564 663.823 224.12L665.803 224.246C665.551 225.134 665.053 225.854 664.309 226.406C663.577 226.946 662.683 227.216 661.627 227.216ZM659.071 221.33H663.931C663.871 220.478 663.625 219.848 663.193 219.44C662.773 219.032 662.233 218.828 661.573 218.828C660.889 218.828 660.325 219.044 659.881 219.476C659.449 219.896 659.179 220.514 659.071 221.33ZM667.88 227V217.424H669.626L669.698 219.962L669.536 219.908C669.668 219.044 669.932 218.414 670.328 218.018C670.736 217.622 671.282 217.424 671.966 217.424H672.884V219.134H671.966C671.486 219.134 671.084 219.212 670.76 219.368C670.436 219.524 670.19 219.764 670.022 220.088C669.866 220.412 669.788 220.832 669.788 221.348V227H667.88Z" fill="#738297"/>
</svg>

