<svg width="245" height="337" viewBox="0 0 245 337" fill="none" xmlns="http://www.w3.org/2000/svg">
<path d="M173.113 336.3H71.5117C66.7145 336.3 62.5932 332.893 61.6904 328.182L47.1844 252.475L31.123 168.65L15.0615 84.825L1.27665 12.8818C0.095319 6.71648 4.82047 1 11.098 1H63.2459H181.378H233.528C239.806 1 244.531 6.71654 243.349 12.8819L229.564 84.825L213.502 168.65L197.44 252.475L182.934 328.182C182.031 332.893 177.91 336.3 173.113 336.3Z" fill="url(#paint0_linear_0_1)" fill-opacity="0.7"/>
<path d="M31.123 168.65L47.1844 252.475M31.123 168.65L15.0615 84.825M31.123 168.65H213.502M47.1844 252.475L61.6904 328.182C62.5932 332.893 66.7145 336.3 71.5118 336.3H173.113C177.91 336.3 182.031 332.893 182.934 328.182L197.44 252.475M47.1844 252.475H197.44M15.0615 84.825L1.27665 12.8818C0.095319 6.71648 4.82047 1 11.098 1H63.2459H181.378H233.528C239.806 1 244.531 6.71654 243.349 12.8819L229.564 84.825M15.0615 84.825H229.564M213.502 168.65L229.564 84.825M213.502 168.65L197.44 252.475" stroke="#A1BCD1" stroke-opacity="0.4"/>
<path d="M122.126 48V40.208H119.694V38.624H120.67C121.129 38.624 121.497 38.5653 121.774 38.448C122.051 38.3307 122.249 38.128 122.366 37.84C122.494 37.5413 122.558 37.1413 122.558 36.64H124.206V48H122.126Z" fill="white"/>
<path d="M118.311 132C118.311 131.083 118.439 130.283 118.695 129.6C118.951 128.907 119.383 128.277 119.991 127.712C120.599 127.136 121.421 126.576 122.455 126.032C122.967 125.755 123.378 125.509 123.687 125.296C123.997 125.083 124.221 124.864 124.359 124.64C124.498 124.405 124.567 124.128 124.567 123.808C124.567 123.488 124.498 123.211 124.359 122.976C124.221 122.731 124.013 122.539 123.735 122.4C123.469 122.261 123.133 122.192 122.727 122.192C122.077 122.192 121.559 122.379 121.175 122.752C120.802 123.115 120.573 123.637 120.487 124.32L118.343 124.192C118.45 123.008 118.882 122.08 119.639 121.408C120.407 120.725 121.437 120.384 122.727 120.384C123.559 120.384 124.274 120.528 124.871 120.816C125.469 121.093 125.922 121.488 126.231 122C126.551 122.512 126.711 123.104 126.711 123.776C126.711 124.352 126.61 124.848 126.407 125.264C126.215 125.68 125.895 126.064 125.447 126.416C125.01 126.757 124.418 127.125 123.671 127.52C122.733 128.021 122.029 128.507 121.559 128.976C121.09 129.435 120.839 129.84 120.807 130.192H126.711V132H118.311Z" fill="white"/>
<path d="M122.462 216.256C121.108 216.256 120.062 215.947 119.326 215.328C118.59 214.699 118.196 213.856 118.142 212.8L120.27 212.704C120.334 213.312 120.558 213.755 120.942 214.032C121.337 214.309 121.844 214.448 122.462 214.448C122.878 214.448 123.257 214.389 123.598 214.272C123.94 214.144 124.212 213.952 124.414 213.696C124.617 213.44 124.718 213.109 124.718 212.704C124.718 212.085 124.51 211.627 124.094 211.328C123.678 211.029 123.124 210.88 122.43 210.88H121.438V209.232H122.43C122.974 209.232 123.428 209.12 123.79 208.896C124.164 208.661 124.35 208.272 124.35 207.728C124.35 207.237 124.196 206.859 123.886 206.592C123.588 206.325 123.118 206.192 122.478 206.192C121.849 206.192 121.374 206.32 121.054 206.576C120.734 206.832 120.542 207.168 120.478 207.584L118.35 207.472C118.468 206.533 118.878 205.787 119.582 205.232C120.297 204.667 121.262 204.384 122.478 204.384C123.332 204.384 124.057 204.512 124.654 204.768C125.252 205.024 125.705 205.387 126.014 205.856C126.334 206.325 126.494 206.885 126.494 207.536C126.494 208.219 126.27 208.779 125.822 209.216C125.374 209.653 124.734 209.947 123.902 210.096V209.824C124.83 209.952 125.556 210.283 126.078 210.816C126.601 211.339 126.862 212.005 126.862 212.816C126.862 213.541 126.681 214.16 126.318 214.672C125.956 215.184 125.444 215.579 124.782 215.856C124.121 216.123 123.348 216.256 122.462 216.256Z" fill="white"/>
<path d="M123.471 300V297.728H117.775V296.032L123.135 288.64H125.551V295.92H126.911V297.728H125.551V300H123.471ZM120.047 295.92H123.471V291.344L120.047 295.92Z" fill="white"/>
<defs>
<linearGradient id="paint0_linear_0_1" x1="122.313" y1="1" x2="122.313" y2="336.3" gradientUnits="userSpaceOnUse">
<stop stop-color="#A1BCD1" stop-opacity="0.4"/>
<stop offset="1" stop-color="#A1BCD1" stop-opacity="0.2"/>
</linearGradient>
</defs>
</svg>
