<svg width="584" height="463" viewBox="0 0 584 463" fill="none" xmlns="http://www.w3.org/2000/svg">
<path d="M0 4.99999C0 2.23856 2.23858 0 5 0H579C581.761 0 584 2.23858 584 5V458C584 460.761 581.761 463 579 463H5.00002C2.23859 463 0 460.761 0 458V4.99999Z" fill="#1A2432"/>
<path d="M5 0.5H579C581.485 0.500013 583.5 2.51473 583.5 5V458C583.5 460.485 581.485 462.5 579 462.5H5C2.51473 462.5 0.500012 460.485 0.5 458V5C0.5 2.51472 2.51472 0.5 5 0.5Z" stroke="#A1BCD1" stroke-opacity="0.2"/>
<path d="M0 4.99999C0 2.23856 2.23858 0 5 0H579C581.761 0 584 2.23858 584 5V458C584 460.761 581.761 463 579 463H5.00002C2.23859 463 0 460.761 0 458V4.99999Z" fill="#A1BCD1" fill-opacity="0.06"/>
<path d="M5 0.5H579C581.485 0.500009 583.5 2.51473 583.5 5V458C583.5 460.485 581.485 462.5 579 462.5H5C2.51472 462.5 0.5 460.485 0.5 458V5C0.5 2.59234 2.39083 0.626321 4.76855 0.505859L5 0.5Z" stroke="#A1BCD1" stroke-opacity="0.7"/>
<circle cx="23" cy="22" r="6" fill="#FE4949"/>
<circle cx="23" cy="22" r="5.5" stroke="#A1BCD1" stroke-opacity="0.7"/>
<ellipse cx="41.5" cy="22" rx="5.5" ry="6" fill="#F7D600"/>
<path d="M41.5 16.5C44.2214 16.5 46.5 18.9206 46.5 22C46.5 25.0794 44.2214 27.5 41.5 27.5C38.7786 27.5 36.5 25.0794 36.5 22C36.5 18.9206 38.7786 16.5 41.5 16.5Z" stroke="#A1BCD1" stroke-opacity="0.7"/>
<circle cx="60" cy="22" r="6" fill="#2ED400"/>
<circle cx="60" cy="22" r="5.5" stroke="#A1BCD1" stroke-opacity="0.7"/>
<path d="M246 418C246 399.775 260.775 385 279 385H301C319.225 385 334 399.775 334 418V418C334 436.225 319.225 451 301 451H279C260.775 451 246 436.225 246 418V418Z" fill="#A1BCD1" fill-opacity="0.06"/>
<path d="M279 385.5H301C318.949 385.5 333.5 400.051 333.5 418C333.5 435.949 318.949 450.5 301 450.5H279C261.051 450.5 246.5 435.949 246.5 418C246.5 400.051 261.051 385.5 279 385.5Z" stroke="#A1BCD1" stroke-opacity="0.4"/>
<path d="M296.123 413.393C298.653 413.393 300.704 415.444 300.704 417.973V430.695C300.704 436.879 295.69 441.893 289.505 441.893C283.32 441.893 278.306 436.879 278.306 430.695V417.973C278.306 415.444 280.357 413.393 282.887 413.393H296.123ZM296.123 416.447H282.887C282.044 416.447 281.36 417.13 281.36 417.973V430.695C281.36 435.193 285.007 438.84 289.505 438.84C294.003 438.84 297.65 435.193 297.65 430.695V417.973C297.65 417.13 296.966 416.447 296.123 416.447ZM269.651 413.393L278.112 413.394C277.309 414.231 276.723 415.279 276.448 416.447L269.651 416.447C268.807 416.447 268.124 417.13 268.124 417.973V428.658C268.124 432.033 270.859 434.768 274.234 434.768C275.131 434.768 275.983 434.575 276.751 434.227C277.023 435.223 277.411 436.173 277.899 437.06C276.777 437.549 275.537 437.822 274.234 437.822C269.173 437.822 265.07 433.719 265.07 428.658V417.973C265.07 415.444 267.121 413.393 269.651 413.393ZM309.347 413.393C311.877 413.393 313.927 415.444 313.927 417.973V428.661C313.927 433.72 309.826 437.822 304.767 437.822C303.466 437.822 302.228 437.551 301.107 437.062L301.221 436.856C301.657 436.029 302.007 435.15 302.261 434.231C303.024 434.576 303.873 434.768 304.767 434.768C308.14 434.768 310.874 432.034 310.874 428.661V417.973C310.874 417.13 310.19 416.447 309.347 416.447L302.562 416.447C302.287 415.279 301.701 414.231 300.898 413.394L309.347 413.393ZM289.499 397.107C293.434 397.107 296.624 400.297 296.624 404.232C296.624 408.167 293.434 411.357 289.499 411.357C285.564 411.357 282.374 408.167 282.374 404.232C282.374 400.297 285.564 397.107 289.499 397.107ZM305.791 399.143C309.164 399.143 311.898 401.877 311.898 405.25C311.898 408.623 309.164 411.357 305.791 411.357C302.418 411.357 299.684 408.623 299.684 405.25C299.684 401.877 302.418 399.143 305.791 399.143ZM273.207 399.143C276.58 399.143 279.314 401.877 279.314 405.25C279.314 408.623 276.58 411.357 273.207 411.357C269.834 411.357 267.1 408.623 267.1 405.25C267.1 401.877 269.834 399.143 273.207 399.143ZM289.499 400.161C287.25 400.161 285.427 401.984 285.427 404.232C285.427 406.481 287.25 408.304 289.499 408.304C291.747 408.304 293.57 406.481 293.57 404.232C293.57 401.984 291.747 400.161 289.499 400.161ZM305.791 402.197C304.104 402.197 302.737 403.564 302.737 405.25C302.737 406.937 304.104 408.304 305.791 408.304C307.477 408.304 308.844 406.937 308.844 405.25C308.844 403.564 307.477 402.197 305.791 402.197ZM273.207 402.197C271.521 402.197 270.154 403.564 270.154 405.25C270.154 406.937 271.521 408.304 273.207 408.304C274.894 408.304 276.261 406.937 276.261 405.25C276.261 403.564 274.894 402.197 273.207 402.197Z" fill="white"/>
<path d="M298.461 391.032C298.469 390.989 298.531 390.989 298.539 391.032C298.995 393.262 300.738 395.005 302.968 395.461C303.011 395.469 303.011 395.531 302.968 395.539C300.738 395.995 298.995 397.738 298.539 399.968C298.531 400.011 298.469 400.011 298.461 399.968C298.005 397.738 296.262 395.995 294.032 395.539C293.989 395.531 293.989 395.469 294.032 395.461C296.262 395.005 298.005 393.262 298.461 391.032Z" fill="#A8CDFF" stroke="#A8CDFF" stroke-width="1.5"/>
<circle cx="440" cy="167" r="33" fill="#A1BCD1" fill-opacity="0.06"/>
<circle cx="440" cy="167" r="32.5" stroke="#A1BCD1" stroke-opacity="0.4"/>
<circle cx="321" cy="155" r="33" fill="#A1BCD1" fill-opacity="0.06"/>
<circle cx="321" cy="155" r="32.5" stroke="#A1BCD1" stroke-opacity="0.4"/>
<circle cx="144" cy="155" r="33" fill="#A1BCD1" fill-opacity="0.06"/>
<circle cx="144" cy="155" r="32.5" stroke="#A1BCD1" stroke-opacity="0.4"/>
<circle cx="192" cy="61" r="33" fill="#A1BCD1" fill-opacity="0.06"/>
<circle cx="192" cy="61" r="32.5" stroke="#A1BCD1" stroke-opacity="0.4"/>
<circle cx="380" cy="73" r="33" fill="#A1BCD1" fill-opacity="0.06"/>
<circle cx="380" cy="73" r="32.5" stroke="#A1BCD1" stroke-opacity="0.4"/>
<circle cx="266" cy="233" r="33" fill="#A1BCD1" fill-opacity="0.06"/>
<circle cx="266" cy="233" r="32.5" stroke="#A1BCD1" stroke-opacity="0.4"/>
<path d="M266 266V285.67C266 293.81 266 300.074 266 304.464C266 308.725 269.454 312.174 273.714 312.174V312.174L282.286 312.3V312.3C283.764 312.231 285 313.411 285 314.891V385.5" stroke="#A1BCD1" stroke-opacity="0.4" stroke-dasharray="2 2"/>
<path d="M192 94V191.288C192 245.082 192 282.32 192 303.002C192 313.717 200.687 322.377 211.403 322.377V322.377L232.961 323.001L263.583 322.53C269.073 322.445 273.604 326.804 273.734 332.293L275 386" stroke="#A1BCD1" stroke-opacity="0.4" stroke-dasharray="2 2"/>
<path d="M144 188V249.072C144 273.705 144 292.808 144 306.381C144 320.188 155.194 331.362 169.001 331.362C170.126 331.362 171.226 331.362 172.286 331.362L203.714 331.753H255C260.523 331.753 265 336.231 265 341.753V389" stroke="#A1BCD1" stroke-opacity="0.4" stroke-dasharray="2 2"/>
<path d="M440 200V273.3C440 287.046 440 297.544 440 305.552C440 319.631 428.378 330.847 414.299 330.93C413.184 330.936 412.092 330.94 411.037 330.94L378.312 330.94L325 330.94C319.477 330.94 315 335.417 315 340.94V389" stroke="#A1BCD1" stroke-opacity="0.4" stroke-dasharray="2 2"/>
<path d="M380 106V198.177C380 249.871 380 285.429 380 304.85C380 314.533 372.15 322.379 362.468 322.379V322.379L342.987 322.97H315C309.477 322.97 305 327.447 305 332.97V386" stroke="#A1BCD1" stroke-opacity="0.4" stroke-dasharray="2 2"/>
<path d="M321 188V240.705C321 274.217 321 295.869 321 305.66C321 309.106 318.379 312.06 314.933 312.06V312.06H308.169H305C299.477 312.06 295 316.537 295 322.06V385.5" stroke="#A1BCD1" stroke-opacity="0.4" stroke-dasharray="2 2"/>
<path d="M246 233.001C246.002 230.191 246.588 227.412 247.72 224.841L257.28 251.001C253.899 249.363 251.048 246.806 249.053 243.622C247.058 240.439 246 236.758 246 233.001ZM279.5 232.001C279.285 234.21 278.781 236.382 278 238.461L276 245.121L268.76 223.681L271.04 223.441C271.239 223.399 271.415 223.286 271.537 223.124C271.659 222.962 271.718 222.761 271.704 222.558C271.689 222.356 271.602 222.166 271.458 222.023C271.313 221.88 271.123 221.794 270.92 221.781C270.92 221.781 267.68 222.041 265.58 222.041L260.32 221.781C260.116 221.79 259.923 221.873 259.776 222.015C259.629 222.156 259.538 222.346 259.521 222.549C259.504 222.752 259.561 222.955 259.683 223.119C259.804 223.283 259.981 223.397 260.18 223.441L262.3 223.681L265.42 232.161L261.04 245.281L253.74 223.681L256 223.441C256.198 223.41 256.378 223.309 256.509 223.157C256.639 223.005 256.711 222.811 256.711 222.611C256.711 222.41 256.639 222.217 256.509 222.064C256.378 221.912 256.198 221.812 256 221.781C256 221.781 252.76 222.041 250.66 222.041H249.28C250.868 219.618 252.963 217.569 255.42 216.036C257.877 214.503 260.638 213.522 263.512 213.16C266.386 212.799 269.304 213.066 272.065 213.943C274.825 214.82 277.362 216.287 279.5 218.241H279.24C278.326 218.267 277.459 218.654 276.829 219.317C276.2 219.981 275.858 220.866 275.88 221.781C276.102 223.501 276.794 225.128 277.88 226.481C278.949 228.124 279.526 230.04 279.54 232.001M266.38 234.741L272.54 251.581L272.68 251.861C268.723 253.262 264.424 253.374 260.4 252.181L266.4 234.741M283.56 223.401C286.054 227.982 286.66 233.357 285.247 238.378C283.835 243.4 280.517 247.671 276 250.281L282.12 232.621C283.094 230.364 283.617 227.938 283.66 225.481L283.52 223.481" fill="white"/>
<path d="M154.005 150.559V145.704C155.314 145.09 156.152 143.777 156.159 142.322V142.208C156.153 140.148 154.491 138.473 152.43 138.467H152.317C150.256 138.473 148.588 140.14 148.581 142.208V142.322C148.588 143.763 149.419 145.07 150.715 145.69L150.736 145.703V150.571C148.888 150.851 147.139 151.625 145.685 152.805L145.705 152.792L132.384 142.382C133.588 137.874 127.725 134.987 124.907 138.701C122.082 142.409 126.397 147.317 130.418 144.97L130.397 144.983L143.491 155.206C142.335 156.954 141.716 159.001 141.723 161.095C141.723 163.382 142.448 165.51 143.677 167.25L143.657 167.217L139.669 171.212C139.35 171.112 139.018 171.058 138.685 171.052H138.678C135.602 171.052 134.052 174.793 136.232 176.98C138.412 179.161 142.141 177.614 142.141 174.525C142.134 174.178 142.074 173.831 141.968 173.505L141.975 173.532L145.917 169.576C148.523 171.57 151.899 172.251 155.069 171.418C158.233 170.578 160.845 168.331 162.134 165.309C163.431 162.288 163.264 158.84 161.682 155.959C160.108 153.078 157.289 151.091 154.059 150.571L153.992 150.558L154.005 150.559ZM152.363 166.571C147.504 166.558 145.085 160.662 148.528 157.221C151.965 153.78 157.834 156.221 157.834 161.096V161.102C157.834 164.123 155.395 166.571 152.377 166.571H152.363Z" fill="white"/>
<path d="M304.5 159.75C304.5 152.85 307.95 145.65 312 145.65C314.25 145.65 316.05 147 318.9 151.05C316.2 155.25 314.55 157.8 314.55 157.8C310.95 163.5 309.75 164.7 307.8 164.7C305.85 164.85 304.5 163.05 304.5 159.75ZM328.05 157.2L325.5 153C324.9 151.95 324.15 150.9 323.55 150C325.8 146.55 327.6 144.75 329.85 144.75C334.35 144.75 337.95 151.5 337.95 159.9C337.95 163.05 336.9 164.85 334.8 164.85C332.7 164.85 331.95 163.5 328.05 157.2ZM321.6 147C318.3 142.65 315.45 141 312.15 141C305.25 141 300 150.15 300 159.75C300 165.75 302.85 169.5 307.65 169.5C311.1 169.5 313.5 167.85 318 160.05C318 160.05 319.8 156.75 321.15 154.5C321.6 155.25 322.05 156 322.5 156.9L324.6 160.5C328.65 167.4 330.9 169.65 334.95 169.65C339.6 169.65 342.15 165.75 342.15 159.6C342 149.4 336.6 141 330.15 141C326.7 141 324 143.7 321.6 147Z" fill="white"/>
<path d="M191.987 42H192.029C193.6 42 195.057 42.5217 196.225 43.396H196.232C197.039 43.9984 197.708 44.7712 198.186 45.6506L206 59.1291L206.047 59.2371L212.029 69.5242C212.665 70.5872 213 71.8075 213 73.0539C213 74.031 212.795 74.9651 212.426 75.812L212.433 75.8394C212.153 76.4691 211.783 77.0454 211.325 77.5671C210.805 78.1643 210.191 78.6769 209.493 79.0711C208.46 79.6682 207.284 79.9857 206.089 79.9987H205.972C204.455 79.9987 202.985 79.5108 201.776 78.6027H201.77C200.962 78.0003 200.293 77.2275 199.815 76.3481L192.001 62.8696L191.954 62.7616L185.944 52.4276C185.323 51.3699 185 50.1704 185 48.9448C185 48.2123 185.116 47.502 185.329 46.8372L185.341 46.7955L185.362 46.7422C185.452 46.4716 185.567 46.1593 185.567 46.1593C185.84 45.5362 186.217 44.9611 186.66 44.4524L186.771 44.3236L186.797 44.2963V44.2898H186.803L186.818 44.269L186.832 44.2638C187.304 43.7486 187.865 43.2945 188.507 42.9276C189.54 42.3305 190.716 42.013 191.911 42H191.987ZM178.014 80H177.911C176.715 79.9857 175.539 79.6682 174.507 79.0724C173.809 78.6782 173.195 78.1656 172.675 77.5684C172.217 77.0467 171.847 76.4704 171.567 75.8407L171.574 75.8133C171.19 74.9456 171 74.0036 171 73.0552C171 71.7607 171.356 70.5559 171.971 69.5255L177.953 59.2384L178 59.1304L183.319 49.9622C183.449 51.0798 183.796 52.1778 184.358 53.1796L184.459 53.35L190.366 63.5071V63.4875L190.483 63.7373L190.988 64.6181L184.185 76.3481C183.707 77.2275 183.036 78.0016 182.23 78.6027H182.224C181.015 79.5121 179.545 79.9987 178.028 79.9987L178.014 80Z" fill="white"/>
<path fill-rule="evenodd" clip-rule="evenodd" d="M381.038 56.0902C379.671 55.8495 378.262 56.0904 377.053 56.772C375.843 57.4535 374.907 58.5334 374.405 59.8277C373.902 61.1219 373.864 62.5504 374.297 63.8696C374.73 65.1888 375.606 66.3171 376.778 67.0622C377.225 67.3472 377.54 67.798 377.655 68.3155C377.77 68.833 377.675 69.3749 377.39 69.8222L369.546 82.1482C369.953 82.9288 370.092 83.822 369.94 84.6893C369.788 85.5566 369.354 86.3495 368.705 86.945C368.056 87.5405 367.229 87.9054 366.352 87.983C365.475 88.0606 364.597 87.8466 363.854 87.3743C363.111 86.9019 362.544 86.1975 362.242 85.3704C361.94 84.5433 361.92 83.6397 362.184 82.7996C362.448 81.9596 362.981 81.2301 363.702 80.7243C364.423 80.2185 365.29 79.9647 366.17 80.0022L373.05 69.1922C371.809 67.9932 370.899 66.4934 370.409 64.8387C369.919 63.184 369.866 61.4307 370.254 59.7493C370.643 58.0679 371.46 56.5156 372.626 55.2434C373.792 53.9712 375.267 53.0224 376.908 52.4892C378.55 51.9561 380.301 51.8567 381.992 52.2008C383.683 52.545 385.256 53.3209 386.559 54.453C387.861 55.5852 388.848 57.0352 389.424 58.6619C390 60.2886 390.146 62.0367 389.846 63.7362C389.8 63.9949 389.704 64.242 389.563 64.4636C389.422 64.6851 389.238 64.8766 389.023 65.0272C388.808 65.1779 388.565 65.2846 388.308 65.3414C388.052 65.3982 387.787 65.4039 387.528 65.3582C387.269 65.3125 387.022 65.2163 386.801 65.075C386.579 64.9338 386.388 64.7503 386.237 64.5351C386.086 64.3198 385.98 64.077 385.923 63.8205C385.866 63.564 385.86 63.2989 385.906 63.0402C386.182 61.4733 385.825 59.8609 384.912 58.5576C384 57.2542 382.605 56.3667 381.038 56.0902ZM375.998 61.9982C375.998 61.3921 376.137 60.7941 376.402 60.2492C376.667 59.7044 377.053 59.227 377.53 58.8531C378.007 58.4791 378.563 58.2185 379.155 58.0908C379.748 57.9632 380.362 57.9718 380.95 58.1161C381.539 58.2604 382.087 58.5365 382.553 58.9237C383.02 59.3108 383.392 59.7989 383.642 60.351C383.892 60.9031 384.013 61.5048 383.997 62.1106C383.98 62.7164 383.826 63.3106 383.546 63.8482L390.426 74.6582C392.072 74.0283 393.855 73.8447 395.595 74.1257C397.335 74.4068 398.969 75.1427 400.333 76.2588C401.697 77.3749 402.742 78.8316 403.361 80.4814C403.981 82.1311 404.154 83.9154 403.862 85.6534C403.57 87.3914 402.824 89.0214 401.7 90.3784C400.575 91.7353 399.112 92.771 397.459 93.3805C395.805 93.9901 394.02 94.1518 392.284 93.8493C390.547 93.5469 388.922 92.791 387.572 91.6582C387.178 91.3136 386.935 90.8285 386.895 90.3069C386.855 89.7853 387.021 89.2686 387.357 88.8678C387.693 88.4669 388.173 88.2138 388.694 88.1626C389.214 88.1115 389.734 88.2664 390.142 88.5942C390.991 89.3064 392.022 89.7693 393.118 89.9317C394.215 90.094 395.335 89.9494 396.354 89.5139C397.374 89.0784 398.252 88.369 398.893 87.4644C399.534 86.5598 399.911 85.4954 399.984 84.3893C400.057 83.2832 399.821 82.1786 399.304 81.198C398.787 80.2174 398.009 79.3993 397.055 78.8342C396.101 78.2692 395.01 77.9795 393.901 77.9971C392.793 78.0148 391.711 78.3391 390.776 78.9342C390.329 79.2186 389.786 79.3136 389.269 79.1985C388.751 79.0834 388.301 78.7674 388.016 78.3202L380.17 65.9942C379.631 66.0174 379.092 65.9312 378.587 65.7409C378.082 65.5505 377.621 65.2599 377.231 64.8866C376.841 64.5132 376.531 64.0648 376.319 63.5685C376.107 63.0721 375.998 62.5379 375.998 61.9982ZM365.142 75.7982C365.323 76.2965 365.299 76.8463 365.074 77.3267C364.85 77.8071 364.444 78.1789 363.946 78.3602C362.915 78.7359 362.006 79.3873 361.32 80.2434C360.633 81.0995 360.194 82.1277 360.051 83.2158C359.908 84.304 360.066 85.4106 360.509 86.4151C360.951 87.4196 361.66 88.2836 362.559 88.913C363.458 89.5424 364.513 89.9131 365.608 89.9848C366.703 90.0565 367.797 89.8265 368.771 89.3196C369.744 88.8128 370.56 88.0487 371.129 87.1105C371.699 86.1722 372 85.0957 372 83.9982C372 83.4677 372.211 82.959 372.586 82.5839C372.961 82.2089 373.47 81.9982 374 81.9982H390.532C390.972 81.2356 391.652 80.6396 392.465 80.3026C393.279 79.9657 394.181 79.9066 395.031 80.1345C395.882 80.3624 396.633 80.8645 397.17 81.5631C397.706 82.2617 397.996 83.1176 397.996 83.9982C397.996 84.8787 397.706 85.7346 397.17 86.4332C396.633 87.1318 395.882 87.634 395.031 87.8619C394.181 88.0898 393.279 88.0306 392.465 87.6937C391.652 87.3567 390.972 86.7607 390.532 85.9982H375.798C375.449 87.7069 374.66 89.2947 373.508 90.604C372.356 91.9133 370.882 92.8986 369.231 93.462C367.581 94.0255 365.812 94.1476 364.1 93.8162C362.387 93.4848 360.792 92.7113 359.471 91.5727C358.15 90.434 357.15 88.9698 356.57 87.3252C355.989 85.6806 355.849 83.9128 356.164 82.1974C356.478 80.482 357.235 78.8786 358.36 77.5462C359.485 76.2139 360.939 75.1989 362.578 74.6022C363.076 74.4205 363.626 74.4442 364.107 74.6682C364.588 74.8921 364.96 75.2998 365.142 75.7982Z" fill="white"/>
<path d="M436.123 153.692C437.692 152.123 439.815 151.108 442.215 151.108C445.354 151.108 448.123 152.862 449.6 155.446C450.892 154.892 452.277 154.523 453.754 154.523C459.477 154.523 464.092 159.138 464.092 164.862C464.092 170.585 459.477 175.2 453.754 175.2C453.015 175.2 452.369 175.108 451.723 175.015C450.431 177.323 447.938 178.892 445.077 178.892C443.877 178.892 442.769 178.615 441.754 178.154C440.462 181.2 437.415 183.323 433.815 183.323C430.123 183.323 426.892 181.015 425.692 177.692C425.138 177.785 424.585 177.877 424.031 177.877C419.6 177.877 416 174.277 416 169.846C416 166.892 417.569 164.308 419.969 162.923C419.508 161.815 419.231 160.523 419.231 159.231C419.231 154.154 423.385 150 428.554 150C431.785 150.092 434.462 151.477 436.123 153.692Z" fill="white"/>
<path d="M292 463C292 462.685 292 454.869 292 451" stroke="#A1BCD1" stroke-opacity="0.4"/>
</svg>
