<svg width="584" height="463" viewBox="0 0 584 463" fill="none" xmlns="http://www.w3.org/2000/svg">
<path d="M0 4.99999C0 2.23856 2.23858 0 5 0H579C581.761 0 584 2.23858 584 5V458C584 460.761 581.761 463 579 463H5.00002C2.23859 463 0 460.761 0 458V4.99999Z" fill="white"/>
<path d="M5 0.5H579C581.485 0.500013 583.5 2.51473 583.5 5V458C583.5 460.485 581.485 462.5 579 462.5H5C2.51473 462.5 0.500012 460.485 0.5 458V5C0.5 2.51472 2.51472 0.5 5 0.5Z" stroke="#A1BCD1" stroke-opacity="0.2"/>
<path d="M0 4.99999C0 2.23856 2.23858 0 5 0H579C581.761 0 584 2.23858 584 5V458C584 460.761 581.761 463 579 463H5.00002C2.23859 463 0 460.761 0 458V4.99999Z" fill="#A1BCD1" fill-opacity="0.06"/>
<path d="M5 0.5H579C581.485 0.500013 583.5 2.51473 583.5 5V458C583.5 460.485 581.485 462.5 579 462.5H5C2.51473 462.5 0.500012 460.485 0.5 458V5C0.5 2.51472 2.51472 0.5 5 0.5Z" stroke="#A1BCD1" stroke-opacity="0.7"/>
<circle cx="23" cy="22" r="6" fill="#FE4949"/>
<circle cx="23" cy="22" r="5.5" stroke="#A1BCD1" stroke-opacity="0.7"/>
<ellipse cx="41.5" cy="22" rx="5.5" ry="6" fill="#F7D600"/>
<path d="M41.5 16.5C44.2214 16.5 46.5 18.9206 46.5 22C46.5 25.0794 44.2214 27.5 41.5 27.5C38.7786 27.5 36.5 25.0794 36.5 22C36.5 18.9206 38.7786 16.5 41.5 16.5Z" stroke="#A1BCD1" stroke-opacity="0.7"/>
<circle cx="60" cy="22" r="6" fill="#2ED400"/>
<circle cx="60" cy="22" r="5.5" stroke="#A1BCD1" stroke-opacity="0.7"/>
<path d="M292 0V105" stroke="#05CD99"/>
<path d="M292 105.5C309.949 105.5 324.5 120.051 324.5 138C324.5 155.949 309.949 170.5 292 170.5C274.051 170.5 259.5 155.949 259.5 138C259.5 120.051 274.051 105.5 292 105.5Z" fill="white" fill-opacity="0.7" stroke="#05CD99"/>
<path d="M299.333 118.666V125.999M284.667 118.666V125.999M275.5 133.333H308.5M279.167 122.333H304.833C306.858 122.333 308.5 123.974 308.5 125.999V151.666C308.5 153.691 306.858 155.333 304.833 155.333H279.167C277.142 155.333 275.5 153.691 275.5 151.666V125.999C275.5 123.974 277.142 122.333 279.167 122.333Z" stroke="#05CD99" stroke-width="3" stroke-linecap="round" stroke-linejoin="round"/>
<path d="M63 240.5C80.9493 240.5 95.5 255.051 95.5 273C95.5 290.949 80.9493 305.5 63 305.5C45.0507 305.5 30.5 290.949 30.5 273C30.5 255.051 45.0507 240.5 63 240.5Z" fill="white" fill-opacity="0.7" stroke="#738297"/>
<path d="M81 284V272C81 262.059 72.9411 254 63 254C53.0589 254 45 262.059 45 272V284M50 290C47.2386 290 45 287.761 45 285V281C45 278.239 47.2386 276 50 276C52.7614 276 55 278.239 55 281V285C55 287.761 52.7614 290 50 290ZM76 290C73.2386 290 71 287.761 71 285V281C71 278.239 73.2386 276 76 276C78.7614 276 81 278.239 81 281V285C81 287.761 78.7614 290 76 290Z" stroke="#738297" stroke-width="3" stroke-linecap="round" stroke-linejoin="round"/>
<path d="M292 240.5C309.949 240.5 324.5 255.051 324.5 273C324.5 290.949 309.949 305.5 292 305.5C274.051 305.5 259.5 290.949 259.5 273C259.5 255.051 274.051 240.5 292 240.5Z" fill="white" fill-opacity="0.7" stroke="#738297"/>
<path d="M296 271H284M288 279H284M300 263H284M308 270V262.6C308 259.24 308 257.56 307.346 256.276C306.771 255.147 305.853 254.229 304.724 253.654C303.44 253 301.76 253 298.4 253H285.6C282.24 253 280.56 253 279.276 253.654C278.147 254.229 277.229 255.147 276.654 256.276C276 257.56 276 259.24 276 262.6V283.4C276 286.76 276 288.44 276.654 289.724C277.229 290.853 278.147 291.771 279.276 292.346C280.56 293 282.24 293 285.6 293H291M312 293L309 290M311 285C311 288.866 307.866 292 304 292C300.134 292 297 288.866 297 285C297 281.134 300.134 278 304 278C307.866 278 311 281.134 311 285Z" stroke="#738297" stroke-width="3" stroke-linecap="round" stroke-linejoin="round"/>
<path d="M521 240.5C538.949 240.5 553.5 255.051 553.5 273C553.5 290.949 538.949 305.5 521 305.5C503.051 305.5 488.5 290.949 488.5 273C488.5 255.051 503.051 240.5 521 240.5Z" fill="white" fill-opacity="0.7" stroke="#738297"/>
<path d="M523 263L520.769 258.538C520.127 257.254 519.806 256.611 519.327 256.142C518.903 255.727 518.393 255.412 517.832 255.219C517.198 255 516.48 255 515.045 255H507.4C505.16 255 504.04 255 503.184 255.436C502.431 255.819 501.819 256.431 501.436 257.184C501 258.04 501 259.16 501 261.4V263M501 263H531.4C534.76 263 536.44 263 537.724 263.654C538.853 264.229 539.771 265.147 540.346 266.276C541 267.56 541 269.24 541 272.6V281.4C541 284.76 541 286.44 540.346 287.724C539.771 288.853 538.853 289.771 537.724 290.346C536.44 291 534.76 291 531.4 291H510.6C507.24 291 505.56 291 504.276 290.346C503.147 289.771 502.229 288.853 501.654 287.724C501 286.44 501 284.76 501 281.4V263ZM515 277L519 281L528 272" stroke="#738297" stroke-width="3" stroke-linecap="round" stroke-linejoin="round"/>
<path d="M521 240V213.24V213.24C521 201.581 511.521 192.316 499.862 192.271C489.882 192.232 477.985 192.197 467.939 192.197L407.987 192.197L302 192.197C296.477 192.197 292 187.719 292 182.197V171" stroke="#738297"/>
<path d="M63 240V213.24V213.24C63 201.581 72.4792 192.316 84.1383 192.271C94.1181 192.232 106.015 192.197 116.061 192.197L176.013 192.197L282 192.197C287.523 192.197 292 187.719 292 182.197V171" stroke="#738297"/>
<path d="M292 170L292 241" stroke="#738297"/>
</svg>
