<svg width="584" height="463" viewBox="0 0 584 463" fill="none" xmlns="http://www.w3.org/2000/svg">
<path d="M0 4.99999C0 2.23856 2.23858 0 5 0H579C581.761 0 584 2.23858 584 5V458C584 460.761 581.761 463 579 463H5.00002C2.23859 463 0 460.761 0 458V4.99999Z" fill="#1A2432"/>
<path d="M5 0.5H579C581.485 0.500013 583.5 2.51473 583.5 5V458C583.5 460.485 581.485 462.5 579 462.5H5C2.51473 462.5 0.500012 460.485 0.5 458V5C0.5 2.51472 2.51472 0.5 5 0.5Z" stroke="#A1BCD1" stroke-opacity="0.2"/>
<path d="M0 4.99999C0 2.23856 2.23858 0 5 0H579C581.761 0 584 2.23858 584 5V458C584 460.761 581.761 463 579 463H5.00002C2.23859 463 0 460.761 0 458V4.99999Z" fill="#A1BCD1" fill-opacity="0.06"/>
<path d="M5 0.5H579C581.485 0.500009 583.5 2.51473 583.5 5V458C583.5 460.485 581.485 462.5 579 462.5H5C2.51472 462.5 0.5 460.485 0.5 458V5C0.5 2.59234 2.39083 0.626321 4.76855 0.505859L5 0.5Z" stroke="#A1BCD1" stroke-opacity="0.7"/>
<circle cx="23" cy="22" r="6" fill="#FE4949"/>
<circle cx="23" cy="22" r="5.5" stroke="#A1BCD1" stroke-opacity="0.7"/>
<ellipse cx="41.5" cy="22" rx="5.5" ry="6" fill="#F7D600"/>
<path d="M41.5 16.5C44.2214 16.5 46.5 18.9206 46.5 22C46.5 25.0794 44.2214 27.5 41.5 27.5C38.7786 27.5 36.5 25.0794 36.5 22C36.5 18.9206 38.7786 16.5 41.5 16.5Z" stroke="#A1BCD1" stroke-opacity="0.7"/>
<circle cx="60" cy="22" r="6" fill="#2ED400"/>
<circle cx="60" cy="22" r="5.5" stroke="#A1BCD1" stroke-opacity="0.7"/>
<path d="M292 127V162.68C292 163.691 292 164.666 292 165.606C292 179.518 280.644 190.638 266.732 190.706C262.85 190.725 258.951 190.738 255.39 190.738L214.026 190.738L144 190.738C138.477 190.738 134 195.215 134 200.738V219" stroke="#A1BCD1" stroke-opacity="0.4"/>
<path d="M292 127V162.68C292 163.691 292 164.666 292 165.606C292 179.518 303.356 190.638 317.268 190.706C321.15 190.725 325.049 190.738 328.61 190.738L369.974 190.738L440 190.738C445.523 190.738 450 195.215 450 200.738V219" stroke="#A1BCD1" stroke-opacity="0.4"/>
<path d="M248 94C248 75.7746 262.775 61 281 61H303C321.225 61 336 75.7746 336 94V94C336 112.225 321.225 127 303 127H281C262.775 127 248 112.225 248 94V94Z" fill="#A1BCD1" fill-opacity="0.06"/>
<path d="M281 61.5H303C320.949 61.5 335.5 76.0507 335.5 94C335.5 111.949 320.949 126.5 303 126.5H281C263.051 126.5 248.5 111.949 248.5 94C248.5 76.0507 263.051 61.5 281 61.5Z" stroke="#A1BCD1" stroke-opacity="0.4"/>
<path d="M298.123 89.3931C300.653 89.3931 302.704 91.4438 302.704 93.9735V106.695C302.704 112.879 297.69 117.893 291.505 117.893C285.32 117.893 280.306 112.879 280.306 106.695V93.9735C280.306 91.4438 282.357 89.3931 284.887 89.3931H298.123ZM298.123 92.4467H284.887C284.044 92.4467 283.36 93.1303 283.36 93.9735V106.695C283.36 111.193 287.007 114.84 291.505 114.84C296.003 114.84 299.65 111.193 299.65 106.695V93.9735C299.65 93.1303 298.966 92.4467 298.123 92.4467ZM271.651 89.3931L280.112 89.3937C279.309 90.2311 278.723 91.2795 278.448 92.4474L271.651 92.4467C270.807 92.4467 270.124 93.1303 270.124 93.9735V104.658C270.124 108.033 272.859 110.768 276.234 110.768C277.131 110.768 277.983 110.575 278.751 110.227C279.023 111.223 279.411 112.173 279.899 113.06C278.777 113.549 277.537 113.822 276.234 113.822C271.173 113.822 267.07 109.719 267.07 104.658V93.9735C267.07 91.4438 269.121 89.3931 271.651 89.3931ZM311.347 89.3931C313.877 89.3931 315.927 91.4438 315.927 93.9735V104.661C315.927 109.72 311.826 113.822 306.767 113.822C305.466 113.822 304.228 113.551 303.107 113.062L303.221 112.856C303.657 112.029 304.007 111.15 304.261 110.231C305.024 110.576 305.873 110.768 306.767 110.768C310.14 110.768 312.874 108.034 312.874 104.661V93.9735C312.874 93.1303 312.19 92.4467 311.347 92.4467L304.562 92.4474C304.287 91.2795 303.701 90.2311 302.898 89.3937L311.347 89.3931ZM291.499 73.1074C295.434 73.1074 298.624 76.2974 298.624 80.2324C298.624 84.1674 295.434 87.3574 291.499 87.3574C287.564 87.3574 284.374 84.1674 284.374 80.2324C284.374 76.2974 287.564 73.1074 291.499 73.1074ZM307.791 75.1431C311.164 75.1431 313.898 77.8774 313.898 81.2503C313.898 84.6232 311.164 87.3574 307.791 87.3574C304.418 87.3574 301.684 84.6232 301.684 81.2503C301.684 77.8774 304.418 75.1431 307.791 75.1431ZM275.207 75.1431C278.58 75.1431 281.314 77.8774 281.314 81.2503C281.314 84.6232 278.58 87.3574 275.207 87.3574C271.834 87.3574 269.1 84.6232 269.1 81.2503C269.1 77.8774 271.834 75.1431 275.207 75.1431ZM291.499 76.161C289.25 76.161 287.427 77.9838 287.427 80.2324C287.427 82.481 289.25 84.3038 291.499 84.3038C293.747 84.3038 295.57 82.481 295.57 80.2324C295.57 77.9838 293.747 76.161 291.499 76.161ZM307.791 78.1967C306.104 78.1967 304.737 79.5638 304.737 81.2503C304.737 82.9367 306.104 84.3038 307.791 84.3038C309.477 84.3038 310.844 82.9367 310.844 81.2503C310.844 79.5638 309.477 78.1967 307.791 78.1967ZM275.207 78.1967C273.521 78.1967 272.154 79.5638 272.154 81.2503C272.154 82.9367 273.521 84.3038 275.207 84.3038C276.894 84.3038 278.261 82.9367 278.261 81.2503C278.261 79.5638 276.894 78.1967 275.207 78.1967Z" fill="white"/>
<path d="M300.461 67.0322C300.469 66.9893 300.531 66.9893 300.539 67.0322C300.995 69.2621 302.738 71.0048 304.968 71.4605C305.011 71.4693 305.011 71.5307 304.968 71.5395C302.738 71.9952 300.995 73.7379 300.539 75.9678C300.531 76.0107 300.469 76.0107 300.461 75.9678C300.005 73.7379 298.262 71.9952 296.032 71.5395C295.989 71.5307 295.989 71.4693 296.032 71.4605C298.262 71.0048 300.005 69.2621 300.461 67.0322Z" fill="#A8CDFF" stroke="#A8CDFF" stroke-width="1.5"/>
<path d="M417 252C417 233.775 431.775 219 450 219V219C468.225 219 483 233.775 483 252V252C483 270.225 468.225 285 450 285V285C431.775 285 417 270.225 417 252V252Z" fill="#A1BCD1" fill-opacity="0.06"/>
<path d="M450 219.5C467.949 219.5 482.5 234.051 482.5 252C482.5 269.949 467.949 284.5 450 284.5C432.051 284.5 417.5 269.949 417.5 252C417.5 234.051 432.051 219.5 450 219.5Z" stroke="#A1BCD1" stroke-opacity="0.4"/>
<path d="M449.997 269.333C460.123 269.333 468.331 261.125 468.331 250.999C468.331 240.874 460.123 232.666 449.997 232.666C439.872 232.666 431.664 240.874 431.664 250.999C431.664 261.125 439.872 269.333 449.997 269.333Z" stroke="white" stroke-width="3" stroke-linecap="round" stroke-linejoin="round"/>
<path d="M457.771 243.226L453.884 254.886L442.224 258.773L446.111 247.113L457.771 243.226Z" stroke="white" stroke-width="3" stroke-linecap="round" stroke-linejoin="round"/>
<path d="M101 252C101 233.775 115.775 219 134 219V219C152.225 219 167 233.775 167 252V252C167 270.225 152.225 285 134 285V285C115.775 285 101 270.225 101 252V252Z" fill="#A1BCD1" fill-opacity="0.06"/>
<path d="M134 219.5C151.949 219.5 166.5 234.051 166.5 252C166.5 269.949 151.949 284.5 134 284.5C116.051 284.5 101.5 269.949 101.5 252C101.5 234.051 116.051 219.5 134 219.5Z" stroke="#A1BCD1" stroke-opacity="0.4"/>
<path d="M127 262.5L114.75 269.5V241.5L127 234.5M127 262.5L141 269.5M127 262.5V234.5M141 269.5L153.25 262.5V234.5L141 241.5M141 269.5V241.5M141 241.5L127 234.5" stroke="white" stroke-width="3" stroke-linecap="round" stroke-linejoin="round"/>
<path d="M259 251C259 232.775 273.775 218 292 218V218C310.225 218 325 232.775 325 251V251C325 269.225 310.225 284 292 284V284C273.775 284 259 269.225 259 251V251Z" fill="#A1BCD1" fill-opacity="0.06"/>
<path d="M292 218.5C309.949 218.5 324.5 233.051 324.5 251C324.5 268.949 309.949 283.5 292 283.5C274.051 283.5 259.5 268.949 259.5 251C259.5 233.051 274.051 218.5 292 218.5Z" stroke="#A1BCD1" stroke-opacity="0.4"/>
<path d="M308.5 267.5L300.525 259.525M290.167 243.667V254.667M284.667 249.167H295.667M304.833 249.167C304.833 257.267 298.267 263.833 290.167 263.833C282.066 263.833 275.5 257.267 275.5 249.167C275.5 241.066 282.066 234.5 290.167 234.5C298.267 234.5 304.833 241.066 304.833 249.167Z" stroke="white" stroke-width="3" stroke-linecap="round" stroke-linejoin="round"/>
<path d="M292 127C292 129.4 292 189 292 218.5" stroke="#A1BCD1" stroke-opacity="0.4"/>
<path d="M292 340.32C292 339.309 292 338.334 292 337.394C292 323.482 280.644 312.362 266.732 312.294C262.85 312.275 258.951 312.262 255.39 312.262L214.026 312.262L144 312.262C138.477 312.262 134 307.785 134 302.262V284" stroke="#A1BCD1" stroke-opacity="0.4"/>
<path d="M292 336V340.32C292 339.309 292 338.334 292 337.394C292 323.482 303.356 312.362 317.268 312.294C321.15 312.275 325.049 312.262 328.61 312.262L369.974 312.262L440 312.262C445.523 312.262 450 307.785 450 302.262V284" stroke="#A1BCD1" stroke-opacity="0.4"/>
<path d="M292 462C292 457.331 292 341.388 292 284" stroke="#A1BCD1" stroke-opacity="0.4"/>
<path d="M292 61C292 59.4525 292 21.0219 292 2" stroke="#A1BCD1" stroke-opacity="0.4"/>
</svg>
