<svg width="584" height="463" viewBox="0 0 584 463" fill="none" xmlns="http://www.w3.org/2000/svg">
<path d="M0 4.99999C0 2.23856 2.23858 0 5 0H579C581.761 0 584 2.23858 584 5V458C584 460.761 581.761 463 579 463H5.00002C2.23859 463 0 460.761 0 458V4.99999Z" fill="#1A2432"/>
<path d="M5 0.5H579C581.485 0.500013 583.5 2.51473 583.5 5V458C583.5 460.485 581.485 462.5 579 462.5H5C2.51473 462.5 0.500012 460.485 0.5 458V5C0.5 2.51472 2.51472 0.5 5 0.5Z" stroke="#A1BCD1" stroke-opacity="0.2"/>
<path d="M0 4.99999C0 2.23856 2.23858 0 5 0H579C581.761 0 584 2.23858 584 5V458C584 460.761 581.761 463 579 463H5.00002C2.23859 463 0 460.761 0 458V4.99999Z" fill="#A1BCD1" fill-opacity="0.06"/>
<path d="M5 0.5H579C581.485 0.500009 583.5 2.51473 583.5 5V458C583.5 460.485 581.485 462.5 579 462.5H5C2.51472 462.5 0.5 460.485 0.5 458V5C0.5 2.59234 2.39083 0.626321 4.76855 0.505859L5 0.5Z" stroke="#A1BCD1" stroke-opacity="0.7"/>
<circle cx="23" cy="22" r="6" fill="#FE4949"/>
<circle cx="23" cy="22" r="5.5" stroke="#A1BCD1" stroke-opacity="0.7"/>
<ellipse cx="41.5" cy="22" rx="5.5" ry="6" fill="#F7D600"/>
<path d="M41.5 16.5C44.2214 16.5 46.5 18.9206 46.5 22C46.5 25.0794 44.2214 27.5 41.5 27.5C38.7786 27.5 36.5 25.0794 36.5 22C36.5 18.9206 38.7786 16.5 41.5 16.5Z" stroke="#A1BCD1" stroke-opacity="0.7"/>
<circle cx="60" cy="22" r="6" fill="#2ED400"/>
<circle cx="60" cy="22" r="5.5" stroke="#A1BCD1" stroke-opacity="0.7"/>
<path d="M376 59C376 40.7746 390.775 26 409 26V26C427.225 26 442 40.7746 442 59V59C442 77.2254 427.225 92 409 92V92C390.775 92 376 77.2254 376 59V59Z" fill="#A1BCD1" fill-opacity="0.06"/>
<path d="M409 26.5C426.949 26.5 441.5 41.0507 441.5 59C441.5 76.9493 426.949 91.5 409 91.5C391.051 91.5 376.5 76.9493 376.5 59C376.5 41.0507 391.051 26.5 409 26.5Z" stroke="#A1BCD1" stroke-opacity="0.4"/>
<path d="M402 66L416 52M403 43V39M415 75V79M393 53H389M425 65H429M394.828 44.8284L392 42M423.172 73.1714L426 75.9998M409 70.3135L404.757 74.5562C401.633 77.6804 396.568 77.6804 393.444 74.5562C390.32 71.432 390.32 66.3667 393.444 63.2425L397.686 58.9998M420.314 58.9998L424.556 54.7572C427.681 51.633 427.681 46.5677 424.556 43.4435C421.432 40.3193 416.367 40.3193 413.243 43.4435L409 47.6861" stroke="white" stroke-width="3" stroke-linecap="round" stroke-linejoin="round"/>
<path d="M260 173C260 154.775 274.775 140 293 140V140C311.225 140 326 154.775 326 173V173C326 191.225 311.225 206 293 206V206C274.775 206 260 191.225 260 173V173Z" fill="#A1BCD1" fill-opacity="0.06"/>
<path d="M293 140.5C310.949 140.5 325.5 155.051 325.5 173C325.5 190.949 310.949 205.5 293 205.5C275.051 205.5 260.5 190.949 260.5 173C260.5 155.051 275.051 140.5 293 140.5Z" stroke="#A1BCD1" stroke-opacity="0.4"/>
<path d="M294.415 185.729L291.587 188.557C287.681 192.463 281.35 192.463 277.445 188.557C273.539 184.652 273.539 178.32 277.445 174.415L280.273 171.587M305.729 174.415L308.557 171.587C312.462 167.681 312.462 161.35 308.557 157.445C304.652 153.539 298.32 153.539 294.415 157.445L291.587 160.273M286.001 180.001L300.001 166.001" stroke="white" stroke-width="3" stroke-linecap="round" stroke-linejoin="round"/>
<path d="M28 288C28 269.775 42.7746 255 61 255V255C79.2254 255 94 269.775 94 288V288C94 306.225 79.2254 321 61 321V321C42.7746 321 28 306.225 28 288V288Z" fill="#A1BCD1" fill-opacity="0.06"/>
<path d="M61 255.5C78.9493 255.5 93.5 270.051 93.5 288C93.5 305.949 78.9493 320.5 61 320.5C43.0507 320.5 28.5 305.949 28.5 288C28.5 270.051 43.0507 255.5 61 255.5Z" stroke="#A1BCD1" stroke-opacity="0.4"/>
<path d="M62.4151 300.729L59.5867 303.557C55.6814 307.463 49.3498 307.463 45.4446 303.557C41.5393 299.652 41.5393 293.32 45.4446 289.415L48.273 286.587M73.7288 289.415L76.5573 286.587C80.4625 282.681 80.4625 276.35 76.5573 272.445C72.652 268.539 66.3204 268.539 62.4151 272.445L59.5867 275.273M54.0009 295.001L68.0009 281.001" stroke="white" stroke-width="3" stroke-linecap="round" stroke-linejoin="round"/>
<path d="M491 59C491 40.7746 505.775 26 524 26V26C542.225 26 557 40.7746 557 59V59C557 77.2254 542.225 92 524 92V92C505.775 92 491 77.2254 491 59V59Z" fill="#A1BCD1" fill-opacity="0.06"/>
<path d="M524 26.5C541.949 26.5 556.5 41.0507 556.5 59C556.5 76.9493 541.949 91.5 524 91.5C506.051 91.5 491.5 76.9493 491.5 59C491.5 41.0507 506.051 26.5 524 26.5Z" stroke="#A1BCD1" stroke-opacity="0.4"/>
<path d="M508 77V63M508 55V41M524 77V59M524 51V41M540 77V67M540 59V41M502 63H514M518 51H530M534 67H546" stroke="white" stroke-width="3" stroke-linecap="round" stroke-linejoin="round"/>
<path d="M144 174C144 155.775 158.775 141 177 141V141C195.225 141 210 155.775 210 174V174C210 192.225 195.225 207 177 207V207C158.775 207 144 192.225 144 174V174Z" fill="#A1BCD1" fill-opacity="0.06"/>
<path d="M177 141.5C194.949 141.5 209.5 156.051 209.5 174C209.5 191.949 194.949 206.5 177 206.5C159.051 206.5 144.5 191.949 144.5 174C144.5 156.051 159.051 141.5 177 141.5Z" stroke="#A1BCD1" stroke-opacity="0.4"/>
<path d="M161 192V178M161 170V156M177 192V174M177 166V156M193 192V182M193 174V156M155 178H167M171 166H183M187 182H199" stroke="white" stroke-width="3" stroke-linecap="round" stroke-linejoin="round"/>
<path d="M144 288C144 269.775 158.775 255 177 255V255C195.225 255 210 269.775 210 288V288C210 306.225 195.225 321 177 321V321C158.775 321 144 306.225 144 288V288Z" fill="#A1BCD1" fill-opacity="0.06"/>
<path d="M177 255.5C194.949 255.5 209.5 270.051 209.5 288C209.5 305.949 194.949 320.5 177 320.5C159.051 320.5 144.5 305.949 144.5 288C144.5 270.051 159.051 255.5 177 255.5Z" stroke="#A1BCD1" stroke-opacity="0.4"/>
<path d="M161 306V292M161 284V270M177 306V288M177 280V270M193 306V296M193 288V270M155 292H167M171 280H183M187 296H199" stroke="white" stroke-width="3" stroke-linecap="round" stroke-linejoin="round"/>
<path d="M61 140.5C78.9493 140.5 93.5 155.051 93.5 173C93.5 190.949 78.9493 205.5 61 205.5C43.0507 205.5 28.5 190.949 28.5 173C28.5 155.051 43.0507 140.5 61 140.5Z" fill="#A1BCD1" fill-opacity="0.06" stroke="#F7D600"/>
<path d="M78.1699 165.834V154.834M78.1699 154.834H67.1699M78.1699 154.834L65.3365 167.667M76.3366 184.021V189.521C76.3386 190.031 76.234 190.537 76.0295 191.004C75.8249 191.472 75.5249 191.892 75.1487 192.237C74.7725 192.583 74.3283 192.845 73.8446 193.009C73.3609 193.173 72.8484 193.233 72.3399 193.187C66.6984 192.574 61.2794 190.647 56.5182 187.559C52.0886 184.744 48.333 180.989 45.5182 176.559C42.4198 171.776 40.4917 166.331 39.8899 160.664C39.8441 160.157 39.9043 159.646 40.0668 159.164C40.2293 158.681 40.4904 158.238 40.8336 157.862C41.1768 157.486 41.5945 157.186 42.0602 156.98C42.5258 156.774 43.0292 156.668 43.5382 156.667H49.0382C49.9279 156.659 50.7905 156.974 51.4651 157.554C52.1397 158.134 52.5804 158.94 52.7049 159.821C52.937 161.581 53.3675 163.309 53.9882 164.972C54.2349 165.629 54.2883 166.342 54.142 167.027C53.9958 167.713 53.6561 168.342 53.1632 168.841L50.8349 171.169C53.4447 175.759 57.245 179.559 61.8349 182.169L64.1632 179.841C64.6617 179.348 65.291 179.008 65.9766 178.862C66.6622 178.716 67.3754 178.769 68.0315 179.016C69.6949 179.636 71.4231 180.067 73.1832 180.299C74.0738 180.425 74.8871 180.873 75.4685 181.559C76.0499 182.246 76.3589 183.122 76.3366 184.021Z" stroke="#F7D600" stroke-width="3" stroke-linecap="round" stroke-linejoin="round"/>
<path d="M293 26.5C310.949 26.5 325.5 41.0507 325.5 59C325.5 76.9493 310.949 91.5 293 91.5C275.051 91.5 260.5 76.9493 260.5 59C260.5 41.0507 275.051 26.5 293 26.5Z" fill="#A1BCD1" fill-opacity="0.06" stroke="#EF1111"/>
<path d="M310.17 51.834V40.834M310.17 40.834H299.17M310.17 40.834L297.337 53.6673M308.337 70.0207V75.5207C308.339 76.0312 308.234 76.5366 308.029 77.0045C307.825 77.4723 307.525 77.8922 307.149 78.2374C306.772 78.5826 306.328 78.8454 305.845 79.0089C305.361 79.1725 304.848 79.2333 304.34 79.1873C298.698 78.5743 293.279 76.6466 288.518 73.559C284.089 70.7442 280.333 66.9886 277.518 62.559C274.42 57.7762 272.492 52.3308 271.89 46.664C271.844 46.157 271.904 45.646 272.067 45.1636C272.229 44.6812 272.49 44.2379 272.834 43.862C273.177 43.486 273.595 43.1856 274.06 42.9799C274.526 42.7743 275.029 42.6678 275.538 42.6673H281.038C281.928 42.6586 282.791 42.9736 283.465 43.5538C284.14 44.134 284.58 44.9396 284.705 45.8207C284.937 47.5808 285.368 49.309 285.988 50.9723C286.235 51.6285 286.288 52.3417 286.142 53.0273C285.996 53.7129 285.656 54.3422 285.163 54.8407L282.835 57.169C285.445 61.7588 289.245 65.5591 293.835 68.169L296.163 65.8407C296.662 65.3477 297.291 65.008 297.977 64.8618C298.662 64.7156 299.375 64.769 300.032 65.0157C301.695 65.6363 303.423 66.0668 305.183 66.299C306.074 66.4246 306.887 66.8732 307.469 67.5594C308.05 68.2456 308.359 69.1215 308.337 70.0207Z" stroke="#EF1111" stroke-width="3" stroke-linecap="round" stroke-linejoin="round"/>
<path d="M409 140.5C426.949 140.5 441.5 155.051 441.5 173C441.5 190.949 426.949 205.5 409 205.5C391.051 205.5 376.5 190.949 376.5 173C376.5 155.051 391.051 140.5 409 140.5Z" fill="#A1BCD1" fill-opacity="0.06" stroke="#F19935"/>
<path d="M427.331 162.001C427.331 159.984 425.681 158.334 423.664 158.334H394.331C392.314 158.334 390.664 159.984 390.664 162.001M427.331 162.001V184.001C427.331 186.017 425.681 187.667 423.664 187.667H394.331C392.314 187.667 390.664 186.017 390.664 184.001V162.001M427.331 162.001L408.997 174.834L390.664 162.001" stroke="#F19935" stroke-width="3" stroke-linecap="round" stroke-linejoin="round"/>
<path d="M260 288C260 269.775 274.775 255 293 255V255C311.225 255 326 269.775 326 288V288C326 306.225 311.225 321 293 321V321C274.775 321 260 306.225 260 288V288Z" fill="#A1BCD1" fill-opacity="0.06"/>
<path d="M293 255.5C310.949 255.5 325.5 270.051 325.5 288C325.5 305.949 310.949 320.5 293 320.5C275.051 320.5 260.5 305.949 260.5 288C260.5 270.051 275.051 255.5 293 255.5Z" stroke="#05CD99" stroke-opacity="0.5"/>
<path d="M311.331 277.001C311.331 274.984 309.681 273.334 307.664 273.334H278.331C276.314 273.334 274.664 274.984 274.664 277.001M311.331 277.001V299.001C311.331 301.017 309.681 302.667 307.664 302.667H278.331C276.314 302.667 274.664 301.017 274.664 299.001V277.001M311.331 277.001L292.997 289.834L274.664 277.001" stroke="#05CD99" stroke-opacity="0.5" stroke-width="3" stroke-linecap="round" stroke-linejoin="round"/>
<path d="M293 371.5C310.949 371.5 325.5 386.051 325.5 404C325.5 421.949 310.949 436.5 293 436.5C275.051 436.5 260.5 421.949 260.5 404C260.5 386.051 275.051 371.5 293 371.5Z" fill="#A1BCD1" fill-opacity="0.06" stroke="#05CD99"/>
<path d="M300.333 384.666V391.999M285.667 384.666V391.999M276.5 399.333H309.5M280.167 388.333H305.833C307.858 388.333 309.5 389.974 309.5 391.999V417.666C309.5 419.691 307.858 421.333 305.833 421.333H280.167C278.142 421.333 276.5 419.691 276.5 417.666V391.999C276.5 389.974 278.142 388.333 280.167 388.333Z" stroke="#05CD99" stroke-width="3" stroke-linecap="round" stroke-linejoin="round"/>
<path d="M326 59H376" stroke="#EF1111"/>
<path d="M442 59H492" stroke="#A1BCD1" stroke-opacity="0.4"/>
<path d="M61 205V255" stroke="#F7D600"/>
<path d="M293 1L293 26" stroke="#A1BCD1" stroke-opacity="0.4"/>
<path d="M293 437V462" stroke="#05CD99"/>
<path d="M293 321V371" stroke="#05CD99" stroke-opacity="0.5"/>
<path d="M326 173H376" stroke="#F19935"/>
<path d="M210 173H260" stroke="#A1BCD1" stroke-opacity="0.4"/>
<path d="M94 173H144" stroke="#A1BCD1" stroke-opacity="0.4"/>
<path d="M94 288H144" stroke="#A1BCD1" stroke-opacity="0.4"/>
<path d="M210 288H260" stroke="#A1BCD1" stroke-opacity="0.4"/>
<path d="M524.495 92L524.938 163.938C524.972 169.485 520.485 174 514.938 174H441.5" stroke="#A1BCD1" stroke-opacity="0.4"/>
</svg>
