<svg width="584" height="463" viewBox="0 0 584 463" fill="none" xmlns="http://www.w3.org/2000/svg">
<path d="M0 4.99999C0 2.23856 2.23858 0 5 0H579C581.761 0 584 2.23858 584 5V458C584 460.761 581.761 463 579 463H5.00002C2.23859 463 0 460.761 0 458V4.99999Z" fill="white"/>
<path d="M5 0.5H579C581.485 0.500013 583.5 2.51473 583.5 5V458C583.5 460.485 581.485 462.5 579 462.5H5C2.51473 462.5 0.500012 460.485 0.5 458V5C0.5 2.51472 2.51472 0.5 5 0.5Z" stroke="#A1BCD1" stroke-opacity="0.2"/>
<path d="M0 4.99999C0 2.23856 2.23858 0 5 0H579C581.761 0 584 2.23858 584 5V458C584 460.761 581.761 463 579 463H5.00002C2.23859 463 0 460.761 0 458V4.99999Z" fill="#A1BCD1" fill-opacity="0.06"/>
<path d="M5 0.5H579C581.485 0.500013 583.5 2.51473 583.5 5V458C583.5 460.485 581.485 462.5 579 462.5H5C2.51473 462.5 0.500012 460.485 0.5 458V5C0.5 2.51472 2.51472 0.5 5 0.5Z" stroke="#A1BCD1" stroke-opacity="0.7"/>
<circle cx="23" cy="22" r="6" fill="#FE4949"/>
<circle cx="23" cy="22" r="5.5" stroke="#A1BCD1" stroke-opacity="0.7"/>
<ellipse cx="41.5" cy="22" rx="5.5" ry="6" fill="#F7D600"/>
<path d="M41.5 16.5C44.2214 16.5 46.5 18.9206 46.5 22C46.5 25.0794 44.2214 27.5 41.5 27.5C38.7786 27.5 36.5 25.0794 36.5 22C36.5 18.9206 38.7786 16.5 41.5 16.5Z" stroke="#A1BCD1" stroke-opacity="0.7"/>
<circle cx="60" cy="22" r="6" fill="#2ED400"/>
<circle cx="60" cy="22" r="5.5" stroke="#A1BCD1" stroke-opacity="0.7"/>
<path d="M292 126V161.68C292 162.691 292 163.666 292 164.606C292 178.518 280.644 189.638 266.732 189.706C262.85 189.725 258.951 189.738 255.39 189.738L214.026 189.738L144 189.738C138.477 189.738 134 194.215 134 199.738V218" stroke="#738297"/>
<path d="M292 126V161.68C292 162.691 292 163.666 292 164.606C292 178.518 303.356 189.638 317.268 189.706C321.15 189.725 325.049 189.738 328.61 189.738L369.974 189.738L440 189.738C445.523 189.738 450 194.215 450 199.738V218" stroke="#738297"/>
<path d="M281 60.5H303C320.949 60.5 335.5 75.0507 335.5 93C335.5 110.949 320.949 125.5 303 125.5H281C263.051 125.5 248.5 110.949 248.5 93C248.5 75.0507 263.051 60.5 281 60.5Z" fill="white" fill-opacity="0.7" stroke="#738297"/>
<path d="M298.123 88.3931C300.653 88.3931 302.704 90.4438 302.704 92.9735V105.695C302.704 111.879 297.69 116.893 291.505 116.893C285.32 116.893 280.306 111.879 280.306 105.695V92.9735C280.306 90.4438 282.357 88.3931 284.887 88.3931H298.123ZM298.123 91.4467H284.887C284.044 91.4467 283.36 92.1303 283.36 92.9735V105.695C283.36 110.193 287.007 113.84 291.505 113.84C296.003 113.84 299.65 110.193 299.65 105.695V92.9735C299.65 92.1303 298.966 91.4467 298.123 91.4467ZM271.651 88.3931L280.112 88.3937C279.309 89.2311 278.723 90.2795 278.448 91.4474L271.651 91.4467C270.807 91.4467 270.124 92.1303 270.124 92.9735V103.658C270.124 107.033 272.859 109.768 276.234 109.768C277.131 109.768 277.983 109.575 278.751 109.227C279.023 110.223 279.411 111.173 279.899 112.06C278.777 112.549 277.537 112.822 276.234 112.822C271.173 112.822 267.07 108.719 267.07 103.658V92.9735C267.07 90.4438 269.121 88.3931 271.651 88.3931ZM311.347 88.3931C313.877 88.3931 315.927 90.4438 315.927 92.9735V103.661C315.927 108.72 311.826 112.822 306.767 112.822C305.466 112.822 304.228 112.551 303.107 112.062L303.221 111.856C303.657 111.029 304.007 110.15 304.261 109.231C305.024 109.576 305.873 109.768 306.767 109.768C310.14 109.768 312.874 107.034 312.874 103.661V92.9735C312.874 92.1303 312.19 91.4467 311.347 91.4467L304.562 91.4474C304.287 90.2795 303.701 89.2311 302.898 88.3937L311.347 88.3931ZM291.499 72.1074C295.434 72.1074 298.624 75.2974 298.624 79.2324C298.624 83.1674 295.434 86.3574 291.499 86.3574C287.564 86.3574 284.374 83.1674 284.374 79.2324C284.374 75.2974 287.564 72.1074 291.499 72.1074ZM307.791 74.1431C311.164 74.1431 313.898 76.8774 313.898 80.2503C313.898 83.6232 311.164 86.3574 307.791 86.3574C304.418 86.3574 301.684 83.6232 301.684 80.2503C301.684 76.8774 304.418 74.1431 307.791 74.1431ZM275.207 74.1431C278.58 74.1431 281.314 76.8774 281.314 80.2503C281.314 83.6232 278.58 86.3574 275.207 86.3574C271.834 86.3574 269.1 83.6232 269.1 80.2503C269.1 76.8774 271.834 74.1431 275.207 74.1431ZM291.499 75.161C289.25 75.161 287.427 76.9838 287.427 79.2324C287.427 81.481 289.25 83.3038 291.499 83.3038C293.747 83.3038 295.57 81.481 295.57 79.2324C295.57 76.9838 293.747 75.161 291.499 75.161ZM307.791 77.1967C306.104 77.1967 304.737 78.5638 304.737 80.2503C304.737 81.9367 306.104 83.3038 307.791 83.3038C309.477 83.3038 310.844 81.9367 310.844 80.2503C310.844 78.5638 309.477 77.1967 307.791 77.1967ZM275.207 77.1967C273.521 77.1967 272.154 78.5638 272.154 80.2503C272.154 81.9367 273.521 83.3038 275.207 83.3038C276.894 83.3038 278.261 81.9367 278.261 80.2503C278.261 78.5638 276.894 77.1967 275.207 77.1967Z" fill="#738297"/>
<path d="M300.461 66.0322C300.469 65.9893 300.531 65.9893 300.539 66.0322C300.995 68.2621 302.738 70.0048 304.968 70.4605C305.011 70.4693 305.011 70.5307 304.968 70.5395C302.738 70.9952 300.995 72.7379 300.539 74.9678C300.531 75.0107 300.469 75.0107 300.461 74.9678C300.005 72.7379 298.262 70.9952 296.032 70.5395C295.989 70.5307 295.989 70.4693 296.032 70.4605C298.262 70.0048 300.005 68.2621 300.461 66.0322Z" fill="#A8CDFF" stroke="#A8CDFF" stroke-width="1.5"/>
<path d="M450 218.5C467.949 218.5 482.5 233.051 482.5 251C482.5 268.949 467.949 283.5 450 283.5C432.051 283.5 417.5 268.949 417.5 251C417.5 233.051 432.051 218.5 450 218.5Z" fill="white" fill-opacity="0.7" stroke="#738297"/>
<path d="M449.997 268.333C460.123 268.333 468.331 260.125 468.331 249.999C468.331 239.874 460.123 231.666 449.997 231.666C439.872 231.666 431.664 239.874 431.664 249.999C431.664 260.125 439.872 268.333 449.997 268.333Z" stroke="#738297" stroke-width="3" stroke-linecap="round" stroke-linejoin="round"/>
<path d="M457.771 242.226L453.884 253.886L442.224 257.773L446.111 246.113L457.771 242.226Z" stroke="#738297" stroke-width="3" stroke-linecap="round" stroke-linejoin="round"/>
<path d="M134 218.5C151.949 218.5 166.5 233.051 166.5 251C166.5 268.949 151.949 283.5 134 283.5C116.051 283.5 101.5 268.949 101.5 251C101.5 233.051 116.051 218.5 134 218.5Z" fill="white" fill-opacity="0.7" stroke="#738297"/>
<path d="M127 261.5L114.75 268.5V240.5L127 233.5M127 261.5L141 268.5M127 261.5V233.5M141 268.5L153.25 261.5V233.5L141 240.5M141 268.5V240.5M141 240.5L127 233.5" stroke="#738297" stroke-width="3" stroke-linecap="round" stroke-linejoin="round"/>
<path d="M292 217.5C309.949 217.5 324.5 232.051 324.5 250C324.5 267.949 309.949 282.5 292 282.5C274.051 282.5 259.5 267.949 259.5 250C259.5 232.051 274.051 217.5 292 217.5Z" fill="white" fill-opacity="0.7" stroke="#738297"/>
<path d="M308.5 266.5L300.525 258.525M290.167 242.667V253.667M284.667 248.167H295.667M304.833 248.167C304.833 256.267 298.267 262.833 290.167 262.833C282.066 262.833 275.5 256.267 275.5 248.167C275.5 240.066 282.066 233.5 290.167 233.5C298.267 233.5 304.833 240.066 304.833 248.167Z" stroke="#738297" stroke-width="3" stroke-linecap="round" stroke-linejoin="round"/>
<path d="M292 126C292 128.4 292 188 292 217.5" stroke="#738297"/>
<path d="M292 375V339.32C292 338.309 292 337.334 292 336.394C292 322.482 280.644 311.362 266.732 311.294C262.85 311.275 258.951 311.262 255.39 311.262L214.026 311.262L144 311.262C138.477 311.262 134 306.785 134 301.262V283" stroke="#738297"/>
<path d="M292 375V339.32C292 338.309 292 337.334 292 336.394C292 322.482 303.356 311.362 317.268 311.294C321.15 311.275 325.049 311.262 328.61 311.262L369.974 311.262L440 311.262C445.523 311.262 450 306.785 450 301.262V283" stroke="#738297"/>
<path d="M292 461C292 456.331 292 340.388 292 283" stroke="#738297"/>
<path d="M292 60C292 58.4525 292 20.0219 292 1" stroke="#738297"/>
</svg>
