<svg width="584" height="463" viewBox="0 0 584 463" fill="none" xmlns="http://www.w3.org/2000/svg">
<path d="M0 4.99999C0 2.23856 2.23858 0 5 0H579C581.761 0 584 2.23858 584 5V458C584 460.761 581.761 463 579 463H5.00002C2.23859 463 0 460.761 0 458V4.99999Z" fill="white"/>
<path d="M5 0.5H579C581.485 0.500013 583.5 2.51473 583.5 5V458C583.5 460.485 581.485 462.5 579 462.5H5C2.51473 462.5 0.500012 460.485 0.5 458V5C0.5 2.51472 2.51472 0.5 5 0.5Z" stroke="#A1BCD1" stroke-opacity="0.2"/>
<path d="M0 4.99999C0 2.23856 2.23858 0 5 0H579C581.761 0 584 2.23858 584 5V458C584 460.761 581.761 463 579 463H5.00002C2.23859 463 0 460.761 0 458V4.99999Z" fill="#A1BCD1" fill-opacity="0.06"/>
<path d="M5 0.5H579C581.485 0.500013 583.5 2.51473 583.5 5V458C583.5 460.485 581.485 462.5 579 462.5H5C2.51473 462.5 0.500012 460.485 0.5 458V5C0.5 2.51472 2.51472 0.5 5 0.5Z" stroke="#A1BCD1" stroke-opacity="0.7"/>
<circle cx="23" cy="22" r="6" fill="#FE4949"/>
<circle cx="23" cy="22" r="5.5" stroke="#A1BCD1" stroke-opacity="0.7"/>
<ellipse cx="41.5" cy="22" rx="5.5" ry="6" fill="#F7D600"/>
<path d="M41.5 16.5C44.2214 16.5 46.5 18.9206 46.5 22C46.5 25.0794 44.2214 27.5 41.5 27.5C38.7786 27.5 36.5 25.0794 36.5 22C36.5 18.9206 38.7786 16.5 41.5 16.5Z" stroke="#A1BCD1" stroke-opacity="0.7"/>
<circle cx="60" cy="22" r="6" fill="#2ED400"/>
<circle cx="60" cy="22" r="5.5" stroke="#A1BCD1" stroke-opacity="0.7"/>
<path d="M408 26.5C425.949 26.5 440.5 41.0507 440.5 59C440.5 76.9493 425.949 91.5 408 91.5C390.051 91.5 375.5 76.9493 375.5 59C375.5 41.0507 390.051 26.5 408 26.5Z" fill="white" fill-opacity="0.7" stroke="#738297"/>
<path d="M401 66L415 52M402 43V39M414 75V79M392 53H388M424 65H428M393.828 44.8284L391 42M422.172 73.1714L425 75.9998M408 70.3135L403.757 74.5562C400.633 77.6804 395.568 77.6804 392.444 74.5562C389.32 71.432 389.32 66.3667 392.444 63.2425L396.686 58.9998M419.314 58.9998L423.556 54.7572C426.681 51.633 426.681 46.5677 423.556 43.4435C420.432 40.3193 415.367 40.3193 412.243 43.4435L408 47.6861" stroke="#738297" stroke-width="3" stroke-linecap="round" stroke-linejoin="round"/>
<path d="M292 140.5C309.949 140.5 324.5 155.051 324.5 173C324.5 190.949 309.949 205.5 292 205.5C274.051 205.5 259.5 190.949 259.5 173C259.5 155.051 274.051 140.5 292 140.5Z" fill="white" fill-opacity="0.7" stroke="#738297"/>
<path d="M293.415 185.729L290.587 188.557C286.681 192.463 280.35 192.463 276.445 188.557C272.539 184.652 272.539 178.32 276.445 174.415L279.273 171.587M304.729 174.415L307.557 171.587C311.462 167.681 311.462 161.35 307.557 157.445C303.652 153.539 297.32 153.539 293.415 157.445L290.587 160.273M285.001 180.001L299.001 166.001" stroke="#738297" stroke-width="3" stroke-linecap="round" stroke-linejoin="round"/>
<path d="M60 255.5C77.9493 255.5 92.5 270.051 92.5 288C92.5 305.949 77.9493 320.5 60 320.5C42.0507 320.5 27.5 305.949 27.5 288C27.5 270.051 42.0507 255.5 60 255.5Z" fill="white" fill-opacity="0.7" stroke="#738297"/>
<path d="M61.4151 300.729L58.5867 303.557C54.6814 307.463 48.3498 307.463 44.4446 303.557C40.5393 299.652 40.5393 293.32 44.4446 289.415L47.273 286.587M72.7288 289.415L75.5573 286.587C79.4625 282.681 79.4625 276.35 75.5573 272.445C71.652 268.539 65.3204 268.539 61.4151 272.445L58.5867 275.273M53.0009 295.001L67.0009 281.001" stroke="#738297" stroke-width="3" stroke-linecap="round" stroke-linejoin="round"/>
<path d="M523 26.5C540.949 26.5 555.5 41.0507 555.5 59C555.5 76.9493 540.949 91.5 523 91.5C505.051 91.5 490.5 76.9493 490.5 59C490.5 41.0507 505.051 26.5 523 26.5Z" fill="white" fill-opacity="0.7" stroke="#738297"/>
<path d="M507 77V63M507 55V41M523 77V59M523 51V41M539 77V67M539 59V41M501 63H513M517 51H529M533 67H545" stroke="#738297" stroke-width="3" stroke-linecap="round" stroke-linejoin="round"/>
<path d="M176 141.5C193.949 141.5 208.5 156.051 208.5 174C208.5 191.949 193.949 206.5 176 206.5C158.051 206.5 143.5 191.949 143.5 174C143.5 156.051 158.051 141.5 176 141.5Z" fill="white" fill-opacity="0.7" stroke="#738297"/>
<path d="M160 192V178M160 170V156M176 192V174M176 166V156M192 192V182M192 174V156M154 178H166M170 166H182M186 182H198" stroke="#738297" stroke-width="3" stroke-linecap="round" stroke-linejoin="round"/>
<path d="M176 255.5C193.949 255.5 208.5 270.051 208.5 288C208.5 305.949 193.949 320.5 176 320.5C158.051 320.5 143.5 305.949 143.5 288C143.5 270.051 158.051 255.5 176 255.5Z" fill="white" fill-opacity="0.7" stroke="#738297"/>
<path d="M160 306V292M160 284V270M176 306V288M176 280V270M192 306V296M192 288V270M154 292H166M170 280H182M186 296H198" stroke="#738297" stroke-width="3" stroke-linecap="round" stroke-linejoin="round"/>
<path d="M60 140.5C77.9493 140.5 92.5 155.051 92.5 173C92.5 190.949 77.9493 205.5 60 205.5C42.0507 205.5 27.5 190.949 27.5 173C27.5 155.051 42.0507 140.5 60 140.5Z" fill="white" fill-opacity="0.7" stroke="#F7D600"/>
<path d="M77.1699 165.834V154.834M77.1699 154.834H66.1699M77.1699 154.834L64.3365 167.667M75.3366 184.021V189.521C75.3386 190.031 75.234 190.537 75.0295 191.004C74.8249 191.472 74.5249 191.892 74.1487 192.237C73.7725 192.583 73.3283 192.845 72.8446 193.009C72.3609 193.173 71.8484 193.233 71.3399 193.187C65.6984 192.574 60.2794 190.647 55.5182 187.559C51.0886 184.744 47.333 180.989 44.5182 176.559C41.4198 171.776 39.4917 166.331 38.8899 160.664C38.8441 160.157 38.9043 159.646 39.0668 159.164C39.2293 158.681 39.4904 158.238 39.8336 157.862C40.1768 157.486 40.5945 157.186 41.0602 156.98C41.5258 156.774 42.0292 156.668 42.5382 156.667H48.0382C48.9279 156.659 49.7905 156.974 50.4651 157.554C51.1397 158.134 51.5804 158.94 51.7049 159.821C51.937 161.581 52.3675 163.309 52.9882 164.972C53.2349 165.629 53.2883 166.342 53.142 167.027C52.9958 167.713 52.6561 168.342 52.1632 168.841L49.8349 171.169C52.4447 175.759 56.245 179.559 60.8349 182.169L63.1632 179.841C63.6617 179.348 64.291 179.008 64.9766 178.862C65.6622 178.716 66.3754 178.769 67.0315 179.016C68.6949 179.636 70.4231 180.067 72.1832 180.299C73.0738 180.425 73.8871 180.873 74.4685 181.559C75.0499 182.246 75.3589 183.122 75.3366 184.021Z" stroke="#F7D600" stroke-width="3" stroke-linecap="round" stroke-linejoin="round"/>
<path d="M292 26.5C309.949 26.5 324.5 41.0507 324.5 59C324.5 76.9493 309.949 91.5 292 91.5C274.051 91.5 259.5 76.9493 259.5 59C259.5 41.0507 274.051 26.5 292 26.5Z" fill="white" fill-opacity="0.7" stroke="#EF1111"/>
<path d="M309.17 51.834V40.834M309.17 40.834H298.17M309.17 40.834L296.337 53.6673M307.337 70.0207V75.5207C307.339 76.0312 307.234 76.5366 307.029 77.0045C306.825 77.4723 306.525 77.8922 306.149 78.2374C305.772 78.5826 305.328 78.8454 304.845 79.0089C304.361 79.1725 303.848 79.2333 303.34 79.1873C297.698 78.5743 292.279 76.6466 287.518 73.559C283.089 70.7442 279.333 66.9886 276.518 62.559C273.42 57.7762 271.492 52.3308 270.89 46.664C270.844 46.157 270.904 45.646 271.067 45.1636C271.229 44.6812 271.49 44.2379 271.834 43.862C272.177 43.486 272.595 43.1856 273.06 42.9799C273.526 42.7743 274.029 42.6678 274.538 42.6673H280.038C280.928 42.6586 281.791 42.9736 282.465 43.5538C283.14 44.134 283.58 44.9396 283.705 45.8207C283.937 47.5808 284.368 49.309 284.988 50.9723C285.235 51.6285 285.288 52.3417 285.142 53.0273C284.996 53.7129 284.656 54.3422 284.163 54.8407L281.835 57.169C284.445 61.7588 288.245 65.5591 292.835 68.169L295.163 65.8407C295.662 65.3477 296.291 65.008 296.977 64.8618C297.662 64.7156 298.375 64.769 299.032 65.0157C300.695 65.6363 302.423 66.0668 304.183 66.299C305.074 66.4246 305.887 66.8732 306.469 67.5594C307.05 68.2456 307.359 69.1215 307.337 70.0207Z" stroke="#EF1111" stroke-width="3" stroke-linecap="round" stroke-linejoin="round"/>
<path d="M408 140.5C425.949 140.5 440.5 155.051 440.5 173C440.5 190.949 425.949 205.5 408 205.5C390.051 205.5 375.5 190.949 375.5 173C375.5 155.051 390.051 140.5 408 140.5Z" fill="white" fill-opacity="0.7" stroke="#F19935"/>
<path d="M426.331 162.001C426.331 159.984 424.681 158.334 422.664 158.334H393.331C391.314 158.334 389.664 159.984 389.664 162.001M426.331 162.001V184.001C426.331 186.017 424.681 187.667 422.664 187.667H393.331C391.314 187.667 389.664 186.017 389.664 184.001V162.001M426.331 162.001L407.997 174.834L389.664 162.001" stroke="#F19935" stroke-width="3" stroke-linecap="round" stroke-linejoin="round"/>
<path d="M259 288C259 269.775 273.775 255 292 255V255C310.225 255 325 269.775 325 288V288C325 306.225 310.225 321 292 321V321C273.775 321 259 306.225 259 288V288Z" fill="white" fill-opacity="0.7"/>
<path d="M292 255.5C309.949 255.5 324.5 270.051 324.5 288C324.5 305.949 309.949 320.5 292 320.5C274.051 320.5 259.5 305.949 259.5 288C259.5 270.051 274.051 255.5 292 255.5Z" stroke="#05CD99" stroke-opacity="0.5"/>
<path d="M310.331 277.001C310.331 274.984 308.681 273.334 306.664 273.334H277.331C275.314 273.334 273.664 274.984 273.664 277.001M310.331 277.001V299.001C310.331 301.017 308.681 302.667 306.664 302.667H277.331C275.314 302.667 273.664 301.017 273.664 299.001V277.001M310.331 277.001L291.997 289.834L273.664 277.001" stroke="#05CD99" stroke-opacity="0.5" stroke-width="3" stroke-linecap="round" stroke-linejoin="round"/>
<path d="M292 371.5C309.949 371.5 324.5 386.051 324.5 404C324.5 421.949 309.949 436.5 292 436.5C274.051 436.5 259.5 421.949 259.5 404C259.5 386.051 274.051 371.5 292 371.5Z" fill="white" fill-opacity="0.7" stroke="#05CD99"/>
<path d="M299.333 384.666V391.999M284.667 384.666V391.999M275.5 399.333H308.5M279.167 388.333H304.833C306.858 388.333 308.5 389.974 308.5 391.999V417.666C308.5 419.691 306.858 421.333 304.833 421.333H279.167C277.142 421.333 275.5 419.691 275.5 417.666V391.999C275.5 389.974 277.142 388.333 279.167 388.333Z" stroke="#05CD99" stroke-width="3" stroke-linecap="round" stroke-linejoin="round"/>
<path d="M325 59H375" stroke="#EF1111"/>
<path d="M441 59H491" stroke="#738297"/>
<path d="M60 205V255" stroke="#F7D600"/>
<path d="M292 1L292 26" stroke="#738297"/>
<path d="M292 437V462" stroke="#05CD99"/>
<path d="M292 321V371" stroke="#05CD99" stroke-opacity="0.5"/>
<path d="M325 173H375" stroke="#F19935"/>
<path d="M209 173H259" stroke="#738297"/>
<path d="M93 173H143" stroke="#738297"/>
<path d="M93 288H143" stroke="#738297"/>
<path d="M209 288H259" stroke="#738297"/>
<path d="M523.495 92L523.938 163.938C523.972 169.485 519.485 174 513.938 174H440.5" stroke="#738297"/>
</svg>
