<svg width="394" height="399" viewBox="0 0 394 399" fill="none" xmlns="http://www.w3.org/2000/svg">
<circle cx="185.5" cy="213.5" r="185" stroke="#A1BCD1" stroke-opacity="0.7"/>
<circle cx="185.5" cy="213.5" r="135" stroke="#A1BCD1" stroke-opacity="0.7"/>
<circle cx="185.5" cy="213.5" r="92" stroke="#A1BCD1" stroke-opacity="0.7"/>
<path d="M142 214C142 195.775 156.775 181 175 181H197C215.225 181 230 195.775 230 214V214C230 232.225 215.225 247 197 247H175C156.775 247 142 232.225 142 214V214Z" fill="#485A73"/>
<path d="M175 181.5H197C214.949 181.5 229.5 196.051 229.5 214C229.5 231.949 214.949 246.5 197 246.5H175C157.051 246.5 142.5 231.949 142.5 214C142.5 196.051 157.051 181.5 175 181.5Z" stroke="#A1BCD1" stroke-opacity="0.4"/>
<path d="M192.123 209.393C194.653 209.393 196.704 211.444 196.704 213.973V226.695C196.704 232.879 191.69 237.893 185.505 237.893C179.32 237.893 174.306 232.879 174.306 226.695V213.973C174.306 211.444 176.357 209.393 178.887 209.393H192.123ZM192.123 212.447H178.887C178.044 212.447 177.36 213.13 177.36 213.973V226.695C177.36 231.193 181.007 234.84 185.505 234.84C190.003 234.84 193.65 231.193 193.65 226.695V213.973C193.65 213.13 192.966 212.447 192.123 212.447ZM165.651 209.393L174.112 209.394C173.309 210.231 172.723 211.279 172.448 212.447L165.651 212.447C164.807 212.447 164.124 213.13 164.124 213.973V224.658C164.124 228.033 166.859 230.768 170.234 230.768C171.131 230.768 171.983 230.575 172.751 230.227C173.023 231.223 173.411 232.173 173.899 233.06C172.777 233.549 171.537 233.822 170.234 233.822C165.173 233.822 161.07 229.719 161.07 224.658V213.973C161.07 211.444 163.121 209.393 165.651 209.393ZM205.347 209.393C207.877 209.393 209.927 211.444 209.927 213.973V224.661C209.927 229.72 205.826 233.822 200.767 233.822C199.466 233.822 198.228 233.551 197.107 233.062L197.221 232.856C197.657 232.029 198.007 231.15 198.261 230.231C199.024 230.576 199.873 230.768 200.767 230.768C204.14 230.768 206.874 228.034 206.874 224.661V213.973C206.874 213.13 206.19 212.447 205.347 212.447L198.562 212.447C198.287 211.279 197.701 210.231 196.898 209.394L205.347 209.393ZM185.499 193.107C189.434 193.107 192.624 196.297 192.624 200.232C192.624 204.167 189.434 207.357 185.499 207.357C181.564 207.357 178.374 204.167 178.374 200.232C178.374 196.297 181.564 193.107 185.499 193.107ZM201.791 195.143C205.164 195.143 207.898 197.877 207.898 201.25C207.898 204.623 205.164 207.357 201.791 207.357C198.418 207.357 195.684 204.623 195.684 201.25C195.684 197.877 198.418 195.143 201.791 195.143ZM169.207 195.143C172.58 195.143 175.314 197.877 175.314 201.25C175.314 204.623 172.58 207.357 169.207 207.357C165.834 207.357 163.1 204.623 163.1 201.25C163.1 197.877 165.834 195.143 169.207 195.143ZM185.499 196.161C183.25 196.161 181.427 197.984 181.427 200.232C181.427 202.481 183.25 204.304 185.499 204.304C187.747 204.304 189.57 202.481 189.57 200.232C189.57 197.984 187.747 196.161 185.499 196.161ZM201.791 198.197C200.104 198.197 198.737 199.564 198.737 201.25C198.737 202.937 200.104 204.304 201.791 204.304C203.477 204.304 204.844 202.937 204.844 201.25C204.844 199.564 203.477 198.197 201.791 198.197ZM169.207 198.197C167.521 198.197 166.154 199.564 166.154 201.25C166.154 202.937 167.521 204.304 169.207 204.304C170.894 204.304 172.261 202.937 172.261 201.25C172.261 199.564 170.894 198.197 169.207 198.197Z" fill="white"/>
<path d="M194.461 187.032C194.469 186.989 194.531 186.989 194.539 187.032C194.995 189.262 196.738 191.005 198.968 191.461C199.011 191.469 199.011 191.531 198.968 191.539C196.738 191.995 194.995 193.738 194.539 195.968C194.531 196.011 194.469 196.011 194.461 195.968C194.005 193.738 192.262 191.995 190.032 191.539C189.989 191.531 189.989 191.469 190.032 191.461C192.262 191.005 194.005 189.262 194.461 187.032Z" fill="#A8CDFF" stroke="#A8CDFF" stroke-width="1.5"/>
<path d="M157 300C157 281.775 171.775 267 190 267V267C208.225 267 223 281.775 223 300V300C223 318.225 208.225 333 190 333V333C171.775 333 157 318.225 157 300V300Z" fill="#485A73"/>
<path d="M190 267.5C207.949 267.5 222.5 282.051 222.5 300C222.5 317.949 207.949 332.5 190 332.5C172.051 332.5 157.5 317.949 157.5 300C157.5 282.051 172.051 267.5 190 267.5Z" stroke="#A1BCD1" stroke-opacity="0.4"/>
<path d="M171.664 281.666L198.247 288.083L200.997 301.833L191.831 310.999L178.081 308.249L171.664 281.666ZM171.664 281.666L185.572 295.574M189.997 312.833L202.831 299.999L208.331 305.499L195.497 318.333L189.997 312.833ZM191.831 298.166C191.831 300.191 190.189 301.833 188.164 301.833C186.139 301.833 184.497 300.191 184.497 298.166C184.497 296.141 186.139 294.499 188.164 294.499C190.189 294.499 191.831 296.141 191.831 298.166Z" stroke="white" stroke-width="3" stroke-linecap="round" stroke-linejoin="round"/>
<path d="M27 154C27 135.775 41.7746 121 60 121V121C78.2254 121 93 135.775 93 154V154C93 172.225 78.2254 187 60 187V187C41.7746 187 27 172.225 27 154V154Z" fill="#485A73"/>
<path d="M60 121.5C77.9493 121.5 92.5 136.051 92.5 154C92.5 171.949 77.9493 186.5 60 186.5C42.0507 186.5 27.5 171.949 27.5 154C27.5 136.051 42.0507 121.5 60 121.5Z" stroke="#A1BCD1" stroke-opacity="0.4"/>
<path d="M59.1641 139.332H46.3307C45.3583 139.332 44.4256 139.719 43.738 140.406C43.0504 141.094 42.6641 142.027 42.6641 142.999V168.666C42.6641 169.638 43.0504 170.571 43.738 171.259C44.4256 171.946 45.3583 172.332 46.3307 172.332H71.9974C72.9699 172.332 73.9025 171.946 74.5901 171.259C75.2778 170.571 75.6641 169.638 75.6641 168.666V155.832M72.9141 136.582C73.6434 135.853 74.6326 135.443 75.6641 135.443C76.6955 135.443 77.6847 135.853 78.4141 136.582C79.1434 137.312 79.5532 138.301 79.5532 139.332C79.5532 140.364 79.1434 141.353 78.4141 142.082L60.9974 159.499L53.6641 161.332L55.4974 153.999L72.9141 136.582Z" stroke="white" stroke-width="3" stroke-linecap="round" stroke-linejoin="round"/>
<path d="M124 33C124 14.7746 138.775 0 157 0V0C175.225 0 190 14.7746 190 33V33C190 51.2254 175.225 66 157 66V66C138.775 66 124 51.2254 124 33V33Z" fill="#485A73"/>
<path d="M157 0.5C174.949 0.5 189.5 15.0507 189.5 33C189.5 50.9493 174.949 65.5 157 65.5C139.051 65.5 124.5 50.9493 124.5 33C124.5 15.0507 139.051 0.5 157 0.5Z" stroke="#A1BCD1" stroke-opacity="0.4"/>
<path d="M156.997 51.3327C167.123 51.3327 175.331 43.1246 175.331 32.9993C175.331 22.8741 167.123 14.666 156.997 14.666C146.872 14.666 138.664 22.8741 138.664 32.9993C138.664 43.1246 146.872 51.3327 156.997 51.3327Z" stroke="white" stroke-width="3" stroke-linecap="round" stroke-linejoin="round"/>
<path d="M164.771 25.226L160.884 36.886L149.224 40.7727L153.111 29.1127L164.771 25.226Z" stroke="white" stroke-width="3" stroke-linecap="round" stroke-linejoin="round"/>
<path d="M0 316C0 297.775 14.7746 283 33 283V283C51.2254 283 66 297.775 66 316V316C66 334.225 51.2254 349 33 349V349C14.7746 349 0 334.225 0 316V316Z" fill="#485A73"/>
<path d="M33 283.5C50.9493 283.5 65.5 298.051 65.5 316C65.5 333.949 50.9493 348.5 33 348.5C15.0507 348.5 0.5 333.949 0.5 316C0.500001 298.051 15.0507 283.5 33 283.5Z" stroke="#A1BCD1" stroke-opacity="0.4"/>
<path d="M53.1693 328.833C53.1693 329.806 52.783 330.738 52.0953 331.426C51.4077 332.114 50.4751 332.5 49.5026 332.5H16.5026C15.5301 332.5 14.5975 332.114 13.9099 331.426C13.2222 330.738 12.8359 329.806 12.8359 328.833V308.667C12.8359 307.694 13.2222 306.762 13.9099 306.074C14.5975 305.386 15.5301 305 16.5026 305H23.8359L27.5026 299.5H38.5026L42.1693 305H49.5026C50.4751 305 51.4077 305.386 52.0953 306.074C52.783 306.762 53.1693 307.694 53.1693 308.667V328.833Z" stroke="white" stroke-width="3" stroke-linecap="round" stroke-linejoin="round"/>
<path d="M33.0026 325.167C37.0527 325.167 40.3359 321.883 40.3359 317.833C40.3359 313.783 37.0527 310.5 33.0026 310.5C28.9525 310.5 25.6693 313.783 25.6693 317.833C25.6693 321.883 28.9525 325.167 33.0026 325.167Z" stroke="white" stroke-width="3" stroke-linecap="round" stroke-linejoin="round"/>
<path d="M328 143C328 124.775 342.775 110 361 110V110C379.225 110 394 124.775 394 143V143C394 161.225 379.225 176 361 176V176C342.775 176 328 161.225 328 143V143Z" fill="#485A73"/>
<path d="M361 110.5C378.949 110.5 393.5 125.051 393.5 143C393.5 160.949 378.949 175.5 361 175.5C343.051 175.5 328.5 160.949 328.5 143C328.5 125.051 343.051 110.5 361 110.5Z" stroke="#A1BCD1" stroke-opacity="0.4"/>
<path d="M360.997 135.833C360.997 133.888 360.225 132.023 358.85 130.648C357.474 129.273 355.609 128.5 353.664 128.5H342.664V156H355.497C356.956 156 358.355 156.579 359.386 157.611C360.418 158.642 360.997 160.041 360.997 161.5M360.997 135.833V161.5M360.997 135.833C360.997 133.888 361.77 132.023 363.145 130.648C364.521 129.273 366.386 128.5 368.331 128.5H379.331V156H366.497C365.039 156 363.64 156.579 362.608 157.611C361.577 158.642 360.997 160.041 360.997 161.5" stroke="white" stroke-width="3" stroke-linecap="round" stroke-linejoin="round"/>
<path d="M262 292C262 273.775 276.775 259 295 259V259C313.225 259 328 273.775 328 292V292C328 310.225 313.225 325 295 325V325C276.775 325 262 310.225 262 292V292Z" fill="#485A73"/>
<path d="M295 259.5C312.949 259.5 327.5 274.051 327.5 292C327.5 309.949 312.949 324.5 295 324.5C277.051 324.5 262.5 309.949 262.5 292C262.5 274.051 277.051 259.5 295 259.5Z" stroke="#A1BCD1" stroke-opacity="0.4"/>
<path d="M311.5 297.5V304.833C311.5 305.806 311.114 306.738 310.426 307.426C309.738 308.114 308.806 308.5 307.833 308.5H282.167C281.194 308.5 280.262 308.114 279.574 307.426C278.886 306.738 278.5 305.806 278.5 304.833V297.5M304.167 284.667L295 275.5M295 275.5L285.833 284.667M295 275.5V297.5" stroke="white" stroke-width="3" stroke-linecap="round" stroke-linejoin="round"/>
</svg>
