<svg width="429" height="429" viewBox="0 0 429 429" fill="none" xmlns="http://www.w3.org/2000/svg">
<g filter="url(#filter0_d_0_1)">
<circle cx="214.5" cy="214.5" r="185" stroke="#A1BCD1" stroke-opacity="0.7" shape-rendering="crispEdges"/>
</g>
<g filter="url(#filter1_d_0_1)">
<circle cx="214.5" cy="214.5" r="135" stroke="#A1BCD1" stroke-opacity="0.7" shape-rendering="crispEdges"/>
</g>
<g filter="url(#filter2_d_0_1)">
<circle cx="214.5" cy="214.5" r="92" stroke="#A1BCD1" stroke-opacity="0.7" shape-rendering="crispEdges"/>
</g>
<path d="M204 182.5H226C243.949 182.5 258.5 197.051 258.5 215C258.5 232.949 243.949 247.5 226 247.5H204C186.051 247.5 171.5 232.949 171.5 215C171.5 197.051 186.051 182.5 204 182.5Z" fill="#EDF1F5" stroke="#A1BCD1"/>
<path d="M221.123 210.393C223.653 210.393 225.704 212.444 225.704 214.973V227.695C225.704 233.879 220.69 238.893 214.505 238.893C208.32 238.893 203.306 233.879 203.306 227.695V214.973C203.306 212.444 205.357 210.393 207.887 210.393H221.123ZM221.123 213.447H207.887C207.044 213.447 206.36 214.13 206.36 214.973V227.695C206.36 232.193 210.007 235.84 214.505 235.84C219.003 235.84 222.65 232.193 222.65 227.695V214.973C222.65 214.13 221.966 213.447 221.123 213.447ZM194.651 210.393L203.112 210.394C202.309 211.231 201.723 212.279 201.448 213.447L194.651 213.447C193.807 213.447 193.124 214.13 193.124 214.973V225.658C193.124 229.033 195.859 231.768 199.234 231.768C200.131 231.768 200.983 231.575 201.751 231.227C202.023 232.223 202.411 233.173 202.899 234.06C201.777 234.549 200.537 234.822 199.234 234.822C194.173 234.822 190.07 230.719 190.07 225.658V214.973C190.07 212.444 192.121 210.393 194.651 210.393ZM234.347 210.393C236.877 210.393 238.927 212.444 238.927 214.973V225.661C238.927 230.72 234.826 234.822 229.767 234.822C228.466 234.822 227.228 234.551 226.107 234.062L226.221 233.856C226.657 233.029 227.007 232.15 227.261 231.231C228.024 231.576 228.873 231.768 229.767 231.768C233.14 231.768 235.874 229.034 235.874 225.661V214.973C235.874 214.13 235.19 213.447 234.347 213.447L227.562 213.447C227.287 212.279 226.701 211.231 225.898 210.394L234.347 210.393ZM214.499 194.107C218.434 194.107 221.624 197.297 221.624 201.232C221.624 205.167 218.434 208.357 214.499 208.357C210.564 208.357 207.374 205.167 207.374 201.232C207.374 197.297 210.564 194.107 214.499 194.107ZM230.791 196.143C234.164 196.143 236.898 198.877 236.898 202.25C236.898 205.623 234.164 208.357 230.791 208.357C227.418 208.357 224.684 205.623 224.684 202.25C224.684 198.877 227.418 196.143 230.791 196.143ZM198.207 196.143C201.58 196.143 204.314 198.877 204.314 202.25C204.314 205.623 201.58 208.357 198.207 208.357C194.834 208.357 192.1 205.623 192.1 202.25C192.1 198.877 194.834 196.143 198.207 196.143ZM214.499 197.161C212.25 197.161 210.427 198.984 210.427 201.232C210.427 203.481 212.25 205.304 214.499 205.304C216.747 205.304 218.57 203.481 218.57 201.232C218.57 198.984 216.747 197.161 214.499 197.161ZM230.791 199.197C229.104 199.197 227.737 200.564 227.737 202.25C227.737 203.937 229.104 205.304 230.791 205.304C232.477 205.304 233.844 203.937 233.844 202.25C233.844 200.564 232.477 199.197 230.791 199.197ZM198.207 199.197C196.521 199.197 195.154 200.564 195.154 202.25C195.154 203.937 196.521 205.304 198.207 205.304C199.894 205.304 201.261 203.937 201.261 202.25C201.261 200.564 199.894 199.197 198.207 199.197Z" fill="#738297"/>
<path d="M223.461 188.032C223.469 187.989 223.531 187.989 223.539 188.032C223.995 190.262 225.738 192.005 227.968 192.461C228.011 192.469 228.011 192.531 227.968 192.539C225.738 192.995 223.995 194.738 223.539 196.968C223.531 197.011 223.469 197.011 223.461 196.968C223.005 194.738 221.262 192.995 219.032 192.539C218.989 192.531 218.989 192.469 219.032 192.461C221.262 192.005 223.005 190.262 223.461 188.032Z" fill="#A8CDFF" stroke="#A8CDFF" stroke-width="1.5"/>
<path d="M219 268.5C236.949 268.5 251.5 283.051 251.5 301C251.5 318.949 236.949 333.5 219 333.5C201.051 333.5 186.5 318.949 186.5 301C186.5 283.051 201.051 268.5 219 268.5Z" fill="#EDF1F5" stroke="#A1BCD1"/>
<path d="M200.664 282.666L227.247 289.083L229.997 302.833L220.831 311.999L207.081 309.249L200.664 282.666ZM200.664 282.666L214.572 296.574M218.997 313.833L231.831 300.999L237.331 306.499L224.497 319.333L218.997 313.833ZM220.831 299.166C220.831 301.191 219.189 302.833 217.164 302.833C215.139 302.833 213.497 301.191 213.497 299.166C213.497 297.141 215.139 295.499 217.164 295.499C219.189 295.499 220.831 297.141 220.831 299.166Z" stroke="#738297" stroke-width="3" stroke-linecap="round" stroke-linejoin="round"/>
<path d="M89 122.5C106.949 122.5 121.5 137.051 121.5 155C121.5 172.949 106.949 187.5 89 187.5C71.0507 187.5 56.5 172.949 56.5 155C56.5 137.051 71.0507 122.5 89 122.5Z" fill="#EDF1F5" stroke="#A1BCD1"/>
<path d="M88.1641 140.332H75.3307C74.3583 140.332 73.4256 140.719 72.738 141.406C72.0504 142.094 71.6641 143.027 71.6641 143.999V169.666C71.6641 170.638 72.0504 171.571 72.738 172.259C73.4256 172.946 74.3583 173.332 75.3307 173.332H100.997C101.97 173.332 102.902 172.946 103.59 172.259C104.278 171.571 104.664 170.638 104.664 169.666V156.832M101.914 137.582C102.643 136.853 103.633 136.443 104.664 136.443C105.696 136.443 106.685 136.853 107.414 137.582C108.143 138.312 108.553 139.301 108.553 140.332C108.553 141.364 108.143 142.353 107.414 143.082L89.9974 160.499L82.6641 162.332L84.4974 154.999L101.914 137.582Z" stroke="#738297" stroke-width="3" stroke-linecap="round" stroke-linejoin="round"/>
<path d="M186 1.5C203.949 1.5 218.5 16.0507 218.5 34C218.5 51.9493 203.949 66.5 186 66.5C168.051 66.5 153.5 51.9493 153.5 34C153.5 16.0507 168.051 1.5 186 1.5Z" fill="#EDF1F5" stroke="#A1BCD1"/>
<path d="M185.997 52.3327C196.123 52.3327 204.331 44.1246 204.331 33.9993C204.331 23.8741 196.123 15.666 185.997 15.666C175.872 15.666 167.664 23.8741 167.664 33.9993C167.664 44.1246 175.872 52.3327 185.997 52.3327Z" stroke="#738297" stroke-width="3" stroke-linecap="round" stroke-linejoin="round"/>
<path d="M193.771 26.226L189.884 37.886L178.224 41.7727L182.111 30.1127L193.771 26.226Z" stroke="#738297" stroke-width="3" stroke-linecap="round" stroke-linejoin="round"/>
<path d="M62 284.5C79.9493 284.5 94.5 299.051 94.5 317C94.5 334.949 79.9493 349.5 62 349.5C44.0507 349.5 29.5 334.949 29.5 317C29.5 299.051 44.0507 284.5 62 284.5Z" fill="#EDF1F5" stroke="#A1BCD1"/>
<path d="M82.1693 329.833C82.1693 330.806 81.783 331.738 81.0953 332.426C80.4077 333.114 79.4751 333.5 78.5026 333.5H45.5026C44.5301 333.5 43.5975 333.114 42.9099 332.426C42.2222 331.738 41.8359 330.806 41.8359 329.833V309.667C41.8359 308.694 42.2222 307.762 42.9099 307.074C43.5975 306.386 44.5301 306 45.5026 306H52.8359L56.5026 300.5H67.5026L71.1693 306H78.5026C79.4751 306 80.4077 306.386 81.0953 307.074C81.783 307.762 82.1693 308.694 82.1693 309.667V329.833Z" stroke="#738297" stroke-width="3" stroke-linecap="round" stroke-linejoin="round"/>
<path d="M62.0026 326.167C66.0527 326.167 69.3359 322.883 69.3359 318.833C69.3359 314.783 66.0527 311.5 62.0026 311.5C57.9525 311.5 54.6693 314.783 54.6693 318.833C54.6693 322.883 57.9525 326.167 62.0026 326.167Z" stroke="#738297" stroke-width="3" stroke-linecap="round" stroke-linejoin="round"/>
<path d="M313 90.5C330.949 90.5 345.5 105.051 345.5 123C345.5 140.949 330.949 155.5 313 155.5C295.051 155.5 280.5 140.949 280.5 123C280.5 105.051 295.051 90.5 313 90.5Z" fill="#EDF1F5" stroke="#A1BCD1"/>
<path d="M312.997 115.833C312.997 113.888 312.225 112.023 310.85 110.648C309.474 109.273 307.609 108.5 305.664 108.5H294.664V136H307.497C308.956 136 310.355 136.579 311.386 137.611C312.418 138.642 312.997 140.041 312.997 141.5M312.997 115.833V141.5M312.997 115.833C312.997 113.888 313.77 112.023 315.145 110.648C316.521 109.273 318.386 108.5 320.331 108.5H331.331V136H318.497C317.039 136 315.64 136.579 314.608 137.611C313.577 138.642 312.997 140.041 312.997 141.5" stroke="#738297" stroke-width="3" stroke-linecap="round" stroke-linejoin="round"/>
<path d="M379 262.5C396.949 262.5 411.5 277.051 411.5 295C411.5 312.949 396.949 327.5 379 327.5C361.051 327.5 346.5 312.949 346.5 295C346.5 277.051 361.051 262.5 379 262.5Z" fill="#EDF1F5" stroke="#A1BCD1"/>
<path d="M395.5 300.5V307.833C395.5 308.806 395.114 309.738 394.426 310.426C393.738 311.114 392.806 311.5 391.833 311.5H366.167C365.194 311.5 364.262 311.114 363.574 310.426C362.886 309.738 362.5 308.806 362.5 307.833V300.5M388.167 287.667L379 278.5M379 278.5L369.833 287.667M379 278.5V300.5" stroke="#738297" stroke-width="3" stroke-linecap="round" stroke-linejoin="round"/>
<defs>
<filter id="filter0_d_0_1" x="0" y="0" width="429" height="429" filterUnits="userSpaceOnUse" color-interpolation-filters="sRGB">
<feFlood flood-opacity="0" result="BackgroundImageFix"/>
<feColorMatrix in="SourceAlpha" type="matrix" values="0 0 0 0 0 0 0 0 0 0 0 0 0 0 0 0 0 0 127 0" result="hardAlpha"/>
<feMorphology radius="5" operator="dilate" in="SourceAlpha" result="effect1_dropShadow_0_1"/>
<feOffset/>
<feGaussianBlur stdDeviation="12"/>
<feComposite in2="hardAlpha" operator="out"/>
<feColorMatrix type="matrix" values="0 0 0 0 0.658824 0 0 0 0 0.803922 0 0 0 0 1 0 0 0 0.4 0"/>
<feBlend mode="normal" in2="BackgroundImageFix" result="effect1_dropShadow_0_1"/>
<feBlend mode="normal" in="SourceGraphic" in2="effect1_dropShadow_0_1" result="shape"/>
</filter>
<filter id="filter1_d_0_1" x="50" y="50" width="329" height="329" filterUnits="userSpaceOnUse" color-interpolation-filters="sRGB">
<feFlood flood-opacity="0" result="BackgroundImageFix"/>
<feColorMatrix in="SourceAlpha" type="matrix" values="0 0 0 0 0 0 0 0 0 0 0 0 0 0 0 0 0 0 127 0" result="hardAlpha"/>
<feMorphology radius="5" operator="dilate" in="SourceAlpha" result="effect1_dropShadow_0_1"/>
<feOffset/>
<feGaussianBlur stdDeviation="12"/>
<feComposite in2="hardAlpha" operator="out"/>
<feColorMatrix type="matrix" values="0 0 0 0 0.658824 0 0 0 0 0.803922 0 0 0 0 1 0 0 0 0.4 0"/>
<feBlend mode="normal" in2="BackgroundImageFix" result="effect1_dropShadow_0_1"/>
<feBlend mode="normal" in="SourceGraphic" in2="effect1_dropShadow_0_1" result="shape"/>
</filter>
<filter id="filter2_d_0_1" x="93" y="93" width="243" height="243" filterUnits="userSpaceOnUse" color-interpolation-filters="sRGB">
<feFlood flood-opacity="0" result="BackgroundImageFix"/>
<feColorMatrix in="SourceAlpha" type="matrix" values="0 0 0 0 0 0 0 0 0 0 0 0 0 0 0 0 0 0 127 0" result="hardAlpha"/>
<feMorphology radius="5" operator="dilate" in="SourceAlpha" result="effect1_dropShadow_0_1"/>
<feOffset/>
<feGaussianBlur stdDeviation="12"/>
<feComposite in2="hardAlpha" operator="out"/>
<feColorMatrix type="matrix" values="0 0 0 0 0.658824 0 0 0 0 0.803922 0 0 0 0 1 0 0 0 0.4 0"/>
<feBlend mode="normal" in2="BackgroundImageFix" result="effect1_dropShadow_0_1"/>
<feBlend mode="normal" in="SourceGraphic" in2="effect1_dropShadow_0_1" result="shape"/>
</filter>
</defs>
</svg>
