<svg width="231" height="225" viewBox="0 0 231 225" fill="none" xmlns="http://www.w3.org/2000/svg">
<rect x="182" y="88" width="48.3564" height="48.3564" rx="10" fill="#738297"/>
<g clip-path="url(#clip0_0_1)">
<path fill-rule="evenodd" clip-rule="evenodd" d="M201.905 116.935L213.872 108.089C214.458 107.654 215.297 107.824 215.578 108.497C217.048 112.051 216.391 116.32 213.463 119.251C210.536 122.182 206.462 122.824 202.739 121.36L198.672 123.245C204.506 127.237 211.589 126.25 216.016 121.816C219.527 118.3 220.615 113.507 219.598 109.186L219.606 109.196C218.132 102.848 219.969 100.311 223.731 95.122C223.821 94.999 223.911 94.876 224 94.75L219.048 99.7075V99.6925L201.901 116.938M199.435 119.084C195.247 115.079 195.969 108.883 199.541 105.309C202.182 102.664 206.511 101.584 210.29 103.171L214.348 101.296C213.504 100.676 212.581 100.171 211.604 99.796C209.147 98.7902 206.447 98.5336 203.844 99.0583C201.241 99.583 198.852 100.866 196.976 102.745C193.177 106.549 191.981 112.399 194.033 117.391C195.566 121.121 193.054 123.76 190.523 126.424C189.625 127.369 188.725 128.313 188 129.312L199.43 119.089" fill="white"/>
</g>
<rect x="91" y="88" width="48.3564" height="48.3564" rx="10" fill="#738297"/>
<path d="M130.635 108.732C131.043 107.519 131.185 106.235 131.049 104.965C130.914 103.695 130.506 102.468 129.851 101.365C128.881 99.6995 127.399 98.3806 125.62 97.5988C123.841 96.817 121.856 96.6127 119.952 97.0154C118.87 95.8283 117.49 94.9428 115.952 94.448C114.413 93.9532 112.77 93.8665 111.186 94.1966C109.603 94.5266 108.135 95.2619 106.931 96.3284C105.727 97.3949 104.829 98.7552 104.326 100.273C103.057 100.529 101.859 101.05 100.81 101.8C99.762 102.55 98.888 103.513 98.2469 104.623C97.2661 106.286 96.8469 108.213 97.05 110.127C97.253 112.04 98.0677 113.841 99.3763 115.268C98.9667 116.479 98.8242 117.763 98.9582 119.033C99.0922 120.304 99.4996 121.531 100.153 122.634C101.125 124.3 102.608 125.619 104.388 126.401C106.168 127.183 108.154 127.387 110.06 126.984C110.919 127.938 111.976 128.701 113.158 129.222C114.34 129.742 115.621 130.007 116.916 130C118.868 130.002 120.77 129.392 122.348 128.258C123.925 127.124 125.097 125.525 125.693 123.691C126.961 123.434 128.16 122.913 129.208 122.163C130.256 121.413 131.131 120.451 131.772 119.341C132.741 117.68 133.153 115.76 132.949 113.854C132.745 111.949 131.935 110.156 130.635 108.732ZM116.916 127.644C115.317 127.646 113.769 127.093 112.542 126.082L112.758 125.962L120.024 121.825C120.205 121.72 120.355 121.571 120.46 121.392C120.564 121.212 120.62 121.009 120.621 120.803V110.697L123.693 112.45C123.708 112.458 123.721 112.469 123.731 112.482C123.741 112.496 123.748 112.512 123.751 112.528V120.902C123.747 122.689 123.025 124.401 121.744 125.665C120.464 126.928 118.727 127.64 116.916 127.644ZM102.225 121.456C101.423 120.09 101.136 118.489 101.412 116.935L101.628 117.063L108.902 121.2C109.082 121.304 109.286 121.359 109.495 121.359C109.704 121.359 109.909 121.304 110.089 121.2L118.974 116.147V119.646C118.973 119.664 118.968 119.682 118.959 119.698C118.95 119.714 118.938 119.728 118.923 119.738L111.563 123.925C109.993 124.818 108.127 125.059 106.376 124.596C104.626 124.133 103.133 123.003 102.225 121.456ZM100.312 105.843C101.119 104.469 102.393 103.421 103.909 102.884V111.4C103.906 111.606 103.959 111.808 104.063 111.987C104.167 112.165 104.317 112.313 104.499 112.415L113.34 117.446L110.268 119.199C110.252 119.208 110.233 119.212 110.214 119.212C110.196 119.212 110.177 119.208 110.161 119.199L102.815 115.019C101.248 114.123 100.104 112.65 99.6346 110.924C99.1653 109.197 99.4088 107.358 100.312 105.808V105.843ZM125.549 111.627L116.679 106.546L119.743 104.8C119.76 104.791 119.778 104.787 119.797 104.787C119.816 104.787 119.835 104.791 119.851 104.8L127.196 108.987C128.32 109.626 129.235 110.567 129.836 111.701C130.437 112.834 130.699 114.112 130.592 115.387C130.484 116.661 130.01 117.88 129.227 118.899C128.444 119.918 127.383 120.696 126.168 121.143V112.627C126.161 112.422 126.101 112.222 125.992 112.046C125.884 111.871 125.731 111.727 125.549 111.627ZM128.607 107.092L128.391 106.965L121.132 102.792C120.951 102.687 120.745 102.632 120.535 102.632C120.325 102.632 120.119 102.687 119.937 102.792L111.06 107.844V104.346C111.058 104.328 111.061 104.31 111.069 104.294C111.076 104.278 111.088 104.264 111.103 104.254L118.448 100.074C119.574 99.4342 120.861 99.1239 122.159 99.1792C123.457 99.2346 124.713 99.6534 125.778 100.387C126.844 101.12 127.676 102.137 128.176 103.32C128.677 104.502 128.827 105.801 128.607 107.064L128.607 107.092ZM109.383 113.294L106.312 111.549C106.296 111.54 106.283 111.527 106.273 111.513C106.263 111.498 106.257 111.481 106.254 111.464V103.111C106.256 101.83 106.627 100.576 107.325 99.4947C108.023 98.414 109.018 97.5515 110.194 97.0081C111.371 96.4647 112.68 96.2629 113.968 96.4263C115.256 96.5897 116.471 97.1115 117.47 97.9307L117.254 98.0515L109.988 102.188C109.807 102.293 109.657 102.442 109.552 102.621C109.448 102.801 109.392 103.004 109.391 103.21L109.383 113.294ZM111.053 109.746L115.009 107.497L118.974 109.746V114.245L115.024 116.495L111.06 114.245L111.053 109.746Z" fill="white"/>
<rect x="182" width="48.3564" height="48.3564" rx="10" fill="#738297"/>
<path fill-rule="evenodd" clip-rule="evenodd" d="M220.102 22.0901C217.383 20.9328 214.911 19.2658 212.819 17.179C209.906 14.2601 207.828 10.6142 206.8 6.62038C206.755 6.443 206.652 6.2857 206.508 6.17335C206.363 6.061 206.186 6 206.003 6C205.82 6 205.642 6.061 205.497 6.17335C205.353 6.2857 205.25 6.443 205.205 6.62038C204.175 10.6137 202.096 14.2591 199.184 17.179C197.092 19.2655 194.62 20.9325 191.902 22.0901C190.838 22.5483 189.745 22.9165 188.625 23.1997C188.447 23.2435 188.288 23.3459 188.175 23.4906C188.062 23.6352 188 23.8137 188 23.9974C188 24.1812 188.062 24.3597 188.175 24.5043C188.288 24.649 188.447 24.7514 188.625 24.7952C189.745 25.0767 190.835 25.4449 191.902 25.9031C194.62 27.0605 197.092 28.7275 199.184 30.8142C202.098 33.7335 204.177 37.3799 205.205 41.3745C205.249 41.553 205.351 41.7116 205.496 41.825C205.64 41.9384 205.819 42 206.003 42C206.186 42 206.365 41.9384 206.509 41.825C206.654 41.7116 206.756 41.553 206.8 41.3745C207.082 40.2535 207.45 39.1636 207.908 38.0966C209.066 35.378 210.733 32.906 212.819 30.8142C215.739 27.901 219.385 25.8227 223.38 24.7952C223.557 24.7501 223.714 24.6472 223.827 24.5027C223.939 24.3583 224 24.1805 224 23.9974C224 23.8144 223.939 23.6366 223.827 23.4921C223.714 23.3477 223.557 23.2447 223.38 23.1997C222.259 22.9178 221.163 22.5467 220.102 22.0901Z" fill="white"/>
<rect width="48.3564" height="48.3564" rx="10" fill="#738297"/>
<path d="M13.0635 31.5973L20.1435 27.5165L20.2635 27.1619L20.1435 26.9646H19.8L18.615 26.8906L14.568 26.778L11.0595 26.6285L7.6605 26.4404L6.804 26.2539L6 25.167L6.0825 24.6243L6.8025 24.1295L7.8315 24.222L10.1115 24.3807L13.5285 24.6243L16.0065 24.7739L19.68 25.167H20.2635L20.346 24.925L20.145 24.7739L19.9905 24.6243L16.4535 22.1638L12.6255 19.5615L10.6215 18.063L9.5355 17.306L8.9895 16.5938L8.7525 15.0398L9.7365 13.9267L11.058 14.0192L11.3955 14.1132L12.735 15.1708L15.597 17.4463L19.3335 20.2722L19.881 20.7409L20.0985 20.5821L20.127 20.4695L19.881 20.0471L17.8485 16.2762L15.6795 12.4375L14.7135 10.8465L14.4585 9.89217C14.3613 9.52564 14.3089 9.14812 14.3025 8.76829L15.4245 7.20658L16.044 7L17.538 7.20658L18.168 7.76775L19.098 9.94767L20.601 13.384L22.9335 18.0553L23.6175 19.4397L23.982 20.7224L24.1185 21.1155H24.3555V20.8904L24.5475 18.2603L24.903 15.0305L25.248 10.8757L25.368 9.70408L25.932 8.30117L27.0525 7.54267L27.9285 7.97433L28.6485 9.03037L28.548 9.71487L28.119 12.5685L27.2805 17.044L26.7345 20.0379H27.0525L27.417 19.6648L28.8945 17.6514L31.3725 14.4694L32.4675 13.2052L33.7425 11.8115L34.563 11.1471H36.1125L37.2525 12.8876L36.7425 14.6852L35.1465 16.7618L33.825 18.5224L31.929 21.1432L30.744 23.2399L30.8535 23.4095L31.1355 23.3787L35.4195 22.4444L37.734 22.0127L40.4955 21.5271L41.745 22.1253L41.8815 22.7343L41.3895 23.9784L38.436 24.7276L34.9725 25.4399L29.814 26.6932L29.751 26.7395L29.8245 26.8335L32.148 27.0586L33.141 27.1141H35.574L40.104 27.461L41.289 28.2657L42 29.2493L41.8815 29.997L40.059 30.9529L37.599 30.3532L31.8555 28.9502L29.8875 28.443H29.6145V28.6126L31.254 30.2591L34.263 33.0495L38.0265 36.6416L38.217 37.5327L37.734 38.2342L37.224 38.1586L33.9165 35.6041L32.64 34.4525L29.751 31.955H29.559V32.217L30.225 33.2176L33.7425 38.6458L33.9255 40.3108L33.6705 40.855L32.7585 41.1834L31.7565 40.9953L29.6955 38.0276L27.573 34.6868L25.8585 31.6913L25.6485 31.8147L24.6375 42.9979L24.1635 43.5683L23.07 44L22.1595 43.2893L21.6765 42.1377L22.1595 39.8622L22.743 36.896L23.2155 34.5372L23.6445 31.6081L23.8995 30.6337L23.8815 30.569L23.6715 30.5967L21.5205 33.6292L18.2505 38.1694L15.6615 41.0138L15.0405 41.2666L13.965 40.6962L14.0655 39.6756L14.667 38.7676L18.249 34.0871L20.409 31.1857L21.804 29.5114L21.795 29.2678H21.7125L12.198 35.6133L10.503 35.8384L9.7725 35.1354L9.864 33.9853L10.2105 33.6107L13.0725 31.588L13.0635 31.5973Z" fill="white"/>
<rect y="176" width="48.3564" height="48.3564" rx="10" fill="#738297"/>
<path fill-rule="evenodd" clip-rule="evenodd" d="M19.8753 215L19.9635 214.999C19.3165 214.974 18.6933 214.717 18.1836 214.267C17.674 213.816 17.3041 213.195 17.1275 212.492L16.2852 209.175C16.1042 208.454 15.7202 207.82 15.1913 207.367C14.6624 206.915 14.0174 206.669 13.3537 206.667H12.7531L12.6275 206.664C7.20787 206.664 9.08086 199.467 10.5128 194.085L10.7085 193.369C11.9145 189.077 13.692 185 16.5523 185H27.2585C28.6119 185 29.8034 186.016 30.1852 187.494L31.0492 190.839C31.2223 191.517 31.5753 192.119 32.0608 192.563C32.5463 193.008 33.1409 193.274 33.7644 193.325L33.9421 193.332L34.5873 193.333C38.8856 193.49 38.3188 198.44 37.1926 203.16L37.0561 203.723C36.87 204.47 36.6754 205.208 36.4881 205.914L36.2912 206.63C35.0864 210.923 33.3077 215 30.4486 215H19.8753ZM29.8082 193.332L25.1487 193.333C24.5339 193.335 23.9338 193.546 23.4271 193.939C22.9205 194.332 22.5307 194.888 22.309 195.535L20.1291 204.145C19.9495 204.869 19.5656 205.506 19.0356 205.961C18.5055 206.416 17.8585 206.663 17.1927 206.664L21.8486 206.667C23.1247 206.667 24.2557 205.765 24.7016 204.425L26.8718 195.852C27.0512 195.128 27.435 194.49 27.9651 194.035C28.4951 193.581 29.1423 193.333 29.8082 193.332Z" fill="white"/>
<rect x="91" width="48.3564" height="48.3564" rx="10" fill="#738297"/>
<path fill-rule="evenodd" clip-rule="evenodd" d="M111.881 12.2934H106.492C105.416 12.2934 104.384 12.7207 103.623 13.4813C102.863 14.2419 102.435 15.2736 102.435 16.3494V33.3924C102.435 34.4685 102.862 35.5006 103.623 36.2615C104.384 37.0224 105.416 37.4499 106.492 37.4499H123.536C124.613 37.4499 125.645 37.0224 126.406 36.2615C127.167 35.5006 127.594 34.4685 127.594 33.3924V26.2584L130.028 24.5889V33.3939C130.028 35.1156 129.344 36.7666 128.127 37.984C126.909 39.2014 125.258 39.8855 123.536 39.8859H106.492C104.77 39.8855 103.119 39.2014 101.902 37.984C100.685 36.7666 100 35.1156 100 33.3939V16.3509C99.9998 15.4983 100.168 14.6539 100.494 13.8661C100.82 13.0783 101.298 12.3624 101.901 11.7594C102.504 11.1564 103.22 10.6781 104.007 10.3517C104.795 10.0254 105.639 9.85742 106.492 9.85742H113.31L111.881 12.2934Z" fill="white"/>
<path fill-rule="evenodd" clip-rule="evenodd" d="M123.733 6C123.95 6 124.135 6.156 124.181 6.369C124.607 8.34945 125.597 10.1644 127.031 11.595C128.462 13.03 130.278 14.0204 132.259 14.4465C132.472 14.493 132.628 14.6775 132.628 14.8965C132.627 15.0019 132.589 15.1038 132.522 15.1851C132.455 15.2664 132.362 15.3223 132.259 15.3435C130.278 15.7699 128.463 16.7602 127.033 18.195C125.579 19.6442 124.582 21.4877 124.165 23.4975C124.145 23.5975 124.091 23.6875 124.012 23.7524C123.933 23.8174 123.835 23.8534 123.733 23.8545C123.631 23.8534 123.532 23.8174 123.454 23.7524C123.375 23.6875 123.321 23.5975 123.301 23.4975C122.884 21.4877 121.887 19.6442 120.433 18.195C118.984 16.7413 117.14 15.7441 115.13 15.327C115.03 15.3067 114.94 15.2528 114.876 15.1742C114.811 15.0955 114.774 14.997 114.773 14.895C114.773 14.685 114.923 14.505 115.13 14.463C117.14 14.0459 118.984 13.0487 120.433 11.595C121.868 10.1645 122.858 8.34959 123.284 6.369C123.306 6.26547 123.362 6.17236 123.443 6.10521C123.525 6.03806 123.627 6.00093 123.733 6Z" fill="white"/>
<rect x="91" y="176" width="48.3564" height="48.3564" rx="10" fill="#738297"/>
<g clip-path="url(#clip1_0_1)">
<path fill-rule="evenodd" clip-rule="evenodd" d="M115 182C124.94 182 133 190.06 133 200C133 209.94 124.94 218 115 218C105.06 218 97 209.94 97 200C97 190.06 105.06 182 115 182ZM115 187.441C111.669 187.441 108.474 188.764 106.119 191.119C103.764 193.474 102.441 196.669 102.441 200C102.441 203.331 103.764 206.526 106.119 208.881C108.474 211.236 111.669 212.559 115 212.559C118.331 212.559 121.526 211.236 123.881 208.881C126.236 206.526 127.559 203.331 127.559 200C127.559 196.669 126.236 193.474 123.881 191.119C121.526 188.764 118.331 187.441 115 187.441Z" fill="white"/>
</g>
<rect y="88" width="48.3564" height="48.3564" rx="10" fill="#738297"/>
<path fill-rule="evenodd" clip-rule="evenodd" d="M18.0681 95.7436C18.0211 95.564 18.0102 95.3769 18.036 95.193C18.0619 95.0092 18.1239 94.8323 18.2186 94.6726C18.3132 94.5128 18.4386 94.3735 18.5875 94.2626C18.7363 94.1516 18.9057 94.0713 19.0859 94.0263C19.266 93.9813 19.4532 93.9724 19.6368 94.0002C19.8203 94.0281 19.9966 94.092 20.1552 94.1884C20.3139 94.2848 20.4519 94.4117 20.5612 94.5617C20.6705 94.7118 20.749 94.8821 20.7921 95.0626C20.8866 95.4466 20.9901 95.8246 21.0921 96.2026L21.0996 96.2266C21.3366 97.0966 21.5721 97.9666 21.7236 98.8831C21.7536 99.0651 21.7475 99.2511 21.7057 99.4307C21.6638 99.6102 21.587 99.7798 21.4796 99.9297C21.3722 100.08 21.2363 100.207 21.0798 100.304C20.9232 100.402 20.749 100.467 20.5671 100.497C20.3852 100.527 20.1991 100.521 20.0195 100.479C19.84 100.437 19.6704 100.361 19.5206 100.253C19.2179 100.036 19.0137 99.708 18.9531 99.3406C18.8256 98.5651 18.6486 97.9171 18.4341 97.1311V97.1281C18.3216 96.7171 18.1986 96.2686 18.0681 95.7436ZM11.5026 98.1286C11.3388 98.4628 11.3145 98.8484 11.4349 99.2005C11.5552 99.5527 11.8105 99.8426 12.1446 100.007C13.1451 100.497 14.0121 100.982 14.8716 101.949C15.1212 102.218 15.4661 102.378 15.8325 102.396C16.1989 102.414 16.5577 102.287 16.8321 102.044C17.1065 101.801 17.2747 101.459 17.3008 101.093C17.3269 100.728 17.2087 100.366 16.9716 100.086C15.7476 98.7061 14.4876 98.0296 13.3806 97.4866C13.0464 97.3229 12.6608 97.2986 12.3087 97.4189C11.9565 97.5393 11.6666 97.7946 11.5026 98.1286Z" fill="white"/>
<path fill-rule="evenodd" clip-rule="evenodd" d="M29.5072 125.926C29.2522 125.872 28.9732 125.813 28.6882 125.75C27.6382 125.522 26.2132 125.203 25.5427 124.981L25.4932 124.964L25.4452 124.946C25.1482 124.835 24.6442 124.712 23.8102 124.522L23.6557 124.487C22.9357 124.322 22.0507 124.121 21.2107 123.868C20.3437 123.604 19.2697 123.212 18.3562 122.575C17.3992 121.906 16.3102 120.727 16.2502 118.957C16.2417 118.702 16.2462 118.446 16.2637 118.192C15.7817 117.667 15.4455 117.026 15.2887 116.332C15.1467 115.7 15.1621 115.043 15.3337 114.419C15.4582 113.944 15.6487 113.528 15.8077 113.219C15.8617 113.114 15.9172 113.009 15.9727 112.91C15.4477 112.744 14.8522 112.538 14.2732 112.292C13.5187 111.97 12.4462 111.437 11.6452 110.581C11.115 110.027 10.7467 109.338 10.5802 108.59C10.4025 107.736 10.5221 106.847 10.9192 106.07C11.8252 104.258 13.5547 103.618 15.0922 103.562C16.4812 103.513 17.9602 103.901 19.2847 104.366C20.4907 104.789 22.2172 105.577 23.6842 106.262C24.1672 105.469 24.8047 104.573 25.4077 103.85L25.5277 103.708L25.6657 103.582C26.5175 102.804 27.6057 102.336 28.7557 102.251C29.2882 102.211 29.8237 102.252 30.3442 102.371L30.3982 102.383L30.4327 102.394H30.4372L30.4402 102.395C30.4402 102.395 30.4432 102.395 29.7247 105.074L30.4432 102.395L30.7552 102.482L31.0402 102.635C32.4862 103.409 32.8972 104.744 33.0052 105.449C33.0719 105.898 33.0679 106.355 32.9932 106.804L32.9887 106.831V106.838L30.2017 106.283L32.9872 106.84L32.9722 106.921L32.5222 108.706C32.4352 109.144 32.4247 109.394 32.4292 109.526C32.4269 109.581 32.435 109.635 32.4532 109.687C32.4727 109.732 32.5177 109.831 32.6842 110.083C32.7487 110.182 32.8162 110.279 32.9002 110.404L32.9872 110.53C33.1072 110.707 33.2482 110.915 33.3982 111.148C34.3327 112.603 34.4242 114.001 34.4182 114.896V114.935L34.7752 115.052L34.9297 115.1L35.1592 115.174C35.2732 115.21 35.4187 115.258 35.5597 115.309C35.7247 115.006 36.1702 114.355 36.9772 114.355C38.0302 114.355 38.4622 115.835 38.4622 115.835C38.8747 118.592 36.9922 127.855 34.2712 129.581C32.1922 130.901 30.6517 128.941 29.5072 125.926ZM19.0792 113.302C19.2562 113.123 19.7842 112.747 20.7832 112.634C21.926 112.518 23.079 112.707 24.1252 113.182C25.0597 113.596 25.7047 114.544 25.9747 115.682C26.1067 116.239 26.1307 116.779 26.0737 117.22C26.0137 117.685 25.8817 117.917 25.8202 117.986C25.7452 118.073 25.4782 118.222 24.7387 118.066C24.3422 117.978 23.9575 117.844 23.5927 117.667L23.5837 117.662C23.2538 117.498 22.8724 117.469 22.5219 117.584C22.1714 117.698 21.8799 117.945 21.7103 118.273C21.5408 118.6 21.5067 118.981 21.6156 119.333C21.7245 119.685 21.9675 119.981 22.2922 120.155L22.2982 120.158L22.3102 120.164L22.3462 120.182C22.5132 120.265 22.6833 120.341 22.8562 120.41C23.1787 120.539 23.6362 120.701 24.1552 120.811C25.0777 121.006 26.7802 121.156 27.9352 119.833C28.4902 119.197 28.7572 118.363 28.8577 117.581C28.9599 116.73 28.9091 115.868 28.7077 115.036C28.3057 113.344 27.2437 111.493 25.2622 110.614C23.7608 109.938 22.1071 109.672 20.4697 109.844C19.5412 109.949 18.6532 110.207 17.9347 110.6L17.9047 110.591H17.8987C16.1242 110.084 12.5947 109.076 13.4647 107.336C14.1247 106.016 15.9292 106.126 18.3772 106.985C19.3717 107.333 20.7532 107.956 22.0567 108.562C22.4617 108.749 22.8577 108.937 23.2327 109.112L24.6937 109.793C25.7332 108.545 26.1367 107.858 26.4937 107.251C26.7382 106.834 26.9617 106.456 27.3532 105.958L27.3907 105.91C27.4626 105.819 27.5356 105.729 27.6097 105.64C27.6196 105.631 27.6296 105.622 27.6397 105.614C28.6027 104.764 29.7232 105.074 29.7232 105.074C30.3637 105.416 30.2017 106.283 30.2017 106.283L29.7562 108.05C29.3302 110.129 29.8012 110.818 30.5767 111.95C30.7117 112.15 30.8587 112.363 31.0117 112.6C31.6297 113.564 31.5997 114.49 31.5772 115.247C31.5622 115.733 31.5487 116.15 31.7122 116.461C32.0482 117.098 33.3022 117.496 34.1272 117.754C34.3252 117.817 34.4977 117.871 34.6267 117.919L34.7152 117.953C34.5982 118.313 34.4932 118.687 34.3882 119.059C33.9187 120.713 33.4537 122.362 32.0632 122.854C31.1152 123.191 30.1687 123.175 29.4982 123.088C28.3192 122.833 26.9242 122.519 26.3992 122.345C25.8547 122.143 25.0927 121.97 24.2632 121.78C22.2892 121.33 19.9387 120.796 19.2667 119.587C19.1511 119.381 19.0868 119.151 19.0792 118.916C19.0402 117.806 19.4302 116.81 19.4302 116.81C19.4302 116.81 18.8257 116.813 18.4027 116.405C18.2227 116.229 18.0985 116.004 18.0457 115.759C18.0007 115.564 17.9827 115.339 18.0082 115.099C18.0202 115.099 18.0262 115.087 18.0262 115.057C18.0262 114.706 18.3772 114.004 19.0792 113.302Z" fill="white"/>
<path fill-rule="evenodd" clip-rule="evenodd" d="M27.1168 94.9066C27.4349 95.0996 27.6634 95.4111 27.752 95.7725C27.8406 96.134 27.7821 96.5158 27.5893 96.8341C27.0568 97.7101 26.7478 98.6056 26.4103 99.9556C26.3672 100.136 26.2888 100.306 26.1795 100.456C26.0702 100.607 25.9322 100.733 25.7735 100.83C25.6148 100.926 25.4386 100.99 25.255 101.018C25.0715 101.046 24.8842 101.037 24.7041 100.992C24.524 100.947 24.3546 100.867 24.2057 100.756C24.0569 100.645 23.9315 100.505 23.8368 100.346C23.7422 100.186 23.6801 100.009 23.6543 99.8252C23.6284 99.6413 23.6393 99.4542 23.6863 99.2746C24.0508 97.8181 24.4423 96.6076 25.1893 95.3776C25.3826 95.0597 25.6942 94.8316 26.0556 94.7433C26.417 94.6549 26.7987 94.7137 27.1168 94.9066Z" fill="white"/>
<rect x="182" y="176" width="48.3564" height="48.3564" rx="10" fill="#738297"/>
<path fill-rule="evenodd" clip-rule="evenodd" d="M224 194.6C224 196.587 222.347 198.2 220.307 198.2C218.588 198.2 217.142 197.053 216.731 195.5H211.577C210.674 195.5 209.905 196.136 209.756 197.005L209.604 197.893C209.463 198.714 209.038 199.459 208.404 200C209.022 200.531 209.46 201.266 209.604 202.108L209.755 202.995C209.832 203.421 210.058 203.806 210.391 204.081C210.725 204.357 211.146 204.505 211.578 204.5H213.041C213.451 202.947 214.896 201.8 216.617 201.8C218.657 201.8 220.308 203.413 220.308 205.4C220.308 207.388 218.654 209 216.617 209C214.896 209 213.452 207.853 213.041 206.3H211.578C209.772 206.3 208.234 205.028 207.937 203.292L207.785 202.404C207.708 201.979 207.482 201.595 207.149 201.32C206.816 201.045 206.396 200.896 205.964 200.9H204.455C203.993 202.376 202.586 203.45 200.921 203.45C199.256 203.45 197.849 202.376 197.389 200.9H195.226C194.764 202.376 193.356 203.45 191.693 203.45C189.653 203.45 188 201.837 188 199.85C188 197.862 189.653 196.25 191.693 196.25C193.467 196.25 194.951 197.472 195.305 199.1H197.31C197.664 197.472 199.148 196.25 200.922 196.25C202.698 196.25 204.181 197.472 204.535 199.1H205.963C206.864 199.1 207.635 198.464 207.782 197.596L207.935 196.708C208.232 194.972 209.772 193.7 211.577 193.7H216.731C217.142 192.148 218.588 191 220.307 191C222.347 191 224 192.612 224 194.6ZM222.155 194.6C222.155 195.594 221.327 196.4 220.307 196.4C219.287 196.4 218.462 195.594 218.462 194.6C218.462 193.605 219.287 192.8 220.307 192.8C221.327 192.8 222.153 193.605 222.153 194.6H222.155ZM191.691 201.65C192.711 201.65 193.536 200.844 193.536 199.85C193.536 198.855 192.711 198.05 191.691 198.05C190.671 198.05 189.845 198.855 189.845 199.85C189.845 200.844 190.671 201.65 191.691 201.65ZM200.921 201.65C201.941 201.65 202.767 200.844 202.767 199.85C202.767 198.855 201.942 198.05 200.922 198.05C199.902 198.05 199.076 198.855 199.076 199.85C199.076 200.844 199.901 201.65 200.921 201.65ZM216.614 207.2C217.634 207.2 218.459 206.395 218.459 205.4C218.459 204.406 217.634 203.6 216.614 203.6C215.594 203.6 214.769 204.406 214.769 205.4C214.769 206.395 215.594 207.2 216.614 207.2Z" fill="white"/>
<defs>
<clipPath id="clip0_0_1">
<rect width="36" height="36" fill="white" transform="translate(188 94)"/>
</clipPath>
<clipPath id="clip1_0_1">
<rect width="36" height="36" fill="white" transform="translate(97 182)"/>
</clipPath>
</defs>
</svg>
