<svg width="798" height="434" viewBox="0 0 798 434" fill="none" xmlns="http://www.w3.org/2000/svg">
<rect x="2.5" y="54.5" width="504" height="73" rx="36.5" stroke="#465770" stroke-width="5"/>
<rect x="5" y="57" width="500" height="68" rx="34" stroke="#465770" stroke-width="8" stroke-dasharray="6 8"/>
<path d="M473.32 113.381C479.173 112.466 484.423 109.263 487.914 104.477C491.406 99.6918 492.853 93.7152 491.938 87.8624C491.023 82.0097 487.82 76.7601 483.034 73.2687C478.249 69.7772 472.272 68.3298 466.42 69.2449C460.567 70.16 455.317 73.3626 451.826 78.1483C448.334 82.9339 446.887 88.9105 447.802 94.7633C448.717 100.616 451.92 105.866 456.705 109.357C461.491 112.849 467.468 114.296 473.32 113.381Z" stroke="#465770" stroke-width="6" stroke-linecap="round" stroke-linejoin="round"/>
<path d="M470.734 96.8296C472.198 96.6008 473.51 95.8001 474.383 94.6037C475.256 93.4073 475.618 91.9132 475.389 90.45C475.16 88.9868 474.359 87.6744 473.163 86.8015C471.967 85.9287 470.472 85.5668 469.009 85.7956C467.546 86.0244 466.234 86.825 465.361 88.0214C464.488 89.2178 464.126 90.712 464.355 92.1752C464.584 93.6384 465.384 94.9508 466.581 95.8236C467.777 96.6965 469.271 97.0583 470.734 96.8296Z" stroke="#465770" stroke-width="6" stroke-linecap="round" stroke-linejoin="round"/>
<path d="M465.555 63.7285L466.417 69.2455" stroke="#465770" stroke-width="6" stroke-linecap="round" stroke-linejoin="round"/>
<path d="M474.191 118.898L473.328 113.381" stroke="#465770" stroke-width="6" stroke-linecap="round" stroke-linejoin="round"/>
<path d="M487.395 113.046L483.891 108.705" stroke="#465770" stroke-width="6" stroke-linecap="round" stroke-linejoin="round"/>
<path d="M466.367 86.9732L452.344 69.582" stroke="#465770" stroke-width="6" stroke-linecap="round" stroke-linejoin="round"/>
<path d="M495.922 101.37L490.719 99.3574" stroke="#465770" stroke-width="6" stroke-linecap="round" stroke-linejoin="round"/>
<path d="M443.82 81.2559L449.024 83.2682" stroke="#465770" stroke-width="6" stroke-linecap="round" stroke-linejoin="round"/>
<path d="M475.391 90.4512L497.459 87.0008" stroke="#465770" stroke-width="6" stroke-linecap="round" stroke-linejoin="round"/>
<path d="M442.289 95.627L447.806 94.7644" stroke="#465770" stroke-width="6" stroke-linecap="round" stroke-linejoin="round"/>
<path d="M491.608 73.7851L487.267 77.2897" stroke="#465770" stroke-width="6" stroke-linecap="round" stroke-linejoin="round"/>
<path d="M448.134 108.841L452.475 105.336" stroke="#465770" stroke-width="6" stroke-linecap="round" stroke-linejoin="round"/>
<path d="M479.923 65.2679L477.91 70.4714" stroke="#465770" stroke-width="6" stroke-linecap="round" stroke-linejoin="round"/>
<path d="M467.854 96.517L459.809 117.359" stroke="#465770" stroke-width="6" stroke-linecap="round" stroke-linejoin="round"/>
<path d="M43.6406 113.375C49.4934 112.46 54.743 109.257 58.2344 104.472C61.7259 99.686 63.1733 93.7094 62.2582 87.8566C61.3431 82.0038 58.1404 76.7543 53.3548 73.2628C48.5692 69.7713 42.5926 68.3239 36.7398 69.239C30.887 70.1542 25.6375 73.3568 22.146 78.1424C18.6546 82.928 17.2072 88.9046 18.1223 94.7574C19.0374 100.61 22.24 105.86 27.0256 109.351C31.8113 112.843 37.7878 114.29 43.6406 113.375Z" stroke="#465770" stroke-width="6" stroke-linecap="round" stroke-linejoin="round"/>
<path d="M41.0547 96.8237C42.5179 96.5949 43.8303 95.7943 44.7031 94.5979C45.576 93.4015 45.9378 91.9073 45.7091 90.4441C45.4803 88.9809 44.6796 87.6685 43.4832 86.7957C42.2868 85.9228 40.7927 85.561 39.3295 85.7897C37.8663 86.0185 36.5539 86.8192 35.681 88.0156C34.8082 89.212 34.4463 90.7061 34.6751 92.1693C34.9039 93.6325 35.7045 94.9449 36.9009 95.8178C38.0973 96.6906 39.5915 97.0525 41.0547 96.8237Z" stroke="#465770" stroke-width="6" stroke-linecap="round" stroke-linejoin="round"/>
<path d="M35.875 63.7227L36.7376 69.2396" stroke="#465770" stroke-width="6" stroke-linecap="round" stroke-linejoin="round"/>
<path d="M44.5032 118.892L43.6406 113.375" stroke="#465770" stroke-width="6" stroke-linecap="round" stroke-linejoin="round"/>
<path d="M57.7234 113.04L54.2188 108.699" stroke="#465770" stroke-width="6" stroke-linecap="round" stroke-linejoin="round"/>
<path d="M36.6869 86.9693L22.6641 69.5781" stroke="#465770" stroke-width="6" stroke-linecap="round" stroke-linejoin="round"/>
<path d="M66.2347 101.366L61.0312 99.3535" stroke="#465770" stroke-width="6" stroke-linecap="round" stroke-linejoin="round"/>
<path d="M14.1484 81.252L19.3519 83.2643" stroke="#465770" stroke-width="6" stroke-linecap="round" stroke-linejoin="round"/>
<path d="M45.7109 90.4453L67.7789 86.9949" stroke="#465770" stroke-width="6" stroke-linecap="round" stroke-linejoin="round"/>
<path d="M12.6094 95.6191L18.1264 94.7565" stroke="#465770" stroke-width="6" stroke-linecap="round" stroke-linejoin="round"/>
<path d="M61.9284 73.7812L57.5876 77.2858" stroke="#465770" stroke-width="6" stroke-linecap="round" stroke-linejoin="round"/>
<path d="M18.4626 108.835L22.8034 105.33" stroke="#465770" stroke-width="6" stroke-linecap="round" stroke-linejoin="round"/>
<path d="M50.2429 65.264L48.2305 70.4675" stroke="#465770" stroke-width="6" stroke-linecap="round" stroke-linejoin="round"/>
<path d="M38.1824 96.5111L30.1373 117.353" stroke="#465770" stroke-width="6" stroke-linecap="round" stroke-linejoin="round"/>
<rect x="49.0469" width="48.3564" height="48.3564" rx="10" fill="#465770"/>
<path d="M64.2417 26.0036C64.2376 26.0036 64.2334 26.0036 64.2282 26.0036C63.8013 26.0036 63.4159 26.1849 63.1454 26.474L63.1444 26.475C62.8366 26.8025 62.648 27.2439 62.648 27.7289C62.648 27.8304 62.6563 27.9299 62.6719 28.0263L62.6708 28.0159C62.7061 28.1102 62.761 28.1371 62.8004 28.1423C62.8832 28.1527 63.0076 28.0915 63.0853 27.8833L63.1071 27.8159C63.1589 27.6335 63.2283 27.475 63.3153 27.3279L63.3102 27.3372C63.4718 27.0926 63.7454 26.9331 64.0573 26.9331C64.2396 26.9331 64.4096 26.988 64.5505 27.0812L64.5474 27.0792C64.7847 27.2367 64.9391 27.503 64.9391 27.8055C64.9391 27.9216 64.9163 28.0325 64.8748 28.133L64.8769 28.1268C64.7681 28.3951 64.7049 28.707 64.7049 29.0334C64.7049 29.0428 64.7049 29.0521 64.7049 29.0614C64.7049 29.0718 64.7039 29.0832 64.7039 29.0956C64.7039 29.5733 65.0655 29.966 65.5287 30.0158H65.5328C65.5525 30.0178 65.5753 30.0189 65.5981 30.0189C65.8509 30.0189 66.0727 29.8862 66.1981 29.6873L66.2002 29.6842C66.2115 29.6635 66.2188 29.6396 66.2188 29.6137C66.2188 29.5785 66.2064 29.5474 66.1856 29.5225C66.1297 29.4542 66.0395 29.4749 65.9525 29.4956C65.8903 29.5132 65.8188 29.5236 65.7453 29.5236C65.7411 29.5236 65.737 29.5236 65.7328 29.5236C65.5815 29.5236 65.4468 29.4479 65.366 29.3329L65.365 29.3319C65.3194 29.2417 65.2935 29.135 65.2935 29.022C65.2935 28.8967 65.3266 28.7785 65.3836 28.676L65.3815 28.6791C65.3961 28.6428 65.4137 28.6045 65.4334 28.5599C65.6074 28.276 65.7111 27.932 65.7111 27.5631C65.7111 27.3082 65.6613 27.0636 65.5712 26.8408L65.5753 26.8533C65.3546 26.4036 64.9298 26.0844 64.4262 26.0129L64.4179 26.0119C64.365 26.0046 64.3029 25.9994 64.2396 25.9994L64.2417 26.0036ZM64.3329 24.8036C64.3951 24.8036 64.4593 24.8036 64.5256 24.8078C65.9784 24.9819 67.1048 26.1704 67.1825 27.6356V27.6429C67.4633 29.4687 67.0167 31.3245 65.3059 31.6167C65.1784 31.6385 65.0323 31.6509 64.8821 31.6509C64.8603 31.6509 64.8396 31.6509 64.8178 31.6499H64.821C63.0667 31.5214 61.6533 30.2116 61.3662 28.5195L61.3631 28.4977C61.3279 28.3226 61.3082 28.1205 61.3082 27.9143C61.3082 26.4087 62.3755 25.1518 63.7961 24.8606L63.8158 24.8575C63.9702 24.8254 64.1474 24.8057 64.3298 24.8036H64.3319H64.3329ZM79.3994 24.7726C79.3901 24.7715 79.3797 24.7715 79.3683 24.7715C79.2263 24.7715 79.1009 24.8482 79.0336 24.9622L79.0326 24.9643C79.0284 24.9891 79.0263 25.0171 79.0263 25.0461C79.0263 25.3673 79.2864 25.6274 79.6077 25.6274C79.7714 25.6274 79.9185 25.5601 80.0242 25.4513C80.0356 25.4109 80.0429 25.3642 80.0429 25.3166C80.0429 25.099 79.903 24.9145 79.7092 24.8472L79.7061 24.8461C79.617 24.8005 79.5113 24.7736 79.3994 24.7726ZM76.4721 24.2545C76.47 24.2545 76.4669 24.2545 76.4638 24.2545C76.3964 24.2545 76.3291 24.2586 76.2638 24.2659L76.2721 24.2648C75.9778 24.298 75.7146 24.413 75.5012 24.5871L75.5043 24.585C75.4038 24.6575 75.3333 24.7653 75.3084 24.8886L75.3074 24.8917V24.8928C75.3074 24.9466 75.3509 24.9902 75.4048 24.9902C75.5157 24.9736 75.6151 24.9456 75.7084 24.9052L75.7001 24.9083C75.9685 24.8036 76.2794 24.7435 76.6047 24.7435C76.7425 24.7435 76.8783 24.7549 77.0109 24.7757L76.9964 24.7736C77.1995 24.7964 77.2938 24.8088 77.3394 24.7404C77.3487 24.7249 77.3539 24.7052 77.3539 24.6855C77.3539 24.6575 77.3435 24.6316 77.327 24.6109C77.1259 24.3912 76.8368 24.2534 76.5166 24.2534C76.5011 24.2534 76.4856 24.2534 76.47 24.2545H76.4721ZM81.1081 24.0317C80.8863 24.0275 80.7029 24.2721 80.6977 24.5757C80.6926 24.8814 80.8677 25.1321 81.0905 25.1352C81.3133 25.1394 81.4967 24.8959 81.5018 24.5912C81.507 24.2855 81.3309 24.0358 81.1081 24.0317ZM75.8224 22.983C75.8193 22.983 75.8162 22.983 75.8131 22.983C75.3219 22.983 74.8691 23.1416 74.5002 23.4099L74.5064 23.4058C74.2992 23.5571 74.1033 23.7685 74.1313 23.8949C74.1417 23.9363 74.1717 23.9674 74.2453 23.9768C74.6297 23.8617 75.1198 23.7488 75.6193 23.6638L75.698 23.6524C75.7229 23.6514 75.7509 23.6514 75.7799 23.6514C76.1851 23.6514 76.5685 23.7477 76.9073 23.9187L76.8928 23.9125C77.2026 24.0472 77.3922 24.1363 77.4668 24.0586C77.5145 24.0099 77.5 23.9167 77.4264 23.7944C77.2275 23.5105 76.956 23.2887 76.6379 23.155L76.6254 23.1509C76.3882 23.0462 76.1125 22.9841 75.8224 22.983ZM80.562 20.9811C80.534 20.9811 80.5071 20.9842 80.4812 20.9883H80.4843C80.0501 21.0578 80.0346 21.5945 80.189 22.3354C80.2594 22.7115 80.4045 23.0452 80.6086 23.3343L80.6035 23.326C80.6998 23.3125 80.8117 23.3053 80.9257 23.3053C81.0397 23.3053 81.1516 23.3125 81.2614 23.327L81.249 23.326C81.3143 23.1271 81.3516 22.8991 81.3516 22.6618C81.3516 22.4639 81.3257 22.2732 81.277 22.0909L81.2801 22.1064C81.135 21.4132 80.9423 20.9769 80.563 20.9821L80.562 20.9811ZM80.533 18.1574L80.6055 18.1584C80.8262 18.1678 81.0293 18.2372 81.2003 18.3501L81.1962 18.347C81.8873 18.8071 81.9858 19.9221 82.022 20.7365C82.0417 21.2028 82.0987 22.3281 82.1174 22.6504C82.1609 23.3903 82.3557 23.4939 82.7484 23.6224C82.9681 23.6959 83.1753 23.7488 83.4779 23.8348C84.1711 23.9768 84.7783 24.2752 85.285 24.6928L85.2778 24.6866C85.4488 24.8544 85.5669 25.0762 85.6042 25.3238L85.6052 25.33C85.713 26.1176 84.9939 27.0916 83.0904 27.9734C81.5796 28.6521 79.8159 29.048 77.9601 29.048C77.5301 29.048 77.1062 29.0272 76.6866 28.9858L76.7394 28.9899L76.1291 28.9215C74.7333 28.734 73.9365 30.536 74.7748 31.7711C75.5809 32.5897 76.7011 33.0964 77.9404 33.0964C78.0513 33.0964 78.1611 33.0923 78.2699 33.084L78.2554 33.085C78.386 33.0912 78.5383 33.0954 78.6906 33.0954C81.2262 33.0954 83.5225 32.0664 85.1825 30.4023C85.2073 30.3702 85.2332 30.3349 85.2571 30.2976L85.2602 30.2924C85.3068 30.2209 85.2685 30.1826 85.2084 30.223C83.3173 31.538 80.9734 32.3244 78.445 32.3244C77.9995 32.3244 77.5591 32.2996 77.127 32.2519L77.1809 32.2571C76.8493 32.198 76.5571 32.1162 76.2773 32.0105L76.3115 32.0219C75.9809 31.8923 75.2908 31.5763 75.2069 30.8686C75.9592 31.1556 76.8296 31.3214 77.7383 31.3214C78.5942 31.3214 79.416 31.1743 80.1796 30.9038L80.1289 30.9193C80.161 30.9038 80.1838 30.8717 80.1838 30.8344C80.1838 30.8313 80.1838 30.8282 80.1838 30.8261C80.1796 30.7815 80.1423 30.7484 80.0978 30.7484C80.0947 30.7484 80.0916 30.7484 80.0885 30.7494C79.6937 30.7991 79.2367 30.8282 78.7735 30.8282C77.5218 30.8282 76.3177 30.6199 75.1955 30.2375L75.2732 30.2603C75.5281 29.4314 76.2058 29.7319 77.2285 29.8137C77.4814 29.8293 77.7767 29.8386 78.0751 29.8386C79.4553 29.8386 80.79 29.6427 82.0521 29.278L81.9516 29.3029C83.3017 28.9112 84.4778 28.3102 85.5099 27.5278L85.483 27.5475C85.6995 28.0335 85.8705 28.5982 85.9689 29.1878L85.9752 29.2293C86.0114 29.2231 86.0539 29.22 86.0964 29.22C86.2425 29.22 86.3793 29.2583 86.4974 29.3257L86.4933 29.3236C86.7171 29.4604 86.8808 29.7453 86.7689 30.4821C86.5409 31.8696 85.8974 33.0778 84.9731 34.0041C84.369 34.6559 83.6551 35.1958 82.8582 35.5958L82.8158 35.6154C82.421 35.8289 81.9557 36.031 81.4718 36.1926L81.4075 36.2113C80.6128 36.5553 79.6885 36.7553 78.7165 36.7553C76.1415 36.7553 73.895 35.3512 72.6993 33.2674L72.6816 33.2332C72.5936 33.0456 72.5107 32.8218 72.4443 32.5897L72.4361 32.5576C72.2972 32.0789 72.2164 31.5286 72.2164 30.9598C72.2164 29.4314 72.7956 28.0377 73.7458 26.9859L73.7417 26.9911C73.836 26.9082 73.8992 26.7921 73.9127 26.6616V26.6595C73.9002 26.5383 73.8526 26.4305 73.78 26.3435L73.7811 26.3445C72.6578 25.3953 71.949 23.985 71.949 22.409C71.949 22.3105 71.9521 22.2142 71.9573 22.1168L71.9563 22.1302C72.1532 20.5904 73.437 19.406 75.0038 19.3656H75.0079C75.1229 19.3708 75.2369 19.3781 75.3519 19.3853C75.9384 19.4205 76.4524 19.4951 76.9353 19.5148C77.0202 19.5231 77.1187 19.5273 77.2192 19.5273C78.0347 19.5273 78.7777 19.2185 79.3382 18.7118L79.3351 18.7138C79.5786 18.4631 79.8905 18.2797 80.2418 18.1968L80.2542 18.1947C80.3371 18.1719 80.4314 18.1584 80.5288 18.1584C80.5299 18.1584 80.5309 18.1584 80.533 18.1584V18.1574ZM76.6192 14.0074C76.6203 14.0074 76.6213 14.0074 76.6213 14.0074C76.6514 14.0074 76.6752 14.0312 76.6752 14.0613C76.6752 14.0779 76.6669 14.0934 76.6555 14.1027C76.4524 14.2592 76.2773 14.4353 76.126 14.6322L76.1208 14.6395C76.1146 14.6478 76.1105 14.6592 76.1105 14.6706C76.1105 14.6985 76.1332 14.7213 76.1612 14.7224C77.2037 14.7586 78.1756 15.0291 79.0357 15.4829L78.9994 15.4653C79.0522 15.4954 79.0149 15.599 78.9548 15.5845C78.1912 15.4042 77.3135 15.3016 76.413 15.3016C75.4918 15.3016 74.5955 15.4094 73.7355 15.6135L73.8142 15.598C72.2257 15.9637 70.8279 16.6031 69.602 17.4694L69.6393 17.4445C69.631 17.4507 69.6196 17.4549 69.6082 17.4549C69.5792 17.4549 69.5554 17.431 69.5554 17.402C69.5554 17.3885 69.5606 17.3771 69.5678 17.3678C70.6465 16.1026 71.9262 15.0477 73.3655 14.2436L73.435 14.2074C73.4422 14.2032 73.4495 14.2012 73.4588 14.2012C73.4857 14.2012 73.5085 14.2229 73.5085 14.2509C73.5085 14.2592 73.5065 14.2675 73.5023 14.2747C73.3562 14.5276 73.2329 14.8187 73.149 15.1265L73.1427 15.1524C73.1417 15.1555 73.1417 15.1597 73.1417 15.1628C73.1417 15.1918 73.1655 15.2156 73.1946 15.2156C73.2049 15.2156 73.2153 15.2125 73.2236 15.2063C74.1862 14.5659 75.3416 14.1359 76.5871 14.0095L76.6192 14.0074ZM72.3635 9.76929C72.3697 9.76929 72.377 9.76929 72.3842 9.76929C72.5915 9.76929 72.7915 9.79624 72.9821 9.84805L72.9666 9.8439C73.5914 10.3112 74.1354 10.8324 74.6111 11.4127L74.6245 11.4293C72.8941 12.4282 71.404 13.4665 70.0093 14.6156L70.0662 14.57C67.1379 16.9388 64.8893 20.0392 63.5899 23.5965L63.5443 23.7405C62.4895 23.9415 61.6004 24.5311 61.0108 25.3508L61.0025 25.3632C60.6005 25.0503 60.2461 24.7083 59.9311 24.3332L59.9228 24.3228C59.0192 22.6058 60.9082 19.2703 62.2294 17.3865C65.2365 13.0935 69.8144 9.76204 72.3656 9.77033L72.3635 9.76929ZM72.2692 8.63879C66.4737 8.6191 55.3231 21.9064 59.4886 25.4254L60.5114 26.2916C60.3103 26.8129 60.1943 27.417 60.1943 28.047C60.1943 28.2459 60.2057 28.4428 60.2285 28.6355L60.2264 28.6117C60.3735 29.794 60.9538 30.8188 61.7994 31.5411L61.8056 31.5463C62.6232 32.2913 63.705 32.7597 64.8956 32.7939H64.9028C66.825 36.9086 70.9284 39.7085 75.6866 39.7085C75.7136 39.7085 75.7395 39.7085 75.7664 39.7085H75.7623C76.068 39.7375 76.4223 39.7541 76.7809 39.7541C81.4044 39.7541 85.3887 37.0143 87.1979 33.0695L87.2269 32.998C87.5782 32.1327 87.8051 31.1318 87.8579 30.0842L87.859 30.0624C87.859 28.8241 87.1595 28.3112 86.7129 28.3112C86.7005 28.2635 86.6124 27.9413 86.4902 27.5527C86.4083 27.2864 86.3244 27.0667 86.229 26.8553L86.2446 26.8926C86.5285 26.503 86.6984 26.015 86.6984 25.4865C86.6984 25.3663 86.6891 25.2471 86.6725 25.1311L86.6746 25.1446C86.5969 24.6513 86.3658 24.2213 86.0332 23.897C85.4063 23.3612 84.6405 22.9685 83.7981 22.7799L83.7629 22.7737L83.1857 22.6131C83.1826 22.5882 83.1546 21.2495 83.1297 20.6744C83.1173 20.064 83.0251 19.4786 82.8624 18.9242L82.8738 18.9708C82.6645 18.1429 82.2521 17.431 81.6935 16.8632L81.6946 16.8642C82.9681 15.7192 83.8261 14.1348 84.0271 12.3505L84.0302 12.3173C84.026 9.60454 80.6946 8.78386 76.5902 10.4843L75.7198 10.8532C75.1886 10.3316 74.6566 9.81074 74.124 9.29057C73.6474 8.88437 73.0246 8.63672 72.3449 8.63672C72.3179 8.63672 72.291 8.63672 72.2651 8.63776L72.2692 8.63879Z" fill="#09142F"/>
<rect x="138.852" y="0.689453" width="48.3564" height="48.3564" rx="10" fill="#465770"/>
<g clip-path="url(#clip0_355_2171)">
<path d="M177.032 13.3457H166.461V16.674H169.958V18.9394H166.461V21.1534H169.922V23.3842H166.461V25.6149H169.922V27.8457H166.461V30.0765H169.922V32.3072H166.461V35.6534H177.032C177.564 35.6534 177.999 35.2173 177.999 34.683V14.3161C177.999 13.7818 177.564 13.3457 177.032 13.3457ZM175.692 32.3072H171.076V30.0765H175.692V32.3072ZM175.692 27.8457H171.076V25.6149H175.692V27.8457ZM175.692 23.3842H171.076V21.1534H175.692V23.3842ZM175.692 18.9226H171.076V16.6919H175.692V18.9226Z" fill="#09142F"/>
<path d="M148 13.2223V35.7788L165.308 39V10L148 13.2223ZM158.948 30.1662L156.934 26.4865C156.858 26.3493 156.78 26.0972 156.698 25.7303H156.667C156.628 25.9032 156.538 26.1664 156.397 26.5188L154.376 30.1662H151.239L154.963 24.5178L151.556 18.8684H154.759L156.43 22.2558C156.56 22.5235 156.677 22.8414 156.781 23.2084H156.813C156.879 22.9875 157.001 22.6596 157.18 22.2235L159.038 18.8673H161.971L158.467 24.4688L162.069 30.165L158.948 30.1662Z" fill="#09142F"/>
</g>
<rect x="228.656" y="0.689453" width="48.3564" height="48.3564" rx="10" fill="#465770"/>
<path d="M258.366 19.3424C260.565 19.3424 262.673 20.2158 264.228 21.7704C265.782 23.325 266.656 25.4335 266.656 27.6321V37.3034H261.129V27.6321C261.129 26.8992 260.838 26.1964 260.32 25.6782C259.802 25.16 259.099 24.8688 258.366 24.8688C257.633 24.8688 256.93 25.16 256.412 25.6782C255.894 26.1964 255.603 26.8992 255.603 27.6321V37.3034H250.076V27.6321C250.076 25.4335 250.95 23.325 252.504 21.7704C254.059 20.2158 256.167 19.3424 258.366 19.3424Z" stroke="#09142F" stroke-width="3" stroke-linecap="round" stroke-linejoin="round"/>
<path d="M244.55 20.724H239.023V37.3034H244.55V20.724Z" stroke="#09142F" stroke-width="3" stroke-linecap="round" stroke-linejoin="round"/>
<path d="M241.787 16.5792C243.313 16.5792 244.55 15.342 244.55 13.816C244.55 12.2899 243.313 11.0527 241.787 11.0527C240.261 11.0527 239.023 12.2899 239.023 13.816C239.023 15.342 240.261 16.5792 241.787 16.5792Z" stroke="#09142F" stroke-width="3" stroke-linecap="round" stroke-linejoin="round"/>
<rect x="318.461" width="48.3564" height="48.3564" rx="10" fill="#465770"/>
<path d="M353.74 27.5352C353.74 24.25 349.895 22.5534 347.474 24.6279L347.244 24.8398C344.841 27.2332 346.529 31.3355 349.921 31.3447H349.931C352.038 31.3447 353.74 29.6411 353.74 27.54V27.5352ZM352.995 13.6191C352.989 14.7391 352.371 15.7545 351.393 16.2764V19.5176C353.8 19.9563 355.892 21.4537 357.073 23.6064C358.287 25.8098 358.415 28.4476 357.42 30.7578C356.492 32.9246 354.672 34.5695 352.448 35.2959L351.998 35.4297C349.636 36.0487 347.126 35.5721 345.151 34.1484L342.474 36.8262C342.529 37.0405 342.562 37.2629 342.566 37.4863V37.4912C342.566 40.0043 339.523 41.2609 337.744 39.4883H337.743C335.964 37.7092 337.229 34.6661 339.74 34.666H339.75C339.97 34.6702 340.189 34.7007 340.402 34.7549L343.119 32.043C342.316 30.8354 341.823 29.4008 341.762 27.8613L341.756 27.5342C341.751 26.0098 342.18 24.5178 342.986 23.2256L333.552 15.8848C330.374 17.5353 327.067 13.6973 329.297 10.7812L329.516 10.5186C331.811 7.99587 336.094 10.1609 335.336 13.5615L344.965 21.0605C345.99 20.2764 347.191 19.7474 348.46 19.5205V16.2725C347.483 15.7493 346.862 14.7344 346.857 13.6182V13.5322C346.863 11.8611 348.216 10.514 349.886 10.5088H349.972C351.643 10.514 352.99 11.8677 352.995 13.5322V13.6191Z" fill="#09142F" stroke="#09142F" stroke-width="0.5"/>
<rect x="529.039" y="18.6504" width="48.3564" height="48.3564" rx="10" transform="rotate(50.2573 529.039 18.6504)" fill="#465770"/>
<g clip-path="url(#clip1_355_2171)">
<path d="M514.517 61.1871C514.308 60.898 513.907 60.3089 513.72 59.9984L513.628 59.8435L516.813 57.1858L519.998 54.5283L515.867 54.148L511.735 53.7679L511.717 53.3979C511.669 52.4073 511.723 51.4417 511.882 50.421C511.928 50.1216 512.074 49.4098 512.13 49.213L512.173 49.0611L516.311 49.4417L520.449 49.8224L517.788 46.6223L515.127 43.4222L515.381 43.1435C516.256 42.182 517.018 41.5498 518.368 40.6654L518.748 40.4168L521.422 43.596L524.078 46.7904L524.457 42.6676C524.666 40.4001 524.843 38.5397 524.85 38.5335C524.87 38.5169 525.571 38.4876 525.915 38.4888C526.992 38.4921 528.131 38.6268 529.185 38.8751L529.545 38.9603L529.165 43.0916L528.785 47.2232L531.979 44.5766L535.173 41.9299L535.316 42.0576C535.976 42.6399 536.681 43.399 537.187 44.0705C537.511 44.5012 537.861 45.0142 538.09 45.3932L538.189 45.5572L535.004 48.2148L531.819 50.8723L535.951 51.2525L540.082 51.6329L540.1 52.0028C540.164 53.3291 540.044 54.6603 539.744 55.946C539.698 56.1489 539.652 56.3208 539.645 56.327C539.645 56.327 537.784 56.1682 535.525 55.9604C533.267 55.7525 531.413 55.5875 531.405 55.5939C531.405 55.5939 532.579 57.0429 534.037 58.7954L536.686 61.9819L536.432 62.2607C535.943 62.7983 535.621 63.1034 534.989 63.6293C534.356 64.1553 533.997 64.4158 533.379 64.7992L533.059 64.9978L530.398 61.7978L527.737 58.5977L527.357 62.7345L526.976 66.8712L526.897 66.8804C526.853 66.8864 526.677 66.8964 526.505 66.9026C525.212 66.9547 523.896 66.8277 522.63 66.529L522.269 66.4438L522.65 62.3122L523.03 58.1808L519.836 60.8274L516.641 63.4741L516.498 63.3464C515.79 62.7212 515.09 61.9604 514.515 61.1903L514.517 61.1871ZM523.742 55.5962C524.171 56.0233 524.782 56.4994 525.288 56.804L525.522 56.9449L525.676 56.8894C526.154 56.7177 526.833 56.3797 527.344 56.0591C527.718 55.8244 528.649 55.0503 528.948 54.7253C529.357 54.2811 529.813 53.6752 530.069 53.237L530.152 53.0956L530.056 52.8397C529.849 52.2834 529.502 51.6181 529.139 51.0778C529.057 50.9423 528.825 50.6563 528.638 50.4307C528.45 50.2052 528.197 49.9373 528.093 49.8201C527.628 49.3643 527.037 48.902 526.528 48.5969L526.294 48.4561L526.14 48.5114C525.661 48.683 524.981 49.0221 524.472 49.3419C524.135 49.5536 523.205 50.3174 522.933 50.6058C522.515 51.0495 522.121 51.5612 521.814 52.0588L521.663 52.3038L521.732 52.4906C522.146 53.6214 522.852 54.711 523.742 55.5962Z" fill="#09142F"/>
</g>
<rect x="408.266" width="48.3564" height="48.3564" rx="10" fill="#465770"/>
<path d="M429.768 14.9843C430.852 13.9002 432.319 13.1988 433.977 13.1988C436.145 13.1988 438.058 14.4104 439.078 16.1958C439.971 15.8132 440.927 15.5582 441.948 15.5582C445.901 15.5582 449.09 18.7465 449.09 22.7C449.09 26.6536 445.901 29.8419 441.948 29.8419C441.438 29.8419 440.991 29.7781 440.545 29.7144C439.652 31.3085 437.93 32.3926 435.954 32.3926C435.125 32.3926 434.36 32.2013 433.658 31.8824C432.765 33.9867 430.661 35.4534 428.174 35.4534C425.623 35.4534 423.392 33.8592 422.563 31.5636C422.18 31.6274 421.797 31.6911 421.415 31.6911C418.354 31.6911 415.867 29.2042 415.867 26.1434C415.867 24.1029 416.951 22.3174 418.609 21.3609C418.29 20.5957 418.099 19.703 418.099 18.8103C418.099 15.3031 420.969 12.4336 424.539 12.4336C426.771 12.4974 428.621 13.4539 429.768 14.9843Z" fill="#09142F"/>
<path d="M694.99 163.011C713.425 156.111 722.757 135.574 715.817 117.118C708.918 98.7029 688.366 89.3709 669.951 96.2771C651.523 103.197 642.203 123.734 649.104 142.169C656.016 160.605 676.568 169.944 694.99 163.011Z" fill="#465770"/>
<path d="M720.813 300.614V205.072C720.57 190.596 708.623 179.068 694.147 179.325C679.665 179.574 668.115 191.495 668.366 205.977V292.147L611.728 302.486C599.618 304.541 589.873 313.008 589.812 325.882L591.536 412.2C591.503 422.255 599.632 430.473 609.722 430.528C619.798 430.541 628.009 422.419 628.049 412.336L633.353 344.569H682.145C709.542 344.499 720.894 327.997 720.813 300.614Z" fill="#465770"/>
<path d="M764.486 248.985C757.018 247.383 749.673 252.167 748.085 259.648L733.34 329.113C732.204 334.005 730.738 337.878 729.088 340.905C726.54 345.433 723.83 348.135 719.756 350.454C715.694 352.711 709.869 354.428 701.637 355.069C699.461 355.251 697.136 355.38 694.65 355.4H655.631C647.981 355.522 641.906 361.867 642.033 369.511C642.162 377.154 648.467 383.236 656.117 383.114H694.933C697.988 383.087 700.961 382.891 703.834 382.675C711.125 382.08 717.869 380.83 724.155 378.654C733.562 375.438 741.874 369.875 747.956 362.28C754.092 354.718 757.923 345.567 760.302 335.39L760.343 335.228L775.156 265.386C776.745 257.904 771.967 250.552 764.486 248.985Z" fill="#465770"/>
<path d="M587.117 243.902C592.589 243.902 597.024 239.467 597.024 233.995V233.995C597.024 228.524 592.589 224.088 587.117 224.088H532.191C528.094 224.088 524.411 221.589 522.898 217.782L502.612 166.74C500.592 161.657 494.834 159.173 489.75 161.192V161.192C484.663 163.211 482.178 168.973 484.2 174.059L509.456 237.596C510.97 241.403 514.652 243.902 518.749 243.902H587.117Z" fill="#465770"/>
<path d="M624.704 263.619C624.704 258.096 620.227 253.619 614.704 253.619H489.067C484.991 253.619 481.688 256.923 481.688 260.998V260.998V281.272V423.999C481.688 429.522 486.165 433.999 491.687 433.999H497.063C502.586 433.999 507.063 429.522 507.063 423.999V291.272C507.063 285.749 511.54 281.272 517.063 281.272H614.704C620.227 281.272 624.704 276.795 624.704 271.272V263.619Z" fill="#465770"/>
<defs>
<clipPath id="clip0_355_2171">
<rect width="30" height="29" fill="white" transform="translate(148 10)"/>
</clipPath>
<clipPath id="clip1_355_2171">
<rect width="33.1587" height="33.1587" fill="white" transform="translate(528.055 29.3516) rotate(50.2573)"/>
</clipPath>
</defs>
</svg>
