<svg width="798" height="569" viewBox="0 0 798 569" fill="none" xmlns="http://www.w3.org/2000/svg">
<path fill-rule="evenodd" clip-rule="evenodd" d="M276.375 25.875V69.375H232.875V25.875H276.375ZM251.184 36.75H246.948L238.905 58.5H242.726L244.245 54.248H253.873L255.359 58.5H259.411L251.184 36.75ZM266.072 42.2447H262.409L262.389 58.5H266.196L266.072 42.2447ZM249.034 40.3991L252.825 51.2499H245.302L249.034 40.3991ZM280 58.5H287.25V65.75H280V58.5ZM236.5 73H243.75V80.25H236.5V73ZM251 73H258.25V80.25H251V73ZM236.5 15H243.75V22.25H236.5V15ZM265.5 73H272.75V80.25H265.5V73ZM251 15H258.25V22.25H251V15ZM265.5 15H272.75V22.25H265.5V15ZM280 44H287.25V51.25H280V44ZM222 58.5H229.25V65.75H222V58.5ZM280 29.5H287.25V36.75H280V29.5ZM222 44H229.25V51.25H222V44ZM222 29.5H229.25V36.75H222V29.5Z" fill="#465770"/>
<path d="M263.965 32.0286C263.973 31.9905 264.027 31.9905 264.035 32.0286C264.44 34.0108 265.989 35.5598 267.971 35.9649C268.01 35.9727 268.01 36.0273 267.971 36.0351C265.989 36.4402 264.44 37.9892 264.035 39.9714C264.027 40.0095 263.973 40.0095 263.965 39.9714C263.56 37.9892 262.011 36.4402 260.029 36.0351C259.99 36.0273 259.99 35.9727 260.029 35.9649C262.011 35.5598 263.56 34.0108 263.965 32.0286Z" fill="#A8CDFF" stroke="#A8CDFF"/>
<path d="M235.628 92.3789C235.651 92.3474 235.701 92.3703 235.692 92.4082C235.23 94.378 235.989 96.4331 237.619 97.6306C237.651 97.6537 237.628 97.7033 237.59 97.6944C235.62 97.2327 233.565 97.9912 232.367 99.6218C232.344 99.6532 232.295 99.6304 232.304 99.5924C232.765 97.6227 232.007 95.5675 230.376 94.37C230.345 94.3469 230.368 94.2974 230.406 94.3063C232.375 94.7679 234.43 94.0095 235.628 92.3789Z" fill="#A8CDFF" stroke="#A8CDFF"/>
<path d="M252.965 115.029C252.973 114.99 253.027 114.99 253.035 115.029C253.44 117.011 254.989 118.56 256.971 118.965C257.01 118.973 257.01 119.027 256.971 119.035C254.989 119.44 253.44 120.989 253.035 122.971C253.027 123.01 252.973 123.01 252.965 122.971C252.56 120.989 251.011 119.44 249.029 119.035C248.99 119.027 248.99 118.973 249.029 118.965C251.011 118.56 252.56 117.011 252.965 115.029Z" fill="#A8CDFF" stroke="#A8CDFF"/>
<path d="M163.799 75.1101C163.815 75.0744 163.868 75.0859 163.868 75.1249C163.846 77.1479 165.034 78.9887 166.886 79.8026C166.922 79.8183 166.91 79.8716 166.871 79.8712C164.848 79.8493 163.007 81.0369 162.193 82.889C162.178 82.9247 162.124 82.9132 162.125 82.8742C162.147 80.8513 160.959 79.0105 159.107 78.1965C159.071 78.1808 159.083 78.1275 159.122 78.1279C161.145 78.1498 162.985 76.9622 163.799 75.1101Z" fill="#A8CDFF" stroke="#A8CDFF"/>
<path d="M119.371 99.2722C119.392 99.2392 119.443 99.2585 119.437 99.297C119.116 101.295 120.019 103.291 121.73 104.369C121.763 104.39 121.744 104.441 121.706 104.435C119.708 104.114 117.712 105.017 116.633 106.728C116.612 106.761 116.561 106.742 116.567 106.704C116.888 104.706 115.986 102.71 114.274 101.631C114.241 101.61 114.26 101.559 114.299 101.565C116.296 101.886 118.293 100.984 119.371 99.2722Z" fill="#A8CDFF" stroke="#A8CDFF"/>
<path d="M132.982 121.151C133 121.116 133.052 121.13 133.05 121.169C132.936 123.189 134.038 125.082 135.851 125.98C135.886 125.997 135.872 126.05 135.833 126.048C133.813 125.934 131.92 127.036 131.022 128.849C131.005 128.884 130.952 128.87 130.954 128.831C131.069 126.811 129.967 124.918 128.154 124.02C128.119 124.003 128.133 123.95 128.172 123.952C130.191 124.067 132.085 122.964 132.982 121.151Z" fill="#A8CDFF" stroke="#A8CDFF"/>
<path d="M206.965 72.0286C206.973 71.9905 207.027 71.9905 207.035 72.0286C207.44 74.0108 208.989 75.5598 210.971 75.9649C211.01 75.9727 211.01 76.0273 210.971 76.0351C208.989 76.4402 207.44 77.9892 207.035 79.9714C207.027 80.0095 206.973 80.0095 206.965 79.9714C206.56 77.9892 205.011 76.4402 203.029 76.0351C202.99 76.0273 202.99 75.9727 203.029 75.9649C205.011 75.5598 206.56 74.0108 206.965 72.0286Z" fill="#A8CDFF" stroke="#A8CDFF"/>
<path d="M158.163 102.202C158.182 102.168 158.234 102.184 158.23 102.223C158.019 104.235 159.03 106.178 160.798 107.162C160.832 107.181 160.816 107.233 160.777 107.228C158.765 107.018 156.821 108.029 155.838 109.797C155.819 109.831 155.767 109.815 155.771 109.776C155.982 107.764 154.971 105.82 153.203 104.837C153.169 104.818 153.185 104.766 153.224 104.77C155.236 104.98 157.18 103.97 158.163 102.202Z" fill="#A8CDFF" stroke="#A8CDFF"/>
<path d="M195.953 92.5409C195.978 92.5117 196.026 92.539 196.013 92.576C195.375 94.4957 195.944 96.6112 197.46 97.9516C197.489 97.9774 197.462 98.0247 197.425 98.0124C195.505 97.3741 193.389 97.9432 192.049 99.4585C192.023 99.4877 191.976 99.4605 191.988 99.4235C192.626 97.5037 192.057 95.3883 190.542 94.0479C190.513 94.0221 190.54 93.9748 190.577 93.9871C192.497 94.6254 194.612 94.0563 195.953 92.5409Z" fill="#A8CDFF" stroke="#A8CDFF"/>
<path d="M203.907 112.182C203.905 112.143 203.957 112.129 203.975 112.163C204.894 113.966 206.799 115.046 208.818 114.908C208.857 114.906 208.871 114.958 208.836 114.976C207.034 115.895 205.954 117.8 206.091 119.819C206.094 119.858 206.041 119.872 206.024 119.838C205.105 118.035 203.199 116.955 201.181 117.093C201.142 117.095 201.127 117.043 201.162 117.025C202.965 116.106 204.045 114.2 203.907 112.182Z" fill="#A8CDFF" stroke="#A8CDFF"/>
<path d="M82.5623 114.298C82.5561 114.259 82.6072 114.24 82.628 114.273C83.7082 115.984 85.7051 116.884 87.7023 116.562C87.7408 116.556 87.7601 116.607 87.7271 116.628C86.0166 117.708 85.1158 119.705 85.4381 121.702C85.4443 121.74 85.3933 121.76 85.3725 121.727C84.2923 120.016 82.2954 119.115 80.2982 119.438C80.2597 119.444 80.2404 119.393 80.2733 119.372C81.9839 118.292 82.8847 116.295 82.5623 114.298Z" fill="#A8CDFF" stroke="#A8CDFF"/>
<path d="M272.741 92.0986C272.74 92.0596 272.687 92.0499 272.672 92.0861C271.922 93.965 270.123 95.2148 268.1 95.262C268.061 95.2629 268.052 95.3167 268.088 95.3311C269.967 96.0813 271.217 97.8804 271.264 99.903C271.265 99.9419 271.318 99.9516 271.333 99.9154C272.083 98.0365 273.882 96.7867 275.905 96.7395C275.944 96.7386 275.953 96.6849 275.917 96.6704C274.038 95.9203 272.789 94.1211 272.741 92.0986Z" fill="#A8CDFF" stroke="#A8CDFF"/>
<path d="M345.05 75.6008C345.063 75.564 345.016 75.5362 344.99 75.5651C343.631 77.0645 341.509 77.6085 339.597 76.9475C339.56 76.9348 339.533 76.9818 339.561 77.0079C341.061 78.3662 341.605 80.4882 340.944 82.4003C340.931 82.4371 340.978 82.4649 341.004 82.436C342.363 80.9366 344.485 80.3926 346.397 81.0535C346.433 81.0663 346.461 81.0193 346.432 80.9932C344.933 79.6349 344.389 77.5129 345.05 75.6008Z" fill="#A8CDFF" stroke="#A8CDFF"/>
<path d="M387.329 99.0857C387.315 99.0495 387.261 99.0592 387.26 99.0982C387.213 101.121 385.962 102.92 384.083 103.669C384.047 103.684 384.057 103.737 384.096 103.738C386.118 103.786 387.917 105.036 388.667 106.915C388.681 106.952 388.735 106.942 388.736 106.903C388.784 104.88 390.034 103.082 391.913 102.332C391.949 102.317 391.939 102.264 391.9 102.263C389.878 102.215 388.079 100.965 387.329 99.0857Z" fill="#A8CDFF" stroke="#A8CDFF"/>
<path d="M375.204 121.217C375.208 121.178 375.155 121.162 375.137 121.196C374.164 122.97 372.226 123.992 370.213 123.793C370.174 123.789 370.158 123.842 370.192 123.86C371.966 124.833 372.988 126.771 372.789 128.784C372.785 128.823 372.838 128.839 372.856 128.805C373.829 127.031 375.767 126.009 377.78 126.208C377.819 126.212 377.835 126.159 377.801 126.141C376.027 125.168 375.005 123.23 375.204 121.217Z" fill="#A8CDFF" stroke="#A8CDFF"/>
<path d="M300.448 72.3013C300.454 72.2628 300.403 72.2434 300.382 72.2764C299.299 73.9851 297.301 74.8825 295.304 74.5568C295.266 74.5505 295.246 74.6015 295.279 74.6224C296.988 75.7055 297.885 77.7039 297.559 79.7006C297.553 79.7391 297.604 79.7584 297.625 79.7255C298.708 78.0168 300.707 77.1194 302.703 77.4451C302.742 77.4514 302.761 77.4004 302.728 77.3795C301.019 76.2964 300.122 74.298 300.448 72.3013Z" fill="#A8CDFF" stroke="#A8CDFF"/>
<path d="M348.106 102.132C348.089 102.096 348.036 102.109 348.037 102.148C348.108 104.17 346.966 106.039 345.134 106.898C345.099 106.914 345.112 106.967 345.151 106.966C347.172 106.895 349.042 108.037 349.9 109.869C349.917 109.905 349.97 109.892 349.969 109.853C349.898 107.831 351.04 105.962 352.872 105.103C352.907 105.087 352.894 105.033 352.855 105.035C350.833 105.106 348.964 103.963 348.106 102.132Z" fill="#A8CDFF" stroke="#A8CDFF"/>
<path d="M311.181 92.1146C311.165 92.079 311.112 92.0907 311.113 92.1297C311.144 94.1526 309.965 95.9989 308.117 96.8216C308.081 96.8374 308.093 96.8907 308.132 96.8901C310.155 96.8587 312.001 98.0376 312.824 99.8859C312.84 99.9215 312.893 99.9098 312.892 99.8708C312.861 97.8479 314.04 96.0016 315.888 95.1789C315.924 95.1631 315.912 95.1098 315.873 95.1104C313.85 95.1418 312.004 93.9629 311.181 92.1146Z" fill="#A8CDFF" stroke="#A8CDFF"/>
<path d="M299.727 112.239C299.707 112.206 299.655 112.224 299.661 112.263C299.931 114.268 298.979 116.24 297.241 117.276C297.207 117.296 297.225 117.347 297.264 117.342C299.269 117.072 301.242 118.024 302.277 119.762C302.297 119.795 302.349 119.777 302.343 119.739C302.073 117.734 303.025 115.761 304.763 114.726C304.797 114.706 304.779 114.654 304.74 114.659C302.735 114.93 300.762 113.977 299.727 112.239Z" fill="#A8CDFF" stroke="#A8CDFF"/>
<path d="M423.927 114.53C423.938 114.493 423.89 114.467 423.865 114.496C422.561 116.043 420.459 116.662 418.525 116.069C418.488 116.058 418.462 116.105 418.492 116.131C420.038 117.435 420.657 119.536 420.064 121.471C420.053 121.508 420.101 121.534 420.126 121.504C421.43 119.958 423.531 119.339 425.466 119.932C425.503 119.943 425.529 119.895 425.499 119.87C423.953 118.566 423.334 116.464 423.927 114.53Z" fill="#A8CDFF" stroke="#A8CDFF"/>
<rect x="2.5" y="189.5" width="504" height="73" rx="36.5" stroke="#465770" stroke-width="5"/>
<rect x="5" y="192" width="500" height="68" rx="34" stroke="#465770" stroke-width="8" stroke-dasharray="6 8"/>
<path d="M473.32 248.381C479.173 247.466 484.423 244.263 487.914 239.477C491.406 234.692 492.853 228.715 491.938 222.862C491.023 217.01 487.82 211.76 483.034 208.269C478.249 204.777 472.272 203.33 466.42 204.245C460.567 205.16 455.317 208.363 451.826 213.148C448.334 217.934 446.887 223.91 447.802 229.763C448.717 235.616 451.92 240.866 456.705 244.357C461.491 247.849 467.468 249.296 473.32 248.381Z" stroke="#465770" stroke-width="6" stroke-linecap="round" stroke-linejoin="round"/>
<path d="M470.734 231.83C472.198 231.601 473.51 230.8 474.383 229.604C475.256 228.407 475.618 226.913 475.389 225.45C475.16 223.987 474.359 222.674 473.163 221.802C471.967 220.929 470.472 220.567 469.009 220.796C467.546 221.024 466.234 221.825 465.361 223.021C464.488 224.218 464.126 225.712 464.355 227.175C464.584 228.638 465.384 229.951 466.581 230.824C467.777 231.696 469.271 232.058 470.734 231.83Z" stroke="#465770" stroke-width="6" stroke-linecap="round" stroke-linejoin="round"/>
<path d="M465.555 198.729L466.417 204.246" stroke="#465770" stroke-width="6" stroke-linecap="round" stroke-linejoin="round"/>
<path d="M474.191 253.898L473.328 248.381" stroke="#465770" stroke-width="6" stroke-linecap="round" stroke-linejoin="round"/>
<path d="M487.395 248.046L483.891 243.705" stroke="#465770" stroke-width="6" stroke-linecap="round" stroke-linejoin="round"/>
<path d="M466.367 221.973L452.344 204.582" stroke="#465770" stroke-width="6" stroke-linecap="round" stroke-linejoin="round"/>
<path d="M495.922 236.37L490.719 234.357" stroke="#465770" stroke-width="6" stroke-linecap="round" stroke-linejoin="round"/>
<path d="M443.82 216.256L449.024 218.268" stroke="#465770" stroke-width="6" stroke-linecap="round" stroke-linejoin="round"/>
<path d="M475.391 225.451L497.459 222.001" stroke="#465770" stroke-width="6" stroke-linecap="round" stroke-linejoin="round"/>
<path d="M442.289 230.627L447.806 229.764" stroke="#465770" stroke-width="6" stroke-linecap="round" stroke-linejoin="round"/>
<path d="M491.608 208.785L487.267 212.29" stroke="#465770" stroke-width="6" stroke-linecap="round" stroke-linejoin="round"/>
<path d="M448.134 243.841L452.475 240.336" stroke="#465770" stroke-width="6" stroke-linecap="round" stroke-linejoin="round"/>
<path d="M479.923 200.268L477.91 205.471" stroke="#465770" stroke-width="6" stroke-linecap="round" stroke-linejoin="round"/>
<path d="M467.854 231.517L459.809 252.359" stroke="#465770" stroke-width="6" stroke-linecap="round" stroke-linejoin="round"/>
<path d="M43.6406 248.377C49.4934 247.462 54.743 244.259 58.2344 239.474C61.7259 234.688 63.1733 228.711 62.2582 222.859C61.3431 217.006 58.1404 211.756 53.3548 208.265C48.5692 204.773 42.5926 203.326 36.7398 204.241C30.887 205.156 25.6375 208.359 22.146 213.144C18.6546 217.93 17.2072 223.907 18.1223 229.759C19.0374 235.612 22.24 240.862 27.0256 244.353C31.8113 247.845 37.7878 249.292 43.6406 248.377Z" stroke="#465770" stroke-width="6" stroke-linecap="round" stroke-linejoin="round"/>
<path d="M41.0547 231.826C42.5179 231.597 43.8303 230.796 44.7031 229.6C45.576 228.403 45.9378 226.909 45.7091 225.446C45.4803 223.983 44.6796 222.671 43.4832 221.798C42.2868 220.925 40.7927 220.563 39.3295 220.792C37.8663 221.02 36.5539 221.821 35.681 223.018C34.8082 224.214 34.4463 225.708 34.6751 227.171C34.9039 228.634 35.7045 229.947 36.9009 230.82C38.0973 231.693 39.5915 232.054 41.0547 231.826Z" stroke="#465770" stroke-width="6" stroke-linecap="round" stroke-linejoin="round"/>
<path d="M35.875 198.725L36.7376 204.242" stroke="#465770" stroke-width="6" stroke-linecap="round" stroke-linejoin="round"/>
<path d="M44.5032 253.894L43.6406 248.377" stroke="#465770" stroke-width="6" stroke-linecap="round" stroke-linejoin="round"/>
<path d="M57.7234 248.042L54.2188 243.701" stroke="#465770" stroke-width="6" stroke-linecap="round" stroke-linejoin="round"/>
<path d="M36.6869 221.971L22.6641 204.58" stroke="#465770" stroke-width="6" stroke-linecap="round" stroke-linejoin="round"/>
<path d="M66.2347 236.368L61.0312 234.355" stroke="#465770" stroke-width="6" stroke-linecap="round" stroke-linejoin="round"/>
<path d="M14.1484 216.254L19.3519 218.266" stroke="#465770" stroke-width="6" stroke-linecap="round" stroke-linejoin="round"/>
<path d="M45.7109 225.447L67.7789 221.997" stroke="#465770" stroke-width="6" stroke-linecap="round" stroke-linejoin="round"/>
<path d="M12.6094 230.621L18.1264 229.758" stroke="#465770" stroke-width="6" stroke-linecap="round" stroke-linejoin="round"/>
<path d="M61.9284 208.783L57.5876 212.288" stroke="#465770" stroke-width="6" stroke-linecap="round" stroke-linejoin="round"/>
<path d="M18.4626 243.837L22.8034 240.332" stroke="#465770" stroke-width="6" stroke-linecap="round" stroke-linejoin="round"/>
<path d="M50.2429 200.266L48.2305 205.469" stroke="#465770" stroke-width="6" stroke-linecap="round" stroke-linejoin="round"/>
<path d="M38.1824 231.513L30.1373 252.355" stroke="#465770" stroke-width="6" stroke-linecap="round" stroke-linejoin="round"/>
<rect x="49.0469" y="135" width="48.3564" height="48.3564" rx="10" fill="#465770"/>
<path d="M64.2417 161.004C64.2376 161.004 64.2334 161.004 64.2282 161.004C63.8013 161.004 63.4159 161.185 63.1454 161.474L63.1444 161.475C62.8366 161.802 62.648 162.244 62.648 162.729C62.648 162.83 62.6563 162.93 62.6719 163.026L62.6708 163.016C62.7061 163.11 62.761 163.137 62.8004 163.142C62.8832 163.153 63.0076 163.092 63.0853 162.883L63.1071 162.816C63.1589 162.634 63.2283 162.475 63.3153 162.328L63.3102 162.337C63.4718 162.093 63.7454 161.933 64.0573 161.933C64.2396 161.933 64.4096 161.988 64.5505 162.081L64.5474 162.079C64.7847 162.237 64.9391 162.503 64.9391 162.806C64.9391 162.922 64.9163 163.032 64.8748 163.133L64.8769 163.127C64.7681 163.395 64.7049 163.707 64.7049 164.033C64.7049 164.043 64.7049 164.052 64.7049 164.061C64.7049 164.072 64.7039 164.083 64.7039 164.096C64.7039 164.573 65.0655 164.966 65.5287 165.016H65.5328C65.5525 165.018 65.5753 165.019 65.5981 165.019C65.8509 165.019 66.0727 164.886 66.1981 164.687L66.2002 164.684C66.2115 164.663 66.2188 164.64 66.2188 164.614C66.2188 164.578 66.2064 164.547 66.1856 164.523C66.1297 164.454 66.0395 164.475 65.9525 164.496C65.8903 164.513 65.8188 164.524 65.7453 164.524C65.7411 164.524 65.737 164.524 65.7328 164.524C65.5815 164.524 65.4468 164.448 65.366 164.333L65.365 164.332C65.3194 164.242 65.2935 164.135 65.2935 164.022C65.2935 163.897 65.3266 163.779 65.3836 163.676L65.3815 163.679C65.3961 163.643 65.4137 163.604 65.4334 163.56C65.6074 163.276 65.7111 162.932 65.7111 162.563C65.7111 162.308 65.6613 162.064 65.5712 161.841L65.5753 161.853C65.3546 161.404 64.9298 161.084 64.4262 161.013L64.4179 161.012C64.365 161.005 64.3029 160.999 64.2396 160.999L64.2417 161.004ZM64.3329 159.804C64.3951 159.804 64.4593 159.804 64.5256 159.808C65.9784 159.982 67.1048 161.17 67.1825 162.636V162.643C67.4633 164.469 67.0167 166.325 65.3059 166.617C65.1784 166.638 65.0323 166.651 64.8821 166.651C64.8603 166.651 64.8396 166.651 64.8178 166.65H64.821C63.0667 166.521 61.6533 165.212 61.3662 163.519L61.3631 163.498C61.3279 163.323 61.3082 163.121 61.3082 162.914C61.3082 161.409 62.3755 160.152 63.7961 159.861L63.8158 159.858C63.9702 159.825 64.1474 159.806 64.3298 159.804H64.3319H64.3329ZM79.3994 159.773C79.3901 159.772 79.3797 159.772 79.3683 159.772C79.2263 159.772 79.1009 159.848 79.0336 159.962L79.0326 159.964C79.0284 159.989 79.0263 160.017 79.0263 160.046C79.0263 160.367 79.2864 160.627 79.6077 160.627C79.7714 160.627 79.9185 160.56 80.0242 160.451C80.0356 160.411 80.0429 160.364 80.0429 160.317C80.0429 160.099 79.903 159.915 79.7092 159.847L79.7061 159.846C79.617 159.801 79.5113 159.774 79.3994 159.773ZM76.4721 159.254C76.47 159.254 76.4669 159.254 76.4638 159.254C76.3964 159.254 76.3291 159.259 76.2638 159.266L76.2721 159.265C75.9778 159.298 75.7146 159.413 75.5012 159.587L75.5043 159.585C75.4038 159.658 75.3333 159.765 75.3084 159.889L75.3074 159.892V159.893C75.3074 159.947 75.3509 159.99 75.4048 159.99C75.5157 159.974 75.6151 159.946 75.7084 159.905L75.7001 159.908C75.9685 159.804 76.2794 159.744 76.6047 159.744C76.7425 159.744 76.8783 159.755 77.0109 159.776L76.9964 159.774C77.1995 159.796 77.2938 159.809 77.3394 159.74C77.3487 159.725 77.3539 159.705 77.3539 159.686C77.3539 159.658 77.3435 159.632 77.327 159.611C77.1259 159.391 76.8368 159.253 76.5166 159.253C76.5011 159.253 76.4856 159.253 76.47 159.254H76.4721ZM81.1081 159.032C80.8863 159.028 80.7029 159.272 80.6977 159.576C80.6926 159.881 80.8677 160.132 81.0905 160.135C81.3133 160.139 81.4967 159.896 81.5018 159.591C81.507 159.286 81.3309 159.036 81.1081 159.032ZM75.8224 157.983C75.8193 157.983 75.8162 157.983 75.8131 157.983C75.3219 157.983 74.8691 158.142 74.5002 158.41L74.5064 158.406C74.2992 158.557 74.1033 158.768 74.1313 158.895C74.1417 158.936 74.1717 158.967 74.2453 158.977C74.6297 158.862 75.1198 158.749 75.6193 158.664L75.698 158.652C75.7229 158.651 75.7509 158.651 75.7799 158.651C76.1851 158.651 76.5685 158.748 76.9073 158.919L76.8928 158.913C77.2026 159.047 77.3922 159.136 77.4668 159.059C77.5145 159.01 77.5 158.917 77.4264 158.794C77.2275 158.51 76.956 158.289 76.6379 158.155L76.6254 158.151C76.3882 158.046 76.1125 157.984 75.8224 157.983ZM80.562 155.981C80.534 155.981 80.5071 155.984 80.4812 155.988H80.4843C80.0501 156.058 80.0346 156.595 80.189 157.335C80.2594 157.712 80.4045 158.045 80.6086 158.334L80.6035 158.326C80.6998 158.313 80.8117 158.305 80.9257 158.305C81.0397 158.305 81.1516 158.313 81.2614 158.327L81.249 158.326C81.3143 158.127 81.3516 157.899 81.3516 157.662C81.3516 157.464 81.3257 157.273 81.277 157.091L81.2801 157.106C81.135 156.413 80.9423 155.977 80.563 155.982L80.562 155.981ZM80.533 153.157L80.6055 153.158C80.8262 153.168 81.0293 153.237 81.2003 153.35L81.1962 153.347C81.8873 153.807 81.9858 154.922 82.022 155.737C82.0417 156.203 82.0987 157.328 82.1174 157.65C82.1609 158.39 82.3557 158.494 82.7484 158.622C82.9681 158.696 83.1753 158.749 83.4779 158.835C84.1711 158.977 84.7783 159.275 85.285 159.693L85.2778 159.687C85.4488 159.854 85.5669 160.076 85.6042 160.324L85.6052 160.33C85.713 161.118 84.9939 162.092 83.0904 162.973C81.5796 163.652 79.8159 164.048 77.9601 164.048C77.5301 164.048 77.1062 164.027 76.6866 163.986L76.7394 163.99L76.1291 163.922C74.7333 163.734 73.9365 165.536 74.7748 166.771C75.5809 167.59 76.7011 168.096 77.9404 168.096C78.0513 168.096 78.1611 168.092 78.2699 168.084L78.2554 168.085C78.386 168.091 78.5383 168.095 78.6906 168.095C81.2262 168.095 83.5225 167.066 85.1825 165.402C85.2073 165.37 85.2332 165.335 85.2571 165.298L85.2602 165.292C85.3068 165.221 85.2685 165.183 85.2084 165.223C83.3173 166.538 80.9734 167.324 78.445 167.324C77.9995 167.324 77.5591 167.3 77.127 167.252L77.1809 167.257C76.8493 167.198 76.5571 167.116 76.2773 167.01L76.3115 167.022C75.9809 166.892 75.2908 166.576 75.2069 165.869C75.9592 166.156 76.8296 166.321 77.7383 166.321C78.5942 166.321 79.416 166.174 80.1796 165.904L80.1289 165.919C80.161 165.904 80.1838 165.872 80.1838 165.834C80.1838 165.831 80.1838 165.828 80.1838 165.826C80.1796 165.782 80.1423 165.748 80.0978 165.748C80.0947 165.748 80.0916 165.748 80.0885 165.749C79.6937 165.799 79.2367 165.828 78.7735 165.828C77.5218 165.828 76.3177 165.62 75.1955 165.238L75.2732 165.26C75.5281 164.431 76.2058 164.732 77.2285 164.814C77.4814 164.829 77.7767 164.839 78.0751 164.839C79.4553 164.839 80.79 164.643 82.0521 164.278L81.9516 164.303C83.3017 163.911 84.4778 163.31 85.5099 162.528L85.483 162.548C85.6995 163.034 85.8705 163.598 85.9689 164.188L85.9752 164.229C86.0114 164.223 86.0539 164.22 86.0964 164.22C86.2425 164.22 86.3793 164.258 86.4974 164.326L86.4933 164.324C86.7171 164.46 86.8808 164.745 86.7689 165.482C86.5409 166.87 85.8974 168.078 84.9731 169.004C84.369 169.656 83.6551 170.196 82.8582 170.596L82.8158 170.615C82.421 170.829 81.9557 171.031 81.4718 171.193L81.4075 171.211C80.6128 171.555 79.6885 171.755 78.7165 171.755C76.1415 171.755 73.895 170.351 72.6993 168.267L72.6816 168.233C72.5936 168.046 72.5107 167.822 72.4443 167.59L72.4361 167.558C72.2972 167.079 72.2164 166.529 72.2164 165.96C72.2164 164.431 72.7956 163.038 73.7458 161.986L73.7417 161.991C73.836 161.908 73.8992 161.792 73.9127 161.662V161.659C73.9002 161.538 73.8526 161.43 73.78 161.343L73.7811 161.344C72.6578 160.395 71.949 158.985 71.949 157.409C71.949 157.311 71.9521 157.214 71.9573 157.117L71.9563 157.13C72.1532 155.59 73.437 154.406 75.0038 154.366H75.0079C75.1229 154.371 75.2369 154.378 75.3519 154.385C75.9384 154.421 76.4524 154.495 76.9353 154.515C77.0202 154.523 77.1187 154.527 77.2192 154.527C78.0347 154.527 78.7777 154.218 79.3382 153.712L79.3351 153.714C79.5786 153.463 79.8905 153.28 80.2418 153.197L80.2542 153.195C80.3371 153.172 80.4314 153.158 80.5288 153.158C80.5299 153.158 80.5309 153.158 80.533 153.158V153.157ZM76.6192 149.007C76.6203 149.007 76.6213 149.007 76.6213 149.007C76.6514 149.007 76.6752 149.031 76.6752 149.061C76.6752 149.078 76.6669 149.093 76.6555 149.103C76.4524 149.259 76.2773 149.435 76.126 149.632L76.1208 149.639C76.1146 149.648 76.1105 149.659 76.1105 149.671C76.1105 149.699 76.1332 149.721 76.1612 149.722C77.2037 149.759 78.1756 150.029 79.0357 150.483L78.9994 150.465C79.0522 150.495 79.0149 150.599 78.9548 150.584C78.1912 150.404 77.3135 150.302 76.413 150.302C75.4918 150.302 74.5955 150.409 73.7355 150.614L73.8142 150.598C72.2257 150.964 70.8279 151.603 69.602 152.469L69.6393 152.444C69.631 152.451 69.6196 152.455 69.6082 152.455C69.5792 152.455 69.5554 152.431 69.5554 152.402C69.5554 152.389 69.5606 152.377 69.5678 152.368C70.6465 151.103 71.9262 150.048 73.3655 149.244L73.435 149.207C73.4422 149.203 73.4495 149.201 73.4588 149.201C73.4857 149.201 73.5085 149.223 73.5085 149.251C73.5085 149.259 73.5065 149.267 73.5023 149.275C73.3562 149.528 73.2329 149.819 73.149 150.126L73.1427 150.152C73.1417 150.156 73.1417 150.16 73.1417 150.163C73.1417 150.192 73.1655 150.216 73.1946 150.216C73.2049 150.216 73.2153 150.212 73.2236 150.206C74.1862 149.566 75.3416 149.136 76.5871 149.009L76.6192 149.007ZM72.3635 144.769C72.3697 144.769 72.377 144.769 72.3842 144.769C72.5915 144.769 72.7915 144.796 72.9821 144.848L72.9666 144.844C73.5914 145.311 74.1354 145.832 74.6111 146.413L74.6245 146.429C72.8941 147.428 71.404 148.466 70.0093 149.616L70.0662 149.57C67.1379 151.939 64.8893 155.039 63.5899 158.596L63.5443 158.74C62.4895 158.942 61.6004 159.531 61.0108 160.351L61.0025 160.363C60.6005 160.05 60.2461 159.708 59.9311 159.333L59.9228 159.323C59.0192 157.606 60.9082 154.27 62.2294 152.386C65.2365 148.093 69.8144 144.762 72.3656 144.77L72.3635 144.769ZM72.2692 143.639C66.4737 143.619 55.3231 156.906 59.4886 160.425L60.5114 161.292C60.3103 161.813 60.1943 162.417 60.1943 163.047C60.1943 163.246 60.2057 163.443 60.2285 163.636L60.2264 163.612C60.3735 164.794 60.9538 165.819 61.7994 166.541L61.8056 166.546C62.6232 167.291 63.705 167.76 64.8956 167.794H64.9028C66.825 171.909 70.9284 174.708 75.6866 174.708C75.7136 174.708 75.7395 174.708 75.7664 174.708H75.7623C76.068 174.737 76.4223 174.754 76.7809 174.754C81.4044 174.754 85.3887 172.014 87.1979 168.069L87.2269 167.998C87.5782 167.133 87.8051 166.132 87.8579 165.084L87.859 165.062C87.859 163.824 87.1595 163.311 86.7129 163.311C86.7005 163.264 86.6124 162.941 86.4902 162.553C86.4083 162.286 86.3244 162.067 86.229 161.855L86.2446 161.893C86.5285 161.503 86.6984 161.015 86.6984 160.487C86.6984 160.366 86.6891 160.247 86.6725 160.131L86.6746 160.145C86.5969 159.651 86.3658 159.221 86.0332 158.897C85.4063 158.361 84.6405 157.969 83.7981 157.78L83.7629 157.774L83.1857 157.613C83.1826 157.588 83.1546 156.249 83.1297 155.674C83.1173 155.064 83.0251 154.479 82.8624 153.924L82.8738 153.971C82.6645 153.143 82.2521 152.431 81.6935 151.863L81.6946 151.864C82.9681 150.719 83.8261 149.135 84.0271 147.35L84.0302 147.317C84.026 144.605 80.6946 143.784 76.5902 145.484L75.7198 145.853C75.1886 145.332 74.6566 144.811 74.124 144.291C73.6474 143.884 73.0246 143.637 72.3449 143.637C72.3179 143.637 72.291 143.637 72.2651 143.638L72.2692 143.639Z" fill="#09142F"/>
<rect x="138.852" y="135.689" width="48.3564" height="48.3564" rx="10" fill="#465770"/>
<g clip-path="url(#clip0_347_1967)">
<path d="M177.032 148.346H166.461V151.674H169.958V153.939H166.461V156.153H169.922V158.384H166.461V160.615H169.922V162.846H166.461V165.076H169.922V167.307H166.461V170.653H177.032C177.564 170.653 177.999 170.217 177.999 169.683V149.316C177.999 148.782 177.564 148.346 177.032 148.346ZM175.692 167.307H171.076V165.076H175.692V167.307ZM175.692 162.846H171.076V160.615H175.692V162.846ZM175.692 158.384H171.076V156.153H175.692V158.384ZM175.692 153.923H171.076V151.692H175.692V153.923Z" fill="#09142F"/>
<path d="M148 148.222V170.779L165.308 174V145L148 148.222ZM158.948 165.166L156.934 161.486C156.858 161.349 156.78 161.097 156.698 160.73H156.667C156.628 160.903 156.538 161.166 156.397 161.519L154.376 165.166H151.239L154.963 159.518L151.556 153.868H154.759L156.43 157.256C156.56 157.524 156.677 157.841 156.781 158.208H156.813C156.879 157.988 157.001 157.66 157.18 157.223L159.038 153.867H161.971L158.467 159.469L162.069 165.165L158.948 165.166Z" fill="#09142F"/>
</g>
<rect x="228.656" y="135.689" width="48.3564" height="48.3564" rx="10" fill="#465770"/>
<path d="M258.366 154.342C260.565 154.342 262.673 155.216 264.228 156.77C265.782 158.325 266.656 160.434 266.656 162.632V172.303H261.129V162.632C261.129 161.899 260.838 161.196 260.32 160.678C259.802 160.16 259.099 159.869 258.366 159.869C257.633 159.869 256.93 160.16 256.412 160.678C255.894 161.196 255.603 161.899 255.603 162.632V172.303H250.076V162.632C250.076 160.434 250.95 158.325 252.504 156.77C254.059 155.216 256.167 154.342 258.366 154.342Z" stroke="#09142F" stroke-width="3" stroke-linecap="round" stroke-linejoin="round"/>
<path d="M244.55 155.724H239.023V172.303H244.55V155.724Z" stroke="#09142F" stroke-width="3" stroke-linecap="round" stroke-linejoin="round"/>
<path d="M241.787 151.579C243.313 151.579 244.55 150.342 244.55 148.816C244.55 147.29 243.313 146.053 241.787 146.053C240.261 146.053 239.023 147.29 239.023 148.816C239.023 150.342 240.261 151.579 241.787 151.579Z" stroke="#09142F" stroke-width="3" stroke-linecap="round" stroke-linejoin="round"/>
<rect x="318.461" y="135" width="48.3564" height="48.3564" rx="10" fill="#465770"/>
<path d="M353.74 162.535C353.74 159.25 349.895 157.553 347.474 159.628L347.244 159.84C344.841 162.233 346.529 166.336 349.921 166.345H349.931C352.038 166.345 353.74 164.641 353.74 162.54V162.535ZM352.995 148.619C352.989 149.739 352.371 150.755 351.393 151.276V154.518C353.8 154.956 355.892 156.454 357.073 158.606C358.287 160.81 358.415 163.448 357.42 165.758C356.492 167.925 354.672 169.57 352.448 170.296L351.998 170.43C349.636 171.049 347.126 170.572 345.151 169.148L342.474 171.826C342.529 172.04 342.562 172.263 342.566 172.486V172.491C342.566 175.004 339.523 176.261 337.744 174.488H337.743C335.964 172.709 337.229 169.666 339.74 169.666H339.75C339.97 169.67 340.189 169.701 340.402 169.755L343.119 167.043C342.316 165.835 341.823 164.401 341.762 162.861L341.756 162.534C341.751 161.01 342.18 159.518 342.986 158.226L333.552 150.885C330.374 152.535 327.067 148.697 329.297 145.781L329.516 145.519C331.811 142.996 336.094 145.161 335.336 148.562L344.965 156.061C345.99 155.276 347.191 154.747 348.46 154.521V151.272C347.483 150.749 346.862 149.734 346.857 148.618V148.532C346.863 146.861 348.216 145.514 349.886 145.509H349.972C351.643 145.514 352.99 146.868 352.995 148.532V148.619Z" fill="#09142F" stroke="#09142F" stroke-width="0.5"/>
<rect x="529.039" y="153.65" width="48.3564" height="48.3564" rx="10" transform="rotate(50.2573 529.039 153.65)" fill="#465770"/>
<g clip-path="url(#clip1_347_1967)">
<path d="M514.517 196.187C514.308 195.898 513.907 195.309 513.72 194.998L513.628 194.844L516.813 192.186L519.998 189.528L515.867 189.148L511.735 188.768L511.717 188.398C511.669 187.407 511.723 186.442 511.882 185.421C511.928 185.122 512.074 184.41 512.13 184.213L512.173 184.061L516.311 184.442L520.449 184.822L517.788 181.622L515.127 178.422L515.381 178.144C516.256 177.182 517.018 176.55 518.368 175.665L518.748 175.417L521.422 178.596L524.078 181.79L524.457 177.668C524.666 175.4 524.843 173.54 524.85 173.534C524.87 173.517 525.571 173.488 525.915 173.489C526.992 173.492 528.131 173.627 529.185 173.875L529.545 173.96L529.165 178.092L528.785 182.223L531.979 179.577L535.173 176.93L535.316 177.058C535.976 177.64 536.681 178.399 537.187 179.071C537.511 179.501 537.861 180.014 538.09 180.393L538.189 180.557L535.004 183.215L531.819 185.872L535.951 186.252L540.082 186.633L540.1 187.003C540.164 188.329 540.044 189.66 539.744 190.946C539.698 191.149 539.652 191.321 539.645 191.327C539.645 191.327 537.784 191.168 535.525 190.96C533.267 190.753 531.413 190.588 531.405 190.594C531.405 190.594 532.579 192.043 534.037 193.795L536.686 196.982L536.432 197.261C535.943 197.798 535.621 198.103 534.989 198.629C534.356 199.155 533.997 199.416 533.379 199.799L533.059 199.998L530.398 196.798L527.737 193.598L527.357 197.735L526.976 201.871L526.897 201.88C526.853 201.886 526.677 201.896 526.505 201.903C525.212 201.955 523.896 201.828 522.63 201.529L522.269 201.444L522.65 197.312L523.03 193.181L519.836 195.827L516.641 198.474L516.498 198.346C515.79 197.721 515.09 196.96 514.515 196.19L514.517 196.187ZM523.742 190.596C524.171 191.023 524.782 191.499 525.288 191.804L525.522 191.945L525.676 191.889C526.154 191.718 526.833 191.38 527.344 191.059C527.718 190.824 528.649 190.05 528.948 189.725C529.357 189.281 529.813 188.675 530.069 188.237L530.152 188.096L530.056 187.84C529.849 187.283 529.502 186.618 529.139 186.078C529.057 185.942 528.825 185.656 528.638 185.431C528.45 185.205 528.197 184.937 528.093 184.82C527.628 184.364 527.037 183.902 526.528 183.597L526.294 183.456L526.14 183.511C525.661 183.683 524.981 184.022 524.472 184.342C524.135 184.554 523.205 185.317 522.933 185.606C522.515 186.05 522.121 186.561 521.814 187.059L521.663 187.304L521.732 187.491C522.146 188.621 522.852 189.711 523.742 190.596Z" fill="#09142F"/>
</g>
<rect x="408.266" y="135" width="48.3564" height="48.3564" rx="10" fill="#465770"/>
<path d="M429.768 149.984C430.852 148.9 432.319 148.199 433.977 148.199C436.145 148.199 438.058 149.41 439.078 151.196C439.971 150.813 440.927 150.558 441.948 150.558C445.901 150.558 449.09 153.746 449.09 157.7C449.09 161.654 445.901 164.842 441.948 164.842C441.438 164.842 440.991 164.778 440.545 164.714C439.652 166.309 437.93 167.393 435.954 167.393C435.125 167.393 434.36 167.201 433.658 166.882C432.765 168.987 430.661 170.453 428.174 170.453C425.623 170.453 423.392 168.859 422.563 166.564C422.18 166.627 421.797 166.691 421.415 166.691C418.354 166.691 415.867 164.204 415.867 161.143C415.867 159.103 416.951 157.317 418.609 156.361C418.29 155.596 418.099 154.703 418.099 153.81C418.099 150.303 420.969 147.434 424.539 147.434C426.771 147.497 428.621 148.454 429.768 149.984Z" fill="#09142F"/>
<path d="M694.99 298.011C713.425 291.111 722.757 270.574 715.817 252.118C708.918 233.703 688.366 224.371 669.951 231.277C651.523 238.197 642.203 258.734 649.104 277.169C656.016 295.605 676.568 304.944 694.99 298.011Z" fill="#465770"/>
<path d="M720.813 435.614V340.072C720.57 325.596 708.623 314.068 694.147 314.325C679.665 314.574 668.115 326.495 668.366 340.977V427.147L611.728 437.486C599.618 439.541 589.873 448.008 589.812 460.882L591.536 547.2C591.503 557.255 599.632 565.473 609.722 565.528C619.798 565.541 628.009 557.419 628.049 547.336L633.353 479.569H682.145C709.542 479.499 720.894 462.997 720.813 435.614Z" fill="#465770"/>
<path d="M764.486 383.985C757.018 382.383 749.673 387.167 748.085 394.648L733.34 464.113C732.204 469.005 730.738 472.878 729.088 475.905C726.54 480.433 723.83 483.135 719.756 485.454C715.694 487.711 709.869 489.428 701.637 490.069C699.461 490.251 697.136 490.38 694.65 490.4H655.631C647.981 490.522 641.906 496.867 642.033 504.511C642.162 512.154 648.467 518.236 656.117 518.114H694.933C697.988 518.087 700.961 517.891 703.834 517.675C711.125 517.08 717.869 515.83 724.155 513.654C733.562 510.438 741.874 504.875 747.956 497.28C754.092 489.718 757.923 480.567 760.302 470.39L760.343 470.228L775.156 400.386C776.745 392.904 771.967 385.552 764.486 383.985Z" fill="#465770"/>
<path d="M587.117 378.902C592.589 378.902 597.024 374.467 597.024 368.995V368.995C597.024 363.524 592.589 359.088 587.117 359.088H532.191C528.094 359.088 524.411 356.589 522.898 352.782L502.612 301.74C500.592 296.657 494.834 294.173 489.75 296.192V296.192C484.663 298.211 482.178 303.973 484.2 309.059L509.456 372.596C510.97 376.403 514.652 378.902 518.749 378.902H587.117Z" fill="#465770"/>
<path d="M624.704 398.619C624.704 393.096 620.227 388.619 614.704 388.619H489.067C484.991 388.619 481.688 391.923 481.688 395.998V395.998V416.272V558.999C481.688 564.522 486.165 568.999 491.687 568.999H497.063C502.586 568.999 507.063 564.522 507.063 558.999V426.272C507.063 420.749 511.54 416.272 517.063 416.272H614.704C620.227 416.272 624.704 411.795 624.704 406.272V398.619Z" fill="#465770"/>
<path d="M550.661 186.067C550.696 186.049 550.73 186.091 550.706 186.121C549.441 187.7 549.24 189.881 550.196 191.664C550.214 191.699 550.172 191.734 550.142 191.709C548.563 190.444 546.382 190.243 544.598 191.199C544.564 191.217 544.529 191.175 544.554 191.145C545.819 189.566 546.02 187.385 545.064 185.602C545.046 185.567 545.087 185.532 545.118 185.557C546.697 186.822 548.878 187.023 550.661 186.067Z" fill="#A8CDFF" stroke="#A8CDFF"/>
<path d="M264.965 142.029C264.973 141.99 265.027 141.99 265.035 142.029C265.44 144.011 266.989 145.56 268.971 145.965C269.01 145.973 269.01 146.027 268.971 146.035C266.989 146.44 265.44 147.989 265.035 149.971C265.027 150.01 264.973 150.01 264.965 149.971C264.56 147.989 263.011 146.44 261.029 146.035C260.99 146.027 260.99 145.973 261.029 145.965C263.011 145.56 264.56 144.011 264.965 142.029Z" fill="#A8CDFF" stroke="#A8CDFF"/>
<path d="M357.965 139.029C357.973 138.99 358.027 138.99 358.035 139.029C358.44 141.011 359.989 142.56 361.971 142.965C362.01 142.973 362.01 143.027 361.971 143.035C359.989 143.44 358.44 144.989 358.035 146.971C358.027 147.01 357.973 147.01 357.965 146.971C357.56 144.989 356.011 143.44 354.029 143.035C353.99 143.027 353.99 142.973 354.029 142.965C356.011 142.56 357.56 141.011 357.965 139.029Z" fill="#A8CDFF" stroke="#A8CDFF"/>
<path d="M447.965 139.029C447.973 138.99 448.027 138.99 448.035 139.029C448.44 141.011 449.989 142.56 451.971 142.965C452.01 142.973 452.01 143.027 451.971 143.035C449.989 143.44 448.44 144.989 448.035 146.971C448.027 147.01 447.973 147.01 447.965 146.971C447.56 144.989 446.011 143.44 444.029 143.035C443.99 143.027 443.99 142.973 444.029 142.965C446.011 142.56 447.56 141.011 447.965 139.029Z" fill="#A8CDFF" stroke="#A8CDFF"/>
<path d="M176.965 138.029C176.973 137.99 177.027 137.99 177.035 138.029C177.44 140.011 178.989 141.56 180.971 141.965C181.01 141.973 181.01 142.027 180.971 142.035C178.989 142.44 177.44 143.989 177.035 145.971C177.027 146.01 176.973 146.01 176.965 145.971C176.56 143.989 175.011 142.44 173.029 142.035C172.99 142.027 172.99 141.973 173.029 141.965C175.011 141.56 176.56 140.011 176.965 138.029Z" fill="#A8CDFF" stroke="#A8CDFF"/>
<path d="M88.9649 139.029C88.9727 138.99 89.0273 138.99 89.0351 139.029C89.4402 141.011 90.9892 142.56 92.9714 142.965C93.0095 142.973 93.0095 143.027 92.9714 143.035C90.9892 143.44 89.4402 144.989 89.0351 146.971C89.0273 147.01 88.9727 147.01 88.9649 146.971C88.5598 144.989 87.0108 143.44 85.0286 143.035C84.9905 143.027 84.9905 142.973 85.0286 142.965C87.0108 142.56 88.5598 141.011 88.9649 139.029Z" fill="#A8CDFF" stroke="#A8CDFF"/>
<defs>
<clipPath id="clip0_347_1967">
<rect width="30" height="29" fill="white" transform="translate(148 145)"/>
</clipPath>
<clipPath id="clip1_347_1967">
<rect width="33.1587" height="33.1587" fill="white" transform="translate(528.055 164.352) rotate(50.2573)"/>
</clipPath>
</defs>
</svg>
