<svg width="439" height="439" viewBox="0 0 439 439" fill="none" xmlns="http://www.w3.org/2000/svg">
<g filter="url(#filter0_d_361_2271)">
<circle cx="219.5" cy="219.5" r="185.5" fill="#A1BCD1" fill-opacity="0.4" shape-rendering="crispEdges"/>
<circle cx="219.5" cy="219.5" r="185" stroke="#A1BCD1" stroke-opacity="0.7" shape-rendering="crispEdges"/>
</g>
<circle cx="247.18" cy="246.867" r="23.4366" transform="rotate(45 247.18 246.867)" fill="#A1BCD1" stroke="#A1BCD1"/>
<path d="M278.402 193.468C278.402 193.468 278.808 200.526 276.449 206.488C273.865 213.018 271.259 215.62 271.259 215.62L275.165 219.526L289.812 204.879L278.402 193.468Z" fill="#A1BCD1" stroke="#A1BCD1"/>
<path d="M248.479 223.43C248.479 223.43 255.863 223.512 261.825 221.153C268.355 218.568 270.957 215.963 270.957 215.963L274.863 219.869L260.216 234.516L248.479 223.43Z" fill="#A1BCD1" stroke="#A1BCD1"/>
<circle cx="23.9366" cy="23.9366" r="23.4366" transform="matrix(-0.707107 -0.707107 -0.707107 0.707107 335.719 192.182)" fill="#A1BCD1" stroke="#A1BCD1"/>
<circle cx="23.9366" cy="23.9366" r="23.4366" transform="matrix(-0.707107 -0.707107 -0.707107 0.707107 281.039 246.865)" fill="#A1BCD1" stroke="#A1BCD1"/>
<path d="M300.583 215.635C300.583 215.635 293.524 215.229 287.563 217.588C281.033 220.173 278.431 222.778 278.431 222.778L274.525 218.872L289.172 204.225L300.583 215.635Z" fill="#A1BCD1" stroke="#A1BCD1"/>
<path d="M270.615 245.562C270.615 245.562 270.533 238.178 272.892 232.216C275.477 225.686 278.082 223.084 278.082 223.084L274.176 219.178L259.529 233.825L270.615 245.562Z" fill="#A1BCD1" stroke="#A1BCD1"/>
<circle cx="23.9366" cy="23.9366" r="23.4366" transform="matrix(0.707107 -0.707107 -0.707107 -0.707107 247.18 171.348)" fill="#A1BCD1" stroke="#A1BCD1"/>
<path d="M278.402 190.899C278.402 190.899 278.808 183.841 276.449 177.879C273.865 171.35 271.259 168.747 271.259 168.747L275.165 164.841L289.812 179.488L278.402 190.899Z" fill="#A1BCD1" stroke="#A1BCD1"/>
<path d="M248.479 160.935C248.479 160.935 255.863 160.853 261.825 163.213C268.355 165.797 270.957 168.402 270.957 168.402L274.863 164.496L260.216 149.849L248.479 160.935Z" fill="#A1BCD1" stroke="#A1BCD1"/>
<circle cx="247.18" cy="137.496" r="23.4366" transform="rotate(135 247.18 137.496)" fill="#A1BCD1" stroke="#A1BCD1"/>
<path d="M300.583 168.728C300.583 168.728 293.524 169.134 287.563 166.775C281.033 164.191 278.431 161.585 278.431 161.585L274.525 165.491L289.172 180.139L300.583 168.728Z" fill="#A1BCD1" stroke="#A1BCD1"/>
<path d="M270.615 138.801C270.615 138.801 270.533 146.186 272.892 152.147C275.477 158.677 278.082 161.28 278.082 161.28L274.176 165.186L259.529 150.538L270.615 138.801Z" fill="#A1BCD1" stroke="#A1BCD1"/>
<path d="M271.258 216.271C271.258 216.271 279.395 205.53 278.419 191.534C277.442 177.538 274.187 172.981 274.187 172.981" stroke="#A1BCD1"/>
<path d="M260.841 222.116C261.786 222.024 266.411 219.916 269.961 216.264C272.097 214.067 273.422 210.889 274.511 208.445C276.708 203.516 278.096 197.719 277.769 192.835C277.623 190.647 277.929 185.001 276.467 180.466C275.917 178.758 275.56 177.13 274.84 175.584C273.208 172.079 270.782 169.573 270.283 169.074C267.415 166.206 265.188 164.564 261.495 162.89" stroke="#A1BCD1"/>
<rect width="4.6032" height="1.84128" transform="matrix(-0.707107 -0.707107 -0.707107 0.707107 272.562 169.4)" fill="#A1BCD1"/>
<circle cx="23.9366" cy="23.9366" r="23.4366" transform="matrix(-0.707107 -0.707107 -0.707107 0.707107 171.008 192.84)" fill="#09142F" stroke="#09142F"/>
<path d="M190.559 161.612C190.559 161.612 183.501 161.206 177.539 163.565C171.01 166.149 168.407 168.754 168.407 168.754L164.501 164.848L179.148 150.201L190.559 161.612Z" fill="#09142F" stroke="#09142F"/>
<path d="M160.591 191.538C160.591 191.538 160.51 184.154 162.869 178.192C165.453 171.663 168.058 169.06 168.058 169.06L164.152 165.154L149.505 179.801L160.591 191.538Z" fill="#09142F" stroke="#09142F"/>
<circle cx="191.836" cy="138.158" r="23.4366" transform="rotate(45 191.836 138.158)" fill="#09142F" stroke="#09142F"/>
<circle cx="137.148" cy="192.842" r="23.4366" transform="rotate(45 137.148 192.842)" fill="#09142F" stroke="#09142F"/>
<path d="M168.37 139.441C168.37 139.441 168.777 146.499 166.417 152.461C163.833 158.99 161.228 161.593 161.228 161.593L165.134 165.499L179.781 150.852L168.37 139.441Z" fill="#09142F" stroke="#09142F"/>
<path d="M138.448 169.405C138.448 169.405 145.832 169.486 151.794 167.127C158.324 164.543 160.926 161.938 160.926 161.938L164.832 165.844L150.185 180.491L138.448 169.405Z" fill="#09142F" stroke="#09142F"/>
<circle cx="246.516" cy="192.84" r="23.4366" transform="rotate(-45 246.516 192.84)" fill="#09142F" stroke="#09142F"/>
<path d="M193.105 161.612C193.105 161.612 200.163 161.206 206.125 163.565C212.654 166.149 215.257 168.754 215.257 168.754L219.163 164.848L204.516 150.201L193.105 161.612Z" fill="#09142F" stroke="#09142F"/>
<path d="M223.081 191.538C223.081 191.538 223.162 184.154 220.803 178.192C218.219 171.663 215.613 169.06 215.613 169.06L219.519 165.154L234.167 179.801L223.081 191.538Z" fill="#09142F" stroke="#09142F"/>
<circle cx="23.9366" cy="23.9366" r="23.4366" transform="matrix(-0.707107 0.707107 0.707107 0.707107 246.523 158.99)" fill="#09142F" stroke="#09142F"/>
<path d="M215.294 139.439C215.294 139.439 214.887 146.497 217.247 152.459C219.831 158.988 222.436 161.591 222.436 161.591L218.53 165.497L203.883 150.85L215.294 139.439Z" fill="#09142F" stroke="#09142F"/>
<path d="M245.216 169.403C245.216 169.403 237.832 169.485 231.87 167.125C225.341 164.541 222.738 161.936 222.738 161.936L218.832 165.842L233.479 180.489L245.216 169.403Z" fill="#09142F" stroke="#09142F"/>
<path d="M167.75 168.752C167.75 168.752 178.491 160.615 192.488 161.591C206.484 162.568 211.041 165.823 211.041 165.823" stroke="#09142F"/>
<path d="M161.909 179.169C162.002 178.224 164.11 173.599 167.761 170.049C169.958 167.912 173.136 166.588 175.58 165.499C180.509 163.302 186.307 161.914 191.19 162.24C193.379 162.387 199.025 162.081 203.559 163.542C205.268 164.093 206.896 164.45 208.441 165.17C211.946 166.801 214.452 169.228 214.951 169.727C217.819 172.595 219.461 174.821 221.136 178.515" stroke="#09142F"/>
<rect x="214.625" y="167.451" width="4.6032" height="1.84128" transform="rotate(45 214.625 167.451)" fill="#09142F"/>
<circle cx="191.18" cy="193.488" r="23.4366" transform="rotate(-135 191.18 193.488)" fill="#A1BCD1" stroke="#A1BCD1"/>
<path d="M159.95 246.891C159.95 246.891 159.543 239.833 161.903 233.871C164.487 227.342 167.092 224.739 167.092 224.739L163.186 220.833L148.539 235.48L159.95 246.891Z" fill="#A1BCD1" stroke="#A1BCD1"/>
<path d="M189.872 216.927C189.872 216.927 182.488 216.846 176.526 219.205C169.997 221.789 167.394 224.394 167.394 224.394L163.488 220.488L178.135 205.841L189.872 216.927Z" fill="#A1BCD1" stroke="#A1BCD1"/>
<circle cx="23.9366" cy="23.9366" r="23.4366" transform="matrix(0.707107 0.707107 0.707107 -0.707107 102.641 248.174)" fill="#A1BCD1" stroke="#A1BCD1"/>
<circle cx="23.9366" cy="23.9366" r="23.4366" transform="matrix(0.707107 0.707107 0.707107 -0.707107 157.328 193.49)" fill="#A1BCD1" stroke="#A1BCD1"/>
<path d="M137.777 224.72C137.777 224.72 144.835 225.126 150.796 222.767C157.326 220.183 159.929 217.578 159.929 217.578L163.835 221.484L149.188 236.131L137.777 224.72Z" fill="#A1BCD1" stroke="#A1BCD1"/>
<path d="M167.745 194.792C167.745 194.792 167.826 202.176 165.467 208.138C162.883 214.667 160.278 217.27 160.278 217.27L164.183 221.176L178.831 206.529L167.745 194.792Z" fill="#A1BCD1" stroke="#A1BCD1"/>
<circle cx="23.9366" cy="23.9366" r="23.4366" transform="matrix(-0.707107 0.707107 0.707107 0.707107 191.172 269.004)" fill="#A1BCD1" stroke="#A1BCD1"/>
<path d="M159.942 249.456C159.942 249.456 159.536 256.515 161.895 262.476C164.479 269.006 167.084 271.609 167.084 271.609L163.179 275.514L148.531 260.867L159.942 249.456Z" fill="#A1BCD1" stroke="#A1BCD1"/>
<path d="M189.865 279.419C189.865 279.419 182.48 279.5 176.519 277.141C169.989 274.557 167.386 271.951 167.386 271.951L163.48 275.857L178.128 290.505L189.865 279.419Z" fill="#A1BCD1" stroke="#A1BCD1"/>
<circle cx="191.164" cy="302.855" r="23.4366" transform="rotate(-45 191.164 302.855)" fill="#A1BCD1" stroke="#A1BCD1"/>
<path d="M137.761 271.626C137.761 271.626 144.819 271.219 150.781 273.579C157.311 276.163 159.913 278.768 159.913 278.768L163.819 274.862L149.172 260.215L137.761 271.626Z" fill="#A1BCD1" stroke="#A1BCD1"/>
<path d="M167.729 301.552C167.729 301.552 167.811 294.168 165.451 288.206C162.867 281.676 160.262 279.074 160.262 279.074L164.168 275.168L178.815 289.815L167.729 301.552Z" fill="#A1BCD1" stroke="#A1BCD1"/>
<path d="M167.109 224.088C167.109 224.088 158.972 234.829 159.949 248.826C160.925 262.822 164.18 267.379 164.18 267.379" stroke="#A1BCD1"/>
<path d="M177.519 218.241C176.574 218.334 171.948 220.442 168.398 224.093C166.262 226.29 164.938 229.468 163.848 231.912C161.652 236.841 160.264 242.639 160.59 247.522C160.736 249.711 160.43 255.357 161.892 259.891C162.443 261.6 162.8 263.228 163.519 264.773C165.151 268.278 167.577 270.784 168.076 271.283C170.944 274.151 173.171 275.793 176.865 277.468" stroke="#A1BCD1"/>
<rect width="4.6032" height="1.84128" transform="matrix(0.707107 0.707107 0.707107 -0.707107 165.797 270.957)" fill="#A1BCD1"/>
<circle cx="23.9366" cy="23.9366" r="23.4366" transform="matrix(0.707107 0.707107 0.707107 -0.707107 267.992 248.174)" fill="#09142F" stroke="#09142F"/>
<path d="M248.449 279.404C248.449 279.404 255.507 279.81 261.468 277.451C267.998 274.866 270.601 272.261 270.601 272.261L274.507 276.167L259.859 290.814L248.449 279.404Z" fill="#09142F" stroke="#09142F"/>
<path d="M278.417 249.477C278.417 249.477 278.498 256.862 276.139 262.823C273.555 269.353 270.949 271.956 270.949 271.956L274.855 275.861L289.503 261.214L278.417 249.477Z" fill="#09142F" stroke="#09142F"/>
<circle cx="247.172" cy="302.857" r="23.4366" transform="rotate(-135 247.172 302.857)" fill="#09142F" stroke="#09142F"/>
<circle cx="301.859" cy="248.174" r="23.4366" transform="rotate(-135 301.859 248.174)" fill="#09142F" stroke="#09142F"/>
<path d="M270.637 301.573C270.637 301.573 270.231 294.515 272.59 288.553C275.175 282.023 277.78 279.421 277.78 279.421L273.874 275.515L259.227 290.162L270.637 301.573Z" fill="#09142F" stroke="#09142F"/>
<path d="M300.56 271.611C300.56 271.611 293.176 271.529 287.214 273.889C280.684 276.473 278.082 279.078 278.082 279.078L274.176 275.172L288.823 260.525L300.56 271.611Z" fill="#09142F" stroke="#09142F"/>
<circle cx="192.492" cy="248.174" r="23.4366" transform="rotate(135 192.492 248.174)" fill="#09142F" stroke="#09142F"/>
<path d="M245.903 279.404C245.903 279.404 238.845 279.81 232.883 277.451C226.354 274.866 223.751 272.261 223.751 272.261L219.845 276.167L234.492 290.814L245.903 279.404Z" fill="#09142F" stroke="#09142F"/>
<path d="M215.927 249.477C215.927 249.477 215.846 256.862 218.205 262.823C220.789 269.353 223.394 271.956 223.394 271.956L219.488 275.861L204.841 261.214L215.927 249.477Z" fill="#09142F" stroke="#09142F"/>
<circle cx="23.9366" cy="23.9366" r="23.4366" transform="matrix(0.707107 -0.707107 -0.707107 -0.707107 192.484 282.025)" fill="#09142F" stroke="#09142F"/>
<path d="M223.714 301.575C223.714 301.575 224.121 294.517 221.761 288.555C219.177 282.025 216.572 279.423 216.572 279.423L220.478 275.517L235.125 290.164L223.714 301.575Z" fill="#09142F" stroke="#09142F"/>
<path d="M193.792 271.613C193.792 271.613 201.176 271.531 207.138 273.89C213.667 276.475 216.27 279.08 216.27 279.08L220.176 275.174L205.529 260.527L193.792 271.613Z" fill="#09142F" stroke="#09142F"/>
<path d="M271.258 272.26C271.258 272.26 260.516 280.397 246.52 279.421C232.524 278.444 227.967 275.189 227.967 275.189" stroke="#09142F"/>
<path d="M277.107 261.841C277.014 262.786 274.906 267.411 271.255 270.961C269.058 273.097 265.879 274.422 263.435 275.511C258.506 277.708 252.709 279.096 247.825 278.769C245.637 278.623 239.991 278.929 235.457 277.467C233.748 276.917 232.12 276.56 230.574 275.84C227.069 274.208 224.563 271.782 224.064 271.283C221.197 268.415 219.555 266.188 217.88 262.495" stroke="#09142F"/>
<rect x="224.391" y="273.561" width="4.6032" height="1.84128" transform="rotate(-135 224.391 273.561)" fill="#09142F"/>
<path d="M286.584 319.428C277.432 310.275 277.432 295.436 286.584 286.284C295.737 277.131 310.576 277.131 319.728 286.284C328.881 295.436 328.881 310.275 319.728 319.428C310.576 328.58 295.737 328.58 286.584 319.428Z" fill="#A1BCD1" stroke="#A1BCD1"/>
<path d="M119.279 320.08C110.127 310.928 110.127 296.088 119.279 286.936C128.432 277.783 143.271 277.783 152.424 286.936C161.576 296.088 161.576 310.928 152.424 320.08C143.271 329.233 128.432 329.233 119.279 320.08Z" fill="#09142F" stroke="#09142F"/>
<path d="M120.584 153.424C111.432 144.271 111.432 129.432 120.584 120.28C129.737 111.127 144.576 111.127 153.728 120.28C162.881 129.432 162.881 144.271 153.728 153.424C144.576 162.576 129.737 162.576 120.584 153.424Z" fill="#A1BCD1" stroke="#A1BCD1"/>
<path d="M286.584 154.074C277.432 144.922 277.432 130.083 286.584 120.93C295.737 111.777 310.576 111.777 319.728 120.93C328.881 130.083 328.881 144.922 319.728 154.074C310.576 163.227 295.737 163.227 286.584 154.074Z" fill="#09142F" stroke="#09142F"/>
<defs>
<filter id="filter0_d_361_2271" x="0" y="0" width="439" height="439" filterUnits="userSpaceOnUse" color-interpolation-filters="sRGB">
<feFlood flood-opacity="0" result="BackgroundImageFix"/>
<feColorMatrix in="SourceAlpha" type="matrix" values="0 0 0 0 0 0 0 0 0 0 0 0 0 0 0 0 0 0 127 0" result="hardAlpha"/>
<feMorphology radius="10" operator="dilate" in="SourceAlpha" result="effect1_dropShadow_361_2271"/>
<feOffset/>
<feGaussianBlur stdDeviation="12"/>
<feComposite in2="hardAlpha" operator="out"/>
<feColorMatrix type="matrix" values="0 0 0 0 0.658824 0 0 0 0 0.803922 0 0 0 0 1 0 0 0 0.4 0"/>
<feBlend mode="normal" in2="BackgroundImageFix" result="effect1_dropShadow_361_2271"/>
<feBlend mode="normal" in="SourceGraphic" in2="effect1_dropShadow_361_2271" result="shape"/>
</filter>
</defs>
</svg>
